G04 #@! TF.GenerationSoftware,KiCad,Pcbnew,5.0.2+dfsg1-1~bpo9+1*
G04 #@! TF.CreationDate,2019-06-26T12:15:30+03:00*
G04 #@! TF.ProjectId,SmartDimmer,536d6172-7444-4696-9d6d-65722e6b6963,rev?*
G04 #@! TF.SameCoordinates,Original*
G04 #@! TF.FileFunction,Copper,L1,Top*
G04 #@! TF.FilePolarity,Positive*
%FSLAX46Y46*%
G04 Gerber Fmt 4.6, Leading zero omitted, Abs format (unit mm)*
G04 Created by KiCad (PCBNEW 5.0.2+dfsg1-1~bpo9+1) date Wed 26 Jun 2019 12:15:30 PM +03*
%MOMM*%
%LPD*%
G01*
G04 APERTURE LIST*
G04 #@! TA.AperFunction,ComponentPad*
%ADD10R,1.000000X1.000000*%
G04 #@! TD*
G04 #@! TA.AperFunction,ComponentPad*
%ADD11C,1.524000*%
G04 #@! TD*
G04 #@! TA.AperFunction,ComponentPad*
%ADD12R,1.524000X1.524000*%
G04 #@! TD*
G04 #@! TA.AperFunction,Conductor*
%ADD13C,0.100000*%
G04 #@! TD*
G04 #@! TA.AperFunction,SMDPad,CuDef*
%ADD14C,1.425000*%
G04 #@! TD*
G04 #@! TA.AperFunction,SMDPad,CuDef*
%ADD15C,1.125000*%
G04 #@! TD*
G04 #@! TA.AperFunction,ComponentPad*
%ADD16O,1.727200X1.727200*%
G04 #@! TD*
G04 #@! TA.AperFunction,ComponentPad*
%ADD17R,1.727200X1.727200*%
G04 #@! TD*
G04 #@! TA.AperFunction,ComponentPad*
%ADD18C,2.000000*%
G04 #@! TD*
G04 #@! TA.AperFunction,ComponentPad*
%ADD19C,3.500000*%
G04 #@! TD*
G04 #@! TA.AperFunction,ComponentPad*
%ADD20C,3.000000*%
G04 #@! TD*
G04 #@! TA.AperFunction,ComponentPad*
%ADD21R,3.000000X3.000000*%
G04 #@! TD*
G04 #@! TA.AperFunction,SMDPad,CuDef*
%ADD22R,1.550000X0.600000*%
G04 #@! TD*
G04 #@! TA.AperFunction,ComponentPad*
%ADD23O,1.600000X1.600000*%
G04 #@! TD*
G04 #@! TA.AperFunction,ComponentPad*
%ADD24R,1.600000X1.600000*%
G04 #@! TD*
G04 #@! TA.AperFunction,SMDPad,CuDef*
%ADD25R,0.600000X1.550000*%
G04 #@! TD*
G04 #@! TA.AperFunction,ComponentPad*
%ADD26O,2.000000X1.905000*%
G04 #@! TD*
G04 #@! TA.AperFunction,ComponentPad*
%ADD27R,2.000000X1.905000*%
G04 #@! TD*
G04 #@! TA.AperFunction,ViaPad*
%ADD28C,0.800000*%
G04 #@! TD*
G04 #@! TA.AperFunction,Conductor*
%ADD29C,0.400000*%
G04 #@! TD*
G04 #@! TA.AperFunction,Conductor*
%ADD30C,1.000000*%
G04 #@! TD*
G04 #@! TA.AperFunction,Conductor*
%ADD31C,0.200000*%
G04 #@! TD*
G04 #@! TA.AperFunction,Conductor*
%ADD32C,0.250000*%
G04 #@! TD*
G04 #@! TA.AperFunction,Conductor*
%ADD33C,0.600000*%
G04 #@! TD*
G04 #@! TA.AperFunction,Conductor*
%ADD34C,0.800000*%
G04 #@! TD*
G04 #@! TA.AperFunction,Conductor*
%ADD35C,0.254000*%
G04 #@! TD*
G04 APERTURE END LIST*
D10*
G04 #@! TO.P,J38,1*
G04 #@! TO.N,Net-(J38-Pad1)*
X138265001Y-96992001D03*
G04 #@! TD*
G04 #@! TO.P,J21,1*
G04 #@! TO.N,Net-(J21-Pad1)*
X140195001Y-111534001D03*
G04 #@! TD*
G04 #@! TO.P,J19,1*
G04 #@! TO.N,Net-(J19-Pad1)*
X137045001Y-113884001D03*
G04 #@! TD*
G04 #@! TO.P,J18,1*
G04 #@! TO.N,Net-(J18-Pad1)*
X138265001Y-94642001D03*
G04 #@! TD*
G04 #@! TO.P,J17,1*
G04 #@! TO.N,Net-(J17-Pad1)*
X135115001Y-96992001D03*
G04 #@! TD*
G04 #@! TO.P,J16,1*
G04 #@! TO.N,Net-(J16-Pad1)*
X137045001Y-111534001D03*
G04 #@! TD*
G04 #@! TO.P,J14,1*
G04 #@! TO.N,Net-(J14-Pad1)*
X140142000Y-113850000D03*
G04 #@! TD*
G04 #@! TO.P,J36,1*
G04 #@! TO.N,Net-(J36-Pad1)*
X138265001Y-92292001D03*
G04 #@! TD*
G04 #@! TO.P,J39,1*
G04 #@! TO.N,Net-(J39-Pad1)*
X135115001Y-94642001D03*
G04 #@! TD*
G04 #@! TO.P,J40,1*
G04 #@! TO.N,Net-(J40-Pad1)*
X131965001Y-96992001D03*
G04 #@! TD*
G04 #@! TO.P,J13,1*
G04 #@! TO.N,Net-(J13-Pad1)*
X114892999Y-82764999D03*
G04 #@! TD*
G04 #@! TO.P,J12,1*
G04 #@! TO.N,Net-(J12-Pad1)*
X143317000Y-113884001D03*
G04 #@! TD*
G04 #@! TO.P,J11,1*
G04 #@! TO.N,Net-(J11-Pad1)*
X135115001Y-92292001D03*
G04 #@! TD*
G04 #@! TO.P,J10,1*
G04 #@! TO.N,Net-(J10-Pad1)*
X131965001Y-94642001D03*
G04 #@! TD*
G04 #@! TO.P,J15,1*
G04 #@! TO.N,Net-(J15-Pad1)*
X206539001Y-90134001D03*
G04 #@! TD*
G04 #@! TO.P,J20,1*
G04 #@! TO.N,Net-(J20-Pad1)*
X118042999Y-82764999D03*
G04 #@! TD*
G04 #@! TO.P,J22,1*
G04 #@! TO.N,Net-(J22-Pad1)*
X111694000Y-82735000D03*
G04 #@! TD*
G04 #@! TO.P,J23,1*
G04 #@! TO.N,Net-(J23-Pad1)*
X131965001Y-92292001D03*
G04 #@! TD*
G04 #@! TO.P,J24,1*
G04 #@! TO.N,Net-(J24-Pad1)*
X206539001Y-87784001D03*
G04 #@! TD*
G04 #@! TO.P,J25,1*
G04 #@! TO.N,Net-(J25-Pad1)*
X203389001Y-90134001D03*
G04 #@! TD*
G04 #@! TO.P,J26,1*
G04 #@! TO.N,Net-(J26-Pad1)*
X121192999Y-82764999D03*
G04 #@! TD*
G04 #@! TO.P,J27,1*
G04 #@! TO.N,Net-(J27-Pad1)*
X143317000Y-111564000D03*
G04 #@! TD*
G04 #@! TO.P,J28,1*
G04 #@! TO.N,Net-(J28-Pad1)*
X206539001Y-85434001D03*
G04 #@! TD*
G04 #@! TO.P,J29,1*
G04 #@! TO.N,Net-(J29-Pad1)*
X203389001Y-87784001D03*
G04 #@! TD*
G04 #@! TO.P,J30,1*
G04 #@! TO.N,Net-(J30-Pad1)*
X200239001Y-90134001D03*
G04 #@! TD*
G04 #@! TO.P,J31,1*
G04 #@! TO.N,Net-(J31-Pad1)*
X124342999Y-82764999D03*
G04 #@! TD*
G04 #@! TO.P,J32,1*
G04 #@! TO.N,Net-(J32-Pad1)*
X203389001Y-85434001D03*
G04 #@! TD*
G04 #@! TO.P,J33,1*
G04 #@! TO.N,Net-(J33-Pad1)*
X200239001Y-87784001D03*
G04 #@! TD*
G04 #@! TO.P,J34,1*
G04 #@! TO.N,Net-(J34-Pad1)*
X197089001Y-90134001D03*
G04 #@! TD*
G04 #@! TO.P,J35,1*
G04 #@! TO.N,Net-(J35-Pad1)*
X200239001Y-85434001D03*
G04 #@! TD*
G04 #@! TO.P,J37,1*
G04 #@! TO.N,Net-(J37-Pad1)*
X197089001Y-87784001D03*
G04 #@! TD*
G04 #@! TO.P,J9,1*
G04 #@! TO.N,Net-(J9-Pad1)*
X197089001Y-85434001D03*
G04 #@! TD*
D11*
G04 #@! TO.P,DC-DC1,4*
G04 #@! TO.N,GNDA*
X219009000Y-67876000D03*
X219009000Y-70416000D03*
D12*
G04 #@! TO.P,DC-DC1,3*
G04 #@! TO.N,+5V*
X219009000Y-78544000D03*
X219009000Y-81084000D03*
D11*
G04 #@! TO.P,DC-DC1,1*
G04 #@! TO.N,GNDA*
X200467000Y-67749000D03*
X200467000Y-70289000D03*
D12*
G04 #@! TO.P,DC-DC1,2*
G04 #@! TO.N,VCC*
X200467000Y-80957000D03*
X200467000Y-78417000D03*
G04 #@! TD*
D11*
G04 #@! TO.P,U2,3*
G04 #@! TO.N,Net-(U2-Pad3)*
X186100000Y-111093000D03*
G04 #@! TO.P,U2,4*
G04 #@! TO.N,GNDA*
X188600000Y-111093000D03*
G04 #@! TO.P,U2,1*
G04 #@! TO.N,+5V*
X181100000Y-111093000D03*
G04 #@! TO.P,U2,2*
G04 #@! TO.N,Net-(U2-Pad2)*
X183600000Y-111093000D03*
G04 #@! TO.P,U2,4*
G04 #@! TO.N,GNDA*
X188600000Y-110093000D03*
G04 #@! TO.P,U2,3*
G04 #@! TO.N,Net-(U2-Pad3)*
X186100000Y-110093000D03*
G04 #@! TO.P,U2,2*
G04 #@! TO.N,Net-(U2-Pad2)*
X183600000Y-110093000D03*
G04 #@! TO.P,U2,1*
G04 #@! TO.N,+5V*
X181100000Y-110093000D03*
G04 #@! TO.P,U2,7*
G04 #@! TO.N,Net-(J4-Pad3)*
X190100000Y-69343000D03*
G04 #@! TO.P,U2,6*
G04 #@! TO.N,Net-(J4-Pad2)*
X185100000Y-69343000D03*
G04 #@! TO.P,U2,5*
G04 #@! TO.N,Net-(J4-Pad1)*
X180100000Y-69343000D03*
G04 #@! TD*
D13*
G04 #@! TO.N,Net-(D3-Pad2)*
G04 #@! TO.C,D3*
G36*
X171961504Y-66494204D02*
X171985773Y-66497804D01*
X172009571Y-66503765D01*
X172032671Y-66512030D01*
X172054849Y-66522520D01*
X172075893Y-66535133D01*
X172095598Y-66549747D01*
X172113777Y-66566223D01*
X172130253Y-66584402D01*
X172144867Y-66604107D01*
X172157480Y-66625151D01*
X172167970Y-66647329D01*
X172176235Y-66670429D01*
X172182196Y-66694227D01*
X172185796Y-66718496D01*
X172187000Y-66743000D01*
X172187000Y-67993000D01*
X172185796Y-68017504D01*
X172182196Y-68041773D01*
X172176235Y-68065571D01*
X172167970Y-68088671D01*
X172157480Y-68110849D01*
X172144867Y-68131893D01*
X172130253Y-68151598D01*
X172113777Y-68169777D01*
X172095598Y-68186253D01*
X172075893Y-68200867D01*
X172054849Y-68213480D01*
X172032671Y-68223970D01*
X172009571Y-68232235D01*
X171985773Y-68238196D01*
X171961504Y-68241796D01*
X171937000Y-68243000D01*
X171012000Y-68243000D01*
X170987496Y-68241796D01*
X170963227Y-68238196D01*
X170939429Y-68232235D01*
X170916329Y-68223970D01*
X170894151Y-68213480D01*
X170873107Y-68200867D01*
X170853402Y-68186253D01*
X170835223Y-68169777D01*
X170818747Y-68151598D01*
X170804133Y-68131893D01*
X170791520Y-68110849D01*
X170781030Y-68088671D01*
X170772765Y-68065571D01*
X170766804Y-68041773D01*
X170763204Y-68017504D01*
X170762000Y-67993000D01*
X170762000Y-66743000D01*
X170763204Y-66718496D01*
X170766804Y-66694227D01*
X170772765Y-66670429D01*
X170781030Y-66647329D01*
X170791520Y-66625151D01*
X170804133Y-66604107D01*
X170818747Y-66584402D01*
X170835223Y-66566223D01*
X170853402Y-66549747D01*
X170873107Y-66535133D01*
X170894151Y-66522520D01*
X170916329Y-66512030D01*
X170939429Y-66503765D01*
X170963227Y-66497804D01*
X170987496Y-66494204D01*
X171012000Y-66493000D01*
X171937000Y-66493000D01*
X171961504Y-66494204D01*
X171961504Y-66494204D01*
G37*
D14*
G04 #@! TD*
G04 #@! TO.P,D3,2*
G04 #@! TO.N,Net-(D3-Pad2)*
X171474500Y-67368000D03*
D13*
G04 #@! TO.N,Net-(D3-Pad1)*
G04 #@! TO.C,D3*
G36*
X168986504Y-66494204D02*
X169010773Y-66497804D01*
X169034571Y-66503765D01*
X169057671Y-66512030D01*
X169079849Y-66522520D01*
X169100893Y-66535133D01*
X169120598Y-66549747D01*
X169138777Y-66566223D01*
X169155253Y-66584402D01*
X169169867Y-66604107D01*
X169182480Y-66625151D01*
X169192970Y-66647329D01*
X169201235Y-66670429D01*
X169207196Y-66694227D01*
X169210796Y-66718496D01*
X169212000Y-66743000D01*
X169212000Y-67993000D01*
X169210796Y-68017504D01*
X169207196Y-68041773D01*
X169201235Y-68065571D01*
X169192970Y-68088671D01*
X169182480Y-68110849D01*
X169169867Y-68131893D01*
X169155253Y-68151598D01*
X169138777Y-68169777D01*
X169120598Y-68186253D01*
X169100893Y-68200867D01*
X169079849Y-68213480D01*
X169057671Y-68223970D01*
X169034571Y-68232235D01*
X169010773Y-68238196D01*
X168986504Y-68241796D01*
X168962000Y-68243000D01*
X168037000Y-68243000D01*
X168012496Y-68241796D01*
X167988227Y-68238196D01*
X167964429Y-68232235D01*
X167941329Y-68223970D01*
X167919151Y-68213480D01*
X167898107Y-68200867D01*
X167878402Y-68186253D01*
X167860223Y-68169777D01*
X167843747Y-68151598D01*
X167829133Y-68131893D01*
X167816520Y-68110849D01*
X167806030Y-68088671D01*
X167797765Y-68065571D01*
X167791804Y-68041773D01*
X167788204Y-68017504D01*
X167787000Y-67993000D01*
X167787000Y-66743000D01*
X167788204Y-66718496D01*
X167791804Y-66694227D01*
X167797765Y-66670429D01*
X167806030Y-66647329D01*
X167816520Y-66625151D01*
X167829133Y-66604107D01*
X167843747Y-66584402D01*
X167860223Y-66566223D01*
X167878402Y-66549747D01*
X167898107Y-66535133D01*
X167919151Y-66522520D01*
X167941329Y-66512030D01*
X167964429Y-66503765D01*
X167988227Y-66497804D01*
X168012496Y-66494204D01*
X168037000Y-66493000D01*
X168962000Y-66493000D01*
X168986504Y-66494204D01*
X168986504Y-66494204D01*
G37*
D14*
G04 #@! TD*
G04 #@! TO.P,D3,1*
G04 #@! TO.N,Net-(D3-Pad1)*
X168499500Y-67368000D03*
D13*
G04 #@! TO.N,Net-(D4-Pad1)*
G04 #@! TO.C,D4*
G36*
X169031504Y-60940206D02*
X169055773Y-60943806D01*
X169079571Y-60949767D01*
X169102671Y-60958032D01*
X169124849Y-60968522D01*
X169145893Y-60981135D01*
X169165598Y-60995749D01*
X169183777Y-61012225D01*
X169200253Y-61030404D01*
X169214867Y-61050109D01*
X169227480Y-61071153D01*
X169237970Y-61093331D01*
X169246235Y-61116431D01*
X169252196Y-61140229D01*
X169255796Y-61164498D01*
X169257000Y-61189002D01*
X169257000Y-62439002D01*
X169255796Y-62463506D01*
X169252196Y-62487775D01*
X169246235Y-62511573D01*
X169237970Y-62534673D01*
X169227480Y-62556851D01*
X169214867Y-62577895D01*
X169200253Y-62597600D01*
X169183777Y-62615779D01*
X169165598Y-62632255D01*
X169145893Y-62646869D01*
X169124849Y-62659482D01*
X169102671Y-62669972D01*
X169079571Y-62678237D01*
X169055773Y-62684198D01*
X169031504Y-62687798D01*
X169007000Y-62689002D01*
X168082000Y-62689002D01*
X168057496Y-62687798D01*
X168033227Y-62684198D01*
X168009429Y-62678237D01*
X167986329Y-62669972D01*
X167964151Y-62659482D01*
X167943107Y-62646869D01*
X167923402Y-62632255D01*
X167905223Y-62615779D01*
X167888747Y-62597600D01*
X167874133Y-62577895D01*
X167861520Y-62556851D01*
X167851030Y-62534673D01*
X167842765Y-62511573D01*
X167836804Y-62487775D01*
X167833204Y-62463506D01*
X167832000Y-62439002D01*
X167832000Y-61189002D01*
X167833204Y-61164498D01*
X167836804Y-61140229D01*
X167842765Y-61116431D01*
X167851030Y-61093331D01*
X167861520Y-61071153D01*
X167874133Y-61050109D01*
X167888747Y-61030404D01*
X167905223Y-61012225D01*
X167923402Y-60995749D01*
X167943107Y-60981135D01*
X167964151Y-60968522D01*
X167986329Y-60958032D01*
X168009429Y-60949767D01*
X168033227Y-60943806D01*
X168057496Y-60940206D01*
X168082000Y-60939002D01*
X169007000Y-60939002D01*
X169031504Y-60940206D01*
X169031504Y-60940206D01*
G37*
D14*
G04 #@! TD*
G04 #@! TO.P,D4,1*
G04 #@! TO.N,Net-(D4-Pad1)*
X168544500Y-61814002D03*
D13*
G04 #@! TO.N,Net-(D4-Pad2)*
G04 #@! TO.C,D4*
G36*
X172006504Y-60940206D02*
X172030773Y-60943806D01*
X172054571Y-60949767D01*
X172077671Y-60958032D01*
X172099849Y-60968522D01*
X172120893Y-60981135D01*
X172140598Y-60995749D01*
X172158777Y-61012225D01*
X172175253Y-61030404D01*
X172189867Y-61050109D01*
X172202480Y-61071153D01*
X172212970Y-61093331D01*
X172221235Y-61116431D01*
X172227196Y-61140229D01*
X172230796Y-61164498D01*
X172232000Y-61189002D01*
X172232000Y-62439002D01*
X172230796Y-62463506D01*
X172227196Y-62487775D01*
X172221235Y-62511573D01*
X172212970Y-62534673D01*
X172202480Y-62556851D01*
X172189867Y-62577895D01*
X172175253Y-62597600D01*
X172158777Y-62615779D01*
X172140598Y-62632255D01*
X172120893Y-62646869D01*
X172099849Y-62659482D01*
X172077671Y-62669972D01*
X172054571Y-62678237D01*
X172030773Y-62684198D01*
X172006504Y-62687798D01*
X171982000Y-62689002D01*
X171057000Y-62689002D01*
X171032496Y-62687798D01*
X171008227Y-62684198D01*
X170984429Y-62678237D01*
X170961329Y-62669972D01*
X170939151Y-62659482D01*
X170918107Y-62646869D01*
X170898402Y-62632255D01*
X170880223Y-62615779D01*
X170863747Y-62597600D01*
X170849133Y-62577895D01*
X170836520Y-62556851D01*
X170826030Y-62534673D01*
X170817765Y-62511573D01*
X170811804Y-62487775D01*
X170808204Y-62463506D01*
X170807000Y-62439002D01*
X170807000Y-61189002D01*
X170808204Y-61164498D01*
X170811804Y-61140229D01*
X170817765Y-61116431D01*
X170826030Y-61093331D01*
X170836520Y-61071153D01*
X170849133Y-61050109D01*
X170863747Y-61030404D01*
X170880223Y-61012225D01*
X170898402Y-60995749D01*
X170918107Y-60981135D01*
X170939151Y-60968522D01*
X170961329Y-60958032D01*
X170984429Y-60949767D01*
X171008227Y-60943806D01*
X171032496Y-60940206D01*
X171057000Y-60939002D01*
X171982000Y-60939002D01*
X172006504Y-60940206D01*
X172006504Y-60940206D01*
G37*
D14*
G04 #@! TD*
G04 #@! TO.P,D4,2*
G04 #@! TO.N,Net-(D4-Pad2)*
X171519500Y-61814002D03*
D13*
G04 #@! TO.N,Net-(D2-Pad2)*
G04 #@! TO.C,D2*
G36*
X136511004Y-66494204D02*
X136535273Y-66497804D01*
X136559071Y-66503765D01*
X136582171Y-66512030D01*
X136604349Y-66522520D01*
X136625393Y-66535133D01*
X136645098Y-66549747D01*
X136663277Y-66566223D01*
X136679753Y-66584402D01*
X136694367Y-66604107D01*
X136706980Y-66625151D01*
X136717470Y-66647329D01*
X136725735Y-66670429D01*
X136731696Y-66694227D01*
X136735296Y-66718496D01*
X136736500Y-66743000D01*
X136736500Y-67993000D01*
X136735296Y-68017504D01*
X136731696Y-68041773D01*
X136725735Y-68065571D01*
X136717470Y-68088671D01*
X136706980Y-68110849D01*
X136694367Y-68131893D01*
X136679753Y-68151598D01*
X136663277Y-68169777D01*
X136645098Y-68186253D01*
X136625393Y-68200867D01*
X136604349Y-68213480D01*
X136582171Y-68223970D01*
X136559071Y-68232235D01*
X136535273Y-68238196D01*
X136511004Y-68241796D01*
X136486500Y-68243000D01*
X135561500Y-68243000D01*
X135536996Y-68241796D01*
X135512727Y-68238196D01*
X135488929Y-68232235D01*
X135465829Y-68223970D01*
X135443651Y-68213480D01*
X135422607Y-68200867D01*
X135402902Y-68186253D01*
X135384723Y-68169777D01*
X135368247Y-68151598D01*
X135353633Y-68131893D01*
X135341020Y-68110849D01*
X135330530Y-68088671D01*
X135322265Y-68065571D01*
X135316304Y-68041773D01*
X135312704Y-68017504D01*
X135311500Y-67993000D01*
X135311500Y-66743000D01*
X135312704Y-66718496D01*
X135316304Y-66694227D01*
X135322265Y-66670429D01*
X135330530Y-66647329D01*
X135341020Y-66625151D01*
X135353633Y-66604107D01*
X135368247Y-66584402D01*
X135384723Y-66566223D01*
X135402902Y-66549747D01*
X135422607Y-66535133D01*
X135443651Y-66522520D01*
X135465829Y-66512030D01*
X135488929Y-66503765D01*
X135512727Y-66497804D01*
X135536996Y-66494204D01*
X135561500Y-66493000D01*
X136486500Y-66493000D01*
X136511004Y-66494204D01*
X136511004Y-66494204D01*
G37*
D14*
G04 #@! TD*
G04 #@! TO.P,D2,2*
G04 #@! TO.N,Net-(D2-Pad2)*
X136024000Y-67368000D03*
D13*
G04 #@! TO.N,Net-(D2-Pad1)*
G04 #@! TO.C,D2*
G36*
X139486004Y-66494204D02*
X139510273Y-66497804D01*
X139534071Y-66503765D01*
X139557171Y-66512030D01*
X139579349Y-66522520D01*
X139600393Y-66535133D01*
X139620098Y-66549747D01*
X139638277Y-66566223D01*
X139654753Y-66584402D01*
X139669367Y-66604107D01*
X139681980Y-66625151D01*
X139692470Y-66647329D01*
X139700735Y-66670429D01*
X139706696Y-66694227D01*
X139710296Y-66718496D01*
X139711500Y-66743000D01*
X139711500Y-67993000D01*
X139710296Y-68017504D01*
X139706696Y-68041773D01*
X139700735Y-68065571D01*
X139692470Y-68088671D01*
X139681980Y-68110849D01*
X139669367Y-68131893D01*
X139654753Y-68151598D01*
X139638277Y-68169777D01*
X139620098Y-68186253D01*
X139600393Y-68200867D01*
X139579349Y-68213480D01*
X139557171Y-68223970D01*
X139534071Y-68232235D01*
X139510273Y-68238196D01*
X139486004Y-68241796D01*
X139461500Y-68243000D01*
X138536500Y-68243000D01*
X138511996Y-68241796D01*
X138487727Y-68238196D01*
X138463929Y-68232235D01*
X138440829Y-68223970D01*
X138418651Y-68213480D01*
X138397607Y-68200867D01*
X138377902Y-68186253D01*
X138359723Y-68169777D01*
X138343247Y-68151598D01*
X138328633Y-68131893D01*
X138316020Y-68110849D01*
X138305530Y-68088671D01*
X138297265Y-68065571D01*
X138291304Y-68041773D01*
X138287704Y-68017504D01*
X138286500Y-67993000D01*
X138286500Y-66743000D01*
X138287704Y-66718496D01*
X138291304Y-66694227D01*
X138297265Y-66670429D01*
X138305530Y-66647329D01*
X138316020Y-66625151D01*
X138328633Y-66604107D01*
X138343247Y-66584402D01*
X138359723Y-66566223D01*
X138377902Y-66549747D01*
X138397607Y-66535133D01*
X138418651Y-66522520D01*
X138440829Y-66512030D01*
X138463929Y-66503765D01*
X138487727Y-66497804D01*
X138511996Y-66494204D01*
X138536500Y-66493000D01*
X139461500Y-66493000D01*
X139486004Y-66494204D01*
X139486004Y-66494204D01*
G37*
D14*
G04 #@! TD*
G04 #@! TO.P,D2,1*
G04 #@! TO.N,Net-(D2-Pad1)*
X138999000Y-67368000D03*
D13*
G04 #@! TO.N,Net-(D1-Pad1)*
G04 #@! TO.C,D1*
G36*
X139486004Y-60940206D02*
X139510273Y-60943806D01*
X139534071Y-60949767D01*
X139557171Y-60958032D01*
X139579349Y-60968522D01*
X139600393Y-60981135D01*
X139620098Y-60995749D01*
X139638277Y-61012225D01*
X139654753Y-61030404D01*
X139669367Y-61050109D01*
X139681980Y-61071153D01*
X139692470Y-61093331D01*
X139700735Y-61116431D01*
X139706696Y-61140229D01*
X139710296Y-61164498D01*
X139711500Y-61189002D01*
X139711500Y-62439002D01*
X139710296Y-62463506D01*
X139706696Y-62487775D01*
X139700735Y-62511573D01*
X139692470Y-62534673D01*
X139681980Y-62556851D01*
X139669367Y-62577895D01*
X139654753Y-62597600D01*
X139638277Y-62615779D01*
X139620098Y-62632255D01*
X139600393Y-62646869D01*
X139579349Y-62659482D01*
X139557171Y-62669972D01*
X139534071Y-62678237D01*
X139510273Y-62684198D01*
X139486004Y-62687798D01*
X139461500Y-62689002D01*
X138536500Y-62689002D01*
X138511996Y-62687798D01*
X138487727Y-62684198D01*
X138463929Y-62678237D01*
X138440829Y-62669972D01*
X138418651Y-62659482D01*
X138397607Y-62646869D01*
X138377902Y-62632255D01*
X138359723Y-62615779D01*
X138343247Y-62597600D01*
X138328633Y-62577895D01*
X138316020Y-62556851D01*
X138305530Y-62534673D01*
X138297265Y-62511573D01*
X138291304Y-62487775D01*
X138287704Y-62463506D01*
X138286500Y-62439002D01*
X138286500Y-61189002D01*
X138287704Y-61164498D01*
X138291304Y-61140229D01*
X138297265Y-61116431D01*
X138305530Y-61093331D01*
X138316020Y-61071153D01*
X138328633Y-61050109D01*
X138343247Y-61030404D01*
X138359723Y-61012225D01*
X138377902Y-60995749D01*
X138397607Y-60981135D01*
X138418651Y-60968522D01*
X138440829Y-60958032D01*
X138463929Y-60949767D01*
X138487727Y-60943806D01*
X138511996Y-60940206D01*
X138536500Y-60939002D01*
X139461500Y-60939002D01*
X139486004Y-60940206D01*
X139486004Y-60940206D01*
G37*
D14*
G04 #@! TD*
G04 #@! TO.P,D1,1*
G04 #@! TO.N,Net-(D1-Pad1)*
X138999000Y-61814002D03*
D13*
G04 #@! TO.N,Net-(D1-Pad2)*
G04 #@! TO.C,D1*
G36*
X136511004Y-60940206D02*
X136535273Y-60943806D01*
X136559071Y-60949767D01*
X136582171Y-60958032D01*
X136604349Y-60968522D01*
X136625393Y-60981135D01*
X136645098Y-60995749D01*
X136663277Y-61012225D01*
X136679753Y-61030404D01*
X136694367Y-61050109D01*
X136706980Y-61071153D01*
X136717470Y-61093331D01*
X136725735Y-61116431D01*
X136731696Y-61140229D01*
X136735296Y-61164498D01*
X136736500Y-61189002D01*
X136736500Y-62439002D01*
X136735296Y-62463506D01*
X136731696Y-62487775D01*
X136725735Y-62511573D01*
X136717470Y-62534673D01*
X136706980Y-62556851D01*
X136694367Y-62577895D01*
X136679753Y-62597600D01*
X136663277Y-62615779D01*
X136645098Y-62632255D01*
X136625393Y-62646869D01*
X136604349Y-62659482D01*
X136582171Y-62669972D01*
X136559071Y-62678237D01*
X136535273Y-62684198D01*
X136511004Y-62687798D01*
X136486500Y-62689002D01*
X135561500Y-62689002D01*
X135536996Y-62687798D01*
X135512727Y-62684198D01*
X135488929Y-62678237D01*
X135465829Y-62669972D01*
X135443651Y-62659482D01*
X135422607Y-62646869D01*
X135402902Y-62632255D01*
X135384723Y-62615779D01*
X135368247Y-62597600D01*
X135353633Y-62577895D01*
X135341020Y-62556851D01*
X135330530Y-62534673D01*
X135322265Y-62511573D01*
X135316304Y-62487775D01*
X135312704Y-62463506D01*
X135311500Y-62439002D01*
X135311500Y-61189002D01*
X135312704Y-61164498D01*
X135316304Y-61140229D01*
X135322265Y-61116431D01*
X135330530Y-61093331D01*
X135341020Y-61071153D01*
X135353633Y-61050109D01*
X135368247Y-61030404D01*
X135384723Y-61012225D01*
X135402902Y-60995749D01*
X135422607Y-60981135D01*
X135443651Y-60968522D01*
X135465829Y-60958032D01*
X135488929Y-60949767D01*
X135512727Y-60943806D01*
X135536996Y-60940206D01*
X135561500Y-60939002D01*
X136486500Y-60939002D01*
X136511004Y-60940206D01*
X136511004Y-60940206D01*
G37*
D14*
G04 #@! TD*
G04 #@! TO.P,D1,2*
G04 #@! TO.N,Net-(D1-Pad2)*
X136024000Y-61814002D03*
D13*
G04 #@! TO.N,+5V*
G04 #@! TO.C,L1*
G36*
X162063505Y-121776204D02*
X162087773Y-121779804D01*
X162111572Y-121785765D01*
X162134671Y-121794030D01*
X162156850Y-121804520D01*
X162177893Y-121817132D01*
X162197599Y-121831747D01*
X162215777Y-121848223D01*
X162232253Y-121866401D01*
X162246868Y-121886107D01*
X162259480Y-121907150D01*
X162269970Y-121929329D01*
X162278235Y-121952428D01*
X162284196Y-121976227D01*
X162287796Y-122000495D01*
X162289000Y-122024999D01*
X162289000Y-122650001D01*
X162287796Y-122674505D01*
X162284196Y-122698773D01*
X162278235Y-122722572D01*
X162269970Y-122745671D01*
X162259480Y-122767850D01*
X162246868Y-122788893D01*
X162232253Y-122808599D01*
X162215777Y-122826777D01*
X162197599Y-122843253D01*
X162177893Y-122857868D01*
X162156850Y-122870480D01*
X162134671Y-122880970D01*
X162111572Y-122889235D01*
X162087773Y-122895196D01*
X162063505Y-122898796D01*
X162039001Y-122900000D01*
X159138999Y-122900000D01*
X159114495Y-122898796D01*
X159090227Y-122895196D01*
X159066428Y-122889235D01*
X159043329Y-122880970D01*
X159021150Y-122870480D01*
X159000107Y-122857868D01*
X158980401Y-122843253D01*
X158962223Y-122826777D01*
X158945747Y-122808599D01*
X158931132Y-122788893D01*
X158918520Y-122767850D01*
X158908030Y-122745671D01*
X158899765Y-122722572D01*
X158893804Y-122698773D01*
X158890204Y-122674505D01*
X158889000Y-122650001D01*
X158889000Y-122024999D01*
X158890204Y-122000495D01*
X158893804Y-121976227D01*
X158899765Y-121952428D01*
X158908030Y-121929329D01*
X158918520Y-121907150D01*
X158931132Y-121886107D01*
X158945747Y-121866401D01*
X158962223Y-121848223D01*
X158980401Y-121831747D01*
X159000107Y-121817132D01*
X159021150Y-121804520D01*
X159043329Y-121794030D01*
X159066428Y-121785765D01*
X159090227Y-121779804D01*
X159114495Y-121776204D01*
X159138999Y-121775000D01*
X162039001Y-121775000D01*
X162063505Y-121776204D01*
X162063505Y-121776204D01*
G37*
D15*
G04 #@! TD*
G04 #@! TO.P,L1,1*
G04 #@! TO.N,+5V*
X160589000Y-122337500D03*
D13*
G04 #@! TO.N,+5VA*
G04 #@! TO.C,L1*
G36*
X162063505Y-117501204D02*
X162087773Y-117504804D01*
X162111572Y-117510765D01*
X162134671Y-117519030D01*
X162156850Y-117529520D01*
X162177893Y-117542132D01*
X162197599Y-117556747D01*
X162215777Y-117573223D01*
X162232253Y-117591401D01*
X162246868Y-117611107D01*
X162259480Y-117632150D01*
X162269970Y-117654329D01*
X162278235Y-117677428D01*
X162284196Y-117701227D01*
X162287796Y-117725495D01*
X162289000Y-117749999D01*
X162289000Y-118375001D01*
X162287796Y-118399505D01*
X162284196Y-118423773D01*
X162278235Y-118447572D01*
X162269970Y-118470671D01*
X162259480Y-118492850D01*
X162246868Y-118513893D01*
X162232253Y-118533599D01*
X162215777Y-118551777D01*
X162197599Y-118568253D01*
X162177893Y-118582868D01*
X162156850Y-118595480D01*
X162134671Y-118605970D01*
X162111572Y-118614235D01*
X162087773Y-118620196D01*
X162063505Y-118623796D01*
X162039001Y-118625000D01*
X159138999Y-118625000D01*
X159114495Y-118623796D01*
X159090227Y-118620196D01*
X159066428Y-118614235D01*
X159043329Y-118605970D01*
X159021150Y-118595480D01*
X159000107Y-118582868D01*
X158980401Y-118568253D01*
X158962223Y-118551777D01*
X158945747Y-118533599D01*
X158931132Y-118513893D01*
X158918520Y-118492850D01*
X158908030Y-118470671D01*
X158899765Y-118447572D01*
X158893804Y-118423773D01*
X158890204Y-118399505D01*
X158889000Y-118375001D01*
X158889000Y-117749999D01*
X158890204Y-117725495D01*
X158893804Y-117701227D01*
X158899765Y-117677428D01*
X158908030Y-117654329D01*
X158918520Y-117632150D01*
X158931132Y-117611107D01*
X158945747Y-117591401D01*
X158962223Y-117573223D01*
X158980401Y-117556747D01*
X159000107Y-117542132D01*
X159021150Y-117529520D01*
X159043329Y-117519030D01*
X159066428Y-117510765D01*
X159090227Y-117504804D01*
X159114495Y-117501204D01*
X159138999Y-117500000D01*
X162039001Y-117500000D01*
X162063505Y-117501204D01*
X162063505Y-117501204D01*
G37*
D15*
G04 #@! TD*
G04 #@! TO.P,L1,2*
G04 #@! TO.N,+5VA*
X160589000Y-118062500D03*
D13*
G04 #@! TO.N,Net-(C9-Pad2)*
G04 #@! TO.C,C9*
G36*
X203976504Y-103846204D02*
X204000773Y-103849804D01*
X204024571Y-103855765D01*
X204047671Y-103864030D01*
X204069849Y-103874520D01*
X204090893Y-103887133D01*
X204110598Y-103901747D01*
X204128777Y-103918223D01*
X204145253Y-103936402D01*
X204159867Y-103956107D01*
X204172480Y-103977151D01*
X204182970Y-103999329D01*
X204191235Y-104022429D01*
X204197196Y-104046227D01*
X204200796Y-104070496D01*
X204202000Y-104095000D01*
X204202000Y-105020000D01*
X204200796Y-105044504D01*
X204197196Y-105068773D01*
X204191235Y-105092571D01*
X204182970Y-105115671D01*
X204172480Y-105137849D01*
X204159867Y-105158893D01*
X204145253Y-105178598D01*
X204128777Y-105196777D01*
X204110598Y-105213253D01*
X204090893Y-105227867D01*
X204069849Y-105240480D01*
X204047671Y-105250970D01*
X204024571Y-105259235D01*
X204000773Y-105265196D01*
X203976504Y-105268796D01*
X203952000Y-105270000D01*
X202702000Y-105270000D01*
X202677496Y-105268796D01*
X202653227Y-105265196D01*
X202629429Y-105259235D01*
X202606329Y-105250970D01*
X202584151Y-105240480D01*
X202563107Y-105227867D01*
X202543402Y-105213253D01*
X202525223Y-105196777D01*
X202508747Y-105178598D01*
X202494133Y-105158893D01*
X202481520Y-105137849D01*
X202471030Y-105115671D01*
X202462765Y-105092571D01*
X202456804Y-105068773D01*
X202453204Y-105044504D01*
X202452000Y-105020000D01*
X202452000Y-104095000D01*
X202453204Y-104070496D01*
X202456804Y-104046227D01*
X202462765Y-104022429D01*
X202471030Y-103999329D01*
X202481520Y-103977151D01*
X202494133Y-103956107D01*
X202508747Y-103936402D01*
X202525223Y-103918223D01*
X202543402Y-103901747D01*
X202563107Y-103887133D01*
X202584151Y-103874520D01*
X202606329Y-103864030D01*
X202629429Y-103855765D01*
X202653227Y-103849804D01*
X202677496Y-103846204D01*
X202702000Y-103845000D01*
X203952000Y-103845000D01*
X203976504Y-103846204D01*
X203976504Y-103846204D01*
G37*
D14*
G04 #@! TD*
G04 #@! TO.P,C9,2*
G04 #@! TO.N,Net-(C9-Pad2)*
X203327000Y-104557500D03*
D13*
G04 #@! TO.N,Net-(C9-Pad1)*
G04 #@! TO.C,C9*
G36*
X203976504Y-106821204D02*
X204000773Y-106824804D01*
X204024571Y-106830765D01*
X204047671Y-106839030D01*
X204069849Y-106849520D01*
X204090893Y-106862133D01*
X204110598Y-106876747D01*
X204128777Y-106893223D01*
X204145253Y-106911402D01*
X204159867Y-106931107D01*
X204172480Y-106952151D01*
X204182970Y-106974329D01*
X204191235Y-106997429D01*
X204197196Y-107021227D01*
X204200796Y-107045496D01*
X204202000Y-107070000D01*
X204202000Y-107995000D01*
X204200796Y-108019504D01*
X204197196Y-108043773D01*
X204191235Y-108067571D01*
X204182970Y-108090671D01*
X204172480Y-108112849D01*
X204159867Y-108133893D01*
X204145253Y-108153598D01*
X204128777Y-108171777D01*
X204110598Y-108188253D01*
X204090893Y-108202867D01*
X204069849Y-108215480D01*
X204047671Y-108225970D01*
X204024571Y-108234235D01*
X204000773Y-108240196D01*
X203976504Y-108243796D01*
X203952000Y-108245000D01*
X202702000Y-108245000D01*
X202677496Y-108243796D01*
X202653227Y-108240196D01*
X202629429Y-108234235D01*
X202606329Y-108225970D01*
X202584151Y-108215480D01*
X202563107Y-108202867D01*
X202543402Y-108188253D01*
X202525223Y-108171777D01*
X202508747Y-108153598D01*
X202494133Y-108133893D01*
X202481520Y-108112849D01*
X202471030Y-108090671D01*
X202462765Y-108067571D01*
X202456804Y-108043773D01*
X202453204Y-108019504D01*
X202452000Y-107995000D01*
X202452000Y-107070000D01*
X202453204Y-107045496D01*
X202456804Y-107021227D01*
X202462765Y-106997429D01*
X202471030Y-106974329D01*
X202481520Y-106952151D01*
X202494133Y-106931107D01*
X202508747Y-106911402D01*
X202525223Y-106893223D01*
X202543402Y-106876747D01*
X202563107Y-106862133D01*
X202584151Y-106849520D01*
X202606329Y-106839030D01*
X202629429Y-106830765D01*
X202653227Y-106824804D01*
X202677496Y-106821204D01*
X202702000Y-106820000D01*
X203952000Y-106820000D01*
X203976504Y-106821204D01*
X203976504Y-106821204D01*
G37*
D14*
G04 #@! TD*
G04 #@! TO.P,C9,1*
G04 #@! TO.N,Net-(C9-Pad1)*
X203327000Y-107532500D03*
D16*
G04 #@! TO.P,XA1,MISO*
G04 #@! TO.N,Net-(XA1-PadMISO)*
X145620000Y-98384000D03*
G04 #@! TO.P,XA1,A5*
G04 #@! TO.N,+2V5*
X145620000Y-80604000D03*
G04 #@! TO.P,XA1,A4*
G04 #@! TO.N,/VAmpSense-*
X145620000Y-78064000D03*
G04 #@! TO.P,XA1,A3*
G04 #@! TO.N,temp_sense_1*
X145620000Y-75524000D03*
G04 #@! TO.P,XA1,A2*
G04 #@! TO.N,CS_1*
X145620000Y-72984000D03*
G04 #@! TO.P,XA1,A1*
G04 #@! TO.N,CS_2*
X145620000Y-70444000D03*
G04 #@! TO.P,XA1,*
G04 #@! TO.N,*
X145620000Y-85684000D03*
G04 #@! TO.P,XA1,D11*
G04 #@! TO.N,Switch_1*
X160860000Y-62824000D03*
G04 #@! TO.P,XA1,D12*
G04 #@! TO.N,Net-(D4-Pad1)*
X160860000Y-60284000D03*
G04 #@! TO.P,XA1,D13*
G04 #@! TO.N,Net-(D1-Pad1)*
X145620000Y-60284000D03*
G04 #@! TO.P,XA1,AREF*
G04 #@! TO.N,Aref*
X145620000Y-65364000D03*
G04 #@! TO.P,XA1,D10*
G04 #@! TO.N,Switch_2*
X160860000Y-65364000D03*
G04 #@! TO.P,XA1,D9*
G04 #@! TO.N,switch_control_2*
X160860000Y-67904000D03*
G04 #@! TO.P,XA1,D8*
G04 #@! TO.N,Net-(D3-Pad1)*
X160860000Y-70444000D03*
G04 #@! TO.P,XA1,D7*
G04 #@! TO.N,Vac_measure*
X160860000Y-72984000D03*
G04 #@! TO.P,XA1,D6*
G04 #@! TO.N,Net-(D2-Pad1)*
X160860000Y-75524000D03*
G04 #@! TO.P,XA1,D5*
G04 #@! TO.N,switch_control_1*
X160860000Y-78064000D03*
G04 #@! TO.P,XA1,D4*
G04 #@! TO.N,temp_sense_2*
X160860000Y-80604000D03*
G04 #@! TO.P,XA1,D3*
G04 #@! TO.N,Net-(XA1-PadD3)*
X160860000Y-83144000D03*
G04 #@! TO.P,XA1,D2*
G04 #@! TO.N,Net-(XA1-PadD2)*
X160860000Y-85684000D03*
G04 #@! TO.P,XA1,D1*
G04 #@! TO.N,Net-(U2-Pad2)*
X160860000Y-95844000D03*
G04 #@! TO.P,XA1,D0*
G04 #@! TO.N,Net-(U2-Pad3)*
X160860000Y-93304000D03*
G04 #@! TO.P,XA1,SS*
G04 #@! TO.N,Net-(XA1-PadSS)*
X160860000Y-98384000D03*
G04 #@! TO.P,XA1,RST1*
G04 #@! TO.N,Net-(XA1-PadRST1)*
X145620000Y-90764000D03*
G04 #@! TO.P,XA1,3V3*
G04 #@! TO.N,Net-(XA1-Pad3V3)*
X145620000Y-62824000D03*
G04 #@! TO.P,XA1,5V*
G04 #@! TO.N,+5V*
X145620000Y-88224000D03*
G04 #@! TO.P,XA1,GND1*
G04 #@! TO.N,GNDA*
X145620000Y-93304000D03*
G04 #@! TO.P,XA1,GND2*
X160860000Y-88224000D03*
G04 #@! TO.P,XA1,VIN*
G04 #@! TO.N,Net-(XA1-PadVIN)*
X145620000Y-95844000D03*
G04 #@! TO.P,XA1,A0*
G04 #@! TO.N,/VAmpSense+*
X145620000Y-67904000D03*
G04 #@! TO.P,XA1,SCK*
G04 #@! TO.N,Net-(XA1-PadSCK)*
X145620000Y-100924000D03*
D17*
G04 #@! TO.P,XA1,MOSI*
G04 #@! TO.N,Net-(XA1-PadMOSI)*
X160860000Y-100924000D03*
D16*
G04 #@! TO.P,XA1,RST2*
G04 #@! TO.N,Net-(XA1-PadRST2)*
X160860000Y-90764000D03*
G04 #@! TO.P,XA1,*
G04 #@! TO.N,*
X145620000Y-83144000D03*
G04 #@! TD*
D18*
G04 #@! TO.P,T1,4*
G04 #@! TO.N,/VSense+*
X182914000Y-123836000D03*
G04 #@! TO.P,T1,3*
G04 #@! TO.N,/VSense-*
X195414000Y-123836000D03*
G04 #@! TO.P,T1,2*
G04 #@! TO.N,NEUT*
X182914000Y-133836000D03*
G04 #@! TO.P,T1,1*
G04 #@! TO.N,Net-(R5-Pad2)*
X195414000Y-133836000D03*
G04 #@! TD*
D19*
G04 #@! TO.P,HS2,1*
G04 #@! TO.N,N/C*
X114756000Y-129590268D03*
X114756000Y-88593000D03*
G04 #@! TD*
G04 #@! TO.P,HS1,1*
G04 #@! TO.N,N/C*
X219381000Y-88087732D03*
X219381000Y-129085000D03*
G04 #@! TD*
D13*
G04 #@! TO.N,Net-(R5-Pad2)*
G04 #@! TO.C,R5*
G36*
X201916004Y-131010204D02*
X201940273Y-131013804D01*
X201964071Y-131019765D01*
X201987171Y-131028030D01*
X202009349Y-131038520D01*
X202030393Y-131051133D01*
X202050098Y-131065747D01*
X202068277Y-131082223D01*
X202084753Y-131100402D01*
X202099367Y-131120107D01*
X202111980Y-131141151D01*
X202122470Y-131163329D01*
X202130735Y-131186429D01*
X202136696Y-131210227D01*
X202140296Y-131234496D01*
X202141500Y-131259000D01*
X202141500Y-132509000D01*
X202140296Y-132533504D01*
X202136696Y-132557773D01*
X202130735Y-132581571D01*
X202122470Y-132604671D01*
X202111980Y-132626849D01*
X202099367Y-132647893D01*
X202084753Y-132667598D01*
X202068277Y-132685777D01*
X202050098Y-132702253D01*
X202030393Y-132716867D01*
X202009349Y-132729480D01*
X201987171Y-132739970D01*
X201964071Y-132748235D01*
X201940273Y-132754196D01*
X201916004Y-132757796D01*
X201891500Y-132759000D01*
X200966500Y-132759000D01*
X200941996Y-132757796D01*
X200917727Y-132754196D01*
X200893929Y-132748235D01*
X200870829Y-132739970D01*
X200848651Y-132729480D01*
X200827607Y-132716867D01*
X200807902Y-132702253D01*
X200789723Y-132685777D01*
X200773247Y-132667598D01*
X200758633Y-132647893D01*
X200746020Y-132626849D01*
X200735530Y-132604671D01*
X200727265Y-132581571D01*
X200721304Y-132557773D01*
X200717704Y-132533504D01*
X200716500Y-132509000D01*
X200716500Y-131259000D01*
X200717704Y-131234496D01*
X200721304Y-131210227D01*
X200727265Y-131186429D01*
X200735530Y-131163329D01*
X200746020Y-131141151D01*
X200758633Y-131120107D01*
X200773247Y-131100402D01*
X200789723Y-131082223D01*
X200807902Y-131065747D01*
X200827607Y-131051133D01*
X200848651Y-131038520D01*
X200870829Y-131028030D01*
X200893929Y-131019765D01*
X200917727Y-131013804D01*
X200941996Y-131010204D01*
X200966500Y-131009000D01*
X201891500Y-131009000D01*
X201916004Y-131010204D01*
X201916004Y-131010204D01*
G37*
D14*
G04 #@! TD*
G04 #@! TO.P,R5,2*
G04 #@! TO.N,Net-(R5-Pad2)*
X201429000Y-131884000D03*
D13*
G04 #@! TO.N,VAC*
G04 #@! TO.C,R5*
G36*
X204891004Y-131010204D02*
X204915273Y-131013804D01*
X204939071Y-131019765D01*
X204962171Y-131028030D01*
X204984349Y-131038520D01*
X205005393Y-131051133D01*
X205025098Y-131065747D01*
X205043277Y-131082223D01*
X205059753Y-131100402D01*
X205074367Y-131120107D01*
X205086980Y-131141151D01*
X205097470Y-131163329D01*
X205105735Y-131186429D01*
X205111696Y-131210227D01*
X205115296Y-131234496D01*
X205116500Y-131259000D01*
X205116500Y-132509000D01*
X205115296Y-132533504D01*
X205111696Y-132557773D01*
X205105735Y-132581571D01*
X205097470Y-132604671D01*
X205086980Y-132626849D01*
X205074367Y-132647893D01*
X205059753Y-132667598D01*
X205043277Y-132685777D01*
X205025098Y-132702253D01*
X205005393Y-132716867D01*
X204984349Y-132729480D01*
X204962171Y-132739970D01*
X204939071Y-132748235D01*
X204915273Y-132754196D01*
X204891004Y-132757796D01*
X204866500Y-132759000D01*
X203941500Y-132759000D01*
X203916996Y-132757796D01*
X203892727Y-132754196D01*
X203868929Y-132748235D01*
X203845829Y-132739970D01*
X203823651Y-132729480D01*
X203802607Y-132716867D01*
X203782902Y-132702253D01*
X203764723Y-132685777D01*
X203748247Y-132667598D01*
X203733633Y-132647893D01*
X203721020Y-132626849D01*
X203710530Y-132604671D01*
X203702265Y-132581571D01*
X203696304Y-132557773D01*
X203692704Y-132533504D01*
X203691500Y-132509000D01*
X203691500Y-131259000D01*
X203692704Y-131234496D01*
X203696304Y-131210227D01*
X203702265Y-131186429D01*
X203710530Y-131163329D01*
X203721020Y-131141151D01*
X203733633Y-131120107D01*
X203748247Y-131100402D01*
X203764723Y-131082223D01*
X203782902Y-131065747D01*
X203802607Y-131051133D01*
X203823651Y-131038520D01*
X203845829Y-131028030D01*
X203868929Y-131019765D01*
X203892727Y-131013804D01*
X203916996Y-131010204D01*
X203941500Y-131009000D01*
X204866500Y-131009000D01*
X204891004Y-131010204D01*
X204891004Y-131010204D01*
G37*
D14*
G04 #@! TD*
G04 #@! TO.P,R5,1*
G04 #@! TO.N,VAC*
X204404000Y-131884000D03*
D20*
G04 #@! TO.P,J1,3*
G04 #@! TO.N,Net-(J1-Pad3)*
X129728000Y-60764000D03*
G04 #@! TO.P,J1,2*
G04 #@! TO.N,Net-(J1-Pad2)*
X124648000Y-60764000D03*
D21*
G04 #@! TO.P,J1,1*
G04 #@! TO.N,GNDA*
X119568000Y-60764000D03*
G04 #@! TD*
D13*
G04 #@! TO.N,GNDA*
G04 #@! TO.C,C12*
G36*
X128475004Y-93559204D02*
X128499273Y-93562804D01*
X128523071Y-93568765D01*
X128546171Y-93577030D01*
X128568349Y-93587520D01*
X128589393Y-93600133D01*
X128609098Y-93614747D01*
X128627277Y-93631223D01*
X128643753Y-93649402D01*
X128658367Y-93669107D01*
X128670980Y-93690151D01*
X128681470Y-93712329D01*
X128689735Y-93735429D01*
X128695696Y-93759227D01*
X128699296Y-93783496D01*
X128700500Y-93808000D01*
X128700500Y-94733000D01*
X128699296Y-94757504D01*
X128695696Y-94781773D01*
X128689735Y-94805571D01*
X128681470Y-94828671D01*
X128670980Y-94850849D01*
X128658367Y-94871893D01*
X128643753Y-94891598D01*
X128627277Y-94909777D01*
X128609098Y-94926253D01*
X128589393Y-94940867D01*
X128568349Y-94953480D01*
X128546171Y-94963970D01*
X128523071Y-94972235D01*
X128499273Y-94978196D01*
X128475004Y-94981796D01*
X128450500Y-94983000D01*
X127200500Y-94983000D01*
X127175996Y-94981796D01*
X127151727Y-94978196D01*
X127127929Y-94972235D01*
X127104829Y-94963970D01*
X127082651Y-94953480D01*
X127061607Y-94940867D01*
X127041902Y-94926253D01*
X127023723Y-94909777D01*
X127007247Y-94891598D01*
X126992633Y-94871893D01*
X126980020Y-94850849D01*
X126969530Y-94828671D01*
X126961265Y-94805571D01*
X126955304Y-94781773D01*
X126951704Y-94757504D01*
X126950500Y-94733000D01*
X126950500Y-93808000D01*
X126951704Y-93783496D01*
X126955304Y-93759227D01*
X126961265Y-93735429D01*
X126969530Y-93712329D01*
X126980020Y-93690151D01*
X126992633Y-93669107D01*
X127007247Y-93649402D01*
X127023723Y-93631223D01*
X127041902Y-93614747D01*
X127061607Y-93600133D01*
X127082651Y-93587520D01*
X127104829Y-93577030D01*
X127127929Y-93568765D01*
X127151727Y-93562804D01*
X127175996Y-93559204D01*
X127200500Y-93558000D01*
X128450500Y-93558000D01*
X128475004Y-93559204D01*
X128475004Y-93559204D01*
G37*
D14*
G04 #@! TD*
G04 #@! TO.P,C12,2*
G04 #@! TO.N,GNDA*
X127825500Y-94270500D03*
D13*
G04 #@! TO.N,+5VA*
G04 #@! TO.C,C12*
G36*
X128475004Y-96534204D02*
X128499273Y-96537804D01*
X128523071Y-96543765D01*
X128546171Y-96552030D01*
X128568349Y-96562520D01*
X128589393Y-96575133D01*
X128609098Y-96589747D01*
X128627277Y-96606223D01*
X128643753Y-96624402D01*
X128658367Y-96644107D01*
X128670980Y-96665151D01*
X128681470Y-96687329D01*
X128689735Y-96710429D01*
X128695696Y-96734227D01*
X128699296Y-96758496D01*
X128700500Y-96783000D01*
X128700500Y-97708000D01*
X128699296Y-97732504D01*
X128695696Y-97756773D01*
X128689735Y-97780571D01*
X128681470Y-97803671D01*
X128670980Y-97825849D01*
X128658367Y-97846893D01*
X128643753Y-97866598D01*
X128627277Y-97884777D01*
X128609098Y-97901253D01*
X128589393Y-97915867D01*
X128568349Y-97928480D01*
X128546171Y-97938970D01*
X128523071Y-97947235D01*
X128499273Y-97953196D01*
X128475004Y-97956796D01*
X128450500Y-97958000D01*
X127200500Y-97958000D01*
X127175996Y-97956796D01*
X127151727Y-97953196D01*
X127127929Y-97947235D01*
X127104829Y-97938970D01*
X127082651Y-97928480D01*
X127061607Y-97915867D01*
X127041902Y-97901253D01*
X127023723Y-97884777D01*
X127007247Y-97866598D01*
X126992633Y-97846893D01*
X126980020Y-97825849D01*
X126969530Y-97803671D01*
X126961265Y-97780571D01*
X126955304Y-97756773D01*
X126951704Y-97732504D01*
X126950500Y-97708000D01*
X126950500Y-96783000D01*
X126951704Y-96758496D01*
X126955304Y-96734227D01*
X126961265Y-96710429D01*
X126969530Y-96687329D01*
X126980020Y-96665151D01*
X126992633Y-96644107D01*
X127007247Y-96624402D01*
X127023723Y-96606223D01*
X127041902Y-96589747D01*
X127061607Y-96575133D01*
X127082651Y-96562520D01*
X127104829Y-96552030D01*
X127127929Y-96543765D01*
X127151727Y-96537804D01*
X127175996Y-96534204D01*
X127200500Y-96533000D01*
X128450500Y-96533000D01*
X128475004Y-96534204D01*
X128475004Y-96534204D01*
G37*
D14*
G04 #@! TD*
G04 #@! TO.P,C12,1*
G04 #@! TO.N,+5VA*
X127825500Y-97245500D03*
D13*
G04 #@! TO.N,GNDA*
G04 #@! TO.C,C11*
G36*
X137997504Y-102376204D02*
X138021773Y-102379804D01*
X138045571Y-102385765D01*
X138068671Y-102394030D01*
X138090849Y-102404520D01*
X138111893Y-102417133D01*
X138131598Y-102431747D01*
X138149777Y-102448223D01*
X138166253Y-102466402D01*
X138180867Y-102486107D01*
X138193480Y-102507151D01*
X138203970Y-102529329D01*
X138212235Y-102552429D01*
X138218196Y-102576227D01*
X138221796Y-102600496D01*
X138223000Y-102625000D01*
X138223000Y-103550000D01*
X138221796Y-103574504D01*
X138218196Y-103598773D01*
X138212235Y-103622571D01*
X138203970Y-103645671D01*
X138193480Y-103667849D01*
X138180867Y-103688893D01*
X138166253Y-103708598D01*
X138149777Y-103726777D01*
X138131598Y-103743253D01*
X138111893Y-103757867D01*
X138090849Y-103770480D01*
X138068671Y-103780970D01*
X138045571Y-103789235D01*
X138021773Y-103795196D01*
X137997504Y-103798796D01*
X137973000Y-103800000D01*
X136723000Y-103800000D01*
X136698496Y-103798796D01*
X136674227Y-103795196D01*
X136650429Y-103789235D01*
X136627329Y-103780970D01*
X136605151Y-103770480D01*
X136584107Y-103757867D01*
X136564402Y-103743253D01*
X136546223Y-103726777D01*
X136529747Y-103708598D01*
X136515133Y-103688893D01*
X136502520Y-103667849D01*
X136492030Y-103645671D01*
X136483765Y-103622571D01*
X136477804Y-103598773D01*
X136474204Y-103574504D01*
X136473000Y-103550000D01*
X136473000Y-102625000D01*
X136474204Y-102600496D01*
X136477804Y-102576227D01*
X136483765Y-102552429D01*
X136492030Y-102529329D01*
X136502520Y-102507151D01*
X136515133Y-102486107D01*
X136529747Y-102466402D01*
X136546223Y-102448223D01*
X136564402Y-102431747D01*
X136584107Y-102417133D01*
X136605151Y-102404520D01*
X136627329Y-102394030D01*
X136650429Y-102385765D01*
X136674227Y-102379804D01*
X136698496Y-102376204D01*
X136723000Y-102375000D01*
X137973000Y-102375000D01*
X137997504Y-102376204D01*
X137997504Y-102376204D01*
G37*
D14*
G04 #@! TD*
G04 #@! TO.P,C11,2*
G04 #@! TO.N,GNDA*
X137348000Y-103087500D03*
D13*
G04 #@! TO.N,+5VA*
G04 #@! TO.C,C11*
G36*
X137997504Y-99401204D02*
X138021773Y-99404804D01*
X138045571Y-99410765D01*
X138068671Y-99419030D01*
X138090849Y-99429520D01*
X138111893Y-99442133D01*
X138131598Y-99456747D01*
X138149777Y-99473223D01*
X138166253Y-99491402D01*
X138180867Y-99511107D01*
X138193480Y-99532151D01*
X138203970Y-99554329D01*
X138212235Y-99577429D01*
X138218196Y-99601227D01*
X138221796Y-99625496D01*
X138223000Y-99650000D01*
X138223000Y-100575000D01*
X138221796Y-100599504D01*
X138218196Y-100623773D01*
X138212235Y-100647571D01*
X138203970Y-100670671D01*
X138193480Y-100692849D01*
X138180867Y-100713893D01*
X138166253Y-100733598D01*
X138149777Y-100751777D01*
X138131598Y-100768253D01*
X138111893Y-100782867D01*
X138090849Y-100795480D01*
X138068671Y-100805970D01*
X138045571Y-100814235D01*
X138021773Y-100820196D01*
X137997504Y-100823796D01*
X137973000Y-100825000D01*
X136723000Y-100825000D01*
X136698496Y-100823796D01*
X136674227Y-100820196D01*
X136650429Y-100814235D01*
X136627329Y-100805970D01*
X136605151Y-100795480D01*
X136584107Y-100782867D01*
X136564402Y-100768253D01*
X136546223Y-100751777D01*
X136529747Y-100733598D01*
X136515133Y-100713893D01*
X136502520Y-100692849D01*
X136492030Y-100670671D01*
X136483765Y-100647571D01*
X136477804Y-100623773D01*
X136474204Y-100599504D01*
X136473000Y-100575000D01*
X136473000Y-99650000D01*
X136474204Y-99625496D01*
X136477804Y-99601227D01*
X136483765Y-99577429D01*
X136492030Y-99554329D01*
X136502520Y-99532151D01*
X136515133Y-99511107D01*
X136529747Y-99491402D01*
X136546223Y-99473223D01*
X136564402Y-99456747D01*
X136584107Y-99442133D01*
X136605151Y-99429520D01*
X136627329Y-99419030D01*
X136650429Y-99410765D01*
X136674227Y-99404804D01*
X136698496Y-99401204D01*
X136723000Y-99400000D01*
X137973000Y-99400000D01*
X137997504Y-99401204D01*
X137997504Y-99401204D01*
G37*
D14*
G04 #@! TD*
G04 #@! TO.P,C11,1*
G04 #@! TO.N,+5VA*
X137348000Y-100112500D03*
D13*
G04 #@! TO.N,GNDA*
G04 #@! TO.C,C8*
G36*
X200481504Y-94633204D02*
X200505773Y-94636804D01*
X200529571Y-94642765D01*
X200552671Y-94651030D01*
X200574849Y-94661520D01*
X200595893Y-94674133D01*
X200615598Y-94688747D01*
X200633777Y-94705223D01*
X200650253Y-94723402D01*
X200664867Y-94743107D01*
X200677480Y-94764151D01*
X200687970Y-94786329D01*
X200696235Y-94809429D01*
X200702196Y-94833227D01*
X200705796Y-94857496D01*
X200707000Y-94882000D01*
X200707000Y-95807000D01*
X200705796Y-95831504D01*
X200702196Y-95855773D01*
X200696235Y-95879571D01*
X200687970Y-95902671D01*
X200677480Y-95924849D01*
X200664867Y-95945893D01*
X200650253Y-95965598D01*
X200633777Y-95983777D01*
X200615598Y-96000253D01*
X200595893Y-96014867D01*
X200574849Y-96027480D01*
X200552671Y-96037970D01*
X200529571Y-96046235D01*
X200505773Y-96052196D01*
X200481504Y-96055796D01*
X200457000Y-96057000D01*
X199207000Y-96057000D01*
X199182496Y-96055796D01*
X199158227Y-96052196D01*
X199134429Y-96046235D01*
X199111329Y-96037970D01*
X199089151Y-96027480D01*
X199068107Y-96014867D01*
X199048402Y-96000253D01*
X199030223Y-95983777D01*
X199013747Y-95965598D01*
X198999133Y-95945893D01*
X198986520Y-95924849D01*
X198976030Y-95902671D01*
X198967765Y-95879571D01*
X198961804Y-95855773D01*
X198958204Y-95831504D01*
X198957000Y-95807000D01*
X198957000Y-94882000D01*
X198958204Y-94857496D01*
X198961804Y-94833227D01*
X198967765Y-94809429D01*
X198976030Y-94786329D01*
X198986520Y-94764151D01*
X198999133Y-94743107D01*
X199013747Y-94723402D01*
X199030223Y-94705223D01*
X199048402Y-94688747D01*
X199068107Y-94674133D01*
X199089151Y-94661520D01*
X199111329Y-94651030D01*
X199134429Y-94642765D01*
X199158227Y-94636804D01*
X199182496Y-94633204D01*
X199207000Y-94632000D01*
X200457000Y-94632000D01*
X200481504Y-94633204D01*
X200481504Y-94633204D01*
G37*
D14*
G04 #@! TD*
G04 #@! TO.P,C8,2*
G04 #@! TO.N,GNDA*
X199832000Y-95344500D03*
D13*
G04 #@! TO.N,+5VA*
G04 #@! TO.C,C8*
G36*
X200481504Y-97608204D02*
X200505773Y-97611804D01*
X200529571Y-97617765D01*
X200552671Y-97626030D01*
X200574849Y-97636520D01*
X200595893Y-97649133D01*
X200615598Y-97663747D01*
X200633777Y-97680223D01*
X200650253Y-97698402D01*
X200664867Y-97718107D01*
X200677480Y-97739151D01*
X200687970Y-97761329D01*
X200696235Y-97784429D01*
X200702196Y-97808227D01*
X200705796Y-97832496D01*
X200707000Y-97857000D01*
X200707000Y-98782000D01*
X200705796Y-98806504D01*
X200702196Y-98830773D01*
X200696235Y-98854571D01*
X200687970Y-98877671D01*
X200677480Y-98899849D01*
X200664867Y-98920893D01*
X200650253Y-98940598D01*
X200633777Y-98958777D01*
X200615598Y-98975253D01*
X200595893Y-98989867D01*
X200574849Y-99002480D01*
X200552671Y-99012970D01*
X200529571Y-99021235D01*
X200505773Y-99027196D01*
X200481504Y-99030796D01*
X200457000Y-99032000D01*
X199207000Y-99032000D01*
X199182496Y-99030796D01*
X199158227Y-99027196D01*
X199134429Y-99021235D01*
X199111329Y-99012970D01*
X199089151Y-99002480D01*
X199068107Y-98989867D01*
X199048402Y-98975253D01*
X199030223Y-98958777D01*
X199013747Y-98940598D01*
X198999133Y-98920893D01*
X198986520Y-98899849D01*
X198976030Y-98877671D01*
X198967765Y-98854571D01*
X198961804Y-98830773D01*
X198958204Y-98806504D01*
X198957000Y-98782000D01*
X198957000Y-97857000D01*
X198958204Y-97832496D01*
X198961804Y-97808227D01*
X198967765Y-97784429D01*
X198976030Y-97761329D01*
X198986520Y-97739151D01*
X198999133Y-97718107D01*
X199013747Y-97698402D01*
X199030223Y-97680223D01*
X199048402Y-97663747D01*
X199068107Y-97649133D01*
X199089151Y-97636520D01*
X199111329Y-97626030D01*
X199134429Y-97617765D01*
X199158227Y-97611804D01*
X199182496Y-97608204D01*
X199207000Y-97607000D01*
X200457000Y-97607000D01*
X200481504Y-97608204D01*
X200481504Y-97608204D01*
G37*
D14*
G04 #@! TD*
G04 #@! TO.P,C8,1*
G04 #@! TO.N,+5VA*
X199832000Y-98319500D03*
D13*
G04 #@! TO.N,GNDA*
G04 #@! TO.C,C7*
G36*
X207151504Y-96026204D02*
X207175773Y-96029804D01*
X207199571Y-96035765D01*
X207222671Y-96044030D01*
X207244849Y-96054520D01*
X207265893Y-96067133D01*
X207285598Y-96081747D01*
X207303777Y-96098223D01*
X207320253Y-96116402D01*
X207334867Y-96136107D01*
X207347480Y-96157151D01*
X207357970Y-96179329D01*
X207366235Y-96202429D01*
X207372196Y-96226227D01*
X207375796Y-96250496D01*
X207377000Y-96275000D01*
X207377000Y-97200000D01*
X207375796Y-97224504D01*
X207372196Y-97248773D01*
X207366235Y-97272571D01*
X207357970Y-97295671D01*
X207347480Y-97317849D01*
X207334867Y-97338893D01*
X207320253Y-97358598D01*
X207303777Y-97376777D01*
X207285598Y-97393253D01*
X207265893Y-97407867D01*
X207244849Y-97420480D01*
X207222671Y-97430970D01*
X207199571Y-97439235D01*
X207175773Y-97445196D01*
X207151504Y-97448796D01*
X207127000Y-97450000D01*
X205877000Y-97450000D01*
X205852496Y-97448796D01*
X205828227Y-97445196D01*
X205804429Y-97439235D01*
X205781329Y-97430970D01*
X205759151Y-97420480D01*
X205738107Y-97407867D01*
X205718402Y-97393253D01*
X205700223Y-97376777D01*
X205683747Y-97358598D01*
X205669133Y-97338893D01*
X205656520Y-97317849D01*
X205646030Y-97295671D01*
X205637765Y-97272571D01*
X205631804Y-97248773D01*
X205628204Y-97224504D01*
X205627000Y-97200000D01*
X205627000Y-96275000D01*
X205628204Y-96250496D01*
X205631804Y-96226227D01*
X205637765Y-96202429D01*
X205646030Y-96179329D01*
X205656520Y-96157151D01*
X205669133Y-96136107D01*
X205683747Y-96116402D01*
X205700223Y-96098223D01*
X205718402Y-96081747D01*
X205738107Y-96067133D01*
X205759151Y-96054520D01*
X205781329Y-96044030D01*
X205804429Y-96035765D01*
X205828227Y-96029804D01*
X205852496Y-96026204D01*
X205877000Y-96025000D01*
X207127000Y-96025000D01*
X207151504Y-96026204D01*
X207151504Y-96026204D01*
G37*
D14*
G04 #@! TD*
G04 #@! TO.P,C7,2*
G04 #@! TO.N,GNDA*
X206502000Y-96737500D03*
D13*
G04 #@! TO.N,+5VA*
G04 #@! TO.C,C7*
G36*
X207151504Y-93051204D02*
X207175773Y-93054804D01*
X207199571Y-93060765D01*
X207222671Y-93069030D01*
X207244849Y-93079520D01*
X207265893Y-93092133D01*
X207285598Y-93106747D01*
X207303777Y-93123223D01*
X207320253Y-93141402D01*
X207334867Y-93161107D01*
X207347480Y-93182151D01*
X207357970Y-93204329D01*
X207366235Y-93227429D01*
X207372196Y-93251227D01*
X207375796Y-93275496D01*
X207377000Y-93300000D01*
X207377000Y-94225000D01*
X207375796Y-94249504D01*
X207372196Y-94273773D01*
X207366235Y-94297571D01*
X207357970Y-94320671D01*
X207347480Y-94342849D01*
X207334867Y-94363893D01*
X207320253Y-94383598D01*
X207303777Y-94401777D01*
X207285598Y-94418253D01*
X207265893Y-94432867D01*
X207244849Y-94445480D01*
X207222671Y-94455970D01*
X207199571Y-94464235D01*
X207175773Y-94470196D01*
X207151504Y-94473796D01*
X207127000Y-94475000D01*
X205877000Y-94475000D01*
X205852496Y-94473796D01*
X205828227Y-94470196D01*
X205804429Y-94464235D01*
X205781329Y-94455970D01*
X205759151Y-94445480D01*
X205738107Y-94432867D01*
X205718402Y-94418253D01*
X205700223Y-94401777D01*
X205683747Y-94383598D01*
X205669133Y-94363893D01*
X205656520Y-94342849D01*
X205646030Y-94320671D01*
X205637765Y-94297571D01*
X205631804Y-94273773D01*
X205628204Y-94249504D01*
X205627000Y-94225000D01*
X205627000Y-93300000D01*
X205628204Y-93275496D01*
X205631804Y-93251227D01*
X205637765Y-93227429D01*
X205646030Y-93204329D01*
X205656520Y-93182151D01*
X205669133Y-93161107D01*
X205683747Y-93141402D01*
X205700223Y-93123223D01*
X205718402Y-93106747D01*
X205738107Y-93092133D01*
X205759151Y-93079520D01*
X205781329Y-93069030D01*
X205804429Y-93060765D01*
X205828227Y-93054804D01*
X205852496Y-93051204D01*
X205877000Y-93050000D01*
X207127000Y-93050000D01*
X207151504Y-93051204D01*
X207151504Y-93051204D01*
G37*
D14*
G04 #@! TD*
G04 #@! TO.P,C7,1*
G04 #@! TO.N,+5VA*
X206502000Y-93762500D03*
D22*
G04 #@! TO.P,U9,8*
G04 #@! TO.N,+5VA*
X133230600Y-107924600D03*
G04 #@! TO.P,U9,7*
G04 #@! TO.N,CS_1*
X133230600Y-109194600D03*
G04 #@! TO.P,U9,6*
G04 #@! TO.N,+5VA*
X133230600Y-110464600D03*
G04 #@! TO.P,U9,5*
G04 #@! TO.N,GNDA*
X133230600Y-111734600D03*
G04 #@! TO.P,U9,4*
G04 #@! TO.N,Load_hot_1*
X127830600Y-111734600D03*
G04 #@! TO.P,U9,3*
X127830600Y-110464600D03*
G04 #@! TO.P,U9,2*
G04 #@! TO.N,Net-(C13-Pad2)*
X127830600Y-109194600D03*
G04 #@! TO.P,U9,1*
X127830600Y-107924600D03*
G04 #@! TD*
D13*
G04 #@! TO.N,GNDA*
G04 #@! TO.C,C2*
G36*
X156796004Y-120981704D02*
X156820273Y-120985304D01*
X156844071Y-120991265D01*
X156867171Y-120999530D01*
X156889349Y-121010020D01*
X156910393Y-121022633D01*
X156930098Y-121037247D01*
X156948277Y-121053723D01*
X156964753Y-121071902D01*
X156979367Y-121091607D01*
X156991980Y-121112651D01*
X157002470Y-121134829D01*
X157010735Y-121157929D01*
X157016696Y-121181727D01*
X157020296Y-121205996D01*
X157021500Y-121230500D01*
X157021500Y-122155500D01*
X157020296Y-122180004D01*
X157016696Y-122204273D01*
X157010735Y-122228071D01*
X157002470Y-122251171D01*
X156991980Y-122273349D01*
X156979367Y-122294393D01*
X156964753Y-122314098D01*
X156948277Y-122332277D01*
X156930098Y-122348753D01*
X156910393Y-122363367D01*
X156889349Y-122375980D01*
X156867171Y-122386470D01*
X156844071Y-122394735D01*
X156820273Y-122400696D01*
X156796004Y-122404296D01*
X156771500Y-122405500D01*
X155521500Y-122405500D01*
X155496996Y-122404296D01*
X155472727Y-122400696D01*
X155448929Y-122394735D01*
X155425829Y-122386470D01*
X155403651Y-122375980D01*
X155382607Y-122363367D01*
X155362902Y-122348753D01*
X155344723Y-122332277D01*
X155328247Y-122314098D01*
X155313633Y-122294393D01*
X155301020Y-122273349D01*
X155290530Y-122251171D01*
X155282265Y-122228071D01*
X155276304Y-122204273D01*
X155272704Y-122180004D01*
X155271500Y-122155500D01*
X155271500Y-121230500D01*
X155272704Y-121205996D01*
X155276304Y-121181727D01*
X155282265Y-121157929D01*
X155290530Y-121134829D01*
X155301020Y-121112651D01*
X155313633Y-121091607D01*
X155328247Y-121071902D01*
X155344723Y-121053723D01*
X155362902Y-121037247D01*
X155382607Y-121022633D01*
X155403651Y-121010020D01*
X155425829Y-120999530D01*
X155448929Y-120991265D01*
X155472727Y-120985304D01*
X155496996Y-120981704D01*
X155521500Y-120980500D01*
X156771500Y-120980500D01*
X156796004Y-120981704D01*
X156796004Y-120981704D01*
G37*
D14*
G04 #@! TD*
G04 #@! TO.P,C2,2*
G04 #@! TO.N,GNDA*
X156146500Y-121693000D03*
D13*
G04 #@! TO.N,+5VA*
G04 #@! TO.C,C2*
G36*
X156796004Y-118006704D02*
X156820273Y-118010304D01*
X156844071Y-118016265D01*
X156867171Y-118024530D01*
X156889349Y-118035020D01*
X156910393Y-118047633D01*
X156930098Y-118062247D01*
X156948277Y-118078723D01*
X156964753Y-118096902D01*
X156979367Y-118116607D01*
X156991980Y-118137651D01*
X157002470Y-118159829D01*
X157010735Y-118182929D01*
X157016696Y-118206727D01*
X157020296Y-118230996D01*
X157021500Y-118255500D01*
X157021500Y-119180500D01*
X157020296Y-119205004D01*
X157016696Y-119229273D01*
X157010735Y-119253071D01*
X157002470Y-119276171D01*
X156991980Y-119298349D01*
X156979367Y-119319393D01*
X156964753Y-119339098D01*
X156948277Y-119357277D01*
X156930098Y-119373753D01*
X156910393Y-119388367D01*
X156889349Y-119400980D01*
X156867171Y-119411470D01*
X156844071Y-119419735D01*
X156820273Y-119425696D01*
X156796004Y-119429296D01*
X156771500Y-119430500D01*
X155521500Y-119430500D01*
X155496996Y-119429296D01*
X155472727Y-119425696D01*
X155448929Y-119419735D01*
X155425829Y-119411470D01*
X155403651Y-119400980D01*
X155382607Y-119388367D01*
X155362902Y-119373753D01*
X155344723Y-119357277D01*
X155328247Y-119339098D01*
X155313633Y-119319393D01*
X155301020Y-119298349D01*
X155290530Y-119276171D01*
X155282265Y-119253071D01*
X155276304Y-119229273D01*
X155272704Y-119205004D01*
X155271500Y-119180500D01*
X155271500Y-118255500D01*
X155272704Y-118230996D01*
X155276304Y-118206727D01*
X155282265Y-118182929D01*
X155290530Y-118159829D01*
X155301020Y-118137651D01*
X155313633Y-118116607D01*
X155328247Y-118096902D01*
X155344723Y-118078723D01*
X155362902Y-118062247D01*
X155382607Y-118047633D01*
X155403651Y-118035020D01*
X155425829Y-118024530D01*
X155448929Y-118016265D01*
X155472727Y-118010304D01*
X155496996Y-118006704D01*
X155521500Y-118005500D01*
X156771500Y-118005500D01*
X156796004Y-118006704D01*
X156796004Y-118006704D01*
G37*
D14*
G04 #@! TD*
G04 #@! TO.P,C2,1*
G04 #@! TO.N,+5VA*
X156146500Y-118718000D03*
D13*
G04 #@! TO.N,/VAmpSense-*
G04 #@! TO.C,C4*
G36*
X167489504Y-95138204D02*
X167513773Y-95141804D01*
X167537571Y-95147765D01*
X167560671Y-95156030D01*
X167582849Y-95166520D01*
X167603893Y-95179133D01*
X167623598Y-95193747D01*
X167641777Y-95210223D01*
X167658253Y-95228402D01*
X167672867Y-95248107D01*
X167685480Y-95269151D01*
X167695970Y-95291329D01*
X167704235Y-95314429D01*
X167710196Y-95338227D01*
X167713796Y-95362496D01*
X167715000Y-95387000D01*
X167715000Y-96637000D01*
X167713796Y-96661504D01*
X167710196Y-96685773D01*
X167704235Y-96709571D01*
X167695970Y-96732671D01*
X167685480Y-96754849D01*
X167672867Y-96775893D01*
X167658253Y-96795598D01*
X167641777Y-96813777D01*
X167623598Y-96830253D01*
X167603893Y-96844867D01*
X167582849Y-96857480D01*
X167560671Y-96867970D01*
X167537571Y-96876235D01*
X167513773Y-96882196D01*
X167489504Y-96885796D01*
X167465000Y-96887000D01*
X166540000Y-96887000D01*
X166515496Y-96885796D01*
X166491227Y-96882196D01*
X166467429Y-96876235D01*
X166444329Y-96867970D01*
X166422151Y-96857480D01*
X166401107Y-96844867D01*
X166381402Y-96830253D01*
X166363223Y-96813777D01*
X166346747Y-96795598D01*
X166332133Y-96775893D01*
X166319520Y-96754849D01*
X166309030Y-96732671D01*
X166300765Y-96709571D01*
X166294804Y-96685773D01*
X166291204Y-96661504D01*
X166290000Y-96637000D01*
X166290000Y-95387000D01*
X166291204Y-95362496D01*
X166294804Y-95338227D01*
X166300765Y-95314429D01*
X166309030Y-95291329D01*
X166319520Y-95269151D01*
X166332133Y-95248107D01*
X166346747Y-95228402D01*
X166363223Y-95210223D01*
X166381402Y-95193747D01*
X166401107Y-95179133D01*
X166422151Y-95166520D01*
X166444329Y-95156030D01*
X166467429Y-95147765D01*
X166491227Y-95141804D01*
X166515496Y-95138204D01*
X166540000Y-95137000D01*
X167465000Y-95137000D01*
X167489504Y-95138204D01*
X167489504Y-95138204D01*
G37*
D14*
G04 #@! TD*
G04 #@! TO.P,C4,2*
G04 #@! TO.N,/VAmpSense-*
X167002500Y-96012000D03*
D13*
G04 #@! TO.N,/VSense+*
G04 #@! TO.C,C4*
G36*
X170464504Y-95138204D02*
X170488773Y-95141804D01*
X170512571Y-95147765D01*
X170535671Y-95156030D01*
X170557849Y-95166520D01*
X170578893Y-95179133D01*
X170598598Y-95193747D01*
X170616777Y-95210223D01*
X170633253Y-95228402D01*
X170647867Y-95248107D01*
X170660480Y-95269151D01*
X170670970Y-95291329D01*
X170679235Y-95314429D01*
X170685196Y-95338227D01*
X170688796Y-95362496D01*
X170690000Y-95387000D01*
X170690000Y-96637000D01*
X170688796Y-96661504D01*
X170685196Y-96685773D01*
X170679235Y-96709571D01*
X170670970Y-96732671D01*
X170660480Y-96754849D01*
X170647867Y-96775893D01*
X170633253Y-96795598D01*
X170616777Y-96813777D01*
X170598598Y-96830253D01*
X170578893Y-96844867D01*
X170557849Y-96857480D01*
X170535671Y-96867970D01*
X170512571Y-96876235D01*
X170488773Y-96882196D01*
X170464504Y-96885796D01*
X170440000Y-96887000D01*
X169515000Y-96887000D01*
X169490496Y-96885796D01*
X169466227Y-96882196D01*
X169442429Y-96876235D01*
X169419329Y-96867970D01*
X169397151Y-96857480D01*
X169376107Y-96844867D01*
X169356402Y-96830253D01*
X169338223Y-96813777D01*
X169321747Y-96795598D01*
X169307133Y-96775893D01*
X169294520Y-96754849D01*
X169284030Y-96732671D01*
X169275765Y-96709571D01*
X169269804Y-96685773D01*
X169266204Y-96661504D01*
X169265000Y-96637000D01*
X169265000Y-95387000D01*
X169266204Y-95362496D01*
X169269804Y-95338227D01*
X169275765Y-95314429D01*
X169284030Y-95291329D01*
X169294520Y-95269151D01*
X169307133Y-95248107D01*
X169321747Y-95228402D01*
X169338223Y-95210223D01*
X169356402Y-95193747D01*
X169376107Y-95179133D01*
X169397151Y-95166520D01*
X169419329Y-95156030D01*
X169442429Y-95147765D01*
X169466227Y-95141804D01*
X169490496Y-95138204D01*
X169515000Y-95137000D01*
X170440000Y-95137000D01*
X170464504Y-95138204D01*
X170464504Y-95138204D01*
G37*
D14*
G04 #@! TD*
G04 #@! TO.P,C4,1*
G04 #@! TO.N,/VSense+*
X169977500Y-96012000D03*
D13*
G04 #@! TO.N,/VSense-*
G04 #@! TO.C,C5*
G36*
X171392504Y-76740204D02*
X171416773Y-76743804D01*
X171440571Y-76749765D01*
X171463671Y-76758030D01*
X171485849Y-76768520D01*
X171506893Y-76781133D01*
X171526598Y-76795747D01*
X171544777Y-76812223D01*
X171561253Y-76830402D01*
X171575867Y-76850107D01*
X171588480Y-76871151D01*
X171598970Y-76893329D01*
X171607235Y-76916429D01*
X171613196Y-76940227D01*
X171616796Y-76964496D01*
X171618000Y-76989000D01*
X171618000Y-78239000D01*
X171616796Y-78263504D01*
X171613196Y-78287773D01*
X171607235Y-78311571D01*
X171598970Y-78334671D01*
X171588480Y-78356849D01*
X171575867Y-78377893D01*
X171561253Y-78397598D01*
X171544777Y-78415777D01*
X171526598Y-78432253D01*
X171506893Y-78446867D01*
X171485849Y-78459480D01*
X171463671Y-78469970D01*
X171440571Y-78478235D01*
X171416773Y-78484196D01*
X171392504Y-78487796D01*
X171368000Y-78489000D01*
X170443000Y-78489000D01*
X170418496Y-78487796D01*
X170394227Y-78484196D01*
X170370429Y-78478235D01*
X170347329Y-78469970D01*
X170325151Y-78459480D01*
X170304107Y-78446867D01*
X170284402Y-78432253D01*
X170266223Y-78415777D01*
X170249747Y-78397598D01*
X170235133Y-78377893D01*
X170222520Y-78356849D01*
X170212030Y-78334671D01*
X170203765Y-78311571D01*
X170197804Y-78287773D01*
X170194204Y-78263504D01*
X170193000Y-78239000D01*
X170193000Y-76989000D01*
X170194204Y-76964496D01*
X170197804Y-76940227D01*
X170203765Y-76916429D01*
X170212030Y-76893329D01*
X170222520Y-76871151D01*
X170235133Y-76850107D01*
X170249747Y-76830402D01*
X170266223Y-76812223D01*
X170284402Y-76795747D01*
X170304107Y-76781133D01*
X170325151Y-76768520D01*
X170347329Y-76758030D01*
X170370429Y-76749765D01*
X170394227Y-76743804D01*
X170418496Y-76740204D01*
X170443000Y-76739000D01*
X171368000Y-76739000D01*
X171392504Y-76740204D01*
X171392504Y-76740204D01*
G37*
D14*
G04 #@! TD*
G04 #@! TO.P,C5,2*
G04 #@! TO.N,/VSense-*
X170905500Y-77614000D03*
D13*
G04 #@! TO.N,/VAmpSense+*
G04 #@! TO.C,C5*
G36*
X168417504Y-76740204D02*
X168441773Y-76743804D01*
X168465571Y-76749765D01*
X168488671Y-76758030D01*
X168510849Y-76768520D01*
X168531893Y-76781133D01*
X168551598Y-76795747D01*
X168569777Y-76812223D01*
X168586253Y-76830402D01*
X168600867Y-76850107D01*
X168613480Y-76871151D01*
X168623970Y-76893329D01*
X168632235Y-76916429D01*
X168638196Y-76940227D01*
X168641796Y-76964496D01*
X168643000Y-76989000D01*
X168643000Y-78239000D01*
X168641796Y-78263504D01*
X168638196Y-78287773D01*
X168632235Y-78311571D01*
X168623970Y-78334671D01*
X168613480Y-78356849D01*
X168600867Y-78377893D01*
X168586253Y-78397598D01*
X168569777Y-78415777D01*
X168551598Y-78432253D01*
X168531893Y-78446867D01*
X168510849Y-78459480D01*
X168488671Y-78469970D01*
X168465571Y-78478235D01*
X168441773Y-78484196D01*
X168417504Y-78487796D01*
X168393000Y-78489000D01*
X167468000Y-78489000D01*
X167443496Y-78487796D01*
X167419227Y-78484196D01*
X167395429Y-78478235D01*
X167372329Y-78469970D01*
X167350151Y-78459480D01*
X167329107Y-78446867D01*
X167309402Y-78432253D01*
X167291223Y-78415777D01*
X167274747Y-78397598D01*
X167260133Y-78377893D01*
X167247520Y-78356849D01*
X167237030Y-78334671D01*
X167228765Y-78311571D01*
X167222804Y-78287773D01*
X167219204Y-78263504D01*
X167218000Y-78239000D01*
X167218000Y-76989000D01*
X167219204Y-76964496D01*
X167222804Y-76940227D01*
X167228765Y-76916429D01*
X167237030Y-76893329D01*
X167247520Y-76871151D01*
X167260133Y-76850107D01*
X167274747Y-76830402D01*
X167291223Y-76812223D01*
X167309402Y-76795747D01*
X167329107Y-76781133D01*
X167350151Y-76768520D01*
X167372329Y-76758030D01*
X167395429Y-76749765D01*
X167419227Y-76743804D01*
X167443496Y-76740204D01*
X167468000Y-76739000D01*
X168393000Y-76739000D01*
X168417504Y-76740204D01*
X168417504Y-76740204D01*
G37*
D14*
G04 #@! TD*
G04 #@! TO.P,C5,1*
G04 #@! TO.N,/VAmpSense+*
X167930500Y-77614000D03*
D23*
G04 #@! TO.P,U7,6*
G04 #@! TO.N,Net-(R13-Pad2)*
X128024200Y-123061200D03*
G04 #@! TO.P,U7,3*
G04 #@! TO.N,Net-(U7-Pad3)*
X135644200Y-117981200D03*
G04 #@! TO.P,U7,5*
G04 #@! TO.N,Net-(U7-Pad5)*
X128024200Y-120521200D03*
G04 #@! TO.P,U7,2*
G04 #@! TO.N,switch_control_1*
X135644200Y-120521200D03*
G04 #@! TO.P,U7,4*
G04 #@! TO.N,Net-(C10-Pad2)*
X128024200Y-117981200D03*
D24*
G04 #@! TO.P,U7,1*
G04 #@! TO.N,Net-(R12-Pad2)*
X135644200Y-123061200D03*
G04 #@! TD*
D23*
G04 #@! TO.P,U4,6*
G04 #@! TO.N,Net-(R9-Pad2)*
X208870800Y-120789400D03*
G04 #@! TO.P,U4,3*
G04 #@! TO.N,Net-(U4-Pad3)*
X201250800Y-125869400D03*
G04 #@! TO.P,U4,5*
G04 #@! TO.N,Net-(U4-Pad5)*
X208870800Y-123329400D03*
G04 #@! TO.P,U4,2*
G04 #@! TO.N,switch_control_2*
X201250800Y-123329400D03*
G04 #@! TO.P,U4,4*
G04 #@! TO.N,Net-(C6-Pad2)*
X208870800Y-125869400D03*
D24*
G04 #@! TO.P,U4,1*
G04 #@! TO.N,Net-(R8-Pad2)*
X201250800Y-120789400D03*
G04 #@! TD*
D23*
G04 #@! TO.P,U1,8*
G04 #@! TO.N,GNDA*
X129347000Y-77655000D03*
G04 #@! TO.P,U1,4*
G04 #@! TO.N,Net-(R2-Pad2)*
X121727000Y-70035000D03*
G04 #@! TO.P,U1,7*
G04 #@! TO.N,Switch_2*
X126807000Y-77655000D03*
G04 #@! TO.P,U1,3*
G04 #@! TO.N,Net-(J1-Pad2)*
X124267000Y-70035000D03*
G04 #@! TO.P,U1,6*
G04 #@! TO.N,Switch_1*
X124267000Y-77655000D03*
G04 #@! TO.P,U1,2*
G04 #@! TO.N,Net-(J1-Pad3)*
X126807000Y-70035000D03*
G04 #@! TO.P,U1,5*
G04 #@! TO.N,GNDA*
X121727000Y-77655000D03*
D24*
G04 #@! TO.P,U1,1*
G04 #@! TO.N,Net-(R1-Pad2)*
X129347000Y-70035000D03*
G04 #@! TD*
D25*
G04 #@! TO.P,U3,8*
G04 #@! TO.N,+5VA*
X167585000Y-82404000D03*
G04 #@! TO.P,U3,7*
G04 #@! TO.N,/VAmpSense+*
X168855000Y-82404000D03*
G04 #@! TO.P,U3,6*
G04 #@! TO.N,/VSense-*
X170125000Y-82404000D03*
G04 #@! TO.P,U3,5*
G04 #@! TO.N,Aref*
X171395000Y-82404000D03*
G04 #@! TO.P,U3,4*
G04 #@! TO.N,GNDA*
X171395000Y-87804000D03*
G04 #@! TO.P,U3,3*
G04 #@! TO.N,Aref*
X170125000Y-87804000D03*
G04 #@! TO.P,U3,2*
G04 #@! TO.N,/VSense+*
X168855000Y-87804000D03*
G04 #@! TO.P,U3,1*
G04 #@! TO.N,/VAmpSense-*
X167585000Y-87804000D03*
G04 #@! TD*
D26*
G04 #@! TO.P,U5,3*
G04 #@! TO.N,temp_sense_2*
X212852000Y-99060000D03*
G04 #@! TO.P,U5,2*
G04 #@! TO.N,GNDA*
X212852000Y-96520000D03*
D27*
G04 #@! TO.P,U5,1*
G04 #@! TO.N,+5VA*
X212852000Y-93980000D03*
G04 #@! TD*
D26*
G04 #@! TO.P,U8,3*
G04 #@! TO.N,temp_sense_1*
X121412000Y-92557600D03*
G04 #@! TO.P,U8,2*
G04 #@! TO.N,GNDA*
X121412000Y-95097600D03*
D27*
G04 #@! TO.P,U8,1*
G04 #@! TO.N,+5VA*
X121412000Y-97637600D03*
G04 #@! TD*
D26*
G04 #@! TO.P,Q2,3*
G04 #@! TO.N,Net-(C10-Pad2)*
X121310400Y-106476800D03*
G04 #@! TO.P,Q2,2*
G04 #@! TO.N,VAC*
X121310400Y-109016800D03*
D27*
G04 #@! TO.P,Q2,1*
G04 #@! TO.N,Net-(C13-Pad2)*
X121310400Y-111556800D03*
G04 #@! TD*
D26*
G04 #@! TO.P,Q1,3*
G04 #@! TO.N,Net-(C6-Pad2)*
X212852000Y-111125000D03*
G04 #@! TO.P,Q1,2*
G04 #@! TO.N,VAC*
X212852000Y-108585000D03*
D27*
G04 #@! TO.P,Q1,1*
G04 #@! TO.N,Net-(C9-Pad2)*
X212852000Y-106045000D03*
G04 #@! TD*
D13*
G04 #@! TO.N,VAC*
G04 #@! TO.C,R11*
G36*
X207354191Y-109361204D02*
X207378460Y-109364804D01*
X207402258Y-109370765D01*
X207425358Y-109379030D01*
X207447536Y-109389520D01*
X207468580Y-109402133D01*
X207488285Y-109416747D01*
X207506464Y-109433223D01*
X207522940Y-109451402D01*
X207537554Y-109471107D01*
X207550167Y-109492151D01*
X207560657Y-109514329D01*
X207568922Y-109537429D01*
X207574883Y-109561227D01*
X207578483Y-109585496D01*
X207579687Y-109610000D01*
X207579687Y-110535000D01*
X207578483Y-110559504D01*
X207574883Y-110583773D01*
X207568922Y-110607571D01*
X207560657Y-110630671D01*
X207550167Y-110652849D01*
X207537554Y-110673893D01*
X207522940Y-110693598D01*
X207506464Y-110711777D01*
X207488285Y-110728253D01*
X207468580Y-110742867D01*
X207447536Y-110755480D01*
X207425358Y-110765970D01*
X207402258Y-110774235D01*
X207378460Y-110780196D01*
X207354191Y-110783796D01*
X207329687Y-110785000D01*
X206079687Y-110785000D01*
X206055183Y-110783796D01*
X206030914Y-110780196D01*
X206007116Y-110774235D01*
X205984016Y-110765970D01*
X205961838Y-110755480D01*
X205940794Y-110742867D01*
X205921089Y-110728253D01*
X205902910Y-110711777D01*
X205886434Y-110693598D01*
X205871820Y-110673893D01*
X205859207Y-110652849D01*
X205848717Y-110630671D01*
X205840452Y-110607571D01*
X205834491Y-110583773D01*
X205830891Y-110559504D01*
X205829687Y-110535000D01*
X205829687Y-109610000D01*
X205830891Y-109585496D01*
X205834491Y-109561227D01*
X205840452Y-109537429D01*
X205848717Y-109514329D01*
X205859207Y-109492151D01*
X205871820Y-109471107D01*
X205886434Y-109451402D01*
X205902910Y-109433223D01*
X205921089Y-109416747D01*
X205940794Y-109402133D01*
X205961838Y-109389520D01*
X205984016Y-109379030D01*
X206007116Y-109370765D01*
X206030914Y-109364804D01*
X206055183Y-109361204D01*
X206079687Y-109360000D01*
X207329687Y-109360000D01*
X207354191Y-109361204D01*
X207354191Y-109361204D01*
G37*
D14*
G04 #@! TD*
G04 #@! TO.P,R11,2*
G04 #@! TO.N,VAC*
X206704687Y-110072500D03*
D13*
G04 #@! TO.N,Net-(C9-Pad1)*
G04 #@! TO.C,R11*
G36*
X207354191Y-106386204D02*
X207378460Y-106389804D01*
X207402258Y-106395765D01*
X207425358Y-106404030D01*
X207447536Y-106414520D01*
X207468580Y-106427133D01*
X207488285Y-106441747D01*
X207506464Y-106458223D01*
X207522940Y-106476402D01*
X207537554Y-106496107D01*
X207550167Y-106517151D01*
X207560657Y-106539329D01*
X207568922Y-106562429D01*
X207574883Y-106586227D01*
X207578483Y-106610496D01*
X207579687Y-106635000D01*
X207579687Y-107560000D01*
X207578483Y-107584504D01*
X207574883Y-107608773D01*
X207568922Y-107632571D01*
X207560657Y-107655671D01*
X207550167Y-107677849D01*
X207537554Y-107698893D01*
X207522940Y-107718598D01*
X207506464Y-107736777D01*
X207488285Y-107753253D01*
X207468580Y-107767867D01*
X207447536Y-107780480D01*
X207425358Y-107790970D01*
X207402258Y-107799235D01*
X207378460Y-107805196D01*
X207354191Y-107808796D01*
X207329687Y-107810000D01*
X206079687Y-107810000D01*
X206055183Y-107808796D01*
X206030914Y-107805196D01*
X206007116Y-107799235D01*
X205984016Y-107790970D01*
X205961838Y-107780480D01*
X205940794Y-107767867D01*
X205921089Y-107753253D01*
X205902910Y-107736777D01*
X205886434Y-107718598D01*
X205871820Y-107698893D01*
X205859207Y-107677849D01*
X205848717Y-107655671D01*
X205840452Y-107632571D01*
X205834491Y-107608773D01*
X205830891Y-107584504D01*
X205829687Y-107560000D01*
X205829687Y-106635000D01*
X205830891Y-106610496D01*
X205834491Y-106586227D01*
X205840452Y-106562429D01*
X205848717Y-106539329D01*
X205859207Y-106517151D01*
X205871820Y-106496107D01*
X205886434Y-106476402D01*
X205902910Y-106458223D01*
X205921089Y-106441747D01*
X205940794Y-106427133D01*
X205961838Y-106414520D01*
X205984016Y-106404030D01*
X206007116Y-106395765D01*
X206030914Y-106389804D01*
X206055183Y-106386204D01*
X206079687Y-106385000D01*
X207329687Y-106385000D01*
X207354191Y-106386204D01*
X207354191Y-106386204D01*
G37*
D14*
G04 #@! TD*
G04 #@! TO.P,R11,1*
G04 #@! TO.N,Net-(C9-Pad1)*
X206704687Y-107097500D03*
D13*
G04 #@! TO.N,Net-(R8-Pad2)*
G04 #@! TO.C,R8*
G36*
X196599504Y-113992204D02*
X196623773Y-113995804D01*
X196647571Y-114001765D01*
X196670671Y-114010030D01*
X196692849Y-114020520D01*
X196713893Y-114033133D01*
X196733598Y-114047747D01*
X196751777Y-114064223D01*
X196768253Y-114082402D01*
X196782867Y-114102107D01*
X196795480Y-114123151D01*
X196805970Y-114145329D01*
X196814235Y-114168429D01*
X196820196Y-114192227D01*
X196823796Y-114216496D01*
X196825000Y-114241000D01*
X196825000Y-115491000D01*
X196823796Y-115515504D01*
X196820196Y-115539773D01*
X196814235Y-115563571D01*
X196805970Y-115586671D01*
X196795480Y-115608849D01*
X196782867Y-115629893D01*
X196768253Y-115649598D01*
X196751777Y-115667777D01*
X196733598Y-115684253D01*
X196713893Y-115698867D01*
X196692849Y-115711480D01*
X196670671Y-115721970D01*
X196647571Y-115730235D01*
X196623773Y-115736196D01*
X196599504Y-115739796D01*
X196575000Y-115741000D01*
X195650000Y-115741000D01*
X195625496Y-115739796D01*
X195601227Y-115736196D01*
X195577429Y-115730235D01*
X195554329Y-115721970D01*
X195532151Y-115711480D01*
X195511107Y-115698867D01*
X195491402Y-115684253D01*
X195473223Y-115667777D01*
X195456747Y-115649598D01*
X195442133Y-115629893D01*
X195429520Y-115608849D01*
X195419030Y-115586671D01*
X195410765Y-115563571D01*
X195404804Y-115539773D01*
X195401204Y-115515504D01*
X195400000Y-115491000D01*
X195400000Y-114241000D01*
X195401204Y-114216496D01*
X195404804Y-114192227D01*
X195410765Y-114168429D01*
X195419030Y-114145329D01*
X195429520Y-114123151D01*
X195442133Y-114102107D01*
X195456747Y-114082402D01*
X195473223Y-114064223D01*
X195491402Y-114047747D01*
X195511107Y-114033133D01*
X195532151Y-114020520D01*
X195554329Y-114010030D01*
X195577429Y-114001765D01*
X195601227Y-113995804D01*
X195625496Y-113992204D01*
X195650000Y-113991000D01*
X196575000Y-113991000D01*
X196599504Y-113992204D01*
X196599504Y-113992204D01*
G37*
D14*
G04 #@! TD*
G04 #@! TO.P,R8,2*
G04 #@! TO.N,Net-(R8-Pad2)*
X196112500Y-114866000D03*
D13*
G04 #@! TO.N,+5V*
G04 #@! TO.C,R8*
G36*
X193624504Y-113992204D02*
X193648773Y-113995804D01*
X193672571Y-114001765D01*
X193695671Y-114010030D01*
X193717849Y-114020520D01*
X193738893Y-114033133D01*
X193758598Y-114047747D01*
X193776777Y-114064223D01*
X193793253Y-114082402D01*
X193807867Y-114102107D01*
X193820480Y-114123151D01*
X193830970Y-114145329D01*
X193839235Y-114168429D01*
X193845196Y-114192227D01*
X193848796Y-114216496D01*
X193850000Y-114241000D01*
X193850000Y-115491000D01*
X193848796Y-115515504D01*
X193845196Y-115539773D01*
X193839235Y-115563571D01*
X193830970Y-115586671D01*
X193820480Y-115608849D01*
X193807867Y-115629893D01*
X193793253Y-115649598D01*
X193776777Y-115667777D01*
X193758598Y-115684253D01*
X193738893Y-115698867D01*
X193717849Y-115711480D01*
X193695671Y-115721970D01*
X193672571Y-115730235D01*
X193648773Y-115736196D01*
X193624504Y-115739796D01*
X193600000Y-115741000D01*
X192675000Y-115741000D01*
X192650496Y-115739796D01*
X192626227Y-115736196D01*
X192602429Y-115730235D01*
X192579329Y-115721970D01*
X192557151Y-115711480D01*
X192536107Y-115698867D01*
X192516402Y-115684253D01*
X192498223Y-115667777D01*
X192481747Y-115649598D01*
X192467133Y-115629893D01*
X192454520Y-115608849D01*
X192444030Y-115586671D01*
X192435765Y-115563571D01*
X192429804Y-115539773D01*
X192426204Y-115515504D01*
X192425000Y-115491000D01*
X192425000Y-114241000D01*
X192426204Y-114216496D01*
X192429804Y-114192227D01*
X192435765Y-114168429D01*
X192444030Y-114145329D01*
X192454520Y-114123151D01*
X192467133Y-114102107D01*
X192481747Y-114082402D01*
X192498223Y-114064223D01*
X192516402Y-114047747D01*
X192536107Y-114033133D01*
X192557151Y-114020520D01*
X192579329Y-114010030D01*
X192602429Y-114001765D01*
X192626227Y-113995804D01*
X192650496Y-113992204D01*
X192675000Y-113991000D01*
X193600000Y-113991000D01*
X193624504Y-113992204D01*
X193624504Y-113992204D01*
G37*
D14*
G04 #@! TD*
G04 #@! TO.P,R8,1*
G04 #@! TO.N,+5V*
X193137500Y-114866000D03*
D13*
G04 #@! TO.N,+2V5*
G04 #@! TO.C,R3*
G36*
X140778004Y-82657704D02*
X140802273Y-82661304D01*
X140826071Y-82667265D01*
X140849171Y-82675530D01*
X140871349Y-82686020D01*
X140892393Y-82698633D01*
X140912098Y-82713247D01*
X140930277Y-82729723D01*
X140946753Y-82747902D01*
X140961367Y-82767607D01*
X140973980Y-82788651D01*
X140984470Y-82810829D01*
X140992735Y-82833929D01*
X140998696Y-82857727D01*
X141002296Y-82881996D01*
X141003500Y-82906500D01*
X141003500Y-84156500D01*
X141002296Y-84181004D01*
X140998696Y-84205273D01*
X140992735Y-84229071D01*
X140984470Y-84252171D01*
X140973980Y-84274349D01*
X140961367Y-84295393D01*
X140946753Y-84315098D01*
X140930277Y-84333277D01*
X140912098Y-84349753D01*
X140892393Y-84364367D01*
X140871349Y-84376980D01*
X140849171Y-84387470D01*
X140826071Y-84395735D01*
X140802273Y-84401696D01*
X140778004Y-84405296D01*
X140753500Y-84406500D01*
X139828500Y-84406500D01*
X139803996Y-84405296D01*
X139779727Y-84401696D01*
X139755929Y-84395735D01*
X139732829Y-84387470D01*
X139710651Y-84376980D01*
X139689607Y-84364367D01*
X139669902Y-84349753D01*
X139651723Y-84333277D01*
X139635247Y-84315098D01*
X139620633Y-84295393D01*
X139608020Y-84274349D01*
X139597530Y-84252171D01*
X139589265Y-84229071D01*
X139583304Y-84205273D01*
X139579704Y-84181004D01*
X139578500Y-84156500D01*
X139578500Y-82906500D01*
X139579704Y-82881996D01*
X139583304Y-82857727D01*
X139589265Y-82833929D01*
X139597530Y-82810829D01*
X139608020Y-82788651D01*
X139620633Y-82767607D01*
X139635247Y-82747902D01*
X139651723Y-82729723D01*
X139669902Y-82713247D01*
X139689607Y-82698633D01*
X139710651Y-82686020D01*
X139732829Y-82675530D01*
X139755929Y-82667265D01*
X139779727Y-82661304D01*
X139803996Y-82657704D01*
X139828500Y-82656500D01*
X140753500Y-82656500D01*
X140778004Y-82657704D01*
X140778004Y-82657704D01*
G37*
D14*
G04 #@! TD*
G04 #@! TO.P,R3,2*
G04 #@! TO.N,+2V5*
X140291000Y-83531500D03*
D13*
G04 #@! TO.N,+5VA*
G04 #@! TO.C,R3*
G36*
X137803004Y-82657704D02*
X137827273Y-82661304D01*
X137851071Y-82667265D01*
X137874171Y-82675530D01*
X137896349Y-82686020D01*
X137917393Y-82698633D01*
X137937098Y-82713247D01*
X137955277Y-82729723D01*
X137971753Y-82747902D01*
X137986367Y-82767607D01*
X137998980Y-82788651D01*
X138009470Y-82810829D01*
X138017735Y-82833929D01*
X138023696Y-82857727D01*
X138027296Y-82881996D01*
X138028500Y-82906500D01*
X138028500Y-84156500D01*
X138027296Y-84181004D01*
X138023696Y-84205273D01*
X138017735Y-84229071D01*
X138009470Y-84252171D01*
X137998980Y-84274349D01*
X137986367Y-84295393D01*
X137971753Y-84315098D01*
X137955277Y-84333277D01*
X137937098Y-84349753D01*
X137917393Y-84364367D01*
X137896349Y-84376980D01*
X137874171Y-84387470D01*
X137851071Y-84395735D01*
X137827273Y-84401696D01*
X137803004Y-84405296D01*
X137778500Y-84406500D01*
X136853500Y-84406500D01*
X136828996Y-84405296D01*
X136804727Y-84401696D01*
X136780929Y-84395735D01*
X136757829Y-84387470D01*
X136735651Y-84376980D01*
X136714607Y-84364367D01*
X136694902Y-84349753D01*
X136676723Y-84333277D01*
X136660247Y-84315098D01*
X136645633Y-84295393D01*
X136633020Y-84274349D01*
X136622530Y-84252171D01*
X136614265Y-84229071D01*
X136608304Y-84205273D01*
X136604704Y-84181004D01*
X136603500Y-84156500D01*
X136603500Y-82906500D01*
X136604704Y-82881996D01*
X136608304Y-82857727D01*
X136614265Y-82833929D01*
X136622530Y-82810829D01*
X136633020Y-82788651D01*
X136645633Y-82767607D01*
X136660247Y-82747902D01*
X136676723Y-82729723D01*
X136694902Y-82713247D01*
X136714607Y-82698633D01*
X136735651Y-82686020D01*
X136757829Y-82675530D01*
X136780929Y-82667265D01*
X136804727Y-82661304D01*
X136828996Y-82657704D01*
X136853500Y-82656500D01*
X137778500Y-82656500D01*
X137803004Y-82657704D01*
X137803004Y-82657704D01*
G37*
D14*
G04 #@! TD*
G04 #@! TO.P,R3,1*
G04 #@! TO.N,+5VA*
X137316000Y-83531500D03*
D13*
G04 #@! TO.N,/VAmpSense-*
G04 #@! TO.C,R6*
G36*
X167401504Y-91328204D02*
X167425773Y-91331804D01*
X167449571Y-91337765D01*
X167472671Y-91346030D01*
X167494849Y-91356520D01*
X167515893Y-91369133D01*
X167535598Y-91383747D01*
X167553777Y-91400223D01*
X167570253Y-91418402D01*
X167584867Y-91438107D01*
X167597480Y-91459151D01*
X167607970Y-91481329D01*
X167616235Y-91504429D01*
X167622196Y-91528227D01*
X167625796Y-91552496D01*
X167627000Y-91577000D01*
X167627000Y-92827000D01*
X167625796Y-92851504D01*
X167622196Y-92875773D01*
X167616235Y-92899571D01*
X167607970Y-92922671D01*
X167597480Y-92944849D01*
X167584867Y-92965893D01*
X167570253Y-92985598D01*
X167553777Y-93003777D01*
X167535598Y-93020253D01*
X167515893Y-93034867D01*
X167494849Y-93047480D01*
X167472671Y-93057970D01*
X167449571Y-93066235D01*
X167425773Y-93072196D01*
X167401504Y-93075796D01*
X167377000Y-93077000D01*
X166452000Y-93077000D01*
X166427496Y-93075796D01*
X166403227Y-93072196D01*
X166379429Y-93066235D01*
X166356329Y-93057970D01*
X166334151Y-93047480D01*
X166313107Y-93034867D01*
X166293402Y-93020253D01*
X166275223Y-93003777D01*
X166258747Y-92985598D01*
X166244133Y-92965893D01*
X166231520Y-92944849D01*
X166221030Y-92922671D01*
X166212765Y-92899571D01*
X166206804Y-92875773D01*
X166203204Y-92851504D01*
X166202000Y-92827000D01*
X166202000Y-91577000D01*
X166203204Y-91552496D01*
X166206804Y-91528227D01*
X166212765Y-91504429D01*
X166221030Y-91481329D01*
X166231520Y-91459151D01*
X166244133Y-91438107D01*
X166258747Y-91418402D01*
X166275223Y-91400223D01*
X166293402Y-91383747D01*
X166313107Y-91369133D01*
X166334151Y-91356520D01*
X166356329Y-91346030D01*
X166379429Y-91337765D01*
X166403227Y-91331804D01*
X166427496Y-91328204D01*
X166452000Y-91327000D01*
X167377000Y-91327000D01*
X167401504Y-91328204D01*
X167401504Y-91328204D01*
G37*
D14*
G04 #@! TD*
G04 #@! TO.P,R6,2*
G04 #@! TO.N,/VAmpSense-*
X166914500Y-92202000D03*
D13*
G04 #@! TO.N,/VSense+*
G04 #@! TO.C,R6*
G36*
X170376504Y-91328204D02*
X170400773Y-91331804D01*
X170424571Y-91337765D01*
X170447671Y-91346030D01*
X170469849Y-91356520D01*
X170490893Y-91369133D01*
X170510598Y-91383747D01*
X170528777Y-91400223D01*
X170545253Y-91418402D01*
X170559867Y-91438107D01*
X170572480Y-91459151D01*
X170582970Y-91481329D01*
X170591235Y-91504429D01*
X170597196Y-91528227D01*
X170600796Y-91552496D01*
X170602000Y-91577000D01*
X170602000Y-92827000D01*
X170600796Y-92851504D01*
X170597196Y-92875773D01*
X170591235Y-92899571D01*
X170582970Y-92922671D01*
X170572480Y-92944849D01*
X170559867Y-92965893D01*
X170545253Y-92985598D01*
X170528777Y-93003777D01*
X170510598Y-93020253D01*
X170490893Y-93034867D01*
X170469849Y-93047480D01*
X170447671Y-93057970D01*
X170424571Y-93066235D01*
X170400773Y-93072196D01*
X170376504Y-93075796D01*
X170352000Y-93077000D01*
X169427000Y-93077000D01*
X169402496Y-93075796D01*
X169378227Y-93072196D01*
X169354429Y-93066235D01*
X169331329Y-93057970D01*
X169309151Y-93047480D01*
X169288107Y-93034867D01*
X169268402Y-93020253D01*
X169250223Y-93003777D01*
X169233747Y-92985598D01*
X169219133Y-92965893D01*
X169206520Y-92944849D01*
X169196030Y-92922671D01*
X169187765Y-92899571D01*
X169181804Y-92875773D01*
X169178204Y-92851504D01*
X169177000Y-92827000D01*
X169177000Y-91577000D01*
X169178204Y-91552496D01*
X169181804Y-91528227D01*
X169187765Y-91504429D01*
X169196030Y-91481329D01*
X169206520Y-91459151D01*
X169219133Y-91438107D01*
X169233747Y-91418402D01*
X169250223Y-91400223D01*
X169268402Y-91383747D01*
X169288107Y-91369133D01*
X169309151Y-91356520D01*
X169331329Y-91346030D01*
X169354429Y-91337765D01*
X169378227Y-91331804D01*
X169402496Y-91328204D01*
X169427000Y-91327000D01*
X170352000Y-91327000D01*
X170376504Y-91328204D01*
X170376504Y-91328204D01*
G37*
D14*
G04 #@! TD*
G04 #@! TO.P,R6,1*
G04 #@! TO.N,/VSense+*
X169889500Y-92202000D03*
D13*
G04 #@! TO.N,Net-(R1-Pad2)*
G04 #@! TO.C,R1*
G36*
X135076504Y-71138204D02*
X135100773Y-71141804D01*
X135124571Y-71147765D01*
X135147671Y-71156030D01*
X135169849Y-71166520D01*
X135190893Y-71179133D01*
X135210598Y-71193747D01*
X135228777Y-71210223D01*
X135245253Y-71228402D01*
X135259867Y-71248107D01*
X135272480Y-71269151D01*
X135282970Y-71291329D01*
X135291235Y-71314429D01*
X135297196Y-71338227D01*
X135300796Y-71362496D01*
X135302000Y-71387000D01*
X135302000Y-72312000D01*
X135300796Y-72336504D01*
X135297196Y-72360773D01*
X135291235Y-72384571D01*
X135282970Y-72407671D01*
X135272480Y-72429849D01*
X135259867Y-72450893D01*
X135245253Y-72470598D01*
X135228777Y-72488777D01*
X135210598Y-72505253D01*
X135190893Y-72519867D01*
X135169849Y-72532480D01*
X135147671Y-72542970D01*
X135124571Y-72551235D01*
X135100773Y-72557196D01*
X135076504Y-72560796D01*
X135052000Y-72562000D01*
X133802000Y-72562000D01*
X133777496Y-72560796D01*
X133753227Y-72557196D01*
X133729429Y-72551235D01*
X133706329Y-72542970D01*
X133684151Y-72532480D01*
X133663107Y-72519867D01*
X133643402Y-72505253D01*
X133625223Y-72488777D01*
X133608747Y-72470598D01*
X133594133Y-72450893D01*
X133581520Y-72429849D01*
X133571030Y-72407671D01*
X133562765Y-72384571D01*
X133556804Y-72360773D01*
X133553204Y-72336504D01*
X133552000Y-72312000D01*
X133552000Y-71387000D01*
X133553204Y-71362496D01*
X133556804Y-71338227D01*
X133562765Y-71314429D01*
X133571030Y-71291329D01*
X133581520Y-71269151D01*
X133594133Y-71248107D01*
X133608747Y-71228402D01*
X133625223Y-71210223D01*
X133643402Y-71193747D01*
X133663107Y-71179133D01*
X133684151Y-71166520D01*
X133706329Y-71156030D01*
X133729429Y-71147765D01*
X133753227Y-71141804D01*
X133777496Y-71138204D01*
X133802000Y-71137000D01*
X135052000Y-71137000D01*
X135076504Y-71138204D01*
X135076504Y-71138204D01*
G37*
D14*
G04 #@! TD*
G04 #@! TO.P,R1,2*
G04 #@! TO.N,Net-(R1-Pad2)*
X134427000Y-71849500D03*
D13*
G04 #@! TO.N,+5V*
G04 #@! TO.C,R1*
G36*
X135076504Y-74113204D02*
X135100773Y-74116804D01*
X135124571Y-74122765D01*
X135147671Y-74131030D01*
X135169849Y-74141520D01*
X135190893Y-74154133D01*
X135210598Y-74168747D01*
X135228777Y-74185223D01*
X135245253Y-74203402D01*
X135259867Y-74223107D01*
X135272480Y-74244151D01*
X135282970Y-74266329D01*
X135291235Y-74289429D01*
X135297196Y-74313227D01*
X135300796Y-74337496D01*
X135302000Y-74362000D01*
X135302000Y-75287000D01*
X135300796Y-75311504D01*
X135297196Y-75335773D01*
X135291235Y-75359571D01*
X135282970Y-75382671D01*
X135272480Y-75404849D01*
X135259867Y-75425893D01*
X135245253Y-75445598D01*
X135228777Y-75463777D01*
X135210598Y-75480253D01*
X135190893Y-75494867D01*
X135169849Y-75507480D01*
X135147671Y-75517970D01*
X135124571Y-75526235D01*
X135100773Y-75532196D01*
X135076504Y-75535796D01*
X135052000Y-75537000D01*
X133802000Y-75537000D01*
X133777496Y-75535796D01*
X133753227Y-75532196D01*
X133729429Y-75526235D01*
X133706329Y-75517970D01*
X133684151Y-75507480D01*
X133663107Y-75494867D01*
X133643402Y-75480253D01*
X133625223Y-75463777D01*
X133608747Y-75445598D01*
X133594133Y-75425893D01*
X133581520Y-75404849D01*
X133571030Y-75382671D01*
X133562765Y-75359571D01*
X133556804Y-75335773D01*
X133553204Y-75311504D01*
X133552000Y-75287000D01*
X133552000Y-74362000D01*
X133553204Y-74337496D01*
X133556804Y-74313227D01*
X133562765Y-74289429D01*
X133571030Y-74266329D01*
X133581520Y-74244151D01*
X133594133Y-74223107D01*
X133608747Y-74203402D01*
X133625223Y-74185223D01*
X133643402Y-74168747D01*
X133663107Y-74154133D01*
X133684151Y-74141520D01*
X133706329Y-74131030D01*
X133729429Y-74122765D01*
X133753227Y-74116804D01*
X133777496Y-74113204D01*
X133802000Y-74112000D01*
X135052000Y-74112000D01*
X135076504Y-74113204D01*
X135076504Y-74113204D01*
G37*
D14*
G04 #@! TD*
G04 #@! TO.P,R1,1*
G04 #@! TO.N,+5V*
X134427000Y-74824500D03*
D13*
G04 #@! TO.N,GNDA*
G04 #@! TO.C,R4*
G36*
X137315504Y-79657704D02*
X137339773Y-79661304D01*
X137363571Y-79667265D01*
X137386671Y-79675530D01*
X137408849Y-79686020D01*
X137429893Y-79698633D01*
X137449598Y-79713247D01*
X137467777Y-79729723D01*
X137484253Y-79747902D01*
X137498867Y-79767607D01*
X137511480Y-79788651D01*
X137521970Y-79810829D01*
X137530235Y-79833929D01*
X137536196Y-79857727D01*
X137539796Y-79881996D01*
X137541000Y-79906500D01*
X137541000Y-81156500D01*
X137539796Y-81181004D01*
X137536196Y-81205273D01*
X137530235Y-81229071D01*
X137521970Y-81252171D01*
X137511480Y-81274349D01*
X137498867Y-81295393D01*
X137484253Y-81315098D01*
X137467777Y-81333277D01*
X137449598Y-81349753D01*
X137429893Y-81364367D01*
X137408849Y-81376980D01*
X137386671Y-81387470D01*
X137363571Y-81395735D01*
X137339773Y-81401696D01*
X137315504Y-81405296D01*
X137291000Y-81406500D01*
X136366000Y-81406500D01*
X136341496Y-81405296D01*
X136317227Y-81401696D01*
X136293429Y-81395735D01*
X136270329Y-81387470D01*
X136248151Y-81376980D01*
X136227107Y-81364367D01*
X136207402Y-81349753D01*
X136189223Y-81333277D01*
X136172747Y-81315098D01*
X136158133Y-81295393D01*
X136145520Y-81274349D01*
X136135030Y-81252171D01*
X136126765Y-81229071D01*
X136120804Y-81205273D01*
X136117204Y-81181004D01*
X136116000Y-81156500D01*
X136116000Y-79906500D01*
X136117204Y-79881996D01*
X136120804Y-79857727D01*
X136126765Y-79833929D01*
X136135030Y-79810829D01*
X136145520Y-79788651D01*
X136158133Y-79767607D01*
X136172747Y-79747902D01*
X136189223Y-79729723D01*
X136207402Y-79713247D01*
X136227107Y-79698633D01*
X136248151Y-79686020D01*
X136270329Y-79675530D01*
X136293429Y-79667265D01*
X136317227Y-79661304D01*
X136341496Y-79657704D01*
X136366000Y-79656500D01*
X137291000Y-79656500D01*
X137315504Y-79657704D01*
X137315504Y-79657704D01*
G37*
D14*
G04 #@! TD*
G04 #@! TO.P,R4,2*
G04 #@! TO.N,GNDA*
X136828500Y-80531500D03*
D13*
G04 #@! TO.N,+2V5*
G04 #@! TO.C,R4*
G36*
X140290504Y-79657704D02*
X140314773Y-79661304D01*
X140338571Y-79667265D01*
X140361671Y-79675530D01*
X140383849Y-79686020D01*
X140404893Y-79698633D01*
X140424598Y-79713247D01*
X140442777Y-79729723D01*
X140459253Y-79747902D01*
X140473867Y-79767607D01*
X140486480Y-79788651D01*
X140496970Y-79810829D01*
X140505235Y-79833929D01*
X140511196Y-79857727D01*
X140514796Y-79881996D01*
X140516000Y-79906500D01*
X140516000Y-81156500D01*
X140514796Y-81181004D01*
X140511196Y-81205273D01*
X140505235Y-81229071D01*
X140496970Y-81252171D01*
X140486480Y-81274349D01*
X140473867Y-81295393D01*
X140459253Y-81315098D01*
X140442777Y-81333277D01*
X140424598Y-81349753D01*
X140404893Y-81364367D01*
X140383849Y-81376980D01*
X140361671Y-81387470D01*
X140338571Y-81395735D01*
X140314773Y-81401696D01*
X140290504Y-81405296D01*
X140266000Y-81406500D01*
X139341000Y-81406500D01*
X139316496Y-81405296D01*
X139292227Y-81401696D01*
X139268429Y-81395735D01*
X139245329Y-81387470D01*
X139223151Y-81376980D01*
X139202107Y-81364367D01*
X139182402Y-81349753D01*
X139164223Y-81333277D01*
X139147747Y-81315098D01*
X139133133Y-81295393D01*
X139120520Y-81274349D01*
X139110030Y-81252171D01*
X139101765Y-81229071D01*
X139095804Y-81205273D01*
X139092204Y-81181004D01*
X139091000Y-81156500D01*
X139091000Y-79906500D01*
X139092204Y-79881996D01*
X139095804Y-79857727D01*
X139101765Y-79833929D01*
X139110030Y-79810829D01*
X139120520Y-79788651D01*
X139133133Y-79767607D01*
X139147747Y-79747902D01*
X139164223Y-79729723D01*
X139182402Y-79713247D01*
X139202107Y-79698633D01*
X139223151Y-79686020D01*
X139245329Y-79675530D01*
X139268429Y-79667265D01*
X139292227Y-79661304D01*
X139316496Y-79657704D01*
X139341000Y-79656500D01*
X140266000Y-79656500D01*
X140290504Y-79657704D01*
X140290504Y-79657704D01*
G37*
D14*
G04 #@! TD*
G04 #@! TO.P,R4,1*
G04 #@! TO.N,+2V5*
X139803500Y-80531500D03*
D13*
G04 #@! TO.N,Net-(R2-Pad2)*
G04 #@! TO.C,R2*
G36*
X115899504Y-68852204D02*
X115923773Y-68855804D01*
X115947571Y-68861765D01*
X115970671Y-68870030D01*
X115992849Y-68880520D01*
X116013893Y-68893133D01*
X116033598Y-68907747D01*
X116051777Y-68924223D01*
X116068253Y-68942402D01*
X116082867Y-68962107D01*
X116095480Y-68983151D01*
X116105970Y-69005329D01*
X116114235Y-69028429D01*
X116120196Y-69052227D01*
X116123796Y-69076496D01*
X116125000Y-69101000D01*
X116125000Y-70026000D01*
X116123796Y-70050504D01*
X116120196Y-70074773D01*
X116114235Y-70098571D01*
X116105970Y-70121671D01*
X116095480Y-70143849D01*
X116082867Y-70164893D01*
X116068253Y-70184598D01*
X116051777Y-70202777D01*
X116033598Y-70219253D01*
X116013893Y-70233867D01*
X115992849Y-70246480D01*
X115970671Y-70256970D01*
X115947571Y-70265235D01*
X115923773Y-70271196D01*
X115899504Y-70274796D01*
X115875000Y-70276000D01*
X114625000Y-70276000D01*
X114600496Y-70274796D01*
X114576227Y-70271196D01*
X114552429Y-70265235D01*
X114529329Y-70256970D01*
X114507151Y-70246480D01*
X114486107Y-70233867D01*
X114466402Y-70219253D01*
X114448223Y-70202777D01*
X114431747Y-70184598D01*
X114417133Y-70164893D01*
X114404520Y-70143849D01*
X114394030Y-70121671D01*
X114385765Y-70098571D01*
X114379804Y-70074773D01*
X114376204Y-70050504D01*
X114375000Y-70026000D01*
X114375000Y-69101000D01*
X114376204Y-69076496D01*
X114379804Y-69052227D01*
X114385765Y-69028429D01*
X114394030Y-69005329D01*
X114404520Y-68983151D01*
X114417133Y-68962107D01*
X114431747Y-68942402D01*
X114448223Y-68924223D01*
X114466402Y-68907747D01*
X114486107Y-68893133D01*
X114507151Y-68880520D01*
X114529329Y-68870030D01*
X114552429Y-68861765D01*
X114576227Y-68855804D01*
X114600496Y-68852204D01*
X114625000Y-68851000D01*
X115875000Y-68851000D01*
X115899504Y-68852204D01*
X115899504Y-68852204D01*
G37*
D14*
G04 #@! TD*
G04 #@! TO.P,R2,2*
G04 #@! TO.N,Net-(R2-Pad2)*
X115250000Y-69563500D03*
D13*
G04 #@! TO.N,+5V*
G04 #@! TO.C,R2*
G36*
X115899504Y-71827204D02*
X115923773Y-71830804D01*
X115947571Y-71836765D01*
X115970671Y-71845030D01*
X115992849Y-71855520D01*
X116013893Y-71868133D01*
X116033598Y-71882747D01*
X116051777Y-71899223D01*
X116068253Y-71917402D01*
X116082867Y-71937107D01*
X116095480Y-71958151D01*
X116105970Y-71980329D01*
X116114235Y-72003429D01*
X116120196Y-72027227D01*
X116123796Y-72051496D01*
X116125000Y-72076000D01*
X116125000Y-73001000D01*
X116123796Y-73025504D01*
X116120196Y-73049773D01*
X116114235Y-73073571D01*
X116105970Y-73096671D01*
X116095480Y-73118849D01*
X116082867Y-73139893D01*
X116068253Y-73159598D01*
X116051777Y-73177777D01*
X116033598Y-73194253D01*
X116013893Y-73208867D01*
X115992849Y-73221480D01*
X115970671Y-73231970D01*
X115947571Y-73240235D01*
X115923773Y-73246196D01*
X115899504Y-73249796D01*
X115875000Y-73251000D01*
X114625000Y-73251000D01*
X114600496Y-73249796D01*
X114576227Y-73246196D01*
X114552429Y-73240235D01*
X114529329Y-73231970D01*
X114507151Y-73221480D01*
X114486107Y-73208867D01*
X114466402Y-73194253D01*
X114448223Y-73177777D01*
X114431747Y-73159598D01*
X114417133Y-73139893D01*
X114404520Y-73118849D01*
X114394030Y-73096671D01*
X114385765Y-73073571D01*
X114379804Y-73049773D01*
X114376204Y-73025504D01*
X114375000Y-73001000D01*
X114375000Y-72076000D01*
X114376204Y-72051496D01*
X114379804Y-72027227D01*
X114385765Y-72003429D01*
X114394030Y-71980329D01*
X114404520Y-71958151D01*
X114417133Y-71937107D01*
X114431747Y-71917402D01*
X114448223Y-71899223D01*
X114466402Y-71882747D01*
X114486107Y-71868133D01*
X114507151Y-71855520D01*
X114529329Y-71845030D01*
X114552429Y-71836765D01*
X114576227Y-71830804D01*
X114600496Y-71827204D01*
X114625000Y-71826000D01*
X115875000Y-71826000D01*
X115899504Y-71827204D01*
X115899504Y-71827204D01*
G37*
D14*
G04 #@! TD*
G04 #@! TO.P,R2,1*
G04 #@! TO.N,+5V*
X115250000Y-72538500D03*
D13*
G04 #@! TO.N,Net-(R12-Pad2)*
G04 #@! TO.C,R12*
G36*
X141300504Y-122120204D02*
X141324773Y-122123804D01*
X141348571Y-122129765D01*
X141371671Y-122138030D01*
X141393849Y-122148520D01*
X141414893Y-122161133D01*
X141434598Y-122175747D01*
X141452777Y-122192223D01*
X141469253Y-122210402D01*
X141483867Y-122230107D01*
X141496480Y-122251151D01*
X141506970Y-122273329D01*
X141515235Y-122296429D01*
X141521196Y-122320227D01*
X141524796Y-122344496D01*
X141526000Y-122369000D01*
X141526000Y-123619000D01*
X141524796Y-123643504D01*
X141521196Y-123667773D01*
X141515235Y-123691571D01*
X141506970Y-123714671D01*
X141496480Y-123736849D01*
X141483867Y-123757893D01*
X141469253Y-123777598D01*
X141452777Y-123795777D01*
X141434598Y-123812253D01*
X141414893Y-123826867D01*
X141393849Y-123839480D01*
X141371671Y-123849970D01*
X141348571Y-123858235D01*
X141324773Y-123864196D01*
X141300504Y-123867796D01*
X141276000Y-123869000D01*
X140351000Y-123869000D01*
X140326496Y-123867796D01*
X140302227Y-123864196D01*
X140278429Y-123858235D01*
X140255329Y-123849970D01*
X140233151Y-123839480D01*
X140212107Y-123826867D01*
X140192402Y-123812253D01*
X140174223Y-123795777D01*
X140157747Y-123777598D01*
X140143133Y-123757893D01*
X140130520Y-123736849D01*
X140120030Y-123714671D01*
X140111765Y-123691571D01*
X140105804Y-123667773D01*
X140102204Y-123643504D01*
X140101000Y-123619000D01*
X140101000Y-122369000D01*
X140102204Y-122344496D01*
X140105804Y-122320227D01*
X140111765Y-122296429D01*
X140120030Y-122273329D01*
X140130520Y-122251151D01*
X140143133Y-122230107D01*
X140157747Y-122210402D01*
X140174223Y-122192223D01*
X140192402Y-122175747D01*
X140212107Y-122161133D01*
X140233151Y-122148520D01*
X140255329Y-122138030D01*
X140278429Y-122129765D01*
X140302227Y-122123804D01*
X140326496Y-122120204D01*
X140351000Y-122119000D01*
X141276000Y-122119000D01*
X141300504Y-122120204D01*
X141300504Y-122120204D01*
G37*
D14*
G04 #@! TD*
G04 #@! TO.P,R12,2*
G04 #@! TO.N,Net-(R12-Pad2)*
X140813500Y-122994000D03*
D13*
G04 #@! TO.N,+5V*
G04 #@! TO.C,R12*
G36*
X144275504Y-122120204D02*
X144299773Y-122123804D01*
X144323571Y-122129765D01*
X144346671Y-122138030D01*
X144368849Y-122148520D01*
X144389893Y-122161133D01*
X144409598Y-122175747D01*
X144427777Y-122192223D01*
X144444253Y-122210402D01*
X144458867Y-122230107D01*
X144471480Y-122251151D01*
X144481970Y-122273329D01*
X144490235Y-122296429D01*
X144496196Y-122320227D01*
X144499796Y-122344496D01*
X144501000Y-122369000D01*
X144501000Y-123619000D01*
X144499796Y-123643504D01*
X144496196Y-123667773D01*
X144490235Y-123691571D01*
X144481970Y-123714671D01*
X144471480Y-123736849D01*
X144458867Y-123757893D01*
X144444253Y-123777598D01*
X144427777Y-123795777D01*
X144409598Y-123812253D01*
X144389893Y-123826867D01*
X144368849Y-123839480D01*
X144346671Y-123849970D01*
X144323571Y-123858235D01*
X144299773Y-123864196D01*
X144275504Y-123867796D01*
X144251000Y-123869000D01*
X143326000Y-123869000D01*
X143301496Y-123867796D01*
X143277227Y-123864196D01*
X143253429Y-123858235D01*
X143230329Y-123849970D01*
X143208151Y-123839480D01*
X143187107Y-123826867D01*
X143167402Y-123812253D01*
X143149223Y-123795777D01*
X143132747Y-123777598D01*
X143118133Y-123757893D01*
X143105520Y-123736849D01*
X143095030Y-123714671D01*
X143086765Y-123691571D01*
X143080804Y-123667773D01*
X143077204Y-123643504D01*
X143076000Y-123619000D01*
X143076000Y-122369000D01*
X143077204Y-122344496D01*
X143080804Y-122320227D01*
X143086765Y-122296429D01*
X143095030Y-122273329D01*
X143105520Y-122251151D01*
X143118133Y-122230107D01*
X143132747Y-122210402D01*
X143149223Y-122192223D01*
X143167402Y-122175747D01*
X143187107Y-122161133D01*
X143208151Y-122148520D01*
X143230329Y-122138030D01*
X143253429Y-122129765D01*
X143277227Y-122123804D01*
X143301496Y-122120204D01*
X143326000Y-122119000D01*
X144251000Y-122119000D01*
X144275504Y-122120204D01*
X144275504Y-122120204D01*
G37*
D14*
G04 #@! TD*
G04 #@! TO.P,R12,1*
G04 #@! TO.N,+5V*
X143788500Y-122994000D03*
D13*
G04 #@! TO.N,/VSense-*
G04 #@! TO.C,R7*
G36*
X171356004Y-73294204D02*
X171380273Y-73297804D01*
X171404071Y-73303765D01*
X171427171Y-73312030D01*
X171449349Y-73322520D01*
X171470393Y-73335133D01*
X171490098Y-73349747D01*
X171508277Y-73366223D01*
X171524753Y-73384402D01*
X171539367Y-73404107D01*
X171551980Y-73425151D01*
X171562470Y-73447329D01*
X171570735Y-73470429D01*
X171576696Y-73494227D01*
X171580296Y-73518496D01*
X171581500Y-73543000D01*
X171581500Y-74793000D01*
X171580296Y-74817504D01*
X171576696Y-74841773D01*
X171570735Y-74865571D01*
X171562470Y-74888671D01*
X171551980Y-74910849D01*
X171539367Y-74931893D01*
X171524753Y-74951598D01*
X171508277Y-74969777D01*
X171490098Y-74986253D01*
X171470393Y-75000867D01*
X171449349Y-75013480D01*
X171427171Y-75023970D01*
X171404071Y-75032235D01*
X171380273Y-75038196D01*
X171356004Y-75041796D01*
X171331500Y-75043000D01*
X170406500Y-75043000D01*
X170381996Y-75041796D01*
X170357727Y-75038196D01*
X170333929Y-75032235D01*
X170310829Y-75023970D01*
X170288651Y-75013480D01*
X170267607Y-75000867D01*
X170247902Y-74986253D01*
X170229723Y-74969777D01*
X170213247Y-74951598D01*
X170198633Y-74931893D01*
X170186020Y-74910849D01*
X170175530Y-74888671D01*
X170167265Y-74865571D01*
X170161304Y-74841773D01*
X170157704Y-74817504D01*
X170156500Y-74793000D01*
X170156500Y-73543000D01*
X170157704Y-73518496D01*
X170161304Y-73494227D01*
X170167265Y-73470429D01*
X170175530Y-73447329D01*
X170186020Y-73425151D01*
X170198633Y-73404107D01*
X170213247Y-73384402D01*
X170229723Y-73366223D01*
X170247902Y-73349747D01*
X170267607Y-73335133D01*
X170288651Y-73322520D01*
X170310829Y-73312030D01*
X170333929Y-73303765D01*
X170357727Y-73297804D01*
X170381996Y-73294204D01*
X170406500Y-73293000D01*
X171331500Y-73293000D01*
X171356004Y-73294204D01*
X171356004Y-73294204D01*
G37*
D14*
G04 #@! TD*
G04 #@! TO.P,R7,2*
G04 #@! TO.N,/VSense-*
X170869000Y-74168000D03*
D13*
G04 #@! TO.N,/VAmpSense+*
G04 #@! TO.C,R7*
G36*
X168381004Y-73294204D02*
X168405273Y-73297804D01*
X168429071Y-73303765D01*
X168452171Y-73312030D01*
X168474349Y-73322520D01*
X168495393Y-73335133D01*
X168515098Y-73349747D01*
X168533277Y-73366223D01*
X168549753Y-73384402D01*
X168564367Y-73404107D01*
X168576980Y-73425151D01*
X168587470Y-73447329D01*
X168595735Y-73470429D01*
X168601696Y-73494227D01*
X168605296Y-73518496D01*
X168606500Y-73543000D01*
X168606500Y-74793000D01*
X168605296Y-74817504D01*
X168601696Y-74841773D01*
X168595735Y-74865571D01*
X168587470Y-74888671D01*
X168576980Y-74910849D01*
X168564367Y-74931893D01*
X168549753Y-74951598D01*
X168533277Y-74969777D01*
X168515098Y-74986253D01*
X168495393Y-75000867D01*
X168474349Y-75013480D01*
X168452171Y-75023970D01*
X168429071Y-75032235D01*
X168405273Y-75038196D01*
X168381004Y-75041796D01*
X168356500Y-75043000D01*
X167431500Y-75043000D01*
X167406996Y-75041796D01*
X167382727Y-75038196D01*
X167358929Y-75032235D01*
X167335829Y-75023970D01*
X167313651Y-75013480D01*
X167292607Y-75000867D01*
X167272902Y-74986253D01*
X167254723Y-74969777D01*
X167238247Y-74951598D01*
X167223633Y-74931893D01*
X167211020Y-74910849D01*
X167200530Y-74888671D01*
X167192265Y-74865571D01*
X167186304Y-74841773D01*
X167182704Y-74817504D01*
X167181500Y-74793000D01*
X167181500Y-73543000D01*
X167182704Y-73518496D01*
X167186304Y-73494227D01*
X167192265Y-73470429D01*
X167200530Y-73447329D01*
X167211020Y-73425151D01*
X167223633Y-73404107D01*
X167238247Y-73384402D01*
X167254723Y-73366223D01*
X167272902Y-73349747D01*
X167292607Y-73335133D01*
X167313651Y-73322520D01*
X167335829Y-73312030D01*
X167358929Y-73303765D01*
X167382727Y-73297804D01*
X167406996Y-73294204D01*
X167431500Y-73293000D01*
X168356500Y-73293000D01*
X168381004Y-73294204D01*
X168381004Y-73294204D01*
G37*
D14*
G04 #@! TD*
G04 #@! TO.P,R7,1*
G04 #@! TO.N,/VAmpSense+*
X167894000Y-74168000D03*
D20*
G04 #@! TO.P,J3,3*
G04 #@! TO.N,+5V*
X214564000Y-60637000D03*
G04 #@! TO.P,J3,2*
G04 #@! TO.N,GNDA*
X209484000Y-60637000D03*
D21*
G04 #@! TO.P,J3,1*
G04 #@! TO.N,VCC*
X204404000Y-60637000D03*
G04 #@! TD*
D20*
G04 #@! TO.P,J4,3*
G04 #@! TO.N,Net-(J4-Pad3)*
X190180000Y-60764000D03*
G04 #@! TO.P,J4,2*
G04 #@! TO.N,Net-(J4-Pad2)*
X185100000Y-60764000D03*
D21*
G04 #@! TO.P,J4,1*
G04 #@! TO.N,Net-(J4-Pad1)*
X180020000Y-60764000D03*
G04 #@! TD*
D20*
G04 #@! TO.P,J2,4*
G04 #@! TO.N,Load_hot_1*
X159827000Y-139250000D03*
D21*
G04 #@! TO.P,J2,1*
G04 #@! TO.N,Load_hot_2*
X175067000Y-139250000D03*
D20*
G04 #@! TO.P,J2,3*
G04 #@! TO.N,NEUT*
X164907000Y-139250000D03*
G04 #@! TO.P,J2,2*
G04 #@! TO.N,VAC*
X169987000Y-139250000D03*
G04 #@! TD*
D28*
G04 #@! TO.N,+5V*
X117155000Y-73972000D03*
X176464000Y-109532000D03*
X150789425Y-74119575D03*
X163383000Y-122359000D03*
G04 #@! TO.N,GNDA*
X172820000Y-85864000D03*
X129222500Y-92964000D03*
X135316000Y-81338000D03*
X131506000Y-111818000D03*
X153985000Y-121724000D03*
X138872000Y-104960000D03*
X200086000Y-93784000D03*
G04 #@! TO.N,+5VA*
X166320000Y-83864000D03*
X202946000Y-97091500D03*
X165798500Y-87222000D03*
X177099000Y-106103000D03*
X172527000Y-106230000D03*
G04 #@! TO.N,temp_sense_2*
X175321000Y-80703000D03*
G04 #@! TO.N,CS_2*
X204658004Y-91879000D03*
X150556000Y-65844000D03*
G04 #@! TO.N,switch_control_1*
X157160000Y-82862000D03*
X153985000Y-117025000D03*
X156652000Y-114358000D03*
G04 #@! TO.N,Net-(D4-Pad2)*
X173035000Y-61653000D03*
G04 #@! TO.N,Net-(D3-Pad2)*
X173035000Y-67114000D03*
G04 #@! TO.N,Net-(D2-Pad2)*
X132395000Y-67368000D03*
G04 #@! TO.N,Net-(D1-Pad2)*
X134554000Y-63812000D03*
G04 #@! TD*
D29*
G04 #@! TO.N,Load_hot_1*
X127830600Y-111734600D02*
X127830600Y-110464600D01*
D30*
X137348000Y-139250000D02*
X159827000Y-139250000D01*
X123393200Y-126057200D02*
X136967000Y-139631000D01*
X127830600Y-111734600D02*
X127830600Y-113034600D01*
X123393200Y-117666000D02*
X123393200Y-126057200D01*
X136967000Y-139631000D02*
X137348000Y-139250000D01*
X127830600Y-113034600D02*
X127927600Y-113131600D01*
X127927600Y-113131600D02*
X123393200Y-117666000D01*
D31*
G04 #@! TO.N,NEUT*
X182914000Y-129698000D02*
X182914000Y-133836000D01*
X164907000Y-139250000D02*
X164907000Y-130233000D01*
X164907000Y-130233000D02*
X166812000Y-128328000D01*
X166812000Y-128328000D02*
X181544000Y-128328000D01*
X181544000Y-128328000D02*
X182914000Y-129698000D01*
D30*
G04 #@! TO.N,VAC*
X210852000Y-108585000D02*
X210801200Y-108534200D01*
X212852000Y-108585000D02*
X210852000Y-108585000D01*
X210801200Y-108534200D02*
X209575400Y-108534200D01*
X208037100Y-110072500D02*
X206704687Y-110072500D01*
X209575400Y-108534200D02*
X208037100Y-110072500D01*
G04 #@! TO.N,VCC*
X202229000Y-78417000D02*
X200467000Y-78417000D01*
X204404000Y-76242000D02*
X202229000Y-78417000D01*
X204404000Y-60637000D02*
X204404000Y-76242000D01*
X200467000Y-78417000D02*
X200467000Y-80957000D01*
D32*
G04 #@! TO.N,+5V*
X159766000Y-122569000D02*
X157690000Y-124645000D01*
X145439500Y-124645000D02*
X143788500Y-122994000D01*
X157690000Y-124645000D02*
X145439500Y-124645000D01*
D33*
X116683500Y-73972000D02*
X115250000Y-72538500D01*
X117155000Y-73972000D02*
X116683500Y-73972000D01*
X133574500Y-73972000D02*
X134427000Y-74824500D01*
X117155000Y-73972000D02*
X133574500Y-73972000D01*
D30*
X219009000Y-81084000D02*
X219009000Y-78544000D01*
D33*
X224216000Y-84929000D02*
X224216000Y-94292000D01*
X220371000Y-81084000D02*
X224216000Y-84929000D01*
X219009000Y-81084000D02*
X220371000Y-81084000D01*
X224216000Y-94292000D02*
X217104000Y-101404000D01*
X217104000Y-101404000D02*
X196532806Y-101404000D01*
X217104000Y-101404000D02*
X214564000Y-101404000D01*
X214564000Y-101404000D02*
X196532806Y-101404000D01*
X196276000Y-101404000D02*
X190180000Y-107500000D01*
X196532806Y-101404000D02*
X196276000Y-101404000D01*
X183576000Y-107617000D02*
X181100000Y-110093000D01*
X183576000Y-107500000D02*
X183576000Y-107617000D01*
X190180000Y-107500000D02*
X183576000Y-107500000D01*
X181100000Y-110093000D02*
X181100000Y-111093000D01*
X190180000Y-107500000D02*
X190180000Y-108008000D01*
X193137500Y-110965500D02*
X193137500Y-114866000D01*
X190180000Y-108008000D02*
X193137500Y-110965500D01*
X150789425Y-83054575D02*
X145620000Y-88224000D01*
X150789425Y-74119575D02*
X150789425Y-83054575D01*
X161130500Y-122359000D02*
X162817315Y-122359000D01*
X162817315Y-122359000D02*
X163383000Y-122359000D01*
X160749500Y-122740000D02*
X161130500Y-122359000D01*
X213501149Y-100512510D02*
X195643490Y-100512510D01*
X179512000Y-106484000D02*
X176464000Y-109532000D01*
X195643490Y-100512510D02*
X189672000Y-106484000D01*
X219009000Y-81084000D02*
X219009000Y-82446000D01*
X189672000Y-106484000D02*
X179512000Y-106484000D01*
X219009000Y-82446000D02*
X222692000Y-86129000D01*
X222692000Y-86129000D02*
X222692000Y-91321659D01*
X222692000Y-91321659D02*
X213501149Y-100512510D01*
D32*
G04 #@! TO.N,Net-(R12-Pad2)*
X135711400Y-122994000D02*
X135644200Y-123061200D01*
X140813500Y-122994000D02*
X135711400Y-122994000D01*
G04 #@! TO.N,GNDA*
X200467000Y-67372000D02*
X200467000Y-68384000D01*
X200467000Y-70924000D02*
X200467000Y-68384000D01*
X171395000Y-87289000D02*
X171395000Y-87804000D01*
X172820000Y-85864000D02*
X171395000Y-87289000D01*
X121473900Y-95159500D02*
X121412000Y-95097600D01*
D31*
X129132000Y-92964000D02*
X127825500Y-94270500D01*
X129222500Y-92964000D02*
X129132000Y-92964000D01*
D32*
X136122500Y-80531500D02*
X135316000Y-81338000D01*
X136828500Y-80531500D02*
X136122500Y-80531500D01*
D31*
X131589400Y-111734600D02*
X131506000Y-111818000D01*
X133230600Y-111734600D02*
X131589400Y-111734600D01*
D32*
X154016000Y-121693000D02*
X153985000Y-121724000D01*
X156146500Y-121693000D02*
X154016000Y-121693000D01*
D33*
X212634500Y-96737500D02*
X212852000Y-96520000D01*
X206502000Y-96737500D02*
X212634500Y-96737500D01*
X137348000Y-103436000D02*
X138872000Y-104960000D01*
X137348000Y-103087500D02*
X137348000Y-103436000D01*
D29*
X199832000Y-94038000D02*
X200086000Y-93784000D01*
X199832000Y-95344500D02*
X199832000Y-94038000D01*
D32*
G04 #@! TO.N,+5VA*
X121412000Y-97637600D02*
X128027100Y-97637600D01*
X137316000Y-83531500D02*
X137316000Y-84506500D01*
D33*
X159702500Y-118718000D02*
X159766000Y-118781500D01*
X156146500Y-118718000D02*
X159702500Y-118718000D01*
X203345999Y-96691501D02*
X203345999Y-95104001D01*
X202946000Y-97091500D02*
X203345999Y-96691501D01*
X204687500Y-93762500D02*
X206502000Y-93762500D01*
X203345999Y-95104001D02*
X204687500Y-93762500D01*
D31*
X133230600Y-107924600D02*
X133705600Y-107924600D01*
X134383400Y-110464600D02*
X133230600Y-110464600D01*
X133705600Y-107924600D02*
X133916000Y-108135000D01*
X135062000Y-109786000D02*
X134383400Y-110464600D01*
X133916000Y-108135000D02*
X134808000Y-108135000D01*
X135062000Y-108389000D02*
X135062000Y-109786000D01*
X134808000Y-108135000D02*
X135062000Y-108389000D01*
D33*
X172317500Y-106230000D02*
X172527000Y-106230000D01*
X159766000Y-118781500D02*
X172317500Y-106230000D01*
X212634500Y-93762500D02*
X212852000Y-93980000D01*
X206502000Y-93762500D02*
X212634500Y-93762500D01*
X121804100Y-97245500D02*
X121412000Y-97637600D01*
X127825500Y-97245500D02*
X121804100Y-97245500D01*
X133230600Y-104505400D02*
X133230600Y-107924600D01*
X133230600Y-103254900D02*
X133230600Y-104505400D01*
X136373000Y-100112500D02*
X133230600Y-103254900D01*
X137348000Y-100112500D02*
X136373000Y-100112500D01*
X130692500Y-100112500D02*
X127825500Y-97245500D01*
X139573000Y-100813500D02*
X138872000Y-100112500D01*
X138872000Y-100112500D02*
X130692500Y-100112500D01*
X139573000Y-103629000D02*
X139573000Y-100813500D01*
X156146500Y-117662500D02*
X151318000Y-112834000D01*
X151318000Y-112834000D02*
X148778000Y-112834000D01*
X156146500Y-118718000D02*
X156146500Y-117662500D01*
X148778000Y-112834000D02*
X139573000Y-103629000D01*
X137316000Y-88672000D02*
X137316000Y-87688000D01*
X137316000Y-87688000D02*
X137316000Y-83531500D01*
X149032000Y-111056000D02*
X141412000Y-103436000D01*
X156146500Y-118718000D02*
X156146500Y-117905500D01*
X141412000Y-92768000D02*
X137316000Y-88672000D01*
X156144000Y-117903000D02*
X156144000Y-115628000D01*
X156146500Y-117905500D02*
X156144000Y-117903000D01*
X156144000Y-115628000D02*
X151572000Y-111056000D01*
X151572000Y-111056000D02*
X149032000Y-111056000D01*
X141412000Y-103436000D02*
X141412000Y-92768000D01*
X159766000Y-115098500D02*
X164465000Y-110399500D01*
X159766000Y-118781500D02*
X159766000Y-115098500D01*
X164465000Y-88555500D02*
X165798500Y-87222000D01*
X164465000Y-110399500D02*
X164465000Y-88555500D01*
X167585000Y-82599000D02*
X166320000Y-83864000D01*
X167585000Y-82404000D02*
X167585000Y-82599000D01*
X177099000Y-106103000D02*
X177099000Y-105849000D01*
X202130000Y-97091500D02*
X202946000Y-97091500D01*
X177099000Y-105849000D02*
X184513500Y-98434500D01*
X184513500Y-98434500D02*
X200787000Y-98434500D01*
X200787000Y-98434500D02*
X202130000Y-97091500D01*
X159933500Y-118718000D02*
X160589000Y-118062500D01*
X156146500Y-118718000D02*
X159933500Y-118718000D01*
D32*
G04 #@! TO.N,+2V5*
X140291000Y-81019000D02*
X139803500Y-80531500D01*
X140291000Y-83531500D02*
X140291000Y-81019000D01*
X140297500Y-83525000D02*
X140291000Y-83531500D01*
X139876000Y-80604000D02*
X139803500Y-80531500D01*
X145620000Y-80604000D02*
X139876000Y-80604000D01*
G04 #@! TO.N,Net-(R8-Pad2)*
X196377400Y-114866000D02*
X196112500Y-114866000D01*
X201250800Y-119739400D02*
X196377400Y-114866000D01*
X201250800Y-120789400D02*
X201250800Y-119739400D01*
G04 #@! TO.N,temp_sense_1*
X121459500Y-92557600D02*
X121412000Y-92557600D01*
X138493100Y-75524000D02*
X121459500Y-92557600D01*
X145620000Y-75524000D02*
X138493100Y-75524000D01*
G04 #@! TO.N,temp_sense_2*
X161009500Y-80454500D02*
X160860000Y-80604000D01*
X161454000Y-80010000D02*
X160860000Y-80604000D01*
D31*
X212852000Y-99060000D02*
X212899500Y-99060000D01*
D32*
X175720999Y-81102999D02*
X175321000Y-80703000D01*
X175720999Y-90119999D02*
X175720999Y-81102999D01*
X212899500Y-99060000D02*
X215326000Y-96633500D01*
X215326000Y-96633500D02*
X215326000Y-93276000D01*
X178205001Y-92604001D02*
X175720999Y-90119999D01*
X215326000Y-93276000D02*
X214654001Y-92604001D01*
X214654001Y-92604001D02*
X178205001Y-92604001D01*
D31*
G04 #@! TO.N,CS_2*
X157668000Y-58732000D02*
X150955999Y-65444001D01*
X150955999Y-65444001D02*
X150556000Y-65844000D01*
X173670000Y-58732000D02*
X157668000Y-58732000D01*
D32*
X176464000Y-61526000D02*
X173670000Y-58732000D01*
X176464000Y-90101000D02*
X176464000Y-61526000D01*
X178242000Y-91879000D02*
X176464000Y-90101000D01*
X204658004Y-91879000D02*
X178242000Y-91879000D01*
G04 #@! TO.N,Aref*
X171395000Y-85509000D02*
X171395000Y-82404000D01*
X170125000Y-86779000D02*
X171395000Y-85509000D01*
X170125000Y-87804000D02*
X170125000Y-86779000D01*
X171395000Y-81379000D02*
X173228000Y-79546000D01*
X171395000Y-82404000D02*
X171395000Y-81379000D01*
X147724910Y-65364000D02*
X145620000Y-65364000D01*
X153993511Y-71632601D02*
X147724910Y-65364000D01*
X170234291Y-71632601D02*
X153993511Y-71632601D01*
X173228000Y-74626310D02*
X170234291Y-71632601D01*
X173228000Y-79546000D02*
X173228000Y-74626310D01*
G04 #@! TO.N,CS_1*
X118679000Y-98102000D02*
X122997000Y-102420000D01*
X118679000Y-93022000D02*
X118679000Y-98102000D01*
X122997000Y-102420000D02*
X128585000Y-102420000D01*
X138717000Y-72984000D02*
X118679000Y-93022000D01*
X131930600Y-109194600D02*
X133230600Y-109194600D01*
X145620000Y-72984000D02*
X138717000Y-72984000D01*
X128585000Y-102420000D02*
X131506000Y-105341000D01*
X131506000Y-105341000D02*
X131506000Y-108770000D01*
X131506000Y-108770000D02*
X131930600Y-109194600D01*
G04 #@! TO.N,switch_control_2*
X160860000Y-67904000D02*
X161723599Y-67040401D01*
X164317000Y-64447000D02*
X160860000Y-67904000D01*
X174432000Y-110517746D02*
X174432000Y-65844000D01*
X180050254Y-116136000D02*
X174432000Y-110517746D01*
X191233810Y-116136000D02*
X180050254Y-116136000D01*
X174432000Y-65844000D02*
X173035000Y-64447000D01*
X198427210Y-123329400D02*
X191233810Y-116136000D01*
X173035000Y-64447000D02*
X164317000Y-64447000D01*
X201250800Y-123329400D02*
X198427210Y-123329400D01*
D31*
G04 #@! TO.N,switch_control_1*
X157160000Y-82862000D02*
X158684000Y-84386000D01*
X139140400Y-117025000D02*
X135644200Y-120521200D01*
X158684000Y-84386000D02*
X158684000Y-112326000D01*
X153985000Y-117025000D02*
X139140400Y-117025000D01*
X158684000Y-112326000D02*
X156652000Y-114358000D01*
D32*
G04 #@! TO.N,Net-(D4-Pad1)*
X167014498Y-60284000D02*
X160860000Y-60284000D01*
X168544500Y-61814002D02*
X167014498Y-60284000D01*
G04 #@! TO.N,Net-(D4-Pad2)*
X171680502Y-61653000D02*
X171519500Y-61814002D01*
X173035000Y-61653000D02*
X171680502Y-61653000D01*
G04 #@! TO.N,Net-(D3-Pad2)*
X172781000Y-67368000D02*
X173035000Y-67114000D01*
X171474500Y-67368000D02*
X172781000Y-67368000D01*
G04 #@! TO.N,Net-(D3-Pad1)*
X165423500Y-70444000D02*
X160860000Y-70444000D01*
X168499500Y-67368000D02*
X165423500Y-70444000D01*
G04 #@! TO.N,Net-(D2-Pad1)*
X140412520Y-66715399D02*
X148439899Y-66715399D01*
X157248500Y-75524000D02*
X160860000Y-75524000D01*
X148439899Y-66715399D02*
X157248500Y-75524000D01*
X140464101Y-66715399D02*
X148439899Y-66715399D01*
X139811500Y-67368000D02*
X140464101Y-66715399D01*
X138999000Y-67368000D02*
X139811500Y-67368000D01*
G04 #@! TO.N,Net-(D2-Pad2)*
X132395000Y-67368000D02*
X136024000Y-67368000D01*
G04 #@! TO.N,Net-(D1-Pad2)*
X136024000Y-62342000D02*
X136024000Y-61814002D01*
X134554000Y-63812000D02*
X136024000Y-62342000D01*
G04 #@! TO.N,Net-(D1-Pad1)*
X140529002Y-60284000D02*
X138999000Y-61814002D01*
X145620000Y-60284000D02*
X140529002Y-60284000D01*
G04 #@! TO.N,Net-(R2-Pad2)*
X115721500Y-70035000D02*
X115250000Y-69563500D01*
X121727000Y-70035000D02*
X115721500Y-70035000D01*
G04 #@! TO.N,Net-(R1-Pad2)*
X129347000Y-71085000D02*
X129347000Y-70035000D01*
X130111500Y-71849500D02*
X129347000Y-71085000D01*
X134427000Y-71849500D02*
X130111500Y-71849500D01*
G04 #@! TO.N,Net-(J4-Pad1)*
X180020000Y-69263000D02*
X180100000Y-69343000D01*
X180020000Y-60764000D02*
X180020000Y-69263000D01*
G04 #@! TO.N,Net-(J4-Pad2)*
X185100000Y-62885320D02*
X185100000Y-69343000D01*
X185100000Y-60764000D02*
X185100000Y-62885320D01*
G04 #@! TO.N,Net-(J4-Pad3)*
X190100000Y-60844000D02*
X190180000Y-60764000D01*
X190100000Y-69343000D02*
X190100000Y-60844000D01*
D31*
G04 #@! TO.N,Net-(R5-Pad2)*
X195414000Y-133836000D02*
X195414000Y-130206000D01*
X195414000Y-130206000D02*
X195768000Y-129852000D01*
X199397000Y-129852000D02*
X201429000Y-131884000D01*
X195768000Y-129852000D02*
X199397000Y-129852000D01*
D34*
G04 #@! TO.N,Net-(C9-Pad1)*
X205294687Y-107532500D02*
X203327000Y-107532500D01*
X205729687Y-107097500D02*
X205294687Y-107532500D01*
X206704687Y-107097500D02*
X205729687Y-107097500D01*
D30*
G04 #@! TO.N,Net-(C9-Pad2)*
X209364500Y-104557500D02*
X203327000Y-104557500D01*
X210852000Y-106045000D02*
X209364500Y-104557500D01*
X212852000Y-106045000D02*
X210852000Y-106045000D01*
D32*
G04 #@! TO.N,/VSense+*
X168855000Y-90192500D02*
X168855000Y-87804000D01*
X169889500Y-91227000D02*
X168855000Y-90192500D01*
X169889500Y-92202000D02*
X169889500Y-91227000D01*
X169977500Y-92290000D02*
X169889500Y-92202000D01*
X169977500Y-96012000D02*
X169977500Y-92290000D01*
D31*
X188939000Y-117811000D02*
X183913999Y-122836001D01*
X168855000Y-87804000D02*
X168855000Y-88779000D01*
X173606978Y-110930178D02*
X179637822Y-116961022D01*
X188939000Y-117499200D02*
X188939000Y-117811000D01*
X173606978Y-93530978D02*
X173606978Y-110930178D01*
X168855000Y-88779000D02*
X173606978Y-93530978D01*
X183913999Y-122836001D02*
X182914000Y-123836000D01*
X179637822Y-116961022D02*
X188400822Y-116961022D01*
X188400822Y-116961022D02*
X188939000Y-117499200D01*
D32*
G04 #@! TO.N,/VSense-*
X170905500Y-74204500D02*
X170869000Y-74168000D01*
X170905500Y-77614000D02*
X170905500Y-74204500D01*
X170125000Y-78394500D02*
X170125000Y-82404000D01*
X170905500Y-77614000D02*
X170125000Y-78394500D01*
D31*
X179874209Y-116561011D02*
X189553224Y-116561011D01*
X195414000Y-122421787D02*
X195414000Y-123836000D01*
X174006989Y-110693791D02*
X179874209Y-116561011D01*
X169524999Y-88819001D02*
X174006989Y-93300991D01*
X169699990Y-86614008D02*
X169524999Y-86788999D01*
X170125000Y-86177946D02*
X169699990Y-86602956D01*
X169524999Y-86788999D02*
X169524999Y-88819001D01*
X170125000Y-82404000D02*
X170125000Y-86177946D01*
X174006989Y-93300991D02*
X174006989Y-110693791D01*
X189553224Y-116561011D02*
X195414000Y-122421787D01*
X169699990Y-86602956D02*
X169699990Y-86614008D01*
D32*
G04 #@! TO.N,/VAmpSense+*
X167894000Y-77577500D02*
X167930500Y-77614000D01*
X167894000Y-74168000D02*
X167894000Y-77577500D01*
X168855000Y-78538500D02*
X167930500Y-77614000D01*
X168855000Y-82404000D02*
X168855000Y-78538500D01*
D31*
X161418529Y-81980399D02*
X160301471Y-81980399D01*
X166090002Y-85514000D02*
X163810200Y-85514000D01*
X163810200Y-85514000D02*
X162023601Y-83727401D01*
X162023601Y-83727401D02*
X162023601Y-82585471D01*
X160301471Y-81980399D02*
X160289035Y-81992835D01*
X168185001Y-83419001D02*
X166090002Y-85514000D01*
X162023601Y-82585471D02*
X161418529Y-81980399D01*
X168855000Y-82404000D02*
X168185001Y-83073999D01*
X168185001Y-83073999D02*
X168185001Y-83419001D01*
X150475000Y-72759000D02*
X145620000Y-67904000D01*
X151055200Y-72759000D02*
X150475000Y-72759000D01*
X160289035Y-81992835D02*
X151055200Y-72759000D01*
D32*
G04 #@! TO.N,/VAmpSense-*
X167585000Y-91531500D02*
X166914500Y-92202000D01*
X167585000Y-87804000D02*
X167585000Y-91531500D01*
X167002500Y-92290000D02*
X166914500Y-92202000D01*
X167002500Y-96012000D02*
X167002500Y-92290000D01*
D31*
X161967401Y-84307601D02*
X160301471Y-84307601D01*
X163623800Y-85964000D02*
X161967401Y-84307601D01*
X159696399Y-82585471D02*
X159970835Y-82311035D01*
X165745000Y-85964000D02*
X163623800Y-85964000D01*
X159696399Y-83702529D02*
X159696399Y-82585471D01*
X167585000Y-87804000D02*
X165745000Y-85964000D01*
X160301471Y-84307601D02*
X159696399Y-83702529D01*
X159970835Y-82311035D02*
X150868800Y-73209000D01*
X150868800Y-73209000D02*
X150475000Y-73209000D01*
X150475000Y-73209000D02*
X145620000Y-78064000D01*
D32*
G04 #@! TO.N,Net-(J1-Pad2)*
X124648000Y-69654000D02*
X124267000Y-70035000D01*
X124648000Y-60764000D02*
X124648000Y-69654000D01*
G04 #@! TO.N,Net-(J1-Pad3)*
X126807000Y-63685000D02*
X126807000Y-70035000D01*
X129728000Y-60764000D02*
X126807000Y-63685000D01*
D30*
G04 #@! TO.N,Net-(C13-Pad2)*
X127355600Y-107924600D02*
X127830600Y-107924600D01*
X123723400Y-111556800D02*
X127355600Y-107924600D01*
X121310400Y-111556800D02*
X123723400Y-111556800D01*
D29*
X127830600Y-107924600D02*
X127830600Y-109194600D01*
G04 #@! TD*
D35*
G04 #@! TO.N,Load_hot_1*
G36*
X118777800Y-113144124D02*
X119137399Y-113682301D01*
X119675576Y-114041900D01*
X120310400Y-114168174D01*
X122310400Y-114168174D01*
X122945224Y-114041900D01*
X123481158Y-113683800D01*
X123513916Y-113683800D01*
X123723400Y-113725469D01*
X123932884Y-113683800D01*
X123932889Y-113683800D01*
X124553314Y-113560390D01*
X125256881Y-113090281D01*
X125375547Y-112912685D01*
X125581232Y-112707000D01*
X129093000Y-112707000D01*
X129093000Y-115776422D01*
X128971168Y-115695017D01*
X128263234Y-115554200D01*
X127785166Y-115554200D01*
X127077232Y-115695017D01*
X126274431Y-116231431D01*
X125738017Y-117034232D01*
X125549653Y-117981200D01*
X125738017Y-118928168D01*
X125953860Y-119251200D01*
X125738017Y-119574232D01*
X125549653Y-120521200D01*
X125738017Y-121468168D01*
X125953860Y-121791200D01*
X125738017Y-122114232D01*
X125549653Y-123061200D01*
X125738017Y-124008168D01*
X126274431Y-124810969D01*
X127077232Y-125347383D01*
X127785166Y-125488200D01*
X128263234Y-125488200D01*
X128971168Y-125347383D01*
X129773969Y-124810969D01*
X130310383Y-124008168D01*
X130498747Y-123061200D01*
X130310383Y-122114232D01*
X130094540Y-121791200D01*
X130310383Y-121468168D01*
X130498747Y-120521200D01*
X130310383Y-119574232D01*
X130134497Y-119311000D01*
X133533903Y-119311000D01*
X133358017Y-119574232D01*
X133169653Y-120521200D01*
X133358017Y-121468168D01*
X133387664Y-121512538D01*
X133311600Y-121626376D01*
X133185326Y-122261200D01*
X133185326Y-123861200D01*
X133311600Y-124496024D01*
X133671199Y-125034201D01*
X134209376Y-125393800D01*
X134844200Y-125520074D01*
X136241771Y-125520074D01*
X136271002Y-130556737D01*
X136280951Y-130605281D01*
X136308720Y-130646322D01*
X136350081Y-130673613D01*
X136398027Y-130683000D01*
X162175236Y-130677527D01*
X162104270Y-137845144D01*
X161834313Y-138496877D01*
X161659739Y-138075418D01*
X161340970Y-137915635D01*
X160006605Y-139250000D01*
X161340970Y-140584365D01*
X161659739Y-140424582D01*
X161829504Y-139991512D01*
X162077100Y-140589263D01*
X162063202Y-141993000D01*
X118679000Y-141993000D01*
X118679000Y-140763970D01*
X158492635Y-140763970D01*
X158652418Y-141082739D01*
X159443187Y-141392723D01*
X160292387Y-141376497D01*
X161001582Y-141082739D01*
X161161365Y-140763970D01*
X159827000Y-139429605D01*
X158492635Y-140763970D01*
X118679000Y-140763970D01*
X118679000Y-138866187D01*
X157684277Y-138866187D01*
X157700503Y-139715387D01*
X157994261Y-140424582D01*
X158313030Y-140584365D01*
X159647395Y-139250000D01*
X158313030Y-137915635D01*
X157994261Y-138075418D01*
X157684277Y-138866187D01*
X118679000Y-138866187D01*
X118679000Y-137736030D01*
X158492635Y-137736030D01*
X159827000Y-139070395D01*
X161161365Y-137736030D01*
X161001582Y-137417261D01*
X160210813Y-137107277D01*
X159361613Y-137123503D01*
X158652418Y-137417261D01*
X158492635Y-137736030D01*
X118679000Y-137736030D01*
X118679000Y-112707000D01*
X118690851Y-112707000D01*
X118777800Y-113144124D01*
X118777800Y-113144124D01*
G37*
X118777800Y-113144124D02*
X119137399Y-113682301D01*
X119675576Y-114041900D01*
X120310400Y-114168174D01*
X122310400Y-114168174D01*
X122945224Y-114041900D01*
X123481158Y-113683800D01*
X123513916Y-113683800D01*
X123723400Y-113725469D01*
X123932884Y-113683800D01*
X123932889Y-113683800D01*
X124553314Y-113560390D01*
X125256881Y-113090281D01*
X125375547Y-112912685D01*
X125581232Y-112707000D01*
X129093000Y-112707000D01*
X129093000Y-115776422D01*
X128971168Y-115695017D01*
X128263234Y-115554200D01*
X127785166Y-115554200D01*
X127077232Y-115695017D01*
X126274431Y-116231431D01*
X125738017Y-117034232D01*
X125549653Y-117981200D01*
X125738017Y-118928168D01*
X125953860Y-119251200D01*
X125738017Y-119574232D01*
X125549653Y-120521200D01*
X125738017Y-121468168D01*
X125953860Y-121791200D01*
X125738017Y-122114232D01*
X125549653Y-123061200D01*
X125738017Y-124008168D01*
X126274431Y-124810969D01*
X127077232Y-125347383D01*
X127785166Y-125488200D01*
X128263234Y-125488200D01*
X128971168Y-125347383D01*
X129773969Y-124810969D01*
X130310383Y-124008168D01*
X130498747Y-123061200D01*
X130310383Y-122114232D01*
X130094540Y-121791200D01*
X130310383Y-121468168D01*
X130498747Y-120521200D01*
X130310383Y-119574232D01*
X130134497Y-119311000D01*
X133533903Y-119311000D01*
X133358017Y-119574232D01*
X133169653Y-120521200D01*
X133358017Y-121468168D01*
X133387664Y-121512538D01*
X133311600Y-121626376D01*
X133185326Y-122261200D01*
X133185326Y-123861200D01*
X133311600Y-124496024D01*
X133671199Y-125034201D01*
X134209376Y-125393800D01*
X134844200Y-125520074D01*
X136241771Y-125520074D01*
X136271002Y-130556737D01*
X136280951Y-130605281D01*
X136308720Y-130646322D01*
X136350081Y-130673613D01*
X136398027Y-130683000D01*
X162175236Y-130677527D01*
X162104270Y-137845144D01*
X161834313Y-138496877D01*
X161659739Y-138075418D01*
X161340970Y-137915635D01*
X160006605Y-139250000D01*
X161340970Y-140584365D01*
X161659739Y-140424582D01*
X161829504Y-139991512D01*
X162077100Y-140589263D01*
X162063202Y-141993000D01*
X118679000Y-141993000D01*
X118679000Y-140763970D01*
X158492635Y-140763970D01*
X158652418Y-141082739D01*
X159443187Y-141392723D01*
X160292387Y-141376497D01*
X161001582Y-141082739D01*
X161161365Y-140763970D01*
X159827000Y-139429605D01*
X158492635Y-140763970D01*
X118679000Y-140763970D01*
X118679000Y-138866187D01*
X157684277Y-138866187D01*
X157700503Y-139715387D01*
X157994261Y-140424582D01*
X158313030Y-140584365D01*
X159647395Y-139250000D01*
X158313030Y-137915635D01*
X157994261Y-138075418D01*
X157684277Y-138866187D01*
X118679000Y-138866187D01*
X118679000Y-137736030D01*
X158492635Y-137736030D01*
X159827000Y-139070395D01*
X161161365Y-137736030D01*
X161001582Y-137417261D01*
X160210813Y-137107277D01*
X159361613Y-137123503D01*
X158652418Y-137417261D01*
X158492635Y-137736030D01*
X118679000Y-137736030D01*
X118679000Y-112707000D01*
X118690851Y-112707000D01*
X118777800Y-113144124D01*
G04 #@! TO.N,VAC*
G36*
X209496115Y-107697147D02*
X210022085Y-108048590D01*
X210118420Y-108067752D01*
X210642511Y-108172000D01*
X210642514Y-108172000D01*
X210697658Y-108182969D01*
X211217176Y-108530100D01*
X211852000Y-108656374D01*
X211993040Y-108656374D01*
X211798029Y-108695164D01*
X211772832Y-108712000D01*
X211381406Y-108712000D01*
X211261437Y-108957980D01*
X211293667Y-109032168D01*
X210944784Y-109265284D01*
X210374664Y-110118529D01*
X210174465Y-111125000D01*
X210374664Y-112131471D01*
X210944784Y-112984716D01*
X211798029Y-113554836D01*
X212550443Y-113704500D01*
X213153557Y-113704500D01*
X213905971Y-113554836D01*
X214759216Y-112984716D01*
X215329336Y-112131471D01*
X215529535Y-111125000D01*
X215329336Y-110118529D01*
X214759216Y-109265284D01*
X214410333Y-109032168D01*
X214442563Y-108957980D01*
X214322594Y-108712000D01*
X213931168Y-108712000D01*
X213905971Y-108695164D01*
X213710960Y-108656374D01*
X213852000Y-108656374D01*
X214486824Y-108530100D01*
X215025001Y-108170501D01*
X215384600Y-107632324D01*
X215385659Y-107627000D01*
X226578001Y-107627000D01*
X226578001Y-137048333D01*
X226297949Y-136768281D01*
X225111890Y-136277000D01*
X223828110Y-136277000D01*
X222642051Y-136768281D01*
X221734281Y-137676051D01*
X221243000Y-138862110D01*
X221243000Y-140145890D01*
X221734281Y-141331949D01*
X222395332Y-141993000D01*
X177635240Y-141993000D01*
X177740001Y-141923001D01*
X178099600Y-141384824D01*
X178225874Y-140750000D01*
X178225874Y-137750000D01*
X178099600Y-137115176D01*
X177740001Y-136576999D01*
X177201824Y-136217400D01*
X176567000Y-136091126D01*
X173567000Y-136091126D01*
X172932176Y-136217400D01*
X172393999Y-136576999D01*
X172034400Y-137115176D01*
X171908126Y-137750000D01*
X171908126Y-138288803D01*
X171819739Y-138075418D01*
X171500970Y-137915635D01*
X170166605Y-139250000D01*
X171500970Y-140584365D01*
X171819739Y-140424582D01*
X171908126Y-140199107D01*
X171908126Y-140750000D01*
X172034400Y-141384824D01*
X172393999Y-141923001D01*
X172498760Y-141993000D01*
X167427319Y-141993000D01*
X167416934Y-141162312D01*
X167557943Y-141021303D01*
X167664533Y-140763970D01*
X168652635Y-140763970D01*
X168812418Y-141082739D01*
X169603187Y-141392723D01*
X170452387Y-141376497D01*
X171161582Y-141082739D01*
X171321365Y-140763970D01*
X169987000Y-139429605D01*
X168652635Y-140763970D01*
X167664533Y-140763970D01*
X167979687Y-140003123D01*
X168154261Y-140424582D01*
X168473030Y-140584365D01*
X169807395Y-139250000D01*
X168473030Y-137915635D01*
X168154261Y-138075418D01*
X167984496Y-138508488D01*
X167664534Y-137736030D01*
X168652635Y-137736030D01*
X169987000Y-139070395D01*
X171321365Y-137736030D01*
X171161582Y-137417261D01*
X170370813Y-137107277D01*
X169521613Y-137123503D01*
X168812418Y-137417261D01*
X168652635Y-137736030D01*
X167664534Y-137736030D01*
X167557943Y-137478697D01*
X167368513Y-137289267D01*
X167288605Y-130897602D01*
X181187000Y-130962498D01*
X181187001Y-131847860D01*
X180686937Y-132347924D01*
X180287000Y-133313457D01*
X180287000Y-134358543D01*
X180686937Y-135324076D01*
X181425924Y-136063063D01*
X182391457Y-136463000D01*
X183436543Y-136463000D01*
X184402076Y-136063063D01*
X185141063Y-135324076D01*
X185541000Y-134358543D01*
X185541000Y-133313457D01*
X185141063Y-132347924D01*
X184641000Y-131847861D01*
X184641000Y-130978626D01*
X193687001Y-131020865D01*
X193687001Y-131847860D01*
X193186937Y-132347924D01*
X192787000Y-133313457D01*
X192787000Y-134358543D01*
X193186937Y-135324076D01*
X193925924Y-136063063D01*
X194891457Y-136463000D01*
X195936543Y-136463000D01*
X196902076Y-136063063D01*
X197641063Y-135324076D01*
X198041000Y-134358543D01*
X198041000Y-133313457D01*
X197641063Y-132347924D01*
X197141000Y-131847861D01*
X197141000Y-131579000D01*
X198681655Y-131579000D01*
X199057626Y-131954971D01*
X199057626Y-132509000D01*
X199202930Y-133239494D01*
X199616722Y-133858778D01*
X200236006Y-134272570D01*
X200966500Y-134417874D01*
X201891500Y-134417874D01*
X202621994Y-134272570D01*
X203241278Y-133858778D01*
X203554728Y-133389666D01*
X203565191Y-133394000D01*
X204118250Y-133394000D01*
X204277000Y-133235250D01*
X204277000Y-132011000D01*
X204531000Y-132011000D01*
X204531000Y-133235250D01*
X204689750Y-133394000D01*
X205242809Y-133394000D01*
X205476198Y-133297327D01*
X205654827Y-133118699D01*
X205751500Y-132885310D01*
X205751500Y-132169750D01*
X205592750Y-132011000D01*
X204531000Y-132011000D01*
X204277000Y-132011000D01*
X204257000Y-132011000D01*
X204257000Y-131757000D01*
X204277000Y-131757000D01*
X204277000Y-131737000D01*
X204531000Y-131737000D01*
X204531000Y-131757000D01*
X205592750Y-131757000D01*
X205751500Y-131598250D01*
X205751500Y-131077198D01*
X209135407Y-131092999D01*
X209184052Y-131083558D01*
X209225382Y-131056221D01*
X209253104Y-131015148D01*
X209262996Y-130966952D01*
X209282132Y-128413273D01*
X216004000Y-128413273D01*
X216004000Y-129756727D01*
X216518118Y-130997917D01*
X217468083Y-131947882D01*
X218709273Y-132462000D01*
X220052727Y-132462000D01*
X221293917Y-131947882D01*
X222243882Y-130997917D01*
X222758000Y-129756727D01*
X222758000Y-128413273D01*
X222243882Y-127172083D01*
X221293917Y-126222118D01*
X220052727Y-125708000D01*
X218709273Y-125708000D01*
X217468083Y-126222118D01*
X216518118Y-127172083D01*
X216004000Y-128413273D01*
X209282132Y-128413273D01*
X209283267Y-128261902D01*
X209817768Y-128155583D01*
X210620569Y-127619169D01*
X211156983Y-126816368D01*
X211345347Y-125869400D01*
X211156983Y-124922432D01*
X210941140Y-124599400D01*
X211156983Y-124276368D01*
X211345347Y-123329400D01*
X211156983Y-122382432D01*
X210941140Y-122059400D01*
X211156983Y-121736368D01*
X211345347Y-120789400D01*
X211156983Y-119842432D01*
X210620569Y-119039631D01*
X209817768Y-118503217D01*
X209354733Y-118411114D01*
X209347694Y-118374280D01*
X209320473Y-118332873D01*
X209279479Y-118305035D01*
X209230000Y-118295000D01*
X204785000Y-118295000D01*
X204785000Y-110358250D01*
X205194687Y-110358250D01*
X205194687Y-110911309D01*
X205291360Y-111144698D01*
X205469988Y-111323327D01*
X205703377Y-111420000D01*
X206418937Y-111420000D01*
X206577687Y-111261250D01*
X206577687Y-110199500D01*
X206831687Y-110199500D01*
X206831687Y-111261250D01*
X206990437Y-111420000D01*
X207705997Y-111420000D01*
X207939386Y-111323327D01*
X208118014Y-111144698D01*
X208214687Y-110911309D01*
X208214687Y-110358250D01*
X208055937Y-110199500D01*
X206831687Y-110199500D01*
X206577687Y-110199500D01*
X205353437Y-110199500D01*
X205194687Y-110358250D01*
X204785000Y-110358250D01*
X204785000Y-109690078D01*
X204980424Y-109559500D01*
X205095051Y-109559500D01*
X205194687Y-109579319D01*
X205194687Y-109786750D01*
X205353437Y-109945500D01*
X206577687Y-109945500D01*
X206577687Y-109925500D01*
X206831687Y-109925500D01*
X206831687Y-109945500D01*
X208055937Y-109945500D01*
X208214687Y-109786750D01*
X208214687Y-109233691D01*
X208210353Y-109223228D01*
X208679465Y-108909778D01*
X209093257Y-108290494D01*
X209225234Y-107627000D01*
X209391133Y-107627000D01*
X209496115Y-107697147D01*
X209496115Y-107697147D01*
G37*
X209496115Y-107697147D02*
X210022085Y-108048590D01*
X210118420Y-108067752D01*
X210642511Y-108172000D01*
X210642514Y-108172000D01*
X210697658Y-108182969D01*
X211217176Y-108530100D01*
X211852000Y-108656374D01*
X211993040Y-108656374D01*
X211798029Y-108695164D01*
X211772832Y-108712000D01*
X211381406Y-108712000D01*
X211261437Y-108957980D01*
X211293667Y-109032168D01*
X210944784Y-109265284D01*
X210374664Y-110118529D01*
X210174465Y-111125000D01*
X210374664Y-112131471D01*
X210944784Y-112984716D01*
X211798029Y-113554836D01*
X212550443Y-113704500D01*
X213153557Y-113704500D01*
X213905971Y-113554836D01*
X214759216Y-112984716D01*
X215329336Y-112131471D01*
X215529535Y-111125000D01*
X215329336Y-110118529D01*
X214759216Y-109265284D01*
X214410333Y-109032168D01*
X214442563Y-108957980D01*
X214322594Y-108712000D01*
X213931168Y-108712000D01*
X213905971Y-108695164D01*
X213710960Y-108656374D01*
X213852000Y-108656374D01*
X214486824Y-108530100D01*
X215025001Y-108170501D01*
X215384600Y-107632324D01*
X215385659Y-107627000D01*
X226578001Y-107627000D01*
X226578001Y-137048333D01*
X226297949Y-136768281D01*
X225111890Y-136277000D01*
X223828110Y-136277000D01*
X222642051Y-136768281D01*
X221734281Y-137676051D01*
X221243000Y-138862110D01*
X221243000Y-140145890D01*
X221734281Y-141331949D01*
X222395332Y-141993000D01*
X177635240Y-141993000D01*
X177740001Y-141923001D01*
X178099600Y-141384824D01*
X178225874Y-140750000D01*
X178225874Y-137750000D01*
X178099600Y-137115176D01*
X177740001Y-136576999D01*
X177201824Y-136217400D01*
X176567000Y-136091126D01*
X173567000Y-136091126D01*
X172932176Y-136217400D01*
X172393999Y-136576999D01*
X172034400Y-137115176D01*
X171908126Y-137750000D01*
X171908126Y-138288803D01*
X171819739Y-138075418D01*
X171500970Y-137915635D01*
X170166605Y-139250000D01*
X171500970Y-140584365D01*
X171819739Y-140424582D01*
X171908126Y-140199107D01*
X171908126Y-140750000D01*
X172034400Y-141384824D01*
X172393999Y-141923001D01*
X172498760Y-141993000D01*
X167427319Y-141993000D01*
X167416934Y-141162312D01*
X167557943Y-141021303D01*
X167664533Y-140763970D01*
X168652635Y-140763970D01*
X168812418Y-141082739D01*
X169603187Y-141392723D01*
X170452387Y-141376497D01*
X171161582Y-141082739D01*
X171321365Y-140763970D01*
X169987000Y-139429605D01*
X168652635Y-140763970D01*
X167664533Y-140763970D01*
X167979687Y-140003123D01*
X168154261Y-140424582D01*
X168473030Y-140584365D01*
X169807395Y-139250000D01*
X168473030Y-137915635D01*
X168154261Y-138075418D01*
X167984496Y-138508488D01*
X167664534Y-137736030D01*
X168652635Y-137736030D01*
X169987000Y-139070395D01*
X171321365Y-137736030D01*
X171161582Y-137417261D01*
X170370813Y-137107277D01*
X169521613Y-137123503D01*
X168812418Y-137417261D01*
X168652635Y-137736030D01*
X167664534Y-137736030D01*
X167557943Y-137478697D01*
X167368513Y-137289267D01*
X167288605Y-130897602D01*
X181187000Y-130962498D01*
X181187001Y-131847860D01*
X180686937Y-132347924D01*
X180287000Y-133313457D01*
X180287000Y-134358543D01*
X180686937Y-135324076D01*
X181425924Y-136063063D01*
X182391457Y-136463000D01*
X183436543Y-136463000D01*
X184402076Y-136063063D01*
X185141063Y-135324076D01*
X185541000Y-134358543D01*
X185541000Y-133313457D01*
X185141063Y-132347924D01*
X184641000Y-131847861D01*
X184641000Y-130978626D01*
X193687001Y-131020865D01*
X193687001Y-131847860D01*
X193186937Y-132347924D01*
X192787000Y-133313457D01*
X192787000Y-134358543D01*
X193186937Y-135324076D01*
X193925924Y-136063063D01*
X194891457Y-136463000D01*
X195936543Y-136463000D01*
X196902076Y-136063063D01*
X197641063Y-135324076D01*
X198041000Y-134358543D01*
X198041000Y-133313457D01*
X197641063Y-132347924D01*
X197141000Y-131847861D01*
X197141000Y-131579000D01*
X198681655Y-131579000D01*
X199057626Y-131954971D01*
X199057626Y-132509000D01*
X199202930Y-133239494D01*
X199616722Y-133858778D01*
X200236006Y-134272570D01*
X200966500Y-134417874D01*
X201891500Y-134417874D01*
X202621994Y-134272570D01*
X203241278Y-133858778D01*
X203554728Y-133389666D01*
X203565191Y-133394000D01*
X204118250Y-133394000D01*
X204277000Y-133235250D01*
X204277000Y-132011000D01*
X204531000Y-132011000D01*
X204531000Y-133235250D01*
X204689750Y-133394000D01*
X205242809Y-133394000D01*
X205476198Y-133297327D01*
X205654827Y-133118699D01*
X205751500Y-132885310D01*
X205751500Y-132169750D01*
X205592750Y-132011000D01*
X204531000Y-132011000D01*
X204277000Y-132011000D01*
X204257000Y-132011000D01*
X204257000Y-131757000D01*
X204277000Y-131757000D01*
X204277000Y-131737000D01*
X204531000Y-131737000D01*
X204531000Y-131757000D01*
X205592750Y-131757000D01*
X205751500Y-131598250D01*
X205751500Y-131077198D01*
X209135407Y-131092999D01*
X209184052Y-131083558D01*
X209225382Y-131056221D01*
X209253104Y-131015148D01*
X209262996Y-130966952D01*
X209282132Y-128413273D01*
X216004000Y-128413273D01*
X216004000Y-129756727D01*
X216518118Y-130997917D01*
X217468083Y-131947882D01*
X218709273Y-132462000D01*
X220052727Y-132462000D01*
X221293917Y-131947882D01*
X222243882Y-130997917D01*
X222758000Y-129756727D01*
X222758000Y-128413273D01*
X222243882Y-127172083D01*
X221293917Y-126222118D01*
X220052727Y-125708000D01*
X218709273Y-125708000D01*
X217468083Y-126222118D01*
X216518118Y-127172083D01*
X216004000Y-128413273D01*
X209282132Y-128413273D01*
X209283267Y-128261902D01*
X209817768Y-128155583D01*
X210620569Y-127619169D01*
X211156983Y-126816368D01*
X211345347Y-125869400D01*
X211156983Y-124922432D01*
X210941140Y-124599400D01*
X211156983Y-124276368D01*
X211345347Y-123329400D01*
X211156983Y-122382432D01*
X210941140Y-122059400D01*
X211156983Y-121736368D01*
X211345347Y-120789400D01*
X211156983Y-119842432D01*
X210620569Y-119039631D01*
X209817768Y-118503217D01*
X209354733Y-118411114D01*
X209347694Y-118374280D01*
X209320473Y-118332873D01*
X209279479Y-118305035D01*
X209230000Y-118295000D01*
X204785000Y-118295000D01*
X204785000Y-110358250D01*
X205194687Y-110358250D01*
X205194687Y-110911309D01*
X205291360Y-111144698D01*
X205469988Y-111323327D01*
X205703377Y-111420000D01*
X206418937Y-111420000D01*
X206577687Y-111261250D01*
X206577687Y-110199500D01*
X206831687Y-110199500D01*
X206831687Y-111261250D01*
X206990437Y-111420000D01*
X207705997Y-111420000D01*
X207939386Y-111323327D01*
X208118014Y-111144698D01*
X208214687Y-110911309D01*
X208214687Y-110358250D01*
X208055937Y-110199500D01*
X206831687Y-110199500D01*
X206577687Y-110199500D01*
X205353437Y-110199500D01*
X205194687Y-110358250D01*
X204785000Y-110358250D01*
X204785000Y-109690078D01*
X204980424Y-109559500D01*
X205095051Y-109559500D01*
X205194687Y-109579319D01*
X205194687Y-109786750D01*
X205353437Y-109945500D01*
X206577687Y-109945500D01*
X206577687Y-109925500D01*
X206831687Y-109925500D01*
X206831687Y-109945500D01*
X208055937Y-109945500D01*
X208214687Y-109786750D01*
X208214687Y-109233691D01*
X208210353Y-109223228D01*
X208679465Y-108909778D01*
X209093257Y-108290494D01*
X209225234Y-107627000D01*
X209391133Y-107627000D01*
X209496115Y-107697147D01*
G04 #@! TD*
M02*
