M48
;DRILL file {KiCad 5.0.2+dfsg1-1~bpo9+1} date Wed 26 Jun 2019 12:15:33 PM +03
;FORMAT={-:-/ absolute / inch / decimal}
FMAT,2
INCH,TZ
T1C0.0157
T2C0.0256
T3C0.0300
T4C0.0315
T5C0.0400
T6C0.0433
T7C0.0472
T8C0.0598
T9C0.0709
%
G90
G05
T1
X4.6124Y-2.9123
X5.0875Y-3.66
X5.1774Y-4.4023
X5.2124Y-2.6523
X5.2974Y-2.5123
X5.3274Y-3.2023
X5.4674Y-4.1323
X5.9274Y-2.5923
X5.9366Y-2.9181
X6.0624Y-4.6073
X6.0624Y-4.7923
X6.1674Y-4.5023
X6.1874Y-3.2623
X6.4324Y-4.8173
X6.5275Y-3.4339
X6.548Y-3.3017
X6.7924Y-4.1823
X6.8039Y-3.3805
X6.8124Y-2.4273
X6.8124Y-2.6423
X6.9024Y-3.1773
X6.9474Y-4.3123
X6.9724Y-4.1773
X7.8774Y-3.6923
X7.99Y-3.8225
X8.0574Y-3.6173
T2
X4.7714Y-3.2585
X8.0074Y-3.4561
X5.4435Y-3.7261
X8.1315Y-3.4561
X5.5174Y-4.4823
X4.6474Y-3.2585
X5.1955Y-3.7261
X5.3955Y-4.3911
X8.0074Y-3.3635
X5.6424Y-4.3923
X7.8834Y-3.5486
X8.1315Y-3.5486
X5.4435Y-3.6335
X7.7594Y-3.4561
X7.7594Y-3.5486
X4.8954Y-3.2585
X5.1955Y-3.6335
X5.3195Y-3.7261
X5.5195Y-4.3911
X4.3974Y-3.2573
X5.3195Y-3.6335
X7.8834Y-3.3635
X5.6424Y-4.4836
X5.1955Y-3.8186
X5.4435Y-3.8186
X7.7594Y-3.3635
X8.1315Y-3.3635
X7.8834Y-3.4561
X5.3955Y-4.4836
X5.3195Y-3.8186
X4.5233Y-3.2585
X8.0074Y-3.5486
T3
X7.0906Y-2.73
X7.1299Y-4.3344
X7.1299Y-4.3737
X7.2283Y-4.3344
X7.2283Y-4.3737
X7.2874Y-2.73
X7.3268Y-4.3344
X7.3268Y-4.3737
X7.4252Y-4.3344
X7.4252Y-4.3737
X7.4843Y-2.73
X7.8924Y-2.6673
X7.8924Y-2.7673
X7.8924Y-3.0873
X7.8924Y-3.1873
X8.6224Y-2.6723
X8.6224Y-2.7723
X8.6224Y-3.0923
X8.6224Y-3.1923
T4
X5.0403Y-4.6449
X5.0403Y-4.7449
X5.0403Y-4.8449
X5.3403Y-4.6449
X5.3403Y-4.7449
X5.3403Y-4.8449
X4.7924Y-2.7573
X4.7924Y-3.0573
X4.8924Y-2.7573
X4.8924Y-3.0573
X4.9924Y-2.7573
X4.9924Y-3.0573
X5.0924Y-2.7573
X5.0924Y-3.0573
X7.9233Y-4.7555
X7.9233Y-4.8555
X7.9233Y-4.9555
X8.2233Y-4.7555
X8.2233Y-4.8555
X8.2233Y-4.9555
T5
X5.7331Y-2.3734
X5.7331Y-2.4734
X5.7331Y-2.5734
X5.7331Y-2.6734
X5.7331Y-2.7734
X5.7331Y-2.8734
X5.7331Y-2.9734
X5.7331Y-3.0734
X5.7331Y-3.1734
X5.7331Y-3.2734
X5.7331Y-3.3734
X5.7331Y-3.4734
X5.7331Y-3.5734
X5.7331Y-3.6734
X5.7331Y-3.7734
X5.7331Y-3.8734
X5.7331Y-3.9734
X6.3331Y-2.3734
X6.3331Y-2.4734
X6.3331Y-2.5734
X6.3331Y-2.6734
X6.3331Y-2.7734
X6.3331Y-2.8734
X6.3331Y-2.9734
X6.3331Y-3.0734
X6.3331Y-3.1734
X6.3331Y-3.2734
X6.3331Y-3.3734
X6.3331Y-3.4734
X6.3331Y-3.5734
X6.3331Y-3.6734
X6.3331Y-3.7734
X6.3331Y-3.8734
X6.3331Y-3.9734
T6
X4.78Y-3.644
X4.78Y-3.744
X4.78Y-3.844
X8.38Y-3.7
X8.38Y-3.8
X8.38Y-3.9
X8.38Y-4.175
X8.38Y-4.275
X8.38Y-4.375
X4.776Y-4.192
X4.776Y-4.292
X4.776Y-4.392
T7
X7.2013Y-4.8754
X7.2013Y-5.2691
X7.6935Y-4.8754
X7.6935Y-5.2691
T8
X4.7074Y-2.3923
X4.9074Y-2.3923
X5.1074Y-2.3923
X8.0474Y-2.3873
X8.2474Y-2.3873
X8.4474Y-2.3873
X6.2924Y-5.4823
X6.4924Y-5.4823
X6.6924Y-5.4823
X6.8924Y-5.4823
X7.0874Y-2.3923
X7.2874Y-2.3923
X7.4874Y-2.3923
T9
X8.637Y-3.4818G85X8.637Y-3.4542
G05
X8.637Y-5.0959G85X8.637Y-5.0683
G05
X4.518Y-3.4741G85X4.518Y-3.5017
G05
X4.518Y-5.0882G85X4.518Y-5.1158
G05
T0
M30
