G04 #@! TF.GenerationSoftware,KiCad,Pcbnew,5.0.2+dfsg1-1~bpo9+1*
G04 #@! TF.CreationDate,2019-06-26T12:15:30+03:00*
G04 #@! TF.ProjectId,SmartDimmer,536d6172-7444-4696-9d6d-65722e6b6963,rev?*
G04 #@! TF.SameCoordinates,Original*
G04 #@! TF.FileFunction,Legend,Top*
G04 #@! TF.FilePolarity,Positive*
%FSLAX46Y46*%
G04 Gerber Fmt 4.6, Leading zero omitted, Abs format (unit mm)*
G04 Created by KiCad (PCBNEW 5.0.2+dfsg1-1~bpo9+1) date Wed 26 Jun 2019 12:15:30 PM +03*
%MOMM*%
%LPD*%
G01*
G04 APERTURE LIST*
%ADD10C,0.250000*%
%ADD11C,0.300000*%
%ADD12C,0.120000*%
%ADD13C,0.150000*%
%ADD14C,0.500000*%
%ADD15C,0.075000*%
G04 APERTURE END LIST*
D10*
X167201238Y-64661380D02*
X167391714Y-64661380D01*
X167486952Y-64709000D01*
X167582190Y-64804238D01*
X167629809Y-64994714D01*
X167629809Y-65328047D01*
X167582190Y-65518523D01*
X167486952Y-65613761D01*
X167391714Y-65661380D01*
X167201238Y-65661380D01*
X167106000Y-65613761D01*
X167010761Y-65518523D01*
X166963142Y-65328047D01*
X166963142Y-64994714D01*
X167010761Y-64804238D01*
X167106000Y-64709000D01*
X167201238Y-64661380D01*
X168629809Y-65566142D02*
X168582190Y-65613761D01*
X168439333Y-65661380D01*
X168344095Y-65661380D01*
X168201238Y-65613761D01*
X168106000Y-65518523D01*
X168058380Y-65423285D01*
X168010761Y-65232809D01*
X168010761Y-65089952D01*
X168058380Y-64899476D01*
X168106000Y-64804238D01*
X168201238Y-64709000D01*
X168344095Y-64661380D01*
X168439333Y-64661380D01*
X168582190Y-64709000D01*
X168629809Y-64756619D01*
X170391714Y-65566142D02*
X170344095Y-65613761D01*
X170201238Y-65661380D01*
X170106000Y-65661380D01*
X169963142Y-65613761D01*
X169867904Y-65518523D01*
X169820285Y-65423285D01*
X169772666Y-65232809D01*
X169772666Y-65089952D01*
X169820285Y-64899476D01*
X169867904Y-64804238D01*
X169963142Y-64709000D01*
X170106000Y-64661380D01*
X170201238Y-64661380D01*
X170344095Y-64709000D01*
X170391714Y-64756619D01*
X170820285Y-65661380D02*
X170820285Y-64661380D01*
X171248857Y-65661380D02*
X171248857Y-65137571D01*
X171201238Y-65042333D01*
X171106000Y-64994714D01*
X170963142Y-64994714D01*
X170867904Y-65042333D01*
X170820285Y-65089952D01*
X171677428Y-64756619D02*
X171725047Y-64709000D01*
X171820285Y-64661380D01*
X172058380Y-64661380D01*
X172153619Y-64709000D01*
X172201238Y-64756619D01*
X172248857Y-64851857D01*
X172248857Y-64947095D01*
X172201238Y-65089952D01*
X171629809Y-65661380D01*
X172248857Y-65661380D01*
X167320285Y-59073380D02*
X167510761Y-59073380D01*
X167606000Y-59121000D01*
X167701238Y-59216238D01*
X167748857Y-59406714D01*
X167748857Y-59740047D01*
X167701238Y-59930523D01*
X167606000Y-60025761D01*
X167510761Y-60073380D01*
X167320285Y-60073380D01*
X167225047Y-60025761D01*
X167129809Y-59930523D01*
X167082190Y-59740047D01*
X167082190Y-59406714D01*
X167129809Y-59216238D01*
X167225047Y-59121000D01*
X167320285Y-59073380D01*
X168034571Y-59073380D02*
X168606000Y-59073380D01*
X168320285Y-60073380D02*
X168320285Y-59073380D01*
X170272666Y-59978142D02*
X170225047Y-60025761D01*
X170082190Y-60073380D01*
X169986952Y-60073380D01*
X169844095Y-60025761D01*
X169748857Y-59930523D01*
X169701238Y-59835285D01*
X169653619Y-59644809D01*
X169653619Y-59501952D01*
X169701238Y-59311476D01*
X169748857Y-59216238D01*
X169844095Y-59121000D01*
X169986952Y-59073380D01*
X170082190Y-59073380D01*
X170225047Y-59121000D01*
X170272666Y-59168619D01*
X170701238Y-60073380D02*
X170701238Y-59073380D01*
X171129809Y-60073380D02*
X171129809Y-59549571D01*
X171082190Y-59454333D01*
X170986952Y-59406714D01*
X170844095Y-59406714D01*
X170748857Y-59454333D01*
X170701238Y-59501952D01*
X171558380Y-59168619D02*
X171606000Y-59121000D01*
X171701238Y-59073380D01*
X171939333Y-59073380D01*
X172034571Y-59121000D01*
X172082190Y-59168619D01*
X172129809Y-59263857D01*
X172129809Y-59359095D01*
X172082190Y-59501952D01*
X171510761Y-60073380D01*
X172129809Y-60073380D01*
X135197238Y-64534380D02*
X135387714Y-64534380D01*
X135482952Y-64582000D01*
X135578190Y-64677238D01*
X135625809Y-64867714D01*
X135625809Y-65201047D01*
X135578190Y-65391523D01*
X135482952Y-65486761D01*
X135387714Y-65534380D01*
X135197238Y-65534380D01*
X135102000Y-65486761D01*
X135006761Y-65391523D01*
X134959142Y-65201047D01*
X134959142Y-64867714D01*
X135006761Y-64677238D01*
X135102000Y-64582000D01*
X135197238Y-64534380D01*
X136625809Y-65439142D02*
X136578190Y-65486761D01*
X136435333Y-65534380D01*
X136340095Y-65534380D01*
X136197238Y-65486761D01*
X136102000Y-65391523D01*
X136054380Y-65296285D01*
X136006761Y-65105809D01*
X136006761Y-64962952D01*
X136054380Y-64772476D01*
X136102000Y-64677238D01*
X136197238Y-64582000D01*
X136340095Y-64534380D01*
X136435333Y-64534380D01*
X136578190Y-64582000D01*
X136625809Y-64629619D01*
X138387714Y-65439142D02*
X138340095Y-65486761D01*
X138197238Y-65534380D01*
X138102000Y-65534380D01*
X137959142Y-65486761D01*
X137863904Y-65391523D01*
X137816285Y-65296285D01*
X137768666Y-65105809D01*
X137768666Y-64962952D01*
X137816285Y-64772476D01*
X137863904Y-64677238D01*
X137959142Y-64582000D01*
X138102000Y-64534380D01*
X138197238Y-64534380D01*
X138340095Y-64582000D01*
X138387714Y-64629619D01*
X138816285Y-65534380D02*
X138816285Y-64534380D01*
X139244857Y-65534380D02*
X139244857Y-65010571D01*
X139197238Y-64915333D01*
X139102000Y-64867714D01*
X138959142Y-64867714D01*
X138863904Y-64915333D01*
X138816285Y-64962952D01*
X140244857Y-65534380D02*
X139673428Y-65534380D01*
X139959142Y-65534380D02*
X139959142Y-64534380D01*
X139863904Y-64677238D01*
X139768666Y-64772476D01*
X139673428Y-64820095D01*
X135062285Y-58438380D02*
X135252761Y-58438380D01*
X135348000Y-58486000D01*
X135443238Y-58581238D01*
X135490857Y-58771714D01*
X135490857Y-59105047D01*
X135443238Y-59295523D01*
X135348000Y-59390761D01*
X135252761Y-59438380D01*
X135062285Y-59438380D01*
X134967047Y-59390761D01*
X134871809Y-59295523D01*
X134824190Y-59105047D01*
X134824190Y-58771714D01*
X134871809Y-58581238D01*
X134967047Y-58486000D01*
X135062285Y-58438380D01*
X135776571Y-58438380D02*
X136348000Y-58438380D01*
X136062285Y-59438380D02*
X136062285Y-58438380D01*
X138014666Y-59343142D02*
X137967047Y-59390761D01*
X137824190Y-59438380D01*
X137728952Y-59438380D01*
X137586095Y-59390761D01*
X137490857Y-59295523D01*
X137443238Y-59200285D01*
X137395619Y-59009809D01*
X137395619Y-58866952D01*
X137443238Y-58676476D01*
X137490857Y-58581238D01*
X137586095Y-58486000D01*
X137728952Y-58438380D01*
X137824190Y-58438380D01*
X137967047Y-58486000D01*
X138014666Y-58533619D01*
X138443238Y-59438380D02*
X138443238Y-58438380D01*
X138871809Y-59438380D02*
X138871809Y-58914571D01*
X138824190Y-58819333D01*
X138728952Y-58771714D01*
X138586095Y-58771714D01*
X138490857Y-58819333D01*
X138443238Y-58866952D01*
X139871809Y-59438380D02*
X139300380Y-59438380D01*
X139586095Y-59438380D02*
X139586095Y-58438380D01*
X139490857Y-58581238D01*
X139395619Y-58676476D01*
X139300380Y-58724095D01*
X118425095Y-65598000D02*
X118329857Y-65550380D01*
X118187000Y-65550380D01*
X118044142Y-65598000D01*
X117948904Y-65693238D01*
X117901285Y-65788476D01*
X117853666Y-65978952D01*
X117853666Y-66121809D01*
X117901285Y-66312285D01*
X117948904Y-66407523D01*
X118044142Y-66502761D01*
X118187000Y-66550380D01*
X118282238Y-66550380D01*
X118425095Y-66502761D01*
X118472714Y-66455142D01*
X118472714Y-66121809D01*
X118282238Y-66121809D01*
X118901285Y-66550380D02*
X118901285Y-65550380D01*
X119472714Y-66550380D01*
X119472714Y-65550380D01*
X119948904Y-66550380D02*
X119948904Y-65550380D01*
X120187000Y-65550380D01*
X120329857Y-65598000D01*
X120425095Y-65693238D01*
X120472714Y-65788476D01*
X120520333Y-65978952D01*
X120520333Y-66121809D01*
X120472714Y-66312285D01*
X120425095Y-66407523D01*
X120329857Y-66502761D01*
X120187000Y-66550380D01*
X119948904Y-66550380D01*
X124028952Y-66582142D02*
X123981333Y-66629761D01*
X123838476Y-66677380D01*
X123743238Y-66677380D01*
X123600380Y-66629761D01*
X123505142Y-66534523D01*
X123457523Y-66439285D01*
X123409904Y-66248809D01*
X123409904Y-66105952D01*
X123457523Y-65915476D01*
X123505142Y-65820238D01*
X123600380Y-65725000D01*
X123743238Y-65677380D01*
X123838476Y-65677380D01*
X123981333Y-65725000D01*
X124028952Y-65772619D01*
X124457523Y-66677380D02*
X124457523Y-65677380D01*
X124886095Y-66677380D02*
X124886095Y-66153571D01*
X124838476Y-66058333D01*
X124743238Y-66010714D01*
X124600380Y-66010714D01*
X124505142Y-66058333D01*
X124457523Y-66105952D01*
X125886095Y-66677380D02*
X125314666Y-66677380D01*
X125600380Y-66677380D02*
X125600380Y-65677380D01*
X125505142Y-65820238D01*
X125409904Y-65915476D01*
X125314666Y-65963095D01*
X129616952Y-66582142D02*
X129569333Y-66629761D01*
X129426476Y-66677380D01*
X129331238Y-66677380D01*
X129188380Y-66629761D01*
X129093142Y-66534523D01*
X129045523Y-66439285D01*
X128997904Y-66248809D01*
X128997904Y-66105952D01*
X129045523Y-65915476D01*
X129093142Y-65820238D01*
X129188380Y-65725000D01*
X129331238Y-65677380D01*
X129426476Y-65677380D01*
X129569333Y-65725000D01*
X129616952Y-65772619D01*
X130045523Y-66677380D02*
X130045523Y-65677380D01*
X130474095Y-66677380D02*
X130474095Y-66153571D01*
X130426476Y-66058333D01*
X130331238Y-66010714D01*
X130188380Y-66010714D01*
X130093142Y-66058333D01*
X130045523Y-66105952D01*
X130902666Y-65772619D02*
X130950285Y-65725000D01*
X131045523Y-65677380D01*
X131283619Y-65677380D01*
X131378857Y-65725000D01*
X131426476Y-65772619D01*
X131474095Y-65867857D01*
X131474095Y-65963095D01*
X131426476Y-66105952D01*
X130855047Y-66677380D01*
X131474095Y-66677380D01*
X213405285Y-65407428D02*
X214167190Y-65407428D01*
X213786238Y-65788380D02*
X213786238Y-65026476D01*
X215119571Y-64788380D02*
X214643380Y-64788380D01*
X214595761Y-65264571D01*
X214643380Y-65216952D01*
X214738619Y-65169333D01*
X214976714Y-65169333D01*
X215071952Y-65216952D01*
X215119571Y-65264571D01*
X215167190Y-65359809D01*
X215167190Y-65597904D01*
X215119571Y-65693142D01*
X215071952Y-65740761D01*
X214976714Y-65788380D01*
X214738619Y-65788380D01*
X214643380Y-65740761D01*
X214595761Y-65693142D01*
X215452904Y-64788380D02*
X215786238Y-65788380D01*
X216119571Y-64788380D01*
X208722095Y-64836000D02*
X208626857Y-64788380D01*
X208484000Y-64788380D01*
X208341142Y-64836000D01*
X208245904Y-64931238D01*
X208198285Y-65026476D01*
X208150666Y-65216952D01*
X208150666Y-65359809D01*
X208198285Y-65550285D01*
X208245904Y-65645523D01*
X208341142Y-65740761D01*
X208484000Y-65788380D01*
X208579238Y-65788380D01*
X208722095Y-65740761D01*
X208769714Y-65693142D01*
X208769714Y-65359809D01*
X208579238Y-65359809D01*
X209198285Y-65788380D02*
X209198285Y-64788380D01*
X209769714Y-65788380D01*
X209769714Y-64788380D01*
X210245904Y-65788380D02*
X210245904Y-64788380D01*
X210484000Y-64788380D01*
X210626857Y-64836000D01*
X210722095Y-64931238D01*
X210769714Y-65026476D01*
X210817333Y-65216952D01*
X210817333Y-65359809D01*
X210769714Y-65550285D01*
X210722095Y-65645523D01*
X210626857Y-65740761D01*
X210484000Y-65788380D01*
X210245904Y-65788380D01*
X202705523Y-64788380D02*
X203038857Y-65788380D01*
X203372190Y-64788380D01*
X204134095Y-65740761D02*
X204038857Y-65788380D01*
X203848380Y-65788380D01*
X203753142Y-65740761D01*
X203705523Y-65693142D01*
X203657904Y-65597904D01*
X203657904Y-65312190D01*
X203705523Y-65216952D01*
X203753142Y-65169333D01*
X203848380Y-65121714D01*
X204038857Y-65121714D01*
X204134095Y-65169333D01*
X204991238Y-65740761D02*
X204896000Y-65788380D01*
X204705523Y-65788380D01*
X204610285Y-65740761D01*
X204562666Y-65693142D01*
X204515047Y-65597904D01*
X204515047Y-65312190D01*
X204562666Y-65216952D01*
X204610285Y-65169333D01*
X204705523Y-65121714D01*
X204896000Y-65121714D01*
X204991238Y-65169333D01*
D11*
X174436000Y-134467571D02*
X173721714Y-134467571D01*
X173721714Y-132967571D01*
X174864571Y-133110428D02*
X174936000Y-133039000D01*
X175078857Y-132967571D01*
X175436000Y-132967571D01*
X175578857Y-133039000D01*
X175650285Y-133110428D01*
X175721714Y-133253285D01*
X175721714Y-133396142D01*
X175650285Y-133610428D01*
X174793142Y-134467571D01*
X175721714Y-134467571D01*
X159450000Y-134594571D02*
X158735714Y-134594571D01*
X158735714Y-133094571D01*
X160735714Y-134594571D02*
X159878571Y-134594571D01*
X160307142Y-134594571D02*
X160307142Y-133094571D01*
X160164285Y-133308857D01*
X160021428Y-133451714D01*
X159878571Y-133523142D01*
X164351428Y-134467571D02*
X164351428Y-132967571D01*
X165208571Y-134467571D01*
X165208571Y-132967571D01*
X169431428Y-134213571D02*
X169431428Y-132713571D01*
X169431428Y-133427857D02*
X170288571Y-133427857D01*
X170288571Y-134213571D02*
X170288571Y-132713571D01*
X162831857Y-129848000D02*
X163546142Y-129848000D01*
X162689000Y-130276571D02*
X163189000Y-128776571D01*
X163689000Y-130276571D01*
X165046142Y-130133714D02*
X164974714Y-130205142D01*
X164760428Y-130276571D01*
X164617571Y-130276571D01*
X164403285Y-130205142D01*
X164260428Y-130062285D01*
X164189000Y-129919428D01*
X164117571Y-129633714D01*
X164117571Y-129419428D01*
X164189000Y-129133714D01*
X164260428Y-128990857D01*
X164403285Y-128848000D01*
X164617571Y-128776571D01*
X164760428Y-128776571D01*
X164974714Y-128848000D01*
X165046142Y-128919428D01*
X167046142Y-130276571D02*
X166903285Y-130205142D01*
X166831857Y-130062285D01*
X166831857Y-128776571D01*
X167831857Y-130276571D02*
X167689000Y-130205142D01*
X167617571Y-130133714D01*
X167546142Y-129990857D01*
X167546142Y-129562285D01*
X167617571Y-129419428D01*
X167689000Y-129348000D01*
X167831857Y-129276571D01*
X168046142Y-129276571D01*
X168189000Y-129348000D01*
X168260428Y-129419428D01*
X168331857Y-129562285D01*
X168331857Y-129990857D01*
X168260428Y-130133714D01*
X168189000Y-130205142D01*
X168046142Y-130276571D01*
X167831857Y-130276571D01*
X169617571Y-130276571D02*
X169617571Y-129490857D01*
X169546142Y-129348000D01*
X169403285Y-129276571D01*
X169117571Y-129276571D01*
X168974714Y-129348000D01*
X169617571Y-130205142D02*
X169474714Y-130276571D01*
X169117571Y-130276571D01*
X168974714Y-130205142D01*
X168903285Y-130062285D01*
X168903285Y-129919428D01*
X168974714Y-129776571D01*
X169117571Y-129705142D01*
X169474714Y-129705142D01*
X169617571Y-129633714D01*
X170974714Y-130276571D02*
X170974714Y-128776571D01*
X170974714Y-130205142D02*
X170831857Y-130276571D01*
X170546142Y-130276571D01*
X170403285Y-130205142D01*
X170331857Y-130133714D01*
X170260428Y-129990857D01*
X170260428Y-129562285D01*
X170331857Y-129419428D01*
X170403285Y-129348000D01*
X170546142Y-129276571D01*
X170831857Y-129276571D01*
X170974714Y-129348000D01*
X218711714Y-64617571D02*
X218711714Y-63117571D01*
X219283142Y-63117571D01*
X219426000Y-63189000D01*
X219497428Y-63260428D01*
X219568857Y-63403285D01*
X219568857Y-63617571D01*
X219497428Y-63760428D01*
X219426000Y-63831857D01*
X219283142Y-63903285D01*
X218711714Y-63903285D01*
X220426000Y-64617571D02*
X220283142Y-64546142D01*
X220211714Y-64474714D01*
X220140285Y-64331857D01*
X220140285Y-63903285D01*
X220211714Y-63760428D01*
X220283142Y-63689000D01*
X220426000Y-63617571D01*
X220640285Y-63617571D01*
X220783142Y-63689000D01*
X220854571Y-63760428D01*
X220926000Y-63903285D01*
X220926000Y-64331857D01*
X220854571Y-64474714D01*
X220783142Y-64546142D01*
X220640285Y-64617571D01*
X220426000Y-64617571D01*
X221426000Y-63617571D02*
X221711714Y-64617571D01*
X221997428Y-63903285D01*
X222283142Y-64617571D01*
X222568857Y-63617571D01*
X223711714Y-64546142D02*
X223568857Y-64617571D01*
X223283142Y-64617571D01*
X223140285Y-64546142D01*
X223068857Y-64403285D01*
X223068857Y-63831857D01*
X223140285Y-63689000D01*
X223283142Y-63617571D01*
X223568857Y-63617571D01*
X223711714Y-63689000D01*
X223783142Y-63831857D01*
X223783142Y-63974714D01*
X223068857Y-64117571D01*
X224426000Y-64617571D02*
X224426000Y-63617571D01*
X224426000Y-63903285D02*
X224497428Y-63760428D01*
X224568857Y-63689000D01*
X224711714Y-63617571D01*
X224854571Y-63617571D01*
X107642428Y-65120571D02*
X107642428Y-63620571D01*
X108142428Y-64692000D01*
X108642428Y-63620571D01*
X108642428Y-65120571D01*
X109999571Y-65120571D02*
X109999571Y-64334857D01*
X109928142Y-64192000D01*
X109785285Y-64120571D01*
X109499571Y-64120571D01*
X109356714Y-64192000D01*
X109999571Y-65049142D02*
X109856714Y-65120571D01*
X109499571Y-65120571D01*
X109356714Y-65049142D01*
X109285285Y-64906285D01*
X109285285Y-64763428D01*
X109356714Y-64620571D01*
X109499571Y-64549142D01*
X109856714Y-64549142D01*
X109999571Y-64477714D01*
X110713857Y-64120571D02*
X110713857Y-65120571D01*
X110713857Y-64263428D02*
X110785285Y-64192000D01*
X110928142Y-64120571D01*
X111142428Y-64120571D01*
X111285285Y-64192000D01*
X111356714Y-64334857D01*
X111356714Y-65120571D01*
X112713857Y-64120571D02*
X112713857Y-65120571D01*
X112071000Y-64120571D02*
X112071000Y-64906285D01*
X112142428Y-65049142D01*
X112285285Y-65120571D01*
X112499571Y-65120571D01*
X112642428Y-65049142D01*
X112713857Y-64977714D01*
X114071000Y-65120571D02*
X114071000Y-64334857D01*
X113999571Y-64192000D01*
X113856714Y-64120571D01*
X113571000Y-64120571D01*
X113428142Y-64192000D01*
X114071000Y-65049142D02*
X113928142Y-65120571D01*
X113571000Y-65120571D01*
X113428142Y-65049142D01*
X113356714Y-64906285D01*
X113356714Y-64763428D01*
X113428142Y-64620571D01*
X113571000Y-64549142D01*
X113928142Y-64549142D01*
X114071000Y-64477714D01*
X114999571Y-65120571D02*
X114856714Y-65049142D01*
X114785285Y-64906285D01*
X114785285Y-63620571D01*
X107356714Y-67599142D02*
X107499571Y-67670571D01*
X107785285Y-67670571D01*
X107928142Y-67599142D01*
X107999571Y-67456285D01*
X107999571Y-67384857D01*
X107928142Y-67242000D01*
X107785285Y-67170571D01*
X107571000Y-67170571D01*
X107428142Y-67099142D01*
X107356714Y-66956285D01*
X107356714Y-66884857D01*
X107428142Y-66742000D01*
X107571000Y-66670571D01*
X107785285Y-66670571D01*
X107928142Y-66742000D01*
X108499571Y-66670571D02*
X108785285Y-67670571D01*
X109071000Y-66956285D01*
X109356714Y-67670571D01*
X109642428Y-66670571D01*
X110213857Y-67670571D02*
X110213857Y-66670571D01*
X110213857Y-66170571D02*
X110142428Y-66242000D01*
X110213857Y-66313428D01*
X110285285Y-66242000D01*
X110213857Y-66170571D01*
X110213857Y-66313428D01*
X110713857Y-66670571D02*
X111285285Y-66670571D01*
X110928142Y-66170571D02*
X110928142Y-67456285D01*
X110999571Y-67599142D01*
X111142428Y-67670571D01*
X111285285Y-67670571D01*
X112428142Y-67599142D02*
X112285285Y-67670571D01*
X111999571Y-67670571D01*
X111856714Y-67599142D01*
X111785285Y-67527714D01*
X111713857Y-67384857D01*
X111713857Y-66956285D01*
X111785285Y-66813428D01*
X111856714Y-66742000D01*
X111999571Y-66670571D01*
X112285285Y-66670571D01*
X112428142Y-66742000D01*
X113071000Y-67670571D02*
X113071000Y-66170571D01*
X113713857Y-67670571D02*
X113713857Y-66884857D01*
X113642428Y-66742000D01*
X113499571Y-66670571D01*
X113285285Y-66670571D01*
X113142428Y-66742000D01*
X113071000Y-66813428D01*
X114999571Y-67599142D02*
X114856714Y-67670571D01*
X114571000Y-67670571D01*
X114428142Y-67599142D01*
X114356714Y-67456285D01*
X114356714Y-66884857D01*
X114428142Y-66742000D01*
X114571000Y-66670571D01*
X114856714Y-66670571D01*
X114999571Y-66742000D01*
X115071000Y-66884857D01*
X115071000Y-67027714D01*
X114356714Y-67170571D01*
X115642428Y-67599142D02*
X115785285Y-67670571D01*
X116071000Y-67670571D01*
X116213857Y-67599142D01*
X116285285Y-67456285D01*
X116285285Y-67384857D01*
X116213857Y-67242000D01*
X116071000Y-67170571D01*
X115856714Y-67170571D01*
X115713857Y-67099142D01*
X115642428Y-66956285D01*
X115642428Y-66884857D01*
X115713857Y-66742000D01*
X115856714Y-66670571D01*
X116071000Y-66670571D01*
X116213857Y-66742000D01*
X177675428Y-66776571D02*
X177675428Y-65276571D01*
X177675428Y-65990857D02*
X178532571Y-65990857D01*
X178532571Y-66776571D02*
X178532571Y-65276571D01*
X179461142Y-66776571D02*
X179318285Y-66705142D01*
X179246857Y-66633714D01*
X179175428Y-66490857D01*
X179175428Y-66062285D01*
X179246857Y-65919428D01*
X179318285Y-65848000D01*
X179461142Y-65776571D01*
X179675428Y-65776571D01*
X179818285Y-65848000D01*
X179889714Y-65919428D01*
X179961142Y-66062285D01*
X179961142Y-66490857D01*
X179889714Y-66633714D01*
X179818285Y-66705142D01*
X179675428Y-66776571D01*
X179461142Y-66776571D01*
X180532571Y-66705142D02*
X180675428Y-66776571D01*
X180961142Y-66776571D01*
X181104000Y-66705142D01*
X181175428Y-66562285D01*
X181175428Y-66490857D01*
X181104000Y-66348000D01*
X180961142Y-66276571D01*
X180746857Y-66276571D01*
X180604000Y-66205142D01*
X180532571Y-66062285D01*
X180532571Y-65990857D01*
X180604000Y-65848000D01*
X180746857Y-65776571D01*
X180961142Y-65776571D01*
X181104000Y-65848000D01*
X181604000Y-65776571D02*
X182175428Y-65776571D01*
X181818285Y-65276571D02*
X181818285Y-66562285D01*
X181889714Y-66705142D01*
X182032571Y-66776571D01*
X182175428Y-66776571D01*
X183818285Y-66776571D02*
X183818285Y-65776571D01*
X183818285Y-65276571D02*
X183746857Y-65348000D01*
X183818285Y-65419428D01*
X183889714Y-65348000D01*
X183818285Y-65276571D01*
X183818285Y-65419428D01*
X184532571Y-65776571D02*
X184532571Y-66776571D01*
X184532571Y-65919428D02*
X184604000Y-65848000D01*
X184746857Y-65776571D01*
X184961142Y-65776571D01*
X185104000Y-65848000D01*
X185175428Y-65990857D01*
X185175428Y-66776571D01*
X185675428Y-65776571D02*
X186246857Y-65776571D01*
X185889714Y-65276571D02*
X185889714Y-66562285D01*
X185961142Y-66705142D01*
X186104000Y-66776571D01*
X186246857Y-66776571D01*
X187318285Y-66705142D02*
X187175428Y-66776571D01*
X186889714Y-66776571D01*
X186746857Y-66705142D01*
X186675428Y-66562285D01*
X186675428Y-65990857D01*
X186746857Y-65848000D01*
X186889714Y-65776571D01*
X187175428Y-65776571D01*
X187318285Y-65848000D01*
X187389714Y-65990857D01*
X187389714Y-66133714D01*
X186675428Y-66276571D01*
X188032571Y-66776571D02*
X188032571Y-65776571D01*
X188032571Y-66062285D02*
X188104000Y-65919428D01*
X188175428Y-65848000D01*
X188318285Y-65776571D01*
X188461142Y-65776571D01*
X188746857Y-65776571D02*
X189318285Y-65776571D01*
X188961142Y-66776571D02*
X188961142Y-65490857D01*
X189032571Y-65348000D01*
X189175428Y-65276571D01*
X189318285Y-65276571D01*
X190461142Y-66776571D02*
X190461142Y-65990857D01*
X190389714Y-65848000D01*
X190246857Y-65776571D01*
X189961142Y-65776571D01*
X189818285Y-65848000D01*
X190461142Y-66705142D02*
X190318285Y-66776571D01*
X189961142Y-66776571D01*
X189818285Y-66705142D01*
X189746857Y-66562285D01*
X189746857Y-66419428D01*
X189818285Y-66276571D01*
X189961142Y-66205142D01*
X190318285Y-66205142D01*
X190461142Y-66133714D01*
X191818285Y-66705142D02*
X191675428Y-66776571D01*
X191389714Y-66776571D01*
X191246857Y-66705142D01*
X191175428Y-66633714D01*
X191104000Y-66490857D01*
X191104000Y-66062285D01*
X191175428Y-65919428D01*
X191246857Y-65848000D01*
X191389714Y-65776571D01*
X191675428Y-65776571D01*
X191818285Y-65848000D01*
X193032571Y-66705142D02*
X192889714Y-66776571D01*
X192604000Y-66776571D01*
X192461142Y-66705142D01*
X192389714Y-66562285D01*
X192389714Y-65990857D01*
X192461142Y-65848000D01*
X192604000Y-65776571D01*
X192889714Y-65776571D01*
X193032571Y-65848000D01*
X193104000Y-65990857D01*
X193104000Y-66133714D01*
X192389714Y-66276571D01*
D12*
G04 #@! TO.C,J38*
X137155001Y-96232001D02*
X138265001Y-96232001D01*
X137155001Y-96992001D02*
X137155001Y-96232001D01*
X138828472Y-97752001D02*
X139375001Y-97752001D01*
X137155001Y-97752001D02*
X137701530Y-97752001D01*
X139375001Y-97752001D02*
X139375001Y-97687001D01*
X137155001Y-97752001D02*
X137155001Y-97687001D01*
X137155001Y-97752001D02*
X139375001Y-97752001D01*
G04 #@! TO.C,J21*
X139085001Y-112294001D02*
X141305001Y-112294001D01*
X139085001Y-112294001D02*
X139085001Y-112229001D01*
X141305001Y-112294001D02*
X141305001Y-112229001D01*
X139085001Y-112294001D02*
X139631530Y-112294001D01*
X140758472Y-112294001D02*
X141305001Y-112294001D01*
X139085001Y-111534001D02*
X139085001Y-110774001D01*
X139085001Y-110774001D02*
X140195001Y-110774001D01*
G04 #@! TO.C,J19*
X135935001Y-113124001D02*
X137045001Y-113124001D01*
X135935001Y-113884001D02*
X135935001Y-113124001D01*
X137608472Y-114644001D02*
X138155001Y-114644001D01*
X135935001Y-114644001D02*
X136481530Y-114644001D01*
X138155001Y-114644001D02*
X138155001Y-114579001D01*
X135935001Y-114644001D02*
X135935001Y-114579001D01*
X135935001Y-114644001D02*
X138155001Y-114644001D01*
G04 #@! TO.C,J18*
X137155001Y-95402001D02*
X139375001Y-95402001D01*
X137155001Y-95402001D02*
X137155001Y-95337001D01*
X139375001Y-95402001D02*
X139375001Y-95337001D01*
X137155001Y-95402001D02*
X137701530Y-95402001D01*
X138828472Y-95402001D02*
X139375001Y-95402001D01*
X137155001Y-94642001D02*
X137155001Y-93882001D01*
X137155001Y-93882001D02*
X138265001Y-93882001D01*
G04 #@! TO.C,J17*
X134005001Y-96232001D02*
X135115001Y-96232001D01*
X134005001Y-96992001D02*
X134005001Y-96232001D01*
X135678472Y-97752001D02*
X136225001Y-97752001D01*
X134005001Y-97752001D02*
X134551530Y-97752001D01*
X136225001Y-97752001D02*
X136225001Y-97687001D01*
X134005001Y-97752001D02*
X134005001Y-97687001D01*
X134005001Y-97752001D02*
X136225001Y-97752001D01*
G04 #@! TO.C,J16*
X135935001Y-112294001D02*
X138155001Y-112294001D01*
X135935001Y-112294001D02*
X135935001Y-112229001D01*
X138155001Y-112294001D02*
X138155001Y-112229001D01*
X135935001Y-112294001D02*
X136481530Y-112294001D01*
X137608472Y-112294001D02*
X138155001Y-112294001D01*
X135935001Y-111534001D02*
X135935001Y-110774001D01*
X135935001Y-110774001D02*
X137045001Y-110774001D01*
G04 #@! TO.C,J14*
X139032000Y-113090000D02*
X140142000Y-113090000D01*
X139032000Y-113850000D02*
X139032000Y-113090000D01*
X140705471Y-114610000D02*
X141252000Y-114610000D01*
X139032000Y-114610000D02*
X139578529Y-114610000D01*
X141252000Y-114610000D02*
X141252000Y-114545000D01*
X139032000Y-114610000D02*
X139032000Y-114545000D01*
X139032000Y-114610000D02*
X141252000Y-114610000D01*
G04 #@! TO.C,J36*
X137155001Y-93052001D02*
X139375001Y-93052001D01*
X137155001Y-93052001D02*
X137155001Y-92987001D01*
X139375001Y-93052001D02*
X139375001Y-92987001D01*
X137155001Y-93052001D02*
X137701530Y-93052001D01*
X138828472Y-93052001D02*
X139375001Y-93052001D01*
X137155001Y-92292001D02*
X137155001Y-91532001D01*
X137155001Y-91532001D02*
X138265001Y-91532001D01*
G04 #@! TO.C,J39*
X134005001Y-93882001D02*
X135115001Y-93882001D01*
X134005001Y-94642001D02*
X134005001Y-93882001D01*
X135678472Y-95402001D02*
X136225001Y-95402001D01*
X134005001Y-95402001D02*
X134551530Y-95402001D01*
X136225001Y-95402001D02*
X136225001Y-95337001D01*
X134005001Y-95402001D02*
X134005001Y-95337001D01*
X134005001Y-95402001D02*
X136225001Y-95402001D01*
G04 #@! TO.C,J40*
X130855001Y-97752001D02*
X133075001Y-97752001D01*
X130855001Y-97752001D02*
X130855001Y-97687001D01*
X133075001Y-97752001D02*
X133075001Y-97687001D01*
X130855001Y-97752001D02*
X131401530Y-97752001D01*
X132528472Y-97752001D02*
X133075001Y-97752001D01*
X130855001Y-96992001D02*
X130855001Y-96232001D01*
X130855001Y-96232001D02*
X131965001Y-96232001D01*
G04 #@! TO.C,J13*
X116002999Y-83524999D02*
X114892999Y-83524999D01*
X116002999Y-82764999D02*
X116002999Y-83524999D01*
X114329528Y-82004999D02*
X113782999Y-82004999D01*
X116002999Y-82004999D02*
X115456470Y-82004999D01*
X113782999Y-82004999D02*
X113782999Y-82069999D01*
X116002999Y-82004999D02*
X116002999Y-82069999D01*
X116002999Y-82004999D02*
X113782999Y-82004999D01*
G04 #@! TO.C,J12*
X142207000Y-114644001D02*
X144427000Y-114644001D01*
X142207000Y-114644001D02*
X142207000Y-114579001D01*
X144427000Y-114644001D02*
X144427000Y-114579001D01*
X142207000Y-114644001D02*
X142753529Y-114644001D01*
X143880471Y-114644001D02*
X144427000Y-114644001D01*
X142207000Y-113884001D02*
X142207000Y-113124001D01*
X142207000Y-113124001D02*
X143317000Y-113124001D01*
G04 #@! TO.C,J11*
X134005001Y-91532001D02*
X135115001Y-91532001D01*
X134005001Y-92292001D02*
X134005001Y-91532001D01*
X135678472Y-93052001D02*
X136225001Y-93052001D01*
X134005001Y-93052001D02*
X134551530Y-93052001D01*
X136225001Y-93052001D02*
X136225001Y-92987001D01*
X134005001Y-93052001D02*
X134005001Y-92987001D01*
X134005001Y-93052001D02*
X136225001Y-93052001D01*
G04 #@! TO.C,J10*
X130855001Y-95402001D02*
X133075001Y-95402001D01*
X130855001Y-95402001D02*
X130855001Y-95337001D01*
X133075001Y-95402001D02*
X133075001Y-95337001D01*
X130855001Y-95402001D02*
X131401530Y-95402001D01*
X132528472Y-95402001D02*
X133075001Y-95402001D01*
X130855001Y-94642001D02*
X130855001Y-93882001D01*
X130855001Y-93882001D02*
X131965001Y-93882001D01*
G04 #@! TO.C,J15*
X205429001Y-89374001D02*
X206539001Y-89374001D01*
X205429001Y-90134001D02*
X205429001Y-89374001D01*
X207102472Y-90894001D02*
X207649001Y-90894001D01*
X205429001Y-90894001D02*
X205975530Y-90894001D01*
X207649001Y-90894001D02*
X207649001Y-90829001D01*
X205429001Y-90894001D02*
X205429001Y-90829001D01*
X205429001Y-90894001D02*
X207649001Y-90894001D01*
G04 #@! TO.C,J20*
X119152999Y-82004999D02*
X116932999Y-82004999D01*
X119152999Y-82004999D02*
X119152999Y-82069999D01*
X116932999Y-82004999D02*
X116932999Y-82069999D01*
X119152999Y-82004999D02*
X118606470Y-82004999D01*
X117479528Y-82004999D02*
X116932999Y-82004999D01*
X119152999Y-82764999D02*
X119152999Y-83524999D01*
X119152999Y-83524999D02*
X118042999Y-83524999D01*
G04 #@! TO.C,J22*
X112804000Y-83495000D02*
X111694000Y-83495000D01*
X112804000Y-82735000D02*
X112804000Y-83495000D01*
X111130529Y-81975000D02*
X110584000Y-81975000D01*
X112804000Y-81975000D02*
X112257471Y-81975000D01*
X110584000Y-81975000D02*
X110584000Y-82040000D01*
X112804000Y-81975000D02*
X112804000Y-82040000D01*
X112804000Y-81975000D02*
X110584000Y-81975000D01*
G04 #@! TO.C,J23*
X130855001Y-93052001D02*
X133075001Y-93052001D01*
X130855001Y-93052001D02*
X130855001Y-92987001D01*
X133075001Y-93052001D02*
X133075001Y-92987001D01*
X130855001Y-93052001D02*
X131401530Y-93052001D01*
X132528472Y-93052001D02*
X133075001Y-93052001D01*
X130855001Y-92292001D02*
X130855001Y-91532001D01*
X130855001Y-91532001D02*
X131965001Y-91532001D01*
G04 #@! TO.C,J24*
X205429001Y-87024001D02*
X206539001Y-87024001D01*
X205429001Y-87784001D02*
X205429001Y-87024001D01*
X207102472Y-88544001D02*
X207649001Y-88544001D01*
X205429001Y-88544001D02*
X205975530Y-88544001D01*
X207649001Y-88544001D02*
X207649001Y-88479001D01*
X205429001Y-88544001D02*
X205429001Y-88479001D01*
X205429001Y-88544001D02*
X207649001Y-88544001D01*
G04 #@! TO.C,J25*
X202279001Y-90894001D02*
X204499001Y-90894001D01*
X202279001Y-90894001D02*
X202279001Y-90829001D01*
X204499001Y-90894001D02*
X204499001Y-90829001D01*
X202279001Y-90894001D02*
X202825530Y-90894001D01*
X203952472Y-90894001D02*
X204499001Y-90894001D01*
X202279001Y-90134001D02*
X202279001Y-89374001D01*
X202279001Y-89374001D02*
X203389001Y-89374001D01*
G04 #@! TO.C,J26*
X122302999Y-83524999D02*
X121192999Y-83524999D01*
X122302999Y-82764999D02*
X122302999Y-83524999D01*
X120629528Y-82004999D02*
X120082999Y-82004999D01*
X122302999Y-82004999D02*
X121756470Y-82004999D01*
X120082999Y-82004999D02*
X120082999Y-82069999D01*
X122302999Y-82004999D02*
X122302999Y-82069999D01*
X122302999Y-82004999D02*
X120082999Y-82004999D01*
G04 #@! TO.C,J27*
X142207000Y-112324000D02*
X144427000Y-112324000D01*
X142207000Y-112324000D02*
X142207000Y-112259000D01*
X144427000Y-112324000D02*
X144427000Y-112259000D01*
X142207000Y-112324000D02*
X142753529Y-112324000D01*
X143880471Y-112324000D02*
X144427000Y-112324000D01*
X142207000Y-111564000D02*
X142207000Y-110804000D01*
X142207000Y-110804000D02*
X143317000Y-110804000D01*
G04 #@! TO.C,J28*
X205429001Y-84674001D02*
X206539001Y-84674001D01*
X205429001Y-85434001D02*
X205429001Y-84674001D01*
X207102472Y-86194001D02*
X207649001Y-86194001D01*
X205429001Y-86194001D02*
X205975530Y-86194001D01*
X207649001Y-86194001D02*
X207649001Y-86129001D01*
X205429001Y-86194001D02*
X205429001Y-86129001D01*
X205429001Y-86194001D02*
X207649001Y-86194001D01*
G04 #@! TO.C,J29*
X202279001Y-88544001D02*
X204499001Y-88544001D01*
X202279001Y-88544001D02*
X202279001Y-88479001D01*
X204499001Y-88544001D02*
X204499001Y-88479001D01*
X202279001Y-88544001D02*
X202825530Y-88544001D01*
X203952472Y-88544001D02*
X204499001Y-88544001D01*
X202279001Y-87784001D02*
X202279001Y-87024001D01*
X202279001Y-87024001D02*
X203389001Y-87024001D01*
G04 #@! TO.C,J30*
X199129001Y-89374001D02*
X200239001Y-89374001D01*
X199129001Y-90134001D02*
X199129001Y-89374001D01*
X200802472Y-90894001D02*
X201349001Y-90894001D01*
X199129001Y-90894001D02*
X199675530Y-90894001D01*
X201349001Y-90894001D02*
X201349001Y-90829001D01*
X199129001Y-90894001D02*
X199129001Y-90829001D01*
X199129001Y-90894001D02*
X201349001Y-90894001D01*
G04 #@! TO.C,J31*
X125452999Y-82004999D02*
X123232999Y-82004999D01*
X125452999Y-82004999D02*
X125452999Y-82069999D01*
X123232999Y-82004999D02*
X123232999Y-82069999D01*
X125452999Y-82004999D02*
X124906470Y-82004999D01*
X123779528Y-82004999D02*
X123232999Y-82004999D01*
X125452999Y-82764999D02*
X125452999Y-83524999D01*
X125452999Y-83524999D02*
X124342999Y-83524999D01*
G04 #@! TO.C,J32*
X202279001Y-84674001D02*
X203389001Y-84674001D01*
X202279001Y-85434001D02*
X202279001Y-84674001D01*
X203952472Y-86194001D02*
X204499001Y-86194001D01*
X202279001Y-86194001D02*
X202825530Y-86194001D01*
X204499001Y-86194001D02*
X204499001Y-86129001D01*
X202279001Y-86194001D02*
X202279001Y-86129001D01*
X202279001Y-86194001D02*
X204499001Y-86194001D01*
G04 #@! TO.C,J33*
X199129001Y-88544001D02*
X201349001Y-88544001D01*
X199129001Y-88544001D02*
X199129001Y-88479001D01*
X201349001Y-88544001D02*
X201349001Y-88479001D01*
X199129001Y-88544001D02*
X199675530Y-88544001D01*
X200802472Y-88544001D02*
X201349001Y-88544001D01*
X199129001Y-87784001D02*
X199129001Y-87024001D01*
X199129001Y-87024001D02*
X200239001Y-87024001D01*
G04 #@! TO.C,J34*
X195979001Y-89374001D02*
X197089001Y-89374001D01*
X195979001Y-90134001D02*
X195979001Y-89374001D01*
X197652472Y-90894001D02*
X198199001Y-90894001D01*
X195979001Y-90894001D02*
X196525530Y-90894001D01*
X198199001Y-90894001D02*
X198199001Y-90829001D01*
X195979001Y-90894001D02*
X195979001Y-90829001D01*
X195979001Y-90894001D02*
X198199001Y-90894001D01*
G04 #@! TO.C,J35*
X199129001Y-86194001D02*
X201349001Y-86194001D01*
X199129001Y-86194001D02*
X199129001Y-86129001D01*
X201349001Y-86194001D02*
X201349001Y-86129001D01*
X199129001Y-86194001D02*
X199675530Y-86194001D01*
X200802472Y-86194001D02*
X201349001Y-86194001D01*
X199129001Y-85434001D02*
X199129001Y-84674001D01*
X199129001Y-84674001D02*
X200239001Y-84674001D01*
G04 #@! TO.C,J37*
X195979001Y-87024001D02*
X197089001Y-87024001D01*
X195979001Y-87784001D02*
X195979001Y-87024001D01*
X197652472Y-88544001D02*
X198199001Y-88544001D01*
X195979001Y-88544001D02*
X196525530Y-88544001D01*
X198199001Y-88544001D02*
X198199001Y-88479001D01*
X195979001Y-88544001D02*
X195979001Y-88479001D01*
X195979001Y-88544001D02*
X198199001Y-88544001D01*
G04 #@! TO.C,J9*
X195979001Y-86194001D02*
X198199001Y-86194001D01*
X195979001Y-86194001D02*
X195979001Y-86129001D01*
X198199001Y-86194001D02*
X198199001Y-86129001D01*
X195979001Y-86194001D02*
X196525530Y-86194001D01*
X197652472Y-86194001D02*
X198199001Y-86194001D01*
X195979001Y-85434001D02*
X195979001Y-84674001D01*
X195979001Y-84674001D02*
X197089001Y-84674001D01*
D13*
G04 #@! TO.C,DC-DC1*
X220787000Y-66098000D02*
X220787000Y-82862000D01*
X220787000Y-82862000D02*
X198689000Y-82862000D01*
X198689000Y-82862000D02*
X198689000Y-66098000D01*
X198689000Y-66098000D02*
X220787000Y-66098000D01*
G04 #@! TO.C,U2*
X177600000Y-111093000D02*
X177600000Y-68093000D01*
X192600000Y-111093000D02*
X177600000Y-111093000D01*
X192600000Y-68093000D02*
X192600000Y-111093000D01*
X177600000Y-68093000D02*
X192600000Y-68093000D01*
D12*
G04 #@! TO.C,D3*
X167527000Y-68503000D02*
X171587000Y-68503000D01*
X167527000Y-66233000D02*
X167527000Y-68503000D01*
X171587000Y-66233000D02*
X167527000Y-66233000D01*
G04 #@! TO.C,D4*
X171632000Y-60679002D02*
X167572000Y-60679002D01*
X167572000Y-60679002D02*
X167572000Y-62949002D01*
X167572000Y-62949002D02*
X171632000Y-62949002D01*
G04 #@! TO.C,D2*
X139971500Y-66233000D02*
X135911500Y-66233000D01*
X139971500Y-68503000D02*
X139971500Y-66233000D01*
X135911500Y-68503000D02*
X139971500Y-68503000D01*
G04 #@! TO.C,D1*
X135911500Y-62949002D02*
X139971500Y-62949002D01*
X139971500Y-62949002D02*
X139971500Y-60679002D01*
X139971500Y-60679002D02*
X135911500Y-60679002D01*
G04 #@! TO.C,L1*
X158879000Y-121586252D02*
X158879000Y-118813748D01*
X162299000Y-121586252D02*
X162299000Y-118813748D01*
G04 #@! TO.C,C9*
X204237000Y-106647064D02*
X204237000Y-105442936D01*
X202417000Y-106647064D02*
X202417000Y-105442936D01*
D13*
G04 #@! TO.C,XA1*
X144240000Y-54364000D02*
X144240000Y-104844000D01*
X162240000Y-56364000D02*
X144240000Y-56364000D01*
X162274000Y-54364000D02*
X162274000Y-104844000D01*
X162240000Y-104844000D02*
X144240000Y-104844000D01*
X162274000Y-54364000D02*
X144240000Y-54364000D01*
D14*
G04 #@! TO.C,T1*
X196414000Y-136836000D02*
G75*
G03X196414000Y-136836000I-250000J0D01*
G01*
D13*
X197564000Y-119236000D02*
X180764000Y-119236000D01*
X197564000Y-138436000D02*
X197564000Y-119236000D01*
X180764000Y-138436000D02*
X197564000Y-138436000D01*
X180764000Y-119236000D02*
X180764000Y-138436000D01*
G04 #@! TO.C,HS2*
X115956000Y-125990268D02*
X107856000Y-125990268D01*
X117856000Y-109090268D02*
X117856000Y-131590268D01*
X113556000Y-131490268D02*
X113556000Y-126990268D01*
X107856000Y-132590268D02*
X107856000Y-131590268D01*
X107856000Y-117990268D02*
X115956000Y-117990268D01*
X107856000Y-126990268D02*
X113556000Y-126990268D01*
X107856000Y-131590268D02*
X113556000Y-131590268D01*
X124856000Y-132590268D02*
X124856000Y-131590268D01*
X107856000Y-111490268D02*
X107856000Y-112490268D01*
X115956000Y-111490268D02*
X107856000Y-111490268D01*
X115956000Y-116990268D02*
X107856000Y-116990268D01*
X115956000Y-125990268D02*
X115956000Y-117990268D01*
X107856000Y-116990268D02*
X107856000Y-117990268D01*
X124856000Y-131590268D02*
X117856000Y-131590268D01*
X107856000Y-125990268D02*
X107856000Y-126990268D01*
X107856000Y-112490268D02*
X115956000Y-112490268D01*
X107856000Y-132590268D02*
X124856000Y-132590268D01*
X115956000Y-112490268D02*
X115956000Y-116990268D01*
X115956000Y-109090268D02*
X115956000Y-111490268D01*
X115956000Y-105693000D02*
X115956000Y-101193000D01*
X115956000Y-109093000D02*
X115956000Y-106693000D01*
X107856000Y-100193000D02*
X115956000Y-100193000D01*
X107856000Y-101193000D02*
X107856000Y-100193000D01*
X115956000Y-101193000D02*
X107856000Y-101193000D01*
X107856000Y-105693000D02*
X115956000Y-105693000D01*
X107856000Y-106693000D02*
X107856000Y-105693000D01*
X115956000Y-106693000D02*
X107856000Y-106693000D01*
X115956000Y-92193000D02*
X115956000Y-100193000D01*
X107856000Y-91193000D02*
X113556000Y-91193000D01*
X107856000Y-92193000D02*
X107856000Y-91193000D01*
X115956000Y-92193000D02*
X107856000Y-92193000D01*
X113556000Y-86693000D02*
X113556000Y-91193000D01*
X107856000Y-86593000D02*
X113556000Y-86593000D01*
X107856000Y-85593000D02*
X107856000Y-86593000D01*
X124856000Y-86593000D02*
X117856000Y-86593000D01*
X124856000Y-85593000D02*
X124856000Y-86593000D01*
X107856000Y-85593000D02*
X124856000Y-85593000D01*
X117856000Y-109093000D02*
X117856000Y-86593000D01*
G04 #@! TO.C,HS1*
X218181000Y-91687732D02*
X226281000Y-91687732D01*
X216281000Y-108587732D02*
X216281000Y-86087732D01*
X220581000Y-86187732D02*
X220581000Y-90687732D01*
X226281000Y-85087732D02*
X226281000Y-86087732D01*
X226281000Y-99687732D02*
X218181000Y-99687732D01*
X226281000Y-90687732D02*
X220581000Y-90687732D01*
X226281000Y-86087732D02*
X220581000Y-86087732D01*
X209281000Y-85087732D02*
X209281000Y-86087732D01*
X226281000Y-106187732D02*
X226281000Y-105187732D01*
X218181000Y-106187732D02*
X226281000Y-106187732D01*
X218181000Y-100687732D02*
X226281000Y-100687732D01*
X218181000Y-91687732D02*
X218181000Y-99687732D01*
X226281000Y-100687732D02*
X226281000Y-99687732D01*
X209281000Y-86087732D02*
X216281000Y-86087732D01*
X226281000Y-91687732D02*
X226281000Y-90687732D01*
X226281000Y-105187732D02*
X218181000Y-105187732D01*
X226281000Y-85087732D02*
X209281000Y-85087732D01*
X218181000Y-105187732D02*
X218181000Y-100687732D01*
X218181000Y-108587732D02*
X218181000Y-106187732D01*
X218181000Y-111985000D02*
X218181000Y-116485000D01*
X218181000Y-108585000D02*
X218181000Y-110985000D01*
X226281000Y-117485000D02*
X218181000Y-117485000D01*
X226281000Y-116485000D02*
X226281000Y-117485000D01*
X218181000Y-116485000D02*
X226281000Y-116485000D01*
X226281000Y-111985000D02*
X218181000Y-111985000D01*
X226281000Y-110985000D02*
X226281000Y-111985000D01*
X218181000Y-110985000D02*
X226281000Y-110985000D01*
X218181000Y-125485000D02*
X218181000Y-117485000D01*
X226281000Y-126485000D02*
X220581000Y-126485000D01*
X226281000Y-125485000D02*
X226281000Y-126485000D01*
X218181000Y-125485000D02*
X226281000Y-125485000D01*
X220581000Y-130985000D02*
X220581000Y-126485000D01*
X226281000Y-131085000D02*
X220581000Y-131085000D01*
X226281000Y-132085000D02*
X226281000Y-131085000D01*
X209281000Y-131085000D02*
X216281000Y-131085000D01*
X209281000Y-132085000D02*
X209281000Y-131085000D01*
X226281000Y-132085000D02*
X209281000Y-132085000D01*
X216281000Y-108585000D02*
X216281000Y-131085000D01*
D12*
G04 #@! TO.C,R5*
X203518564Y-130974000D02*
X202314436Y-130974000D01*
X203518564Y-132794000D02*
X202314436Y-132794000D01*
G04 #@! TO.C,J1*
X117028000Y-64574000D02*
X132268000Y-64574000D01*
X117028000Y-56954000D02*
X132268000Y-56954000D01*
X117028000Y-63304000D02*
X132268000Y-63304000D01*
X132268000Y-64574000D02*
X132268000Y-56954000D01*
X117028000Y-64574000D02*
X117028000Y-56954000D01*
G04 #@! TO.C,C12*
X128735500Y-96360064D02*
X128735500Y-95155936D01*
X126915500Y-96360064D02*
X126915500Y-95155936D01*
G04 #@! TO.C,C11*
X136438000Y-100997936D02*
X136438000Y-102202064D01*
X138258000Y-100997936D02*
X138258000Y-102202064D01*
G04 #@! TO.C,C8*
X200742000Y-97434064D02*
X200742000Y-96229936D01*
X198922000Y-97434064D02*
X198922000Y-96229936D01*
G04 #@! TO.C,C7*
X205592000Y-94647936D02*
X205592000Y-95852064D01*
X207412000Y-94647936D02*
X207412000Y-95852064D01*
D13*
G04 #@! TO.C,U9*
X128455600Y-107304600D02*
X127055600Y-107304600D01*
X128455600Y-112404600D02*
X132605600Y-112404600D01*
X128455600Y-107254600D02*
X132605600Y-107254600D01*
X128455600Y-112404600D02*
X128455600Y-112259600D01*
X132605600Y-112404600D02*
X132605600Y-112259600D01*
X132605600Y-107254600D02*
X132605600Y-107399600D01*
X128455600Y-107254600D02*
X128455600Y-107304600D01*
D12*
G04 #@! TO.C,C2*
X155236500Y-119603436D02*
X155236500Y-120807564D01*
X157056500Y-119603436D02*
X157056500Y-120807564D01*
G04 #@! TO.C,C4*
X169092064Y-95102000D02*
X167887936Y-95102000D01*
X169092064Y-96922000D02*
X167887936Y-96922000D01*
G04 #@! TO.C,C5*
X168815936Y-78524000D02*
X170020064Y-78524000D01*
X168815936Y-76704000D02*
X170020064Y-76704000D01*
G04 #@! TO.C,U7*
X129184200Y-124391200D02*
X130834200Y-124391200D01*
X129184200Y-116651200D02*
X129184200Y-124391200D01*
X134484200Y-116651200D02*
X129184200Y-116651200D01*
X134484200Y-124391200D02*
X134484200Y-116651200D01*
X132834200Y-124391200D02*
X134484200Y-124391200D01*
X130834200Y-124391200D02*
G75*
G02X132834200Y-124391200I1000000J0D01*
G01*
G04 #@! TO.C,U4*
X207710800Y-119459400D02*
X206060800Y-119459400D01*
X207710800Y-127199400D02*
X207710800Y-119459400D01*
X202410800Y-127199400D02*
X207710800Y-127199400D01*
X202410800Y-119459400D02*
X202410800Y-127199400D01*
X204060800Y-119459400D02*
X202410800Y-119459400D01*
X206060800Y-119459400D02*
G75*
G02X204060800Y-119459400I-1000000J0D01*
G01*
G04 #@! TO.C,U1*
X130677000Y-76495000D02*
X130677000Y-74845000D01*
X120397000Y-76495000D02*
X130677000Y-76495000D01*
X120397000Y-71195000D02*
X120397000Y-76495000D01*
X130677000Y-71195000D02*
X120397000Y-71195000D01*
X130677000Y-72845000D02*
X130677000Y-71195000D01*
X130677000Y-74845000D02*
G75*
G02X130677000Y-72845000I0J1000000D01*
G01*
D13*
G04 #@! TO.C,U3*
X166965000Y-87179000D02*
X166965000Y-88579000D01*
X172065000Y-87179000D02*
X172065000Y-83029000D01*
X166915000Y-87179000D02*
X166915000Y-83029000D01*
X172065000Y-87179000D02*
X171920000Y-87179000D01*
X172065000Y-83029000D02*
X171920000Y-83029000D01*
X166915000Y-83029000D02*
X167060000Y-83029000D01*
X166915000Y-87179000D02*
X166965000Y-87179000D01*
D12*
G04 #@! TO.C,U5*
X216122000Y-98371000D02*
X214612000Y-98371000D01*
X216122000Y-94670000D02*
X214612000Y-94670000D01*
X214612000Y-91400000D02*
X214612000Y-101640000D01*
X216122000Y-101640000D02*
X211481000Y-101640000D01*
X216122000Y-91400000D02*
X211481000Y-91400000D01*
X211481000Y-91400000D02*
X211481000Y-101640000D01*
X216122000Y-91400000D02*
X216122000Y-101640000D01*
G04 #@! TO.C,U8*
X118142000Y-93246600D02*
X119652000Y-93246600D01*
X118142000Y-96947600D02*
X119652000Y-96947600D01*
X119652000Y-100217600D02*
X119652000Y-89977600D01*
X118142000Y-89977600D02*
X122783000Y-89977600D01*
X118142000Y-100217600D02*
X122783000Y-100217600D01*
X122783000Y-100217600D02*
X122783000Y-89977600D01*
X118142000Y-100217600D02*
X118142000Y-89977600D01*
G04 #@! TO.C,Q2*
X118040400Y-107165800D02*
X119550400Y-107165800D01*
X118040400Y-110866800D02*
X119550400Y-110866800D01*
X119550400Y-114136800D02*
X119550400Y-103896800D01*
X118040400Y-103896800D02*
X122681400Y-103896800D01*
X118040400Y-114136800D02*
X122681400Y-114136800D01*
X122681400Y-114136800D02*
X122681400Y-103896800D01*
X118040400Y-114136800D02*
X118040400Y-103896800D01*
G04 #@! TO.C,Q1*
X216122000Y-110436000D02*
X214612000Y-110436000D01*
X216122000Y-106735000D02*
X214612000Y-106735000D01*
X214612000Y-103465000D02*
X214612000Y-113705000D01*
X216122000Y-113705000D02*
X211481000Y-113705000D01*
X216122000Y-103465000D02*
X211481000Y-103465000D01*
X211481000Y-103465000D02*
X211481000Y-113705000D01*
X216122000Y-103465000D02*
X216122000Y-113705000D01*
G04 #@! TO.C,R11*
X205794687Y-107982936D02*
X205794687Y-109187064D01*
X207614687Y-107982936D02*
X207614687Y-109187064D01*
G04 #@! TO.C,R8*
X194022936Y-115776000D02*
X195227064Y-115776000D01*
X194022936Y-113956000D02*
X195227064Y-113956000D01*
G04 #@! TO.C,R3*
X138201436Y-84441500D02*
X139405564Y-84441500D01*
X138201436Y-82621500D02*
X139405564Y-82621500D01*
G04 #@! TO.C,R6*
X169004064Y-91292000D02*
X167799936Y-91292000D01*
X169004064Y-93112000D02*
X167799936Y-93112000D01*
G04 #@! TO.C,R1*
X135337000Y-73939064D02*
X135337000Y-72734936D01*
X133517000Y-73939064D02*
X133517000Y-72734936D01*
G04 #@! TO.C,R4*
X138918064Y-79621500D02*
X137713936Y-79621500D01*
X138918064Y-81441500D02*
X137713936Y-81441500D01*
G04 #@! TO.C,R2*
X116160000Y-71653064D02*
X116160000Y-70448936D01*
X114340000Y-71653064D02*
X114340000Y-70448936D01*
G04 #@! TO.C,R12*
X142903064Y-122084000D02*
X141698936Y-122084000D01*
X142903064Y-123904000D02*
X141698936Y-123904000D01*
G04 #@! TO.C,R7*
X168779436Y-75078000D02*
X169983564Y-75078000D01*
X168779436Y-73258000D02*
X169983564Y-73258000D01*
G04 #@! TO.C,J3*
X201864000Y-64447000D02*
X217104000Y-64447000D01*
X201864000Y-56827000D02*
X217104000Y-56827000D01*
X201864000Y-63177000D02*
X217104000Y-63177000D01*
X217104000Y-64447000D02*
X217104000Y-56827000D01*
X201864000Y-64447000D02*
X201864000Y-56827000D01*
G04 #@! TO.C,J4*
X177480000Y-64574000D02*
X192720000Y-64574000D01*
X177480000Y-56954000D02*
X192720000Y-56954000D01*
X177480000Y-63304000D02*
X192720000Y-63304000D01*
X192720000Y-64574000D02*
X192720000Y-56954000D01*
X177480000Y-64574000D02*
X177480000Y-56954000D01*
G04 #@! TO.C,J2*
X177607000Y-135440000D02*
X157287000Y-135440000D01*
X177607000Y-143060000D02*
X157287000Y-143060000D01*
X157287000Y-136710000D02*
X177607000Y-136710000D01*
X157287000Y-135440000D02*
X157287000Y-143060000D01*
X177607000Y-143060000D02*
X177607000Y-135440000D01*
G04 #@! TO.C,DC-DC1*
D13*
X206880857Y-74432380D02*
X206880857Y-73432380D01*
X207118952Y-73432380D01*
X207261809Y-73480000D01*
X207357047Y-73575238D01*
X207404666Y-73670476D01*
X207452285Y-73860952D01*
X207452285Y-74003809D01*
X207404666Y-74194285D01*
X207357047Y-74289523D01*
X207261809Y-74384761D01*
X207118952Y-74432380D01*
X206880857Y-74432380D01*
X208452285Y-74337142D02*
X208404666Y-74384761D01*
X208261809Y-74432380D01*
X208166571Y-74432380D01*
X208023714Y-74384761D01*
X207928476Y-74289523D01*
X207880857Y-74194285D01*
X207833238Y-74003809D01*
X207833238Y-73860952D01*
X207880857Y-73670476D01*
X207928476Y-73575238D01*
X208023714Y-73480000D01*
X208166571Y-73432380D01*
X208261809Y-73432380D01*
X208404666Y-73480000D01*
X208452285Y-73527619D01*
X208880857Y-74051428D02*
X209642761Y-74051428D01*
X210118952Y-74432380D02*
X210118952Y-73432380D01*
X210357047Y-73432380D01*
X210499904Y-73480000D01*
X210595142Y-73575238D01*
X210642761Y-73670476D01*
X210690380Y-73860952D01*
X210690380Y-74003809D01*
X210642761Y-74194285D01*
X210595142Y-74289523D01*
X210499904Y-74384761D01*
X210357047Y-74432380D01*
X210118952Y-74432380D01*
X211690380Y-74337142D02*
X211642761Y-74384761D01*
X211499904Y-74432380D01*
X211404666Y-74432380D01*
X211261809Y-74384761D01*
X211166571Y-74289523D01*
X211118952Y-74194285D01*
X211071333Y-74003809D01*
X211071333Y-73860952D01*
X211118952Y-73670476D01*
X211166571Y-73575238D01*
X211261809Y-73480000D01*
X211404666Y-73432380D01*
X211499904Y-73432380D01*
X211642761Y-73480000D01*
X211690380Y-73527619D01*
X212642761Y-74432380D02*
X212071333Y-74432380D01*
X212357047Y-74432380D02*
X212357047Y-73432380D01*
X212261809Y-73575238D01*
X212166571Y-73670476D01*
X212071333Y-73718095D01*
X202364190Y-79012380D02*
X202697523Y-80012380D01*
X203030857Y-79012380D01*
X203364190Y-80012380D02*
X203364190Y-79345714D01*
X203364190Y-79012380D02*
X203316571Y-79060000D01*
X203364190Y-79107619D01*
X203411809Y-79060000D01*
X203364190Y-79012380D01*
X203364190Y-79107619D01*
X203840380Y-79345714D02*
X203840380Y-80012380D01*
X203840380Y-79440952D02*
X203888000Y-79393333D01*
X203983238Y-79345714D01*
X204126095Y-79345714D01*
X204221333Y-79393333D01*
X204268952Y-79488571D01*
X204268952Y-80012380D01*
X214564190Y-79012380D02*
X214897523Y-80012380D01*
X215230857Y-79012380D01*
X215707047Y-80012380D02*
X215611809Y-79964761D01*
X215564190Y-79917142D01*
X215516571Y-79821904D01*
X215516571Y-79536190D01*
X215564190Y-79440952D01*
X215611809Y-79393333D01*
X215707047Y-79345714D01*
X215849904Y-79345714D01*
X215945142Y-79393333D01*
X215992761Y-79440952D01*
X216040380Y-79536190D01*
X216040380Y-79821904D01*
X215992761Y-79917142D01*
X215945142Y-79964761D01*
X215849904Y-80012380D01*
X215707047Y-80012380D01*
X216897523Y-79345714D02*
X216897523Y-80012380D01*
X216468952Y-79345714D02*
X216468952Y-79869523D01*
X216516571Y-79964761D01*
X216611809Y-80012380D01*
X216754666Y-80012380D01*
X216849904Y-79964761D01*
X216897523Y-79917142D01*
X217230857Y-79345714D02*
X217611809Y-79345714D01*
X217373714Y-79012380D02*
X217373714Y-79869523D01*
X217421333Y-79964761D01*
X217516571Y-80012380D01*
X217611809Y-80012380D01*
X208976095Y-67630000D02*
X208880857Y-67582380D01*
X208738000Y-67582380D01*
X208595142Y-67630000D01*
X208499904Y-67725238D01*
X208452285Y-67820476D01*
X208404666Y-68010952D01*
X208404666Y-68153809D01*
X208452285Y-68344285D01*
X208499904Y-68439523D01*
X208595142Y-68534761D01*
X208738000Y-68582380D01*
X208833238Y-68582380D01*
X208976095Y-68534761D01*
X209023714Y-68487142D01*
X209023714Y-68153809D01*
X208833238Y-68153809D01*
X209452285Y-68582380D02*
X209452285Y-67582380D01*
X210023714Y-68582380D01*
X210023714Y-67582380D01*
X210499904Y-68582380D02*
X210499904Y-67582380D01*
X210738000Y-67582380D01*
X210880857Y-67630000D01*
X210976095Y-67725238D01*
X211023714Y-67820476D01*
X211071333Y-68010952D01*
X211071333Y-68153809D01*
X211023714Y-68344285D01*
X210976095Y-68439523D01*
X210880857Y-68534761D01*
X210738000Y-68582380D01*
X210499904Y-68582380D01*
G04 #@! TO.C,U2*
X184647619Y-88331095D02*
X183838095Y-88331095D01*
X183742857Y-88378714D01*
X183695238Y-88426333D01*
X183647619Y-88521571D01*
X183647619Y-88712047D01*
X183695238Y-88807285D01*
X183742857Y-88854904D01*
X183838095Y-88902523D01*
X184647619Y-88902523D01*
X184552380Y-89331095D02*
X184600000Y-89378714D01*
X184647619Y-89473952D01*
X184647619Y-89712047D01*
X184600000Y-89807285D01*
X184552380Y-89854904D01*
X184457142Y-89902523D01*
X184361904Y-89902523D01*
X184219047Y-89854904D01*
X183647619Y-89283476D01*
X183647619Y-89902523D01*
X188338095Y-107593000D02*
X188242857Y-107545380D01*
X188100000Y-107545380D01*
X187957142Y-107593000D01*
X187861904Y-107688238D01*
X187814285Y-107783476D01*
X187766666Y-107973952D01*
X187766666Y-108116809D01*
X187814285Y-108307285D01*
X187861904Y-108402523D01*
X187957142Y-108497761D01*
X188100000Y-108545380D01*
X188195238Y-108545380D01*
X188338095Y-108497761D01*
X188385714Y-108450142D01*
X188385714Y-108116809D01*
X188195238Y-108116809D01*
X188814285Y-108545380D02*
X188814285Y-107545380D01*
X189385714Y-108545380D01*
X189385714Y-107545380D01*
X189861904Y-108545380D02*
X189861904Y-107545380D01*
X190100000Y-107545380D01*
X190242857Y-107593000D01*
X190338095Y-107688238D01*
X190385714Y-107783476D01*
X190433333Y-107973952D01*
X190433333Y-108116809D01*
X190385714Y-108307285D01*
X190338095Y-108402523D01*
X190242857Y-108497761D01*
X190100000Y-108545380D01*
X189861904Y-108545380D01*
X185552380Y-108545380D02*
X185219047Y-108069190D01*
X184980952Y-108545380D02*
X184980952Y-107545380D01*
X185361904Y-107545380D01*
X185457142Y-107593000D01*
X185504761Y-107640619D01*
X185552380Y-107735857D01*
X185552380Y-107878714D01*
X185504761Y-107973952D01*
X185457142Y-108021571D01*
X185361904Y-108069190D01*
X184980952Y-108069190D01*
X185885714Y-108545380D02*
X186409523Y-107878714D01*
X185885714Y-107878714D02*
X186409523Y-108545380D01*
X187219047Y-108545380D02*
X187219047Y-107545380D01*
X187219047Y-108497761D02*
X187123809Y-108545380D01*
X186933333Y-108545380D01*
X186838095Y-108497761D01*
X186790476Y-108450142D01*
X186742857Y-108354904D01*
X186742857Y-108069190D01*
X186790476Y-107973952D01*
X186838095Y-107926333D01*
X186933333Y-107878714D01*
X187123809Y-107878714D01*
X187219047Y-107926333D01*
X181957142Y-107545380D02*
X182528571Y-107545380D01*
X182242857Y-108545380D02*
X182242857Y-107545380D01*
X182766666Y-108545380D02*
X183290476Y-107878714D01*
X182766666Y-107878714D02*
X183290476Y-108545380D01*
X184100000Y-108545380D02*
X184100000Y-107545380D01*
X184100000Y-108497761D02*
X184004761Y-108545380D01*
X183814285Y-108545380D01*
X183719047Y-108497761D01*
X183671428Y-108450142D01*
X183623809Y-108354904D01*
X183623809Y-108069190D01*
X183671428Y-107973952D01*
X183719047Y-107926333D01*
X183814285Y-107878714D01*
X184004761Y-107878714D01*
X184100000Y-107926333D01*
X178909523Y-107545380D02*
X179242857Y-108545380D01*
X179576190Y-107545380D01*
X180338095Y-108497761D02*
X180242857Y-108545380D01*
X180052380Y-108545380D01*
X179957142Y-108497761D01*
X179909523Y-108450142D01*
X179861904Y-108354904D01*
X179861904Y-108069190D01*
X179909523Y-107973952D01*
X179957142Y-107926333D01*
X180052380Y-107878714D01*
X180242857Y-107878714D01*
X180338095Y-107926333D01*
X181195238Y-108497761D02*
X181100000Y-108545380D01*
X180909523Y-108545380D01*
X180814285Y-108497761D01*
X180766666Y-108450142D01*
X180719047Y-108354904D01*
X180719047Y-108069190D01*
X180766666Y-107973952D01*
X180814285Y-107926333D01*
X180909523Y-107878714D01*
X181100000Y-107878714D01*
X181195238Y-107926333D01*
X189338095Y-71093000D02*
X189242857Y-71045380D01*
X189100000Y-71045380D01*
X188957142Y-71093000D01*
X188861904Y-71188238D01*
X188814285Y-71283476D01*
X188766666Y-71473952D01*
X188766666Y-71616809D01*
X188814285Y-71807285D01*
X188861904Y-71902523D01*
X188957142Y-71997761D01*
X189100000Y-72045380D01*
X189195238Y-72045380D01*
X189338095Y-71997761D01*
X189385714Y-71950142D01*
X189385714Y-71616809D01*
X189195238Y-71616809D01*
X189814285Y-72045380D02*
X189814285Y-71045380D01*
X190385714Y-72045380D01*
X190385714Y-71045380D01*
X190861904Y-72045380D02*
X190861904Y-71045380D01*
X191100000Y-71045380D01*
X191242857Y-71093000D01*
X191338095Y-71188238D01*
X191385714Y-71283476D01*
X191433333Y-71473952D01*
X191433333Y-71616809D01*
X191385714Y-71807285D01*
X191338095Y-71902523D01*
X191242857Y-71997761D01*
X191100000Y-72045380D01*
X190861904Y-72045380D01*
X184552380Y-71521571D02*
X184695238Y-71569190D01*
X184742857Y-71616809D01*
X184790476Y-71712047D01*
X184790476Y-71854904D01*
X184742857Y-71950142D01*
X184695238Y-71997761D01*
X184600000Y-72045380D01*
X184219047Y-72045380D01*
X184219047Y-71045380D01*
X184552380Y-71045380D01*
X184647619Y-71093000D01*
X184695238Y-71140619D01*
X184742857Y-71235857D01*
X184742857Y-71331095D01*
X184695238Y-71426333D01*
X184647619Y-71473952D01*
X184552380Y-71521571D01*
X184219047Y-71521571D01*
X185219047Y-71664428D02*
X185980952Y-71664428D01*
X179242857Y-71759666D02*
X179719047Y-71759666D01*
X179147619Y-72045380D02*
X179480952Y-71045380D01*
X179814285Y-72045380D01*
X180147619Y-71664428D02*
X180909523Y-71664428D01*
X180528571Y-72045380D02*
X180528571Y-71283476D01*
G04 #@! TO.C,D3*
X174455904Y-68328380D02*
X174455904Y-67328380D01*
X174694000Y-67328380D01*
X174836857Y-67376000D01*
X174932095Y-67471238D01*
X174979714Y-67566476D01*
X175027333Y-67756952D01*
X175027333Y-67899809D01*
X174979714Y-68090285D01*
X174932095Y-68185523D01*
X174836857Y-68280761D01*
X174694000Y-68328380D01*
X174455904Y-68328380D01*
X175360666Y-67328380D02*
X175979714Y-67328380D01*
X175646380Y-67709333D01*
X175789238Y-67709333D01*
X175884476Y-67756952D01*
X175932095Y-67804571D01*
X175979714Y-67899809D01*
X175979714Y-68137904D01*
X175932095Y-68233142D01*
X175884476Y-68280761D01*
X175789238Y-68328380D01*
X175503523Y-68328380D01*
X175408285Y-68280761D01*
X175360666Y-68233142D01*
G04 #@! TO.C,D4*
X174328904Y-62232380D02*
X174328904Y-61232380D01*
X174567000Y-61232380D01*
X174709857Y-61280000D01*
X174805095Y-61375238D01*
X174852714Y-61470476D01*
X174900333Y-61660952D01*
X174900333Y-61803809D01*
X174852714Y-61994285D01*
X174805095Y-62089523D01*
X174709857Y-62184761D01*
X174567000Y-62232380D01*
X174328904Y-62232380D01*
X175757476Y-61565714D02*
X175757476Y-62232380D01*
X175519380Y-61184761D02*
X175281285Y-61899047D01*
X175900333Y-61899047D01*
G04 #@! TO.C,D2*
X133180904Y-67947380D02*
X133180904Y-66947380D01*
X133419000Y-66947380D01*
X133561857Y-66995000D01*
X133657095Y-67090238D01*
X133704714Y-67185476D01*
X133752333Y-67375952D01*
X133752333Y-67518809D01*
X133704714Y-67709285D01*
X133657095Y-67804523D01*
X133561857Y-67899761D01*
X133419000Y-67947380D01*
X133180904Y-67947380D01*
X134133285Y-67042619D02*
X134180904Y-66995000D01*
X134276142Y-66947380D01*
X134514238Y-66947380D01*
X134609476Y-66995000D01*
X134657095Y-67042619D01*
X134704714Y-67137857D01*
X134704714Y-67233095D01*
X134657095Y-67375952D01*
X134085666Y-67947380D01*
X134704714Y-67947380D01*
G04 #@! TO.C,D1*
X133053904Y-62232380D02*
X133053904Y-61232380D01*
X133292000Y-61232380D01*
X133434857Y-61280000D01*
X133530095Y-61375238D01*
X133577714Y-61470476D01*
X133625333Y-61660952D01*
X133625333Y-61803809D01*
X133577714Y-61994285D01*
X133530095Y-62089523D01*
X133434857Y-62184761D01*
X133292000Y-62232380D01*
X133053904Y-62232380D01*
X134577714Y-62232380D02*
X134006285Y-62232380D01*
X134292000Y-62232380D02*
X134292000Y-61232380D01*
X134196761Y-61375238D01*
X134101523Y-61470476D01*
X134006285Y-61518095D01*
G04 #@! TO.C,L1*
X158391380Y-120366666D02*
X158391380Y-120842857D01*
X157391380Y-120842857D01*
X158391380Y-119509523D02*
X158391380Y-120080952D01*
X158391380Y-119795238D02*
X157391380Y-119795238D01*
X157534238Y-119890476D01*
X157629476Y-119985714D01*
X157677095Y-120080952D01*
G04 #@! TO.C,C9*
X201864142Y-106211666D02*
X201911761Y-106259285D01*
X201959380Y-106402142D01*
X201959380Y-106497380D01*
X201911761Y-106640238D01*
X201816523Y-106735476D01*
X201721285Y-106783095D01*
X201530809Y-106830714D01*
X201387952Y-106830714D01*
X201197476Y-106783095D01*
X201102238Y-106735476D01*
X201007000Y-106640238D01*
X200959380Y-106497380D01*
X200959380Y-106402142D01*
X201007000Y-106259285D01*
X201054619Y-106211666D01*
X201959380Y-105735476D02*
X201959380Y-105545000D01*
X201911761Y-105449761D01*
X201864142Y-105402142D01*
X201721285Y-105306904D01*
X201530809Y-105259285D01*
X201149857Y-105259285D01*
X201054619Y-105306904D01*
X201007000Y-105354523D01*
X200959380Y-105449761D01*
X200959380Y-105640238D01*
X201007000Y-105735476D01*
X201054619Y-105783095D01*
X201149857Y-105830714D01*
X201387952Y-105830714D01*
X201483190Y-105783095D01*
X201530809Y-105735476D01*
X201578428Y-105640238D01*
X201578428Y-105449761D01*
X201530809Y-105354523D01*
X201483190Y-105306904D01*
X201387952Y-105259285D01*
G04 #@! TO.C,XA1*
X152619904Y-81679380D02*
X153286571Y-82679380D01*
X153286571Y-81679380D02*
X152619904Y-82679380D01*
X153619904Y-82393666D02*
X154096095Y-82393666D01*
X153524666Y-82679380D02*
X153858000Y-81679380D01*
X154191333Y-82679380D01*
X155048476Y-82679380D02*
X154477047Y-82679380D01*
X154762761Y-82679380D02*
X154762761Y-81679380D01*
X154667523Y-81822238D01*
X154572285Y-81917476D01*
X154477047Y-81965095D01*
D15*
X152626047Y-55074190D02*
X152626047Y-55478952D01*
X152649857Y-55526571D01*
X152673666Y-55550380D01*
X152721285Y-55574190D01*
X152816523Y-55574190D01*
X152864142Y-55550380D01*
X152887952Y-55526571D01*
X152911761Y-55478952D01*
X152911761Y-55074190D01*
X153126047Y-55550380D02*
X153197476Y-55574190D01*
X153316523Y-55574190D01*
X153364142Y-55550380D01*
X153387952Y-55526571D01*
X153411761Y-55478952D01*
X153411761Y-55431333D01*
X153387952Y-55383714D01*
X153364142Y-55359904D01*
X153316523Y-55336095D01*
X153221285Y-55312285D01*
X153173666Y-55288476D01*
X153149857Y-55264666D01*
X153126047Y-55217047D01*
X153126047Y-55169428D01*
X153149857Y-55121809D01*
X153173666Y-55098000D01*
X153221285Y-55074190D01*
X153340333Y-55074190D01*
X153411761Y-55098000D01*
X153792714Y-55312285D02*
X153864142Y-55336095D01*
X153887952Y-55359904D01*
X153911761Y-55407523D01*
X153911761Y-55478952D01*
X153887952Y-55526571D01*
X153864142Y-55550380D01*
X153816523Y-55574190D01*
X153626047Y-55574190D01*
X153626047Y-55074190D01*
X153792714Y-55074190D01*
X153840333Y-55098000D01*
X153864142Y-55121809D01*
X153887952Y-55169428D01*
X153887952Y-55217047D01*
X153864142Y-55264666D01*
X153840333Y-55288476D01*
X153792714Y-55312285D01*
X153626047Y-55312285D01*
X146760190Y-63562095D02*
X146760190Y-63252571D01*
X146950666Y-63419238D01*
X146950666Y-63347809D01*
X146974476Y-63300190D01*
X146998285Y-63276380D01*
X147045904Y-63252571D01*
X147164952Y-63252571D01*
X147212571Y-63276380D01*
X147236380Y-63300190D01*
X147260190Y-63347809D01*
X147260190Y-63490666D01*
X147236380Y-63538285D01*
X147212571Y-63562095D01*
X147212571Y-63038285D02*
X147236380Y-63014476D01*
X147260190Y-63038285D01*
X147236380Y-63062095D01*
X147212571Y-63038285D01*
X147260190Y-63038285D01*
X146760190Y-62847809D02*
X146760190Y-62538285D01*
X146950666Y-62704952D01*
X146950666Y-62633523D01*
X146974476Y-62585904D01*
X146998285Y-62562095D01*
X147045904Y-62538285D01*
X147164952Y-62538285D01*
X147212571Y-62562095D01*
X147236380Y-62585904D01*
X147260190Y-62633523D01*
X147260190Y-62776380D01*
X147236380Y-62824000D01*
X147212571Y-62847809D01*
X146760190Y-62395428D02*
X147260190Y-62228761D01*
X146760190Y-62062095D01*
G04 #@! TO.C,T1*
D13*
X188116380Y-129597904D02*
X188116380Y-129026476D01*
X189116380Y-129312190D02*
X188116380Y-129312190D01*
X189116380Y-128169333D02*
X189116380Y-128740761D01*
X189116380Y-128455047D02*
X188116380Y-128455047D01*
X188259238Y-128550285D01*
X188354476Y-128645523D01*
X188402095Y-128740761D01*
G04 #@! TO.C,HS2*
X117408380Y-122531095D02*
X116408380Y-122531095D01*
X116884571Y-122531095D02*
X116884571Y-121959666D01*
X117408380Y-121959666D02*
X116408380Y-121959666D01*
X117360761Y-121531095D02*
X117408380Y-121388238D01*
X117408380Y-121150142D01*
X117360761Y-121054904D01*
X117313142Y-121007285D01*
X117217904Y-120959666D01*
X117122666Y-120959666D01*
X117027428Y-121007285D01*
X116979809Y-121054904D01*
X116932190Y-121150142D01*
X116884571Y-121340619D01*
X116836952Y-121435857D01*
X116789333Y-121483476D01*
X116694095Y-121531095D01*
X116598857Y-121531095D01*
X116503619Y-121483476D01*
X116456000Y-121435857D01*
X116408380Y-121340619D01*
X116408380Y-121102523D01*
X116456000Y-120959666D01*
X116503619Y-120578714D02*
X116456000Y-120531095D01*
X116408380Y-120435857D01*
X116408380Y-120197761D01*
X116456000Y-120102523D01*
X116503619Y-120054904D01*
X116598857Y-120007285D01*
X116694095Y-120007285D01*
X116836952Y-120054904D01*
X117408380Y-120626333D01*
X117408380Y-120007285D01*
G04 #@! TO.C,HS1*
X217633380Y-97623095D02*
X216633380Y-97623095D01*
X217109571Y-97623095D02*
X217109571Y-97051666D01*
X217633380Y-97051666D02*
X216633380Y-97051666D01*
X217585761Y-96623095D02*
X217633380Y-96480238D01*
X217633380Y-96242142D01*
X217585761Y-96146904D01*
X217538142Y-96099285D01*
X217442904Y-96051666D01*
X217347666Y-96051666D01*
X217252428Y-96099285D01*
X217204809Y-96146904D01*
X217157190Y-96242142D01*
X217109571Y-96432619D01*
X217061952Y-96527857D01*
X217014333Y-96575476D01*
X216919095Y-96623095D01*
X216823857Y-96623095D01*
X216728619Y-96575476D01*
X216681000Y-96527857D01*
X216633380Y-96432619D01*
X216633380Y-96194523D01*
X216681000Y-96051666D01*
X217633380Y-95099285D02*
X217633380Y-95670714D01*
X217633380Y-95385000D02*
X216633380Y-95385000D01*
X216776238Y-95480238D01*
X216871476Y-95575476D01*
X216919095Y-95670714D01*
G04 #@! TO.C,R5*
X202749833Y-134156380D02*
X202416500Y-133680190D01*
X202178404Y-134156380D02*
X202178404Y-133156380D01*
X202559357Y-133156380D01*
X202654595Y-133204000D01*
X202702214Y-133251619D01*
X202749833Y-133346857D01*
X202749833Y-133489714D01*
X202702214Y-133584952D01*
X202654595Y-133632571D01*
X202559357Y-133680190D01*
X202178404Y-133680190D01*
X203654595Y-133156380D02*
X203178404Y-133156380D01*
X203130785Y-133632571D01*
X203178404Y-133584952D01*
X203273642Y-133537333D01*
X203511738Y-133537333D01*
X203606976Y-133584952D01*
X203654595Y-133632571D01*
X203702214Y-133727809D01*
X203702214Y-133965904D01*
X203654595Y-134061142D01*
X203606976Y-134108761D01*
X203511738Y-134156380D01*
X203273642Y-134156380D01*
X203178404Y-134108761D01*
X203130785Y-134061142D01*
G04 #@! TO.C,J1*
X121774666Y-57295380D02*
X121774666Y-58009666D01*
X121727047Y-58152523D01*
X121631809Y-58247761D01*
X121488952Y-58295380D01*
X121393714Y-58295380D01*
X122774666Y-58295380D02*
X122203238Y-58295380D01*
X122488952Y-58295380D02*
X122488952Y-57295380D01*
X122393714Y-57438238D01*
X122298476Y-57533476D01*
X122203238Y-57581095D01*
G04 #@! TO.C,C12*
X126362642Y-96400857D02*
X126410261Y-96448476D01*
X126457880Y-96591333D01*
X126457880Y-96686571D01*
X126410261Y-96829428D01*
X126315023Y-96924666D01*
X126219785Y-96972285D01*
X126029309Y-97019904D01*
X125886452Y-97019904D01*
X125695976Y-96972285D01*
X125600738Y-96924666D01*
X125505500Y-96829428D01*
X125457880Y-96686571D01*
X125457880Y-96591333D01*
X125505500Y-96448476D01*
X125553119Y-96400857D01*
X126457880Y-95448476D02*
X126457880Y-96019904D01*
X126457880Y-95734190D02*
X125457880Y-95734190D01*
X125600738Y-95829428D01*
X125695976Y-95924666D01*
X125743595Y-96019904D01*
X125553119Y-95067523D02*
X125505500Y-95019904D01*
X125457880Y-94924666D01*
X125457880Y-94686571D01*
X125505500Y-94591333D01*
X125553119Y-94543714D01*
X125648357Y-94496095D01*
X125743595Y-94496095D01*
X125886452Y-94543714D01*
X126457880Y-95115142D01*
X126457880Y-94496095D01*
G04 #@! TO.C,C11*
X139525142Y-102242857D02*
X139572761Y-102290476D01*
X139620380Y-102433333D01*
X139620380Y-102528571D01*
X139572761Y-102671428D01*
X139477523Y-102766666D01*
X139382285Y-102814285D01*
X139191809Y-102861904D01*
X139048952Y-102861904D01*
X138858476Y-102814285D01*
X138763238Y-102766666D01*
X138668000Y-102671428D01*
X138620380Y-102528571D01*
X138620380Y-102433333D01*
X138668000Y-102290476D01*
X138715619Y-102242857D01*
X139620380Y-101290476D02*
X139620380Y-101861904D01*
X139620380Y-101576190D02*
X138620380Y-101576190D01*
X138763238Y-101671428D01*
X138858476Y-101766666D01*
X138906095Y-101861904D01*
X139620380Y-100338095D02*
X139620380Y-100909523D01*
X139620380Y-100623809D02*
X138620380Y-100623809D01*
X138763238Y-100719047D01*
X138858476Y-100814285D01*
X138906095Y-100909523D01*
G04 #@! TO.C,C8*
X198369142Y-96998666D02*
X198416761Y-97046285D01*
X198464380Y-97189142D01*
X198464380Y-97284380D01*
X198416761Y-97427238D01*
X198321523Y-97522476D01*
X198226285Y-97570095D01*
X198035809Y-97617714D01*
X197892952Y-97617714D01*
X197702476Y-97570095D01*
X197607238Y-97522476D01*
X197512000Y-97427238D01*
X197464380Y-97284380D01*
X197464380Y-97189142D01*
X197512000Y-97046285D01*
X197559619Y-96998666D01*
X197892952Y-96427238D02*
X197845333Y-96522476D01*
X197797714Y-96570095D01*
X197702476Y-96617714D01*
X197654857Y-96617714D01*
X197559619Y-96570095D01*
X197512000Y-96522476D01*
X197464380Y-96427238D01*
X197464380Y-96236761D01*
X197512000Y-96141523D01*
X197559619Y-96093904D01*
X197654857Y-96046285D01*
X197702476Y-96046285D01*
X197797714Y-96093904D01*
X197845333Y-96141523D01*
X197892952Y-96236761D01*
X197892952Y-96427238D01*
X197940571Y-96522476D01*
X197988190Y-96570095D01*
X198083428Y-96617714D01*
X198273904Y-96617714D01*
X198369142Y-96570095D01*
X198416761Y-96522476D01*
X198464380Y-96427238D01*
X198464380Y-96236761D01*
X198416761Y-96141523D01*
X198369142Y-96093904D01*
X198273904Y-96046285D01*
X198083428Y-96046285D01*
X197988190Y-96093904D01*
X197940571Y-96141523D01*
X197892952Y-96236761D01*
G04 #@! TO.C,C7*
X208679142Y-95416666D02*
X208726761Y-95464285D01*
X208774380Y-95607142D01*
X208774380Y-95702380D01*
X208726761Y-95845238D01*
X208631523Y-95940476D01*
X208536285Y-95988095D01*
X208345809Y-96035714D01*
X208202952Y-96035714D01*
X208012476Y-95988095D01*
X207917238Y-95940476D01*
X207822000Y-95845238D01*
X207774380Y-95702380D01*
X207774380Y-95607142D01*
X207822000Y-95464285D01*
X207869619Y-95416666D01*
X207774380Y-95083333D02*
X207774380Y-94416666D01*
X208774380Y-94845238D01*
G04 #@! TO.C,U9*
X129768695Y-105781980D02*
X129768695Y-106591504D01*
X129816314Y-106686742D01*
X129863933Y-106734361D01*
X129959171Y-106781980D01*
X130149647Y-106781980D01*
X130244885Y-106734361D01*
X130292504Y-106686742D01*
X130340123Y-106591504D01*
X130340123Y-105781980D01*
X130863933Y-106781980D02*
X131054409Y-106781980D01*
X131149647Y-106734361D01*
X131197266Y-106686742D01*
X131292504Y-106543885D01*
X131340123Y-106353409D01*
X131340123Y-105972457D01*
X131292504Y-105877219D01*
X131244885Y-105829600D01*
X131149647Y-105781980D01*
X130959171Y-105781980D01*
X130863933Y-105829600D01*
X130816314Y-105877219D01*
X130768695Y-105972457D01*
X130768695Y-106210552D01*
X130816314Y-106305790D01*
X130863933Y-106353409D01*
X130959171Y-106401028D01*
X131149647Y-106401028D01*
X131244885Y-106353409D01*
X131292504Y-106305790D01*
X131340123Y-106210552D01*
G04 #@! TO.C,C2*
X156120142Y-116429666D02*
X156167761Y-116477285D01*
X156215380Y-116620142D01*
X156215380Y-116715380D01*
X156167761Y-116858238D01*
X156072523Y-116953476D01*
X155977285Y-117001095D01*
X155786809Y-117048714D01*
X155643952Y-117048714D01*
X155453476Y-117001095D01*
X155358238Y-116953476D01*
X155263000Y-116858238D01*
X155215380Y-116715380D01*
X155215380Y-116620142D01*
X155263000Y-116477285D01*
X155310619Y-116429666D01*
X155310619Y-116048714D02*
X155263000Y-116001095D01*
X155215380Y-115905857D01*
X155215380Y-115667761D01*
X155263000Y-115572523D01*
X155310619Y-115524904D01*
X155405857Y-115477285D01*
X155501095Y-115477285D01*
X155643952Y-115524904D01*
X156215380Y-116096333D01*
X156215380Y-115477285D01*
G04 #@! TO.C,C4*
X168323333Y-98189142D02*
X168275714Y-98236761D01*
X168132857Y-98284380D01*
X168037619Y-98284380D01*
X167894761Y-98236761D01*
X167799523Y-98141523D01*
X167751904Y-98046285D01*
X167704285Y-97855809D01*
X167704285Y-97712952D01*
X167751904Y-97522476D01*
X167799523Y-97427238D01*
X167894761Y-97332000D01*
X168037619Y-97284380D01*
X168132857Y-97284380D01*
X168275714Y-97332000D01*
X168323333Y-97379619D01*
X169180476Y-97617714D02*
X169180476Y-98284380D01*
X168942380Y-97236761D02*
X168704285Y-97951047D01*
X169323333Y-97951047D01*
G04 #@! TO.C,C5*
X172868333Y-77885142D02*
X172820714Y-77932761D01*
X172677857Y-77980380D01*
X172582619Y-77980380D01*
X172439761Y-77932761D01*
X172344523Y-77837523D01*
X172296904Y-77742285D01*
X172249285Y-77551809D01*
X172249285Y-77408952D01*
X172296904Y-77218476D01*
X172344523Y-77123238D01*
X172439761Y-77028000D01*
X172582619Y-76980380D01*
X172677857Y-76980380D01*
X172820714Y-77028000D01*
X172868333Y-77075619D01*
X173773095Y-76980380D02*
X173296904Y-76980380D01*
X173249285Y-77456571D01*
X173296904Y-77408952D01*
X173392142Y-77361333D01*
X173630238Y-77361333D01*
X173725476Y-77408952D01*
X173773095Y-77456571D01*
X173820714Y-77551809D01*
X173820714Y-77789904D01*
X173773095Y-77885142D01*
X173725476Y-77932761D01*
X173630238Y-77980380D01*
X173392142Y-77980380D01*
X173296904Y-77932761D01*
X173249285Y-77885142D01*
G04 #@! TO.C,U7*
X131072295Y-124843580D02*
X131072295Y-125653104D01*
X131119914Y-125748342D01*
X131167533Y-125795961D01*
X131262771Y-125843580D01*
X131453247Y-125843580D01*
X131548485Y-125795961D01*
X131596104Y-125748342D01*
X131643723Y-125653104D01*
X131643723Y-124843580D01*
X132024676Y-124843580D02*
X132691342Y-124843580D01*
X132262771Y-125843580D01*
G04 #@! TO.C,U4*
X204298895Y-117911780D02*
X204298895Y-118721304D01*
X204346514Y-118816542D01*
X204394133Y-118864161D01*
X204489371Y-118911780D01*
X204679847Y-118911780D01*
X204775085Y-118864161D01*
X204822704Y-118816542D01*
X204870323Y-118721304D01*
X204870323Y-117911780D01*
X205775085Y-118245114D02*
X205775085Y-118911780D01*
X205536990Y-117864161D02*
X205298895Y-118578447D01*
X205917942Y-118578447D01*
G04 #@! TO.C,U1*
X131129380Y-74606904D02*
X131938904Y-74606904D01*
X132034142Y-74559285D01*
X132081761Y-74511666D01*
X132129380Y-74416428D01*
X132129380Y-74225952D01*
X132081761Y-74130714D01*
X132034142Y-74083095D01*
X131938904Y-74035476D01*
X131129380Y-74035476D01*
X132129380Y-73035476D02*
X132129380Y-73606904D01*
X132129380Y-73321190D02*
X131129380Y-73321190D01*
X131272238Y-73416428D01*
X131367476Y-73511666D01*
X131415095Y-73606904D01*
G04 #@! TO.C,U3*
X165442380Y-85865904D02*
X166251904Y-85865904D01*
X166347142Y-85818285D01*
X166394761Y-85770666D01*
X166442380Y-85675428D01*
X166442380Y-85484952D01*
X166394761Y-85389714D01*
X166347142Y-85342095D01*
X166251904Y-85294476D01*
X165442380Y-85294476D01*
X165442380Y-84913523D02*
X165442380Y-84294476D01*
X165823333Y-84627809D01*
X165823333Y-84484952D01*
X165870952Y-84389714D01*
X165918571Y-84342095D01*
X166013809Y-84294476D01*
X166251904Y-84294476D01*
X166347142Y-84342095D01*
X166394761Y-84389714D01*
X166442380Y-84484952D01*
X166442380Y-84770666D01*
X166394761Y-84865904D01*
X166347142Y-84913523D01*
G04 #@! TO.C,U5*
X212278095Y-89426380D02*
X212278095Y-90235904D01*
X212325714Y-90331142D01*
X212373333Y-90378761D01*
X212468571Y-90426380D01*
X212659047Y-90426380D01*
X212754285Y-90378761D01*
X212801904Y-90331142D01*
X212849523Y-90235904D01*
X212849523Y-89426380D01*
X213801904Y-89426380D02*
X213325714Y-89426380D01*
X213278095Y-89902571D01*
X213325714Y-89854952D01*
X213420952Y-89807333D01*
X213659047Y-89807333D01*
X213754285Y-89854952D01*
X213801904Y-89902571D01*
X213849523Y-89997809D01*
X213849523Y-90235904D01*
X213801904Y-90331142D01*
X213754285Y-90378761D01*
X213659047Y-90426380D01*
X213420952Y-90426380D01*
X213325714Y-90378761D01*
X213278095Y-90331142D01*
G04 #@! TO.C,U8*
X119568095Y-87775380D02*
X119568095Y-88584904D01*
X119615714Y-88680142D01*
X119663333Y-88727761D01*
X119758571Y-88775380D01*
X119949047Y-88775380D01*
X120044285Y-88727761D01*
X120091904Y-88680142D01*
X120139523Y-88584904D01*
X120139523Y-87775380D01*
X120758571Y-88203952D02*
X120663333Y-88156333D01*
X120615714Y-88108714D01*
X120568095Y-88013476D01*
X120568095Y-87965857D01*
X120615714Y-87870619D01*
X120663333Y-87823000D01*
X120758571Y-87775380D01*
X120949047Y-87775380D01*
X121044285Y-87823000D01*
X121091904Y-87870619D01*
X121139523Y-87965857D01*
X121139523Y-88013476D01*
X121091904Y-88108714D01*
X121044285Y-88156333D01*
X120949047Y-88203952D01*
X120758571Y-88203952D01*
X120663333Y-88251571D01*
X120615714Y-88299190D01*
X120568095Y-88394428D01*
X120568095Y-88584904D01*
X120615714Y-88680142D01*
X120663333Y-88727761D01*
X120758571Y-88775380D01*
X120949047Y-88775380D01*
X121044285Y-88727761D01*
X121091904Y-88680142D01*
X121139523Y-88584904D01*
X121139523Y-88394428D01*
X121091904Y-88299190D01*
X121044285Y-88251571D01*
X120949047Y-88203952D01*
G04 #@! TO.C,Q2*
X120488761Y-116175619D02*
X120393523Y-116128000D01*
X120298285Y-116032761D01*
X120155428Y-115889904D01*
X120060190Y-115842285D01*
X119964952Y-115842285D01*
X120012571Y-116080380D02*
X119917333Y-116032761D01*
X119822095Y-115937523D01*
X119774476Y-115747047D01*
X119774476Y-115413714D01*
X119822095Y-115223238D01*
X119917333Y-115128000D01*
X120012571Y-115080380D01*
X120203047Y-115080380D01*
X120298285Y-115128000D01*
X120393523Y-115223238D01*
X120441142Y-115413714D01*
X120441142Y-115747047D01*
X120393523Y-115937523D01*
X120298285Y-116032761D01*
X120203047Y-116080380D01*
X120012571Y-116080380D01*
X120822095Y-115175619D02*
X120869714Y-115128000D01*
X120964952Y-115080380D01*
X121203047Y-115080380D01*
X121298285Y-115128000D01*
X121345904Y-115175619D01*
X121393523Y-115270857D01*
X121393523Y-115366095D01*
X121345904Y-115508952D01*
X120774476Y-116080380D01*
X121393523Y-116080380D01*
G04 #@! TO.C,Q1*
X212944761Y-115413619D02*
X212849523Y-115366000D01*
X212754285Y-115270761D01*
X212611428Y-115127904D01*
X212516190Y-115080285D01*
X212420952Y-115080285D01*
X212468571Y-115318380D02*
X212373333Y-115270761D01*
X212278095Y-115175523D01*
X212230476Y-114985047D01*
X212230476Y-114651714D01*
X212278095Y-114461238D01*
X212373333Y-114366000D01*
X212468571Y-114318380D01*
X212659047Y-114318380D01*
X212754285Y-114366000D01*
X212849523Y-114461238D01*
X212897142Y-114651714D01*
X212897142Y-114985047D01*
X212849523Y-115175523D01*
X212754285Y-115270761D01*
X212659047Y-115318380D01*
X212468571Y-115318380D01*
X213849523Y-115318380D02*
X213278095Y-115318380D01*
X213563809Y-115318380D02*
X213563809Y-114318380D01*
X213468571Y-114461238D01*
X213373333Y-114556476D01*
X213278095Y-114604095D01*
G04 #@! TO.C,R11*
X208977067Y-109227857D02*
X208500877Y-109561190D01*
X208977067Y-109799285D02*
X207977067Y-109799285D01*
X207977067Y-109418333D01*
X208024687Y-109323095D01*
X208072306Y-109275476D01*
X208167544Y-109227857D01*
X208310401Y-109227857D01*
X208405639Y-109275476D01*
X208453258Y-109323095D01*
X208500877Y-109418333D01*
X208500877Y-109799285D01*
X208977067Y-108275476D02*
X208977067Y-108846904D01*
X208977067Y-108561190D02*
X207977067Y-108561190D01*
X208119925Y-108656428D01*
X208215163Y-108751666D01*
X208262782Y-108846904D01*
X208977067Y-107323095D02*
X208977067Y-107894523D01*
X208977067Y-107608809D02*
X207977067Y-107608809D01*
X208119925Y-107704047D01*
X208215163Y-107799285D01*
X208262782Y-107894523D01*
G04 #@! TO.C,R8*
X194458333Y-113498380D02*
X194125000Y-113022190D01*
X193886904Y-113498380D02*
X193886904Y-112498380D01*
X194267857Y-112498380D01*
X194363095Y-112546000D01*
X194410714Y-112593619D01*
X194458333Y-112688857D01*
X194458333Y-112831714D01*
X194410714Y-112926952D01*
X194363095Y-112974571D01*
X194267857Y-113022190D01*
X193886904Y-113022190D01*
X195029761Y-112926952D02*
X194934523Y-112879333D01*
X194886904Y-112831714D01*
X194839285Y-112736476D01*
X194839285Y-112688857D01*
X194886904Y-112593619D01*
X194934523Y-112546000D01*
X195029761Y-112498380D01*
X195220238Y-112498380D01*
X195315476Y-112546000D01*
X195363095Y-112593619D01*
X195410714Y-112688857D01*
X195410714Y-112736476D01*
X195363095Y-112831714D01*
X195315476Y-112879333D01*
X195220238Y-112926952D01*
X195029761Y-112926952D01*
X194934523Y-112974571D01*
X194886904Y-113022190D01*
X194839285Y-113117428D01*
X194839285Y-113307904D01*
X194886904Y-113403142D01*
X194934523Y-113450761D01*
X195029761Y-113498380D01*
X195220238Y-113498380D01*
X195315476Y-113450761D01*
X195363095Y-113403142D01*
X195410714Y-113307904D01*
X195410714Y-113117428D01*
X195363095Y-113022190D01*
X195315476Y-112974571D01*
X195220238Y-112926952D01*
G04 #@! TO.C,R3*
X142515333Y-84076380D02*
X142182000Y-83600190D01*
X141943904Y-84076380D02*
X141943904Y-83076380D01*
X142324857Y-83076380D01*
X142420095Y-83124000D01*
X142467714Y-83171619D01*
X142515333Y-83266857D01*
X142515333Y-83409714D01*
X142467714Y-83504952D01*
X142420095Y-83552571D01*
X142324857Y-83600190D01*
X141943904Y-83600190D01*
X142848666Y-83076380D02*
X143467714Y-83076380D01*
X143134380Y-83457333D01*
X143277238Y-83457333D01*
X143372476Y-83504952D01*
X143420095Y-83552571D01*
X143467714Y-83647809D01*
X143467714Y-83885904D01*
X143420095Y-83981142D01*
X143372476Y-84028761D01*
X143277238Y-84076380D01*
X142991523Y-84076380D01*
X142896285Y-84028761D01*
X142848666Y-83981142D01*
G04 #@! TO.C,R6*
X168235333Y-94474380D02*
X167902000Y-93998190D01*
X167663904Y-94474380D02*
X167663904Y-93474380D01*
X168044857Y-93474380D01*
X168140095Y-93522000D01*
X168187714Y-93569619D01*
X168235333Y-93664857D01*
X168235333Y-93807714D01*
X168187714Y-93902952D01*
X168140095Y-93950571D01*
X168044857Y-93998190D01*
X167663904Y-93998190D01*
X169092476Y-93474380D02*
X168902000Y-93474380D01*
X168806761Y-93522000D01*
X168759142Y-93569619D01*
X168663904Y-93712476D01*
X168616285Y-93902952D01*
X168616285Y-94283904D01*
X168663904Y-94379142D01*
X168711523Y-94426761D01*
X168806761Y-94474380D01*
X168997238Y-94474380D01*
X169092476Y-94426761D01*
X169140095Y-94379142D01*
X169187714Y-94283904D01*
X169187714Y-94045809D01*
X169140095Y-93950571D01*
X169092476Y-93902952D01*
X168997238Y-93855333D01*
X168806761Y-93855333D01*
X168711523Y-93902952D01*
X168663904Y-93950571D01*
X168616285Y-94045809D01*
G04 #@! TO.C,R1*
X136911380Y-74900666D02*
X136435190Y-75234000D01*
X136911380Y-75472095D02*
X135911380Y-75472095D01*
X135911380Y-75091142D01*
X135959000Y-74995904D01*
X136006619Y-74948285D01*
X136101857Y-74900666D01*
X136244714Y-74900666D01*
X136339952Y-74948285D01*
X136387571Y-74995904D01*
X136435190Y-75091142D01*
X136435190Y-75472095D01*
X136911380Y-73948285D02*
X136911380Y-74519714D01*
X136911380Y-74234000D02*
X135911380Y-74234000D01*
X136054238Y-74329238D01*
X136149476Y-74424476D01*
X136197095Y-74519714D01*
G04 #@! TO.C,R4*
X139975333Y-79123380D02*
X139642000Y-78647190D01*
X139403904Y-79123380D02*
X139403904Y-78123380D01*
X139784857Y-78123380D01*
X139880095Y-78171000D01*
X139927714Y-78218619D01*
X139975333Y-78313857D01*
X139975333Y-78456714D01*
X139927714Y-78551952D01*
X139880095Y-78599571D01*
X139784857Y-78647190D01*
X139403904Y-78647190D01*
X140832476Y-78456714D02*
X140832476Y-79123380D01*
X140594380Y-78075761D02*
X140356285Y-78790047D01*
X140975333Y-78790047D01*
G04 #@! TO.C,R2*
X113882380Y-71217666D02*
X113406190Y-71551000D01*
X113882380Y-71789095D02*
X112882380Y-71789095D01*
X112882380Y-71408142D01*
X112930000Y-71312904D01*
X112977619Y-71265285D01*
X113072857Y-71217666D01*
X113215714Y-71217666D01*
X113310952Y-71265285D01*
X113358571Y-71312904D01*
X113406190Y-71408142D01*
X113406190Y-71789095D01*
X112977619Y-70836714D02*
X112930000Y-70789095D01*
X112882380Y-70693857D01*
X112882380Y-70455761D01*
X112930000Y-70360523D01*
X112977619Y-70312904D01*
X113072857Y-70265285D01*
X113168095Y-70265285D01*
X113310952Y-70312904D01*
X113882380Y-70884333D01*
X113882380Y-70265285D01*
G04 #@! TO.C,R12*
X141658142Y-125266380D02*
X141324809Y-124790190D01*
X141086714Y-125266380D02*
X141086714Y-124266380D01*
X141467666Y-124266380D01*
X141562904Y-124314000D01*
X141610523Y-124361619D01*
X141658142Y-124456857D01*
X141658142Y-124599714D01*
X141610523Y-124694952D01*
X141562904Y-124742571D01*
X141467666Y-124790190D01*
X141086714Y-124790190D01*
X142610523Y-125266380D02*
X142039095Y-125266380D01*
X142324809Y-125266380D02*
X142324809Y-124266380D01*
X142229571Y-124409238D01*
X142134333Y-124504476D01*
X142039095Y-124552095D01*
X142991476Y-124361619D02*
X143039095Y-124314000D01*
X143134333Y-124266380D01*
X143372428Y-124266380D01*
X143467666Y-124314000D01*
X143515285Y-124361619D01*
X143562904Y-124456857D01*
X143562904Y-124552095D01*
X143515285Y-124694952D01*
X142943857Y-125266380D01*
X143562904Y-125266380D01*
G04 #@! TO.C,R7*
X172868333Y-74678380D02*
X172535000Y-74202190D01*
X172296904Y-74678380D02*
X172296904Y-73678380D01*
X172677857Y-73678380D01*
X172773095Y-73726000D01*
X172820714Y-73773619D01*
X172868333Y-73868857D01*
X172868333Y-74011714D01*
X172820714Y-74106952D01*
X172773095Y-74154571D01*
X172677857Y-74202190D01*
X172296904Y-74202190D01*
X173201666Y-73678380D02*
X173868333Y-73678380D01*
X173439761Y-74678380D01*
G04 #@! TO.C,J3*
X207245666Y-57422380D02*
X207245666Y-58136666D01*
X207198047Y-58279523D01*
X207102809Y-58374761D01*
X206959952Y-58422380D01*
X206864714Y-58422380D01*
X207626619Y-57422380D02*
X208245666Y-57422380D01*
X207912333Y-57803333D01*
X208055190Y-57803333D01*
X208150428Y-57850952D01*
X208198047Y-57898571D01*
X208245666Y-57993809D01*
X208245666Y-58231904D01*
X208198047Y-58327142D01*
X208150428Y-58374761D01*
X208055190Y-58422380D01*
X207769476Y-58422380D01*
X207674238Y-58374761D01*
X207626619Y-58327142D01*
G04 #@! TO.C,J4*
X182480666Y-57422380D02*
X182480666Y-58136666D01*
X182433047Y-58279523D01*
X182337809Y-58374761D01*
X182194952Y-58422380D01*
X182099714Y-58422380D01*
X183385428Y-57755714D02*
X183385428Y-58422380D01*
X183147333Y-57374761D02*
X182909238Y-58089047D01*
X183528285Y-58089047D01*
G04 #@! TO.C,J2*
X171685666Y-141369380D02*
X171685666Y-142083666D01*
X171638047Y-142226523D01*
X171542809Y-142321761D01*
X171399952Y-142369380D01*
X171304714Y-142369380D01*
X172114238Y-141464619D02*
X172161857Y-141417000D01*
X172257095Y-141369380D01*
X172495190Y-141369380D01*
X172590428Y-141417000D01*
X172638047Y-141464619D01*
X172685666Y-141559857D01*
X172685666Y-141655095D01*
X172638047Y-141797952D01*
X172066619Y-142369380D01*
X172685666Y-142369380D01*
G04 #@! TD*
M02*
