G04 #@! TF.GenerationSoftware,KiCad,Pcbnew,5.0.2+dfsg1-1~bpo9+1*
G04 #@! TF.CreationDate,2019-06-26T12:15:30+03:00*
G04 #@! TF.ProjectId,SmartDimmer,536d6172-7444-4696-9d6d-65722e6b6963,rev?*
G04 #@! TF.SameCoordinates,Original*
G04 #@! TF.FileFunction,Legend,Bot*
G04 #@! TF.FilePolarity,Positive*
%FSLAX46Y46*%
G04 Gerber Fmt 4.6, Leading zero omitted, Abs format (unit mm)*
G04 Created by KiCad (PCBNEW 5.0.2+dfsg1-1~bpo9+1) date Wed 26 Jun 2019 12:15:30 PM +03*
%MOMM*%
%LPD*%
G01*
G04 APERTURE LIST*
%ADD10C,0.120000*%
%ADD11C,0.150000*%
G04 APERTURE END LIST*
D10*
G04 #@! TO.C,R18*
X169167436Y-66408000D02*
X170371564Y-66408000D01*
X169167436Y-68228000D02*
X170371564Y-68228000D01*
G04 #@! TO.C,R19*
X169384936Y-62674002D02*
X170589064Y-62674002D01*
X169384936Y-60854002D02*
X170589064Y-60854002D01*
G04 #@! TO.C,R16*
X136172064Y-62817000D02*
X134967936Y-62817000D01*
X136172064Y-60997000D02*
X134967936Y-60997000D01*
G04 #@! TO.C,R17*
X136045064Y-66712000D02*
X134840936Y-66712000D01*
X136045064Y-68532000D02*
X134840936Y-68532000D01*
G04 #@! TO.C,C13*
X116288736Y-116057000D02*
X117492864Y-116057000D01*
X116288736Y-117877000D02*
X117492864Y-117877000D01*
G04 #@! TO.C,C6*
X214810089Y-126705614D02*
X214810089Y-127909742D01*
X212990089Y-126705614D02*
X212990089Y-127909742D01*
G04 #@! TO.C,C10*
X121899000Y-118432664D02*
X121899000Y-117228536D01*
X123719000Y-118432664D02*
X123719000Y-117228536D01*
G04 #@! TO.C,C1*
X116541000Y-76417936D02*
X116541000Y-77622064D01*
X114721000Y-76417936D02*
X114721000Y-77622064D01*
G04 #@! TO.C,C3*
X168815936Y-84180000D02*
X170020064Y-84180000D01*
X168815936Y-86000000D02*
X170020064Y-86000000D01*
G04 #@! TO.C,R15*
X115345800Y-111955664D02*
X115345800Y-110751536D01*
X117165800Y-111955664D02*
X117165800Y-110751536D01*
D11*
G04 #@! TO.C,U6*
X206487000Y-104945000D02*
X206487000Y-106345000D01*
X201387000Y-104945000D02*
X201387000Y-100795000D01*
X206537000Y-104945000D02*
X206537000Y-100795000D01*
X201387000Y-104945000D02*
X201532000Y-104945000D01*
X201387000Y-100795000D02*
X201532000Y-100795000D01*
X206537000Y-100795000D02*
X206392000Y-100795000D01*
X206537000Y-104945000D02*
X206487000Y-104945000D01*
D10*
G04 #@! TO.C,R10*
X217506000Y-116041936D02*
X217506000Y-117246064D01*
X215686000Y-116041936D02*
X215686000Y-117246064D01*
G04 #@! TO.C,R9*
X214502153Y-122830000D02*
X213298025Y-122830000D01*
X214502153Y-121010000D02*
X213298025Y-121010000D01*
G04 #@! TO.C,R14*
X116923736Y-119790800D02*
X118127864Y-119790800D01*
X116923736Y-121610800D02*
X118127864Y-121610800D01*
G04 #@! TO.C,R13*
X123795200Y-123222936D02*
X123795200Y-124427064D01*
X121975200Y-123222936D02*
X121975200Y-124427064D01*
G04 #@! TO.C,R18*
D11*
X170412357Y-69590380D02*
X170745690Y-69114190D01*
X170983785Y-69590380D02*
X170983785Y-68590380D01*
X170602833Y-68590380D01*
X170507595Y-68638000D01*
X170459976Y-68685619D01*
X170412357Y-68780857D01*
X170412357Y-68923714D01*
X170459976Y-69018952D01*
X170507595Y-69066571D01*
X170602833Y-69114190D01*
X170983785Y-69114190D01*
X169459976Y-69590380D02*
X170031404Y-69590380D01*
X169745690Y-69590380D02*
X169745690Y-68590380D01*
X169840928Y-68733238D01*
X169936166Y-68828476D01*
X170031404Y-68876095D01*
X168888547Y-69018952D02*
X168983785Y-68971333D01*
X169031404Y-68923714D01*
X169079023Y-68828476D01*
X169079023Y-68780857D01*
X169031404Y-68685619D01*
X168983785Y-68638000D01*
X168888547Y-68590380D01*
X168698071Y-68590380D01*
X168602833Y-68638000D01*
X168555214Y-68685619D01*
X168507595Y-68780857D01*
X168507595Y-68828476D01*
X168555214Y-68923714D01*
X168602833Y-68971333D01*
X168698071Y-69018952D01*
X168888547Y-69018952D01*
X168983785Y-69066571D01*
X169031404Y-69114190D01*
X169079023Y-69209428D01*
X169079023Y-69399904D01*
X169031404Y-69495142D01*
X168983785Y-69542761D01*
X168888547Y-69590380D01*
X168698071Y-69590380D01*
X168602833Y-69542761D01*
X168555214Y-69495142D01*
X168507595Y-69399904D01*
X168507595Y-69209428D01*
X168555214Y-69114190D01*
X168602833Y-69066571D01*
X168698071Y-69018952D01*
G04 #@! TO.C,R19*
X170629857Y-64036382D02*
X170963190Y-63560192D01*
X171201285Y-64036382D02*
X171201285Y-63036382D01*
X170820333Y-63036382D01*
X170725095Y-63084002D01*
X170677476Y-63131621D01*
X170629857Y-63226859D01*
X170629857Y-63369716D01*
X170677476Y-63464954D01*
X170725095Y-63512573D01*
X170820333Y-63560192D01*
X171201285Y-63560192D01*
X169677476Y-64036382D02*
X170248904Y-64036382D01*
X169963190Y-64036382D02*
X169963190Y-63036382D01*
X170058428Y-63179240D01*
X170153666Y-63274478D01*
X170248904Y-63322097D01*
X169201285Y-64036382D02*
X169010809Y-64036382D01*
X168915571Y-63988763D01*
X168867952Y-63941144D01*
X168772714Y-63798287D01*
X168725095Y-63607811D01*
X168725095Y-63226859D01*
X168772714Y-63131621D01*
X168820333Y-63084002D01*
X168915571Y-63036382D01*
X169106047Y-63036382D01*
X169201285Y-63084002D01*
X169248904Y-63131621D01*
X169296523Y-63226859D01*
X169296523Y-63464954D01*
X169248904Y-63560192D01*
X169201285Y-63607811D01*
X169106047Y-63655430D01*
X168915571Y-63655430D01*
X168820333Y-63607811D01*
X168772714Y-63560192D01*
X168725095Y-63464954D01*
G04 #@! TO.C,R16*
X136212857Y-60539380D02*
X136546190Y-60063190D01*
X136784285Y-60539380D02*
X136784285Y-59539380D01*
X136403333Y-59539380D01*
X136308095Y-59587000D01*
X136260476Y-59634619D01*
X136212857Y-59729857D01*
X136212857Y-59872714D01*
X136260476Y-59967952D01*
X136308095Y-60015571D01*
X136403333Y-60063190D01*
X136784285Y-60063190D01*
X135260476Y-60539380D02*
X135831904Y-60539380D01*
X135546190Y-60539380D02*
X135546190Y-59539380D01*
X135641428Y-59682238D01*
X135736666Y-59777476D01*
X135831904Y-59825095D01*
X134403333Y-59539380D02*
X134593809Y-59539380D01*
X134689047Y-59587000D01*
X134736666Y-59634619D01*
X134831904Y-59777476D01*
X134879523Y-59967952D01*
X134879523Y-60348904D01*
X134831904Y-60444142D01*
X134784285Y-60491761D01*
X134689047Y-60539380D01*
X134498571Y-60539380D01*
X134403333Y-60491761D01*
X134355714Y-60444142D01*
X134308095Y-60348904D01*
X134308095Y-60110809D01*
X134355714Y-60015571D01*
X134403333Y-59967952D01*
X134498571Y-59920333D01*
X134689047Y-59920333D01*
X134784285Y-59967952D01*
X134831904Y-60015571D01*
X134879523Y-60110809D01*
G04 #@! TO.C,R17*
X136085857Y-66254380D02*
X136419190Y-65778190D01*
X136657285Y-66254380D02*
X136657285Y-65254380D01*
X136276333Y-65254380D01*
X136181095Y-65302000D01*
X136133476Y-65349619D01*
X136085857Y-65444857D01*
X136085857Y-65587714D01*
X136133476Y-65682952D01*
X136181095Y-65730571D01*
X136276333Y-65778190D01*
X136657285Y-65778190D01*
X135133476Y-66254380D02*
X135704904Y-66254380D01*
X135419190Y-66254380D02*
X135419190Y-65254380D01*
X135514428Y-65397238D01*
X135609666Y-65492476D01*
X135704904Y-65540095D01*
X134800142Y-65254380D02*
X134133476Y-65254380D01*
X134562047Y-66254380D01*
G04 #@! TO.C,C13*
X117533657Y-119144142D02*
X117581276Y-119191761D01*
X117724133Y-119239380D01*
X117819371Y-119239380D01*
X117962228Y-119191761D01*
X118057466Y-119096523D01*
X118105085Y-119001285D01*
X118152704Y-118810809D01*
X118152704Y-118667952D01*
X118105085Y-118477476D01*
X118057466Y-118382238D01*
X117962228Y-118287000D01*
X117819371Y-118239380D01*
X117724133Y-118239380D01*
X117581276Y-118287000D01*
X117533657Y-118334619D01*
X116581276Y-119239380D02*
X117152704Y-119239380D01*
X116866990Y-119239380D02*
X116866990Y-118239380D01*
X116962228Y-118382238D01*
X117057466Y-118477476D01*
X117152704Y-118525095D01*
X116247942Y-118239380D02*
X115628895Y-118239380D01*
X115962228Y-118620333D01*
X115819371Y-118620333D01*
X115724133Y-118667952D01*
X115676514Y-118715571D01*
X115628895Y-118810809D01*
X115628895Y-119048904D01*
X115676514Y-119144142D01*
X115724133Y-119191761D01*
X115819371Y-119239380D01*
X116105085Y-119239380D01*
X116200323Y-119191761D01*
X116247942Y-119144142D01*
G04 #@! TO.C,C6*
X212437231Y-127141011D02*
X212484850Y-127093392D01*
X212532469Y-126950535D01*
X212532469Y-126855297D01*
X212484850Y-126712439D01*
X212389612Y-126617201D01*
X212294374Y-126569582D01*
X212103898Y-126521963D01*
X211961041Y-126521963D01*
X211770565Y-126569582D01*
X211675327Y-126617201D01*
X211580089Y-126712439D01*
X211532469Y-126855297D01*
X211532469Y-126950535D01*
X211580089Y-127093392D01*
X211627708Y-127141011D01*
X211532469Y-127998154D02*
X211532469Y-127807678D01*
X211580089Y-127712439D01*
X211627708Y-127664820D01*
X211770565Y-127569582D01*
X211961041Y-127521963D01*
X212341993Y-127521963D01*
X212437231Y-127569582D01*
X212484850Y-127617201D01*
X212532469Y-127712439D01*
X212532469Y-127902916D01*
X212484850Y-127998154D01*
X212437231Y-128045773D01*
X212341993Y-128093392D01*
X212103898Y-128093392D01*
X212008660Y-128045773D01*
X211961041Y-127998154D01*
X211913422Y-127902916D01*
X211913422Y-127712439D01*
X211961041Y-127617201D01*
X212008660Y-127569582D01*
X212103898Y-127521963D01*
G04 #@! TO.C,C10*
X124986142Y-117187742D02*
X125033761Y-117140123D01*
X125081380Y-116997266D01*
X125081380Y-116902028D01*
X125033761Y-116759171D01*
X124938523Y-116663933D01*
X124843285Y-116616314D01*
X124652809Y-116568695D01*
X124509952Y-116568695D01*
X124319476Y-116616314D01*
X124224238Y-116663933D01*
X124129000Y-116759171D01*
X124081380Y-116902028D01*
X124081380Y-116997266D01*
X124129000Y-117140123D01*
X124176619Y-117187742D01*
X125081380Y-118140123D02*
X125081380Y-117568695D01*
X125081380Y-117854409D02*
X124081380Y-117854409D01*
X124224238Y-117759171D01*
X124319476Y-117663933D01*
X124367095Y-117568695D01*
X124081380Y-118759171D02*
X124081380Y-118854409D01*
X124129000Y-118949647D01*
X124176619Y-118997266D01*
X124271857Y-119044885D01*
X124462333Y-119092504D01*
X124700428Y-119092504D01*
X124890904Y-119044885D01*
X124986142Y-118997266D01*
X125033761Y-118949647D01*
X125081380Y-118854409D01*
X125081380Y-118759171D01*
X125033761Y-118663933D01*
X124986142Y-118616314D01*
X124890904Y-118568695D01*
X124700428Y-118521076D01*
X124462333Y-118521076D01*
X124271857Y-118568695D01*
X124176619Y-118616314D01*
X124129000Y-118663933D01*
X124081380Y-118759171D01*
G04 #@! TO.C,C1*
X114168142Y-76853333D02*
X114215761Y-76805714D01*
X114263380Y-76662857D01*
X114263380Y-76567619D01*
X114215761Y-76424761D01*
X114120523Y-76329523D01*
X114025285Y-76281904D01*
X113834809Y-76234285D01*
X113691952Y-76234285D01*
X113501476Y-76281904D01*
X113406238Y-76329523D01*
X113311000Y-76424761D01*
X113263380Y-76567619D01*
X113263380Y-76662857D01*
X113311000Y-76805714D01*
X113358619Y-76853333D01*
X114263380Y-77805714D02*
X114263380Y-77234285D01*
X114263380Y-77520000D02*
X113263380Y-77520000D01*
X113406238Y-77424761D01*
X113501476Y-77329523D01*
X113549095Y-77234285D01*
G04 #@! TO.C,C3*
X169584666Y-87267142D02*
X169632285Y-87314761D01*
X169775142Y-87362380D01*
X169870380Y-87362380D01*
X170013238Y-87314761D01*
X170108476Y-87219523D01*
X170156095Y-87124285D01*
X170203714Y-86933809D01*
X170203714Y-86790952D01*
X170156095Y-86600476D01*
X170108476Y-86505238D01*
X170013238Y-86410000D01*
X169870380Y-86362380D01*
X169775142Y-86362380D01*
X169632285Y-86410000D01*
X169584666Y-86457619D01*
X169251333Y-86362380D02*
X168632285Y-86362380D01*
X168965619Y-86743333D01*
X168822761Y-86743333D01*
X168727523Y-86790952D01*
X168679904Y-86838571D01*
X168632285Y-86933809D01*
X168632285Y-87171904D01*
X168679904Y-87267142D01*
X168727523Y-87314761D01*
X168822761Y-87362380D01*
X169108476Y-87362380D01*
X169203714Y-87314761D01*
X169251333Y-87267142D01*
G04 #@! TO.C,R15*
X118528180Y-110710742D02*
X118051990Y-110377409D01*
X118528180Y-110139314D02*
X117528180Y-110139314D01*
X117528180Y-110520266D01*
X117575800Y-110615504D01*
X117623419Y-110663123D01*
X117718657Y-110710742D01*
X117861514Y-110710742D01*
X117956752Y-110663123D01*
X118004371Y-110615504D01*
X118051990Y-110520266D01*
X118051990Y-110139314D01*
X118528180Y-111663123D02*
X118528180Y-111091695D01*
X118528180Y-111377409D02*
X117528180Y-111377409D01*
X117671038Y-111282171D01*
X117766276Y-111186933D01*
X117813895Y-111091695D01*
X117528180Y-112567885D02*
X117528180Y-112091695D01*
X118004371Y-112044076D01*
X117956752Y-112091695D01*
X117909133Y-112186933D01*
X117909133Y-112425028D01*
X117956752Y-112520266D01*
X118004371Y-112567885D01*
X118099609Y-112615504D01*
X118337704Y-112615504D01*
X118432942Y-112567885D01*
X118480561Y-112520266D01*
X118528180Y-112425028D01*
X118528180Y-112186933D01*
X118480561Y-112091695D01*
X118432942Y-112044076D01*
G04 #@! TO.C,U6*
X206914380Y-102108095D02*
X207723904Y-102108095D01*
X207819142Y-102155714D01*
X207866761Y-102203333D01*
X207914380Y-102298571D01*
X207914380Y-102489047D01*
X207866761Y-102584285D01*
X207819142Y-102631904D01*
X207723904Y-102679523D01*
X206914380Y-102679523D01*
X206914380Y-103584285D02*
X206914380Y-103393809D01*
X206962000Y-103298571D01*
X207009619Y-103250952D01*
X207152476Y-103155714D01*
X207342952Y-103108095D01*
X207723904Y-103108095D01*
X207819142Y-103155714D01*
X207866761Y-103203333D01*
X207914380Y-103298571D01*
X207914380Y-103489047D01*
X207866761Y-103584285D01*
X207819142Y-103631904D01*
X207723904Y-103679523D01*
X207485809Y-103679523D01*
X207390571Y-103631904D01*
X207342952Y-103584285D01*
X207295333Y-103489047D01*
X207295333Y-103298571D01*
X207342952Y-103203333D01*
X207390571Y-103155714D01*
X207485809Y-103108095D01*
G04 #@! TO.C,R10*
X215228380Y-116001142D02*
X214752190Y-115667809D01*
X215228380Y-115429714D02*
X214228380Y-115429714D01*
X214228380Y-115810666D01*
X214276000Y-115905904D01*
X214323619Y-115953523D01*
X214418857Y-116001142D01*
X214561714Y-116001142D01*
X214656952Y-115953523D01*
X214704571Y-115905904D01*
X214752190Y-115810666D01*
X214752190Y-115429714D01*
X215228380Y-116953523D02*
X215228380Y-116382095D01*
X215228380Y-116667809D02*
X214228380Y-116667809D01*
X214371238Y-116572571D01*
X214466476Y-116477333D01*
X214514095Y-116382095D01*
X214228380Y-117572571D02*
X214228380Y-117667809D01*
X214276000Y-117763047D01*
X214323619Y-117810666D01*
X214418857Y-117858285D01*
X214609333Y-117905904D01*
X214847428Y-117905904D01*
X215037904Y-117858285D01*
X215133142Y-117810666D01*
X215180761Y-117763047D01*
X215228380Y-117667809D01*
X215228380Y-117572571D01*
X215180761Y-117477333D01*
X215133142Y-117429714D01*
X215037904Y-117382095D01*
X214847428Y-117334476D01*
X214609333Y-117334476D01*
X214418857Y-117382095D01*
X214323619Y-117429714D01*
X214276000Y-117477333D01*
X214228380Y-117572571D01*
G04 #@! TO.C,R9*
X214066755Y-120552380D02*
X214400089Y-120076190D01*
X214638184Y-120552380D02*
X214638184Y-119552380D01*
X214257231Y-119552380D01*
X214161993Y-119600000D01*
X214114374Y-119647619D01*
X214066755Y-119742857D01*
X214066755Y-119885714D01*
X214114374Y-119980952D01*
X214161993Y-120028571D01*
X214257231Y-120076190D01*
X214638184Y-120076190D01*
X213590565Y-120552380D02*
X213400089Y-120552380D01*
X213304850Y-120504761D01*
X213257231Y-120457142D01*
X213161993Y-120314285D01*
X213114374Y-120123809D01*
X213114374Y-119742857D01*
X213161993Y-119647619D01*
X213209612Y-119600000D01*
X213304850Y-119552380D01*
X213495327Y-119552380D01*
X213590565Y-119600000D01*
X213638184Y-119647619D01*
X213685803Y-119742857D01*
X213685803Y-119980952D01*
X213638184Y-120076190D01*
X213590565Y-120123809D01*
X213495327Y-120171428D01*
X213304850Y-120171428D01*
X213209612Y-120123809D01*
X213161993Y-120076190D01*
X213114374Y-119980952D01*
G04 #@! TO.C,R14*
X118168657Y-122973180D02*
X118501990Y-122496990D01*
X118740085Y-122973180D02*
X118740085Y-121973180D01*
X118359133Y-121973180D01*
X118263895Y-122020800D01*
X118216276Y-122068419D01*
X118168657Y-122163657D01*
X118168657Y-122306514D01*
X118216276Y-122401752D01*
X118263895Y-122449371D01*
X118359133Y-122496990D01*
X118740085Y-122496990D01*
X117216276Y-122973180D02*
X117787704Y-122973180D01*
X117501990Y-122973180D02*
X117501990Y-121973180D01*
X117597228Y-122116038D01*
X117692466Y-122211276D01*
X117787704Y-122258895D01*
X116359133Y-122306514D02*
X116359133Y-122973180D01*
X116597228Y-121925561D02*
X116835323Y-122639847D01*
X116216276Y-122639847D01*
G04 #@! TO.C,R13*
X121517580Y-123182142D02*
X121041390Y-122848809D01*
X121517580Y-122610714D02*
X120517580Y-122610714D01*
X120517580Y-122991666D01*
X120565200Y-123086904D01*
X120612819Y-123134523D01*
X120708057Y-123182142D01*
X120850914Y-123182142D01*
X120946152Y-123134523D01*
X120993771Y-123086904D01*
X121041390Y-122991666D01*
X121041390Y-122610714D01*
X121517580Y-124134523D02*
X121517580Y-123563095D01*
X121517580Y-123848809D02*
X120517580Y-123848809D01*
X120660438Y-123753571D01*
X120755676Y-123658333D01*
X120803295Y-123563095D01*
X120517580Y-124467857D02*
X120517580Y-125086904D01*
X120898533Y-124753571D01*
X120898533Y-124896428D01*
X120946152Y-124991666D01*
X120993771Y-125039285D01*
X121089009Y-125086904D01*
X121327104Y-125086904D01*
X121422342Y-125039285D01*
X121469961Y-124991666D01*
X121517580Y-124896428D01*
X121517580Y-124610714D01*
X121469961Y-124515476D01*
X121422342Y-124467857D01*
G04 #@! TD*
M02*
