G04 #@! TF.GenerationSoftware,KiCad,Pcbnew,5.0.2+dfsg1-1~bpo9+1*
G04 #@! TF.CreationDate,2019-06-26T12:15:30+03:00*
G04 #@! TF.ProjectId,SmartDimmer,536d6172-7444-4696-9d6d-65722e6b6963,rev?*
G04 #@! TF.SameCoordinates,Original*
G04 #@! TF.FileFunction,Soldermask,Top*
G04 #@! TF.FilePolarity,Negative*
%FSLAX46Y46*%
G04 Gerber Fmt 4.6, Leading zero omitted, Abs format (unit mm)*
G04 Created by KiCad (PCBNEW 5.0.2+dfsg1-1~bpo9+1) date Wed 26 Jun 2019 12:15:30 PM +03*
%MOMM*%
%LPD*%
G01*
G04 APERTURE LIST*
%ADD10C,0.100000*%
G04 APERTURE END LIST*
D10*
G36*
X224845256Y-137895298D02*
X224951579Y-137916447D01*
X225252042Y-138040903D01*
X225518852Y-138219180D01*
X225522454Y-138221587D01*
X225752413Y-138451546D01*
X225752415Y-138451549D01*
X225795030Y-138515326D01*
X225933098Y-138721960D01*
X226057553Y-139022422D01*
X226121000Y-139341389D01*
X226121000Y-139666611D01*
X226057553Y-139985578D01*
X225933098Y-140286040D01*
X225752413Y-140556454D01*
X225522454Y-140786413D01*
X225522451Y-140786415D01*
X225252042Y-140967097D01*
X224951579Y-141091553D01*
X224845256Y-141112702D01*
X224632611Y-141155000D01*
X224307389Y-141155000D01*
X224094744Y-141112702D01*
X223988421Y-141091553D01*
X223687958Y-140967097D01*
X223417549Y-140786415D01*
X223417546Y-140786413D01*
X223187587Y-140556454D01*
X223006902Y-140286040D01*
X222882447Y-139985578D01*
X222819000Y-139666611D01*
X222819000Y-139341389D01*
X222882447Y-139022422D01*
X223006902Y-138721960D01*
X223144971Y-138515326D01*
X223187585Y-138451549D01*
X223187587Y-138451546D01*
X223417546Y-138221587D01*
X223421148Y-138219180D01*
X223687958Y-138040903D01*
X223988421Y-137916447D01*
X224094744Y-137895298D01*
X224307389Y-137853000D01*
X224632611Y-137853000D01*
X224845256Y-137895298D01*
X224845256Y-137895298D01*
G37*
G36*
X110545256Y-137895298D02*
X110651579Y-137916447D01*
X110952042Y-138040903D01*
X111218852Y-138219180D01*
X111222454Y-138221587D01*
X111452413Y-138451546D01*
X111452415Y-138451549D01*
X111495030Y-138515326D01*
X111633098Y-138721960D01*
X111757553Y-139022422D01*
X111821000Y-139341389D01*
X111821000Y-139666611D01*
X111757553Y-139985578D01*
X111633098Y-140286040D01*
X111452413Y-140556454D01*
X111222454Y-140786413D01*
X111222451Y-140786415D01*
X110952042Y-140967097D01*
X110651579Y-141091553D01*
X110545256Y-141112702D01*
X110332611Y-141155000D01*
X110007389Y-141155000D01*
X109794744Y-141112702D01*
X109688421Y-141091553D01*
X109387958Y-140967097D01*
X109117549Y-140786415D01*
X109117546Y-140786413D01*
X108887587Y-140556454D01*
X108706902Y-140286040D01*
X108582447Y-139985578D01*
X108519000Y-139666611D01*
X108519000Y-139341389D01*
X108582447Y-139022422D01*
X108706902Y-138721960D01*
X108844971Y-138515326D01*
X108887585Y-138451549D01*
X108887587Y-138451546D01*
X109117546Y-138221587D01*
X109121148Y-138219180D01*
X109387958Y-138040903D01*
X109688421Y-137916447D01*
X109794744Y-137895298D01*
X110007389Y-137853000D01*
X110332611Y-137853000D01*
X110545256Y-137895298D01*
X110545256Y-137895298D01*
G37*
G36*
X165259527Y-137738736D02*
X165359410Y-137758604D01*
X165641674Y-137875521D01*
X165895705Y-138045259D01*
X166111741Y-138261295D01*
X166281479Y-138515326D01*
X166398396Y-138797590D01*
X166458000Y-139097240D01*
X166458000Y-139402760D01*
X166398396Y-139702410D01*
X166281479Y-139984674D01*
X166111741Y-140238705D01*
X165895705Y-140454741D01*
X165641674Y-140624479D01*
X165359410Y-140741396D01*
X165259527Y-140761264D01*
X165059762Y-140801000D01*
X164754238Y-140801000D01*
X164554473Y-140761264D01*
X164454590Y-140741396D01*
X164172326Y-140624479D01*
X163918295Y-140454741D01*
X163702259Y-140238705D01*
X163532521Y-139984674D01*
X163415604Y-139702410D01*
X163356000Y-139402760D01*
X163356000Y-139097240D01*
X163415604Y-138797590D01*
X163532521Y-138515326D01*
X163702259Y-138261295D01*
X163918295Y-138045259D01*
X164172326Y-137875521D01*
X164454590Y-137758604D01*
X164554473Y-137738736D01*
X164754238Y-137699000D01*
X165059762Y-137699000D01*
X165259527Y-137738736D01*
X165259527Y-137738736D01*
G37*
G36*
X170339527Y-137738736D02*
X170439410Y-137758604D01*
X170721674Y-137875521D01*
X170975705Y-138045259D01*
X171191741Y-138261295D01*
X171361479Y-138515326D01*
X171478396Y-138797590D01*
X171538000Y-139097240D01*
X171538000Y-139402760D01*
X171478396Y-139702410D01*
X171361479Y-139984674D01*
X171191741Y-140238705D01*
X170975705Y-140454741D01*
X170721674Y-140624479D01*
X170439410Y-140741396D01*
X170339527Y-140761264D01*
X170139762Y-140801000D01*
X169834238Y-140801000D01*
X169634473Y-140761264D01*
X169534590Y-140741396D01*
X169252326Y-140624479D01*
X168998295Y-140454741D01*
X168782259Y-140238705D01*
X168612521Y-139984674D01*
X168495604Y-139702410D01*
X168436000Y-139402760D01*
X168436000Y-139097240D01*
X168495604Y-138797590D01*
X168612521Y-138515326D01*
X168782259Y-138261295D01*
X168998295Y-138045259D01*
X169252326Y-137875521D01*
X169534590Y-137758604D01*
X169634473Y-137738736D01*
X169834238Y-137699000D01*
X170139762Y-137699000D01*
X170339527Y-137738736D01*
X170339527Y-137738736D01*
G37*
G36*
X160179527Y-137738736D02*
X160279410Y-137758604D01*
X160561674Y-137875521D01*
X160815705Y-138045259D01*
X161031741Y-138261295D01*
X161201479Y-138515326D01*
X161318396Y-138797590D01*
X161378000Y-139097240D01*
X161378000Y-139402760D01*
X161318396Y-139702410D01*
X161201479Y-139984674D01*
X161031741Y-140238705D01*
X160815705Y-140454741D01*
X160561674Y-140624479D01*
X160279410Y-140741396D01*
X160179527Y-140761264D01*
X159979762Y-140801000D01*
X159674238Y-140801000D01*
X159474473Y-140761264D01*
X159374590Y-140741396D01*
X159092326Y-140624479D01*
X158838295Y-140454741D01*
X158622259Y-140238705D01*
X158452521Y-139984674D01*
X158335604Y-139702410D01*
X158276000Y-139402760D01*
X158276000Y-139097240D01*
X158335604Y-138797590D01*
X158452521Y-138515326D01*
X158622259Y-138261295D01*
X158838295Y-138045259D01*
X159092326Y-137875521D01*
X159374590Y-137758604D01*
X159474473Y-137738736D01*
X159674238Y-137699000D01*
X159979762Y-137699000D01*
X160179527Y-137738736D01*
X160179527Y-137738736D01*
G37*
G36*
X176618000Y-140801000D02*
X173516000Y-140801000D01*
X173516000Y-137699000D01*
X176618000Y-137699000D01*
X176618000Y-140801000D01*
X176618000Y-140801000D01*
G37*
G36*
X195720565Y-132825389D02*
X195911834Y-132904615D01*
X196083976Y-133019637D01*
X196230363Y-133166024D01*
X196345385Y-133338166D01*
X196424611Y-133529435D01*
X196465000Y-133732484D01*
X196465000Y-133939516D01*
X196424611Y-134142565D01*
X196345385Y-134333834D01*
X196230363Y-134505976D01*
X196083976Y-134652363D01*
X195911834Y-134767385D01*
X195720565Y-134846611D01*
X195517516Y-134887000D01*
X195310484Y-134887000D01*
X195107435Y-134846611D01*
X194916166Y-134767385D01*
X194744024Y-134652363D01*
X194597637Y-134505976D01*
X194482615Y-134333834D01*
X194403389Y-134142565D01*
X194363000Y-133939516D01*
X194363000Y-133732484D01*
X194403389Y-133529435D01*
X194482615Y-133338166D01*
X194597637Y-133166024D01*
X194744024Y-133019637D01*
X194916166Y-132904615D01*
X195107435Y-132825389D01*
X195310484Y-132785000D01*
X195517516Y-132785000D01*
X195720565Y-132825389D01*
X195720565Y-132825389D01*
G37*
G36*
X183220565Y-132825389D02*
X183411834Y-132904615D01*
X183583976Y-133019637D01*
X183730363Y-133166024D01*
X183845385Y-133338166D01*
X183924611Y-133529435D01*
X183965000Y-133732484D01*
X183965000Y-133939516D01*
X183924611Y-134142565D01*
X183845385Y-134333834D01*
X183730363Y-134505976D01*
X183583976Y-134652363D01*
X183411834Y-134767385D01*
X183220565Y-134846611D01*
X183017516Y-134887000D01*
X182810484Y-134887000D01*
X182607435Y-134846611D01*
X182416166Y-134767385D01*
X182244024Y-134652363D01*
X182097637Y-134505976D01*
X181982615Y-134333834D01*
X181903389Y-134142565D01*
X181863000Y-133939516D01*
X181863000Y-133732484D01*
X181903389Y-133529435D01*
X181982615Y-133338166D01*
X182097637Y-133166024D01*
X182244024Y-133019637D01*
X182416166Y-132904615D01*
X182607435Y-132825389D01*
X182810484Y-132785000D01*
X183017516Y-132785000D01*
X183220565Y-132825389D01*
X183220565Y-132825389D01*
G37*
G36*
X202042062Y-130962181D02*
X202076977Y-130972773D01*
X202109165Y-130989978D01*
X202137373Y-131013127D01*
X202160522Y-131041335D01*
X202177727Y-131073523D01*
X202188319Y-131108438D01*
X202192500Y-131150895D01*
X202192500Y-132617105D01*
X202188319Y-132659562D01*
X202177727Y-132694477D01*
X202160522Y-132726665D01*
X202137373Y-132754873D01*
X202109165Y-132778022D01*
X202076977Y-132795227D01*
X202042062Y-132805819D01*
X201999605Y-132810000D01*
X200858395Y-132810000D01*
X200815938Y-132805819D01*
X200781023Y-132795227D01*
X200748835Y-132778022D01*
X200720627Y-132754873D01*
X200697478Y-132726665D01*
X200680273Y-132694477D01*
X200669681Y-132659562D01*
X200665500Y-132617105D01*
X200665500Y-131150895D01*
X200669681Y-131108438D01*
X200680273Y-131073523D01*
X200697478Y-131041335D01*
X200720627Y-131013127D01*
X200748835Y-130989978D01*
X200781023Y-130972773D01*
X200815938Y-130962181D01*
X200858395Y-130958000D01*
X201999605Y-130958000D01*
X202042062Y-130962181D01*
X202042062Y-130962181D01*
G37*
G36*
X205017062Y-130962181D02*
X205051977Y-130972773D01*
X205084165Y-130989978D01*
X205112373Y-131013127D01*
X205135522Y-131041335D01*
X205152727Y-131073523D01*
X205163319Y-131108438D01*
X205167500Y-131150895D01*
X205167500Y-132617105D01*
X205163319Y-132659562D01*
X205152727Y-132694477D01*
X205135522Y-132726665D01*
X205112373Y-132754873D01*
X205084165Y-132778022D01*
X205051977Y-132795227D01*
X205017062Y-132805819D01*
X204974605Y-132810000D01*
X203833395Y-132810000D01*
X203790938Y-132805819D01*
X203756023Y-132795227D01*
X203723835Y-132778022D01*
X203695627Y-132754873D01*
X203672478Y-132726665D01*
X203655273Y-132694477D01*
X203644681Y-132659562D01*
X203640500Y-132617105D01*
X203640500Y-131150895D01*
X203644681Y-131108438D01*
X203655273Y-131073523D01*
X203672478Y-131041335D01*
X203695627Y-131013127D01*
X203723835Y-130989978D01*
X203756023Y-130972773D01*
X203790938Y-130962181D01*
X203833395Y-130958000D01*
X204974605Y-130958000D01*
X205017062Y-130962181D01*
X205017062Y-130962181D01*
G37*
G36*
X115281331Y-127858479D02*
X115609092Y-127994242D01*
X115904073Y-128191342D01*
X116154926Y-128442195D01*
X116352026Y-128737176D01*
X116487789Y-129064937D01*
X116557000Y-129412884D01*
X116557000Y-129767652D01*
X116487789Y-130115599D01*
X116352026Y-130443360D01*
X116154926Y-130738341D01*
X115904073Y-130989194D01*
X115609092Y-131186294D01*
X115281331Y-131322057D01*
X114933384Y-131391268D01*
X114578616Y-131391268D01*
X114230669Y-131322057D01*
X113902908Y-131186294D01*
X113607927Y-130989194D01*
X113357074Y-130738341D01*
X113159974Y-130443360D01*
X113024211Y-130115599D01*
X112955000Y-129767652D01*
X112955000Y-129412884D01*
X113024211Y-129064937D01*
X113159974Y-128737176D01*
X113357074Y-128442195D01*
X113607927Y-128191342D01*
X113902908Y-127994242D01*
X114230669Y-127858479D01*
X114578616Y-127789268D01*
X114933384Y-127789268D01*
X115281331Y-127858479D01*
X115281331Y-127858479D01*
G37*
G36*
X219906331Y-127353211D02*
X220234092Y-127488974D01*
X220529073Y-127686074D01*
X220779926Y-127936927D01*
X220977026Y-128231908D01*
X221112789Y-128559669D01*
X221182000Y-128907616D01*
X221182000Y-129262384D01*
X221112789Y-129610331D01*
X220977026Y-129938092D01*
X220779926Y-130233073D01*
X220529073Y-130483926D01*
X220234092Y-130681026D01*
X219906331Y-130816789D01*
X219558384Y-130886000D01*
X219203616Y-130886000D01*
X218855669Y-130816789D01*
X218527908Y-130681026D01*
X218232927Y-130483926D01*
X217982074Y-130233073D01*
X217784974Y-129938092D01*
X217649211Y-129610331D01*
X217580000Y-129262384D01*
X217580000Y-128907616D01*
X217649211Y-128559669D01*
X217784974Y-128231908D01*
X217982074Y-127936927D01*
X218232927Y-127686074D01*
X218527908Y-127488974D01*
X218855669Y-127353211D01*
X219203616Y-127284000D01*
X219558384Y-127284000D01*
X219906331Y-127353211D01*
X219906331Y-127353211D01*
G37*
G36*
X209037621Y-125030713D02*
X209037624Y-125030714D01*
X209037625Y-125030714D01*
X209198039Y-125079375D01*
X209198041Y-125079376D01*
X209198044Y-125079377D01*
X209345878Y-125158395D01*
X209475459Y-125264741D01*
X209581805Y-125394322D01*
X209660823Y-125542156D01*
X209709487Y-125702579D01*
X209725917Y-125869400D01*
X209709487Y-126036221D01*
X209660823Y-126196644D01*
X209581805Y-126344478D01*
X209475459Y-126474059D01*
X209345878Y-126580405D01*
X209198044Y-126659423D01*
X209198041Y-126659424D01*
X209198039Y-126659425D01*
X209037625Y-126708086D01*
X209037624Y-126708086D01*
X209037621Y-126708087D01*
X208912604Y-126720400D01*
X208828996Y-126720400D01*
X208703979Y-126708087D01*
X208703976Y-126708086D01*
X208703975Y-126708086D01*
X208543561Y-126659425D01*
X208543559Y-126659424D01*
X208543556Y-126659423D01*
X208395722Y-126580405D01*
X208266141Y-126474059D01*
X208159795Y-126344478D01*
X208080777Y-126196644D01*
X208032113Y-126036221D01*
X208015683Y-125869400D01*
X208032113Y-125702579D01*
X208080777Y-125542156D01*
X208159795Y-125394322D01*
X208266141Y-125264741D01*
X208395722Y-125158395D01*
X208543556Y-125079377D01*
X208543559Y-125079376D01*
X208543561Y-125079375D01*
X208703975Y-125030714D01*
X208703976Y-125030714D01*
X208703979Y-125030713D01*
X208828996Y-125018400D01*
X208912604Y-125018400D01*
X209037621Y-125030713D01*
X209037621Y-125030713D01*
G37*
G36*
X201417621Y-125030713D02*
X201417624Y-125030714D01*
X201417625Y-125030714D01*
X201578039Y-125079375D01*
X201578041Y-125079376D01*
X201578044Y-125079377D01*
X201725878Y-125158395D01*
X201855459Y-125264741D01*
X201961805Y-125394322D01*
X202040823Y-125542156D01*
X202089487Y-125702579D01*
X202105917Y-125869400D01*
X202089487Y-126036221D01*
X202040823Y-126196644D01*
X201961805Y-126344478D01*
X201855459Y-126474059D01*
X201725878Y-126580405D01*
X201578044Y-126659423D01*
X201578041Y-126659424D01*
X201578039Y-126659425D01*
X201417625Y-126708086D01*
X201417624Y-126708086D01*
X201417621Y-126708087D01*
X201292604Y-126720400D01*
X201208996Y-126720400D01*
X201083979Y-126708087D01*
X201083976Y-126708086D01*
X201083975Y-126708086D01*
X200923561Y-126659425D01*
X200923559Y-126659424D01*
X200923556Y-126659423D01*
X200775722Y-126580405D01*
X200646141Y-126474059D01*
X200539795Y-126344478D01*
X200460777Y-126196644D01*
X200412113Y-126036221D01*
X200395683Y-125869400D01*
X200412113Y-125702579D01*
X200460777Y-125542156D01*
X200539795Y-125394322D01*
X200646141Y-125264741D01*
X200775722Y-125158395D01*
X200923556Y-125079377D01*
X200923559Y-125079376D01*
X200923561Y-125079375D01*
X201083975Y-125030714D01*
X201083976Y-125030714D01*
X201083979Y-125030713D01*
X201208996Y-125018400D01*
X201292604Y-125018400D01*
X201417621Y-125030713D01*
X201417621Y-125030713D01*
G37*
G36*
X183220565Y-122825389D02*
X183411834Y-122904615D01*
X183583976Y-123019637D01*
X183730363Y-123166024D01*
X183845385Y-123338166D01*
X183924611Y-123529435D01*
X183965000Y-123732484D01*
X183965000Y-123939516D01*
X183924611Y-124142565D01*
X183845385Y-124333834D01*
X183730363Y-124505976D01*
X183583976Y-124652363D01*
X183411834Y-124767385D01*
X183220565Y-124846611D01*
X183017516Y-124887000D01*
X182810484Y-124887000D01*
X182607435Y-124846611D01*
X182416166Y-124767385D01*
X182244024Y-124652363D01*
X182097637Y-124505976D01*
X181982615Y-124333834D01*
X181903389Y-124142565D01*
X181863000Y-123939516D01*
X181863000Y-123732484D01*
X181903389Y-123529435D01*
X181982615Y-123338166D01*
X182097637Y-123166024D01*
X182244024Y-123019637D01*
X182416166Y-122904615D01*
X182607435Y-122825389D01*
X182810484Y-122785000D01*
X183017516Y-122785000D01*
X183220565Y-122825389D01*
X183220565Y-122825389D01*
G37*
G36*
X195720565Y-122825389D02*
X195911834Y-122904615D01*
X196083976Y-123019637D01*
X196230363Y-123166024D01*
X196345385Y-123338166D01*
X196424611Y-123529435D01*
X196465000Y-123732484D01*
X196465000Y-123939516D01*
X196424611Y-124142565D01*
X196345385Y-124333834D01*
X196230363Y-124505976D01*
X196083976Y-124652363D01*
X195911834Y-124767385D01*
X195720565Y-124846611D01*
X195517516Y-124887000D01*
X195310484Y-124887000D01*
X195107435Y-124846611D01*
X194916166Y-124767385D01*
X194744024Y-124652363D01*
X194597637Y-124505976D01*
X194482615Y-124333834D01*
X194403389Y-124142565D01*
X194363000Y-123939516D01*
X194363000Y-123732484D01*
X194403389Y-123529435D01*
X194482615Y-123338166D01*
X194597637Y-123166024D01*
X194744024Y-123019637D01*
X194916166Y-122904615D01*
X195107435Y-122825389D01*
X195310484Y-122785000D01*
X195517516Y-122785000D01*
X195720565Y-122825389D01*
X195720565Y-122825389D01*
G37*
G36*
X201417621Y-122490713D02*
X201417624Y-122490714D01*
X201417625Y-122490714D01*
X201578039Y-122539375D01*
X201578041Y-122539376D01*
X201578044Y-122539377D01*
X201725878Y-122618395D01*
X201855459Y-122724741D01*
X201961805Y-122854322D01*
X202040823Y-123002156D01*
X202040824Y-123002159D01*
X202040825Y-123002161D01*
X202046126Y-123019637D01*
X202089487Y-123162579D01*
X202105917Y-123329400D01*
X202089487Y-123496221D01*
X202040823Y-123656644D01*
X201961805Y-123804478D01*
X201855459Y-123934059D01*
X201725878Y-124040405D01*
X201578044Y-124119423D01*
X201578041Y-124119424D01*
X201578039Y-124119425D01*
X201417625Y-124168086D01*
X201417624Y-124168086D01*
X201417621Y-124168087D01*
X201292604Y-124180400D01*
X201208996Y-124180400D01*
X201083979Y-124168087D01*
X201083976Y-124168086D01*
X201083975Y-124168086D01*
X200923561Y-124119425D01*
X200923559Y-124119424D01*
X200923556Y-124119423D01*
X200775722Y-124040405D01*
X200646141Y-123934059D01*
X200539795Y-123804478D01*
X200460777Y-123656644D01*
X200412113Y-123496221D01*
X200395683Y-123329400D01*
X200412113Y-123162579D01*
X200455474Y-123019637D01*
X200460775Y-123002161D01*
X200460776Y-123002159D01*
X200460777Y-123002156D01*
X200539795Y-122854322D01*
X200646141Y-122724741D01*
X200775722Y-122618395D01*
X200923556Y-122539377D01*
X200923559Y-122539376D01*
X200923561Y-122539375D01*
X201083975Y-122490714D01*
X201083976Y-122490714D01*
X201083979Y-122490713D01*
X201208996Y-122478400D01*
X201292604Y-122478400D01*
X201417621Y-122490713D01*
X201417621Y-122490713D01*
G37*
G36*
X209037621Y-122490713D02*
X209037624Y-122490714D01*
X209037625Y-122490714D01*
X209198039Y-122539375D01*
X209198041Y-122539376D01*
X209198044Y-122539377D01*
X209345878Y-122618395D01*
X209475459Y-122724741D01*
X209581805Y-122854322D01*
X209660823Y-123002156D01*
X209660824Y-123002159D01*
X209660825Y-123002161D01*
X209666126Y-123019637D01*
X209709487Y-123162579D01*
X209725917Y-123329400D01*
X209709487Y-123496221D01*
X209660823Y-123656644D01*
X209581805Y-123804478D01*
X209475459Y-123934059D01*
X209345878Y-124040405D01*
X209198044Y-124119423D01*
X209198041Y-124119424D01*
X209198039Y-124119425D01*
X209037625Y-124168086D01*
X209037624Y-124168086D01*
X209037621Y-124168087D01*
X208912604Y-124180400D01*
X208828996Y-124180400D01*
X208703979Y-124168087D01*
X208703976Y-124168086D01*
X208703975Y-124168086D01*
X208543561Y-124119425D01*
X208543559Y-124119424D01*
X208543556Y-124119423D01*
X208395722Y-124040405D01*
X208266141Y-123934059D01*
X208159795Y-123804478D01*
X208080777Y-123656644D01*
X208032113Y-123496221D01*
X208015683Y-123329400D01*
X208032113Y-123162579D01*
X208075474Y-123019637D01*
X208080775Y-123002161D01*
X208080776Y-123002159D01*
X208080777Y-123002156D01*
X208159795Y-122854322D01*
X208266141Y-122724741D01*
X208395722Y-122618395D01*
X208543556Y-122539377D01*
X208543559Y-122539376D01*
X208543561Y-122539375D01*
X208703975Y-122490714D01*
X208703976Y-122490714D01*
X208703979Y-122490713D01*
X208828996Y-122478400D01*
X208912604Y-122478400D01*
X209037621Y-122490713D01*
X209037621Y-122490713D01*
G37*
G36*
X141426562Y-122072181D02*
X141461477Y-122082773D01*
X141493665Y-122099978D01*
X141521873Y-122123127D01*
X141545022Y-122151335D01*
X141562227Y-122183523D01*
X141572819Y-122218438D01*
X141577000Y-122260895D01*
X141577000Y-123727105D01*
X141572819Y-123769562D01*
X141562227Y-123804477D01*
X141545022Y-123836665D01*
X141521873Y-123864873D01*
X141493665Y-123888022D01*
X141461477Y-123905227D01*
X141426562Y-123915819D01*
X141384105Y-123920000D01*
X140242895Y-123920000D01*
X140200438Y-123915819D01*
X140165523Y-123905227D01*
X140133335Y-123888022D01*
X140105127Y-123864873D01*
X140081978Y-123836665D01*
X140064773Y-123804477D01*
X140054181Y-123769562D01*
X140050000Y-123727105D01*
X140050000Y-122260895D01*
X140054181Y-122218438D01*
X140064773Y-122183523D01*
X140081978Y-122151335D01*
X140105127Y-122123127D01*
X140133335Y-122099978D01*
X140165523Y-122082773D01*
X140200438Y-122072181D01*
X140242895Y-122068000D01*
X141384105Y-122068000D01*
X141426562Y-122072181D01*
X141426562Y-122072181D01*
G37*
G36*
X144401562Y-122072181D02*
X144436477Y-122082773D01*
X144468665Y-122099978D01*
X144496873Y-122123127D01*
X144520022Y-122151335D01*
X144537227Y-122183523D01*
X144547819Y-122218438D01*
X144552000Y-122260895D01*
X144552000Y-123727105D01*
X144547819Y-123769562D01*
X144537227Y-123804477D01*
X144520022Y-123836665D01*
X144496873Y-123864873D01*
X144468665Y-123888022D01*
X144436477Y-123905227D01*
X144401562Y-123915819D01*
X144359105Y-123920000D01*
X143217895Y-123920000D01*
X143175438Y-123915819D01*
X143140523Y-123905227D01*
X143108335Y-123888022D01*
X143080127Y-123864873D01*
X143056978Y-123836665D01*
X143039773Y-123804477D01*
X143029181Y-123769562D01*
X143025000Y-123727105D01*
X143025000Y-122260895D01*
X143029181Y-122218438D01*
X143039773Y-122183523D01*
X143056978Y-122151335D01*
X143080127Y-122123127D01*
X143108335Y-122099978D01*
X143140523Y-122082773D01*
X143175438Y-122072181D01*
X143217895Y-122068000D01*
X144359105Y-122068000D01*
X144401562Y-122072181D01*
X144401562Y-122072181D01*
G37*
G36*
X128191021Y-122222513D02*
X128191024Y-122222514D01*
X128191025Y-122222514D01*
X128351439Y-122271175D01*
X128351441Y-122271176D01*
X128351444Y-122271177D01*
X128499278Y-122350195D01*
X128628859Y-122456541D01*
X128735205Y-122586122D01*
X128814223Y-122733956D01*
X128814224Y-122733959D01*
X128814225Y-122733961D01*
X128843303Y-122829819D01*
X128862887Y-122894379D01*
X128879317Y-123061200D01*
X128862887Y-123228021D01*
X128814223Y-123388444D01*
X128735205Y-123536278D01*
X128628859Y-123665859D01*
X128499278Y-123772205D01*
X128351444Y-123851223D01*
X128351441Y-123851224D01*
X128351439Y-123851225D01*
X128191025Y-123899886D01*
X128191024Y-123899886D01*
X128191021Y-123899887D01*
X128066004Y-123912200D01*
X127982396Y-123912200D01*
X127857379Y-123899887D01*
X127857376Y-123899886D01*
X127857375Y-123899886D01*
X127696961Y-123851225D01*
X127696959Y-123851224D01*
X127696956Y-123851223D01*
X127549122Y-123772205D01*
X127419541Y-123665859D01*
X127313195Y-123536278D01*
X127234177Y-123388444D01*
X127185513Y-123228021D01*
X127169083Y-123061200D01*
X127185513Y-122894379D01*
X127205097Y-122829819D01*
X127234175Y-122733961D01*
X127234176Y-122733959D01*
X127234177Y-122733956D01*
X127313195Y-122586122D01*
X127419541Y-122456541D01*
X127549122Y-122350195D01*
X127696956Y-122271177D01*
X127696959Y-122271176D01*
X127696961Y-122271175D01*
X127857375Y-122222514D01*
X127857376Y-122222514D01*
X127857379Y-122222513D01*
X127982396Y-122210200D01*
X128066004Y-122210200D01*
X128191021Y-122222513D01*
X128191021Y-122222513D01*
G37*
G36*
X136495200Y-123912200D02*
X134793200Y-123912200D01*
X134793200Y-122210200D01*
X136495200Y-122210200D01*
X136495200Y-123912200D01*
X136495200Y-123912200D01*
G37*
G36*
X162176308Y-121728498D02*
X162214317Y-121740028D01*
X162249348Y-121758753D01*
X162280050Y-121783950D01*
X162305247Y-121814652D01*
X162323972Y-121849683D01*
X162335502Y-121887692D01*
X162340000Y-121933362D01*
X162340000Y-122741638D01*
X162335502Y-122787308D01*
X162323972Y-122825317D01*
X162305247Y-122860348D01*
X162280050Y-122891050D01*
X162249348Y-122916247D01*
X162214317Y-122934972D01*
X162176308Y-122946502D01*
X162130638Y-122951000D01*
X159047362Y-122951000D01*
X159001692Y-122946502D01*
X158963683Y-122934972D01*
X158928652Y-122916247D01*
X158897950Y-122891050D01*
X158872753Y-122860348D01*
X158854028Y-122825317D01*
X158842498Y-122787308D01*
X158838000Y-122741638D01*
X158838000Y-121933362D01*
X158842498Y-121887692D01*
X158854028Y-121849683D01*
X158872753Y-121814652D01*
X158897950Y-121783950D01*
X158928652Y-121758753D01*
X158963683Y-121740028D01*
X159001692Y-121728498D01*
X159047362Y-121724000D01*
X162130638Y-121724000D01*
X162176308Y-121728498D01*
X162176308Y-121728498D01*
G37*
G36*
X156922062Y-120933681D02*
X156956977Y-120944273D01*
X156989165Y-120961478D01*
X157017373Y-120984627D01*
X157040522Y-121012835D01*
X157057727Y-121045023D01*
X157068319Y-121079938D01*
X157072500Y-121122395D01*
X157072500Y-122263605D01*
X157068319Y-122306062D01*
X157057727Y-122340977D01*
X157040522Y-122373165D01*
X157017373Y-122401373D01*
X156989165Y-122424522D01*
X156956977Y-122441727D01*
X156922062Y-122452319D01*
X156879605Y-122456500D01*
X155413395Y-122456500D01*
X155370938Y-122452319D01*
X155336023Y-122441727D01*
X155303835Y-122424522D01*
X155275627Y-122401373D01*
X155252478Y-122373165D01*
X155235273Y-122340977D01*
X155224681Y-122306062D01*
X155220500Y-122263605D01*
X155220500Y-121122395D01*
X155224681Y-121079938D01*
X155235273Y-121045023D01*
X155252478Y-121012835D01*
X155275627Y-120984627D01*
X155303835Y-120961478D01*
X155336023Y-120944273D01*
X155370938Y-120933681D01*
X155413395Y-120929500D01*
X156879605Y-120929500D01*
X156922062Y-120933681D01*
X156922062Y-120933681D01*
G37*
G36*
X209037621Y-119950713D02*
X209037624Y-119950714D01*
X209037625Y-119950714D01*
X209198039Y-119999375D01*
X209198041Y-119999376D01*
X209198044Y-119999377D01*
X209345878Y-120078395D01*
X209475459Y-120184741D01*
X209581805Y-120314322D01*
X209660823Y-120462156D01*
X209709487Y-120622579D01*
X209725917Y-120789400D01*
X209709487Y-120956221D01*
X209709486Y-120956224D01*
X209709486Y-120956225D01*
X209667427Y-121094876D01*
X209660823Y-121116644D01*
X209581805Y-121264478D01*
X209475459Y-121394059D01*
X209345878Y-121500405D01*
X209198044Y-121579423D01*
X209198041Y-121579424D01*
X209198039Y-121579425D01*
X209037625Y-121628086D01*
X209037624Y-121628086D01*
X209037621Y-121628087D01*
X208912604Y-121640400D01*
X208828996Y-121640400D01*
X208703979Y-121628087D01*
X208703976Y-121628086D01*
X208703975Y-121628086D01*
X208543561Y-121579425D01*
X208543559Y-121579424D01*
X208543556Y-121579423D01*
X208395722Y-121500405D01*
X208266141Y-121394059D01*
X208159795Y-121264478D01*
X208080777Y-121116644D01*
X208074174Y-121094876D01*
X208032114Y-120956225D01*
X208032114Y-120956224D01*
X208032113Y-120956221D01*
X208015683Y-120789400D01*
X208032113Y-120622579D01*
X208080777Y-120462156D01*
X208159795Y-120314322D01*
X208266141Y-120184741D01*
X208395722Y-120078395D01*
X208543556Y-119999377D01*
X208543559Y-119999376D01*
X208543561Y-119999375D01*
X208703975Y-119950714D01*
X208703976Y-119950714D01*
X208703979Y-119950713D01*
X208828996Y-119938400D01*
X208912604Y-119938400D01*
X209037621Y-119950713D01*
X209037621Y-119950713D01*
G37*
G36*
X202101800Y-121640400D02*
X200399800Y-121640400D01*
X200399800Y-119938400D01*
X202101800Y-119938400D01*
X202101800Y-121640400D01*
X202101800Y-121640400D01*
G37*
G36*
X135811021Y-119682513D02*
X135811024Y-119682514D01*
X135811025Y-119682514D01*
X135971439Y-119731175D01*
X135971441Y-119731176D01*
X135971444Y-119731177D01*
X136119278Y-119810195D01*
X136248859Y-119916541D01*
X136355205Y-120046122D01*
X136434223Y-120193956D01*
X136482887Y-120354379D01*
X136499317Y-120521200D01*
X136482887Y-120688021D01*
X136434223Y-120848444D01*
X136355205Y-120996278D01*
X136248859Y-121125859D01*
X136119278Y-121232205D01*
X135971444Y-121311223D01*
X135971441Y-121311224D01*
X135971439Y-121311225D01*
X135811025Y-121359886D01*
X135811024Y-121359886D01*
X135811021Y-121359887D01*
X135686004Y-121372200D01*
X135602396Y-121372200D01*
X135477379Y-121359887D01*
X135477376Y-121359886D01*
X135477375Y-121359886D01*
X135316961Y-121311225D01*
X135316959Y-121311224D01*
X135316956Y-121311223D01*
X135169122Y-121232205D01*
X135039541Y-121125859D01*
X134933195Y-120996278D01*
X134854177Y-120848444D01*
X134805513Y-120688021D01*
X134789083Y-120521200D01*
X134805513Y-120354379D01*
X134854177Y-120193956D01*
X134933195Y-120046122D01*
X135039541Y-119916541D01*
X135169122Y-119810195D01*
X135316956Y-119731177D01*
X135316959Y-119731176D01*
X135316961Y-119731175D01*
X135477375Y-119682514D01*
X135477376Y-119682514D01*
X135477379Y-119682513D01*
X135602396Y-119670200D01*
X135686004Y-119670200D01*
X135811021Y-119682513D01*
X135811021Y-119682513D01*
G37*
G36*
X128191021Y-119682513D02*
X128191024Y-119682514D01*
X128191025Y-119682514D01*
X128351439Y-119731175D01*
X128351441Y-119731176D01*
X128351444Y-119731177D01*
X128499278Y-119810195D01*
X128628859Y-119916541D01*
X128735205Y-120046122D01*
X128814223Y-120193956D01*
X128862887Y-120354379D01*
X128879317Y-120521200D01*
X128862887Y-120688021D01*
X128814223Y-120848444D01*
X128735205Y-120996278D01*
X128628859Y-121125859D01*
X128499278Y-121232205D01*
X128351444Y-121311223D01*
X128351441Y-121311224D01*
X128351439Y-121311225D01*
X128191025Y-121359886D01*
X128191024Y-121359886D01*
X128191021Y-121359887D01*
X128066004Y-121372200D01*
X127982396Y-121372200D01*
X127857379Y-121359887D01*
X127857376Y-121359886D01*
X127857375Y-121359886D01*
X127696961Y-121311225D01*
X127696959Y-121311224D01*
X127696956Y-121311223D01*
X127549122Y-121232205D01*
X127419541Y-121125859D01*
X127313195Y-120996278D01*
X127234177Y-120848444D01*
X127185513Y-120688021D01*
X127169083Y-120521200D01*
X127185513Y-120354379D01*
X127234177Y-120193956D01*
X127313195Y-120046122D01*
X127419541Y-119916541D01*
X127549122Y-119810195D01*
X127696956Y-119731177D01*
X127696959Y-119731176D01*
X127696961Y-119731175D01*
X127857375Y-119682514D01*
X127857376Y-119682514D01*
X127857379Y-119682513D01*
X127982396Y-119670200D01*
X128066004Y-119670200D01*
X128191021Y-119682513D01*
X128191021Y-119682513D01*
G37*
G36*
X156922062Y-117958681D02*
X156956977Y-117969273D01*
X156989165Y-117986478D01*
X157017373Y-118009627D01*
X157040522Y-118037835D01*
X157057727Y-118070023D01*
X157068319Y-118104938D01*
X157072500Y-118147395D01*
X157072500Y-119288605D01*
X157068319Y-119331062D01*
X157057727Y-119365977D01*
X157040522Y-119398165D01*
X157017373Y-119426373D01*
X156989165Y-119449522D01*
X156956977Y-119466727D01*
X156922062Y-119477319D01*
X156879605Y-119481500D01*
X155413395Y-119481500D01*
X155370938Y-119477319D01*
X155336023Y-119466727D01*
X155303835Y-119449522D01*
X155275627Y-119426373D01*
X155252478Y-119398165D01*
X155235273Y-119365977D01*
X155224681Y-119331062D01*
X155220500Y-119288605D01*
X155220500Y-118147395D01*
X155224681Y-118104938D01*
X155235273Y-118070023D01*
X155252478Y-118037835D01*
X155275627Y-118009627D01*
X155303835Y-117986478D01*
X155336023Y-117969273D01*
X155370938Y-117958681D01*
X155413395Y-117954500D01*
X156879605Y-117954500D01*
X156922062Y-117958681D01*
X156922062Y-117958681D01*
G37*
G36*
X128191021Y-117142513D02*
X128191024Y-117142514D01*
X128191025Y-117142514D01*
X128351439Y-117191175D01*
X128351441Y-117191176D01*
X128351444Y-117191177D01*
X128499278Y-117270195D01*
X128628859Y-117376541D01*
X128735205Y-117506122D01*
X128814223Y-117653956D01*
X128814224Y-117653959D01*
X128814225Y-117653961D01*
X128834763Y-117721666D01*
X128862887Y-117814379D01*
X128879317Y-117981200D01*
X128862887Y-118148021D01*
X128814223Y-118308444D01*
X128735205Y-118456278D01*
X128628859Y-118585859D01*
X128499278Y-118692205D01*
X128351444Y-118771223D01*
X128351441Y-118771224D01*
X128351439Y-118771225D01*
X128191025Y-118819886D01*
X128191024Y-118819886D01*
X128191021Y-118819887D01*
X128066004Y-118832200D01*
X127982396Y-118832200D01*
X127857379Y-118819887D01*
X127857376Y-118819886D01*
X127857375Y-118819886D01*
X127696961Y-118771225D01*
X127696959Y-118771224D01*
X127696956Y-118771223D01*
X127549122Y-118692205D01*
X127419541Y-118585859D01*
X127313195Y-118456278D01*
X127234177Y-118308444D01*
X127185513Y-118148021D01*
X127169083Y-117981200D01*
X127185513Y-117814379D01*
X127213637Y-117721666D01*
X127234175Y-117653961D01*
X127234176Y-117653959D01*
X127234177Y-117653956D01*
X127313195Y-117506122D01*
X127419541Y-117376541D01*
X127549122Y-117270195D01*
X127696956Y-117191177D01*
X127696959Y-117191176D01*
X127696961Y-117191175D01*
X127857375Y-117142514D01*
X127857376Y-117142514D01*
X127857379Y-117142513D01*
X127982396Y-117130200D01*
X128066004Y-117130200D01*
X128191021Y-117142513D01*
X128191021Y-117142513D01*
G37*
G36*
X135811021Y-117142513D02*
X135811024Y-117142514D01*
X135811025Y-117142514D01*
X135971439Y-117191175D01*
X135971441Y-117191176D01*
X135971444Y-117191177D01*
X136119278Y-117270195D01*
X136248859Y-117376541D01*
X136355205Y-117506122D01*
X136434223Y-117653956D01*
X136434224Y-117653959D01*
X136434225Y-117653961D01*
X136454763Y-117721666D01*
X136482887Y-117814379D01*
X136499317Y-117981200D01*
X136482887Y-118148021D01*
X136434223Y-118308444D01*
X136355205Y-118456278D01*
X136248859Y-118585859D01*
X136119278Y-118692205D01*
X135971444Y-118771223D01*
X135971441Y-118771224D01*
X135971439Y-118771225D01*
X135811025Y-118819886D01*
X135811024Y-118819886D01*
X135811021Y-118819887D01*
X135686004Y-118832200D01*
X135602396Y-118832200D01*
X135477379Y-118819887D01*
X135477376Y-118819886D01*
X135477375Y-118819886D01*
X135316961Y-118771225D01*
X135316959Y-118771224D01*
X135316956Y-118771223D01*
X135169122Y-118692205D01*
X135039541Y-118585859D01*
X134933195Y-118456278D01*
X134854177Y-118308444D01*
X134805513Y-118148021D01*
X134789083Y-117981200D01*
X134805513Y-117814379D01*
X134833637Y-117721666D01*
X134854175Y-117653961D01*
X134854176Y-117653959D01*
X134854177Y-117653956D01*
X134933195Y-117506122D01*
X135039541Y-117376541D01*
X135169122Y-117270195D01*
X135316956Y-117191177D01*
X135316959Y-117191176D01*
X135316961Y-117191175D01*
X135477375Y-117142514D01*
X135477376Y-117142514D01*
X135477379Y-117142513D01*
X135602396Y-117130200D01*
X135686004Y-117130200D01*
X135811021Y-117142513D01*
X135811021Y-117142513D01*
G37*
G36*
X162176308Y-117453498D02*
X162214317Y-117465028D01*
X162249348Y-117483753D01*
X162280050Y-117508950D01*
X162305247Y-117539652D01*
X162323972Y-117574683D01*
X162335502Y-117612692D01*
X162340000Y-117658362D01*
X162340000Y-118466638D01*
X162335502Y-118512308D01*
X162323972Y-118550317D01*
X162305247Y-118585348D01*
X162280050Y-118616050D01*
X162249348Y-118641247D01*
X162214317Y-118659972D01*
X162176308Y-118671502D01*
X162130638Y-118676000D01*
X159047362Y-118676000D01*
X159001692Y-118671502D01*
X158963683Y-118659972D01*
X158928652Y-118641247D01*
X158897950Y-118616050D01*
X158872753Y-118585348D01*
X158854028Y-118550317D01*
X158842498Y-118512308D01*
X158838000Y-118466638D01*
X158838000Y-117658362D01*
X158842498Y-117612692D01*
X158854028Y-117574683D01*
X158872753Y-117539652D01*
X158897950Y-117508950D01*
X158928652Y-117483753D01*
X158963683Y-117465028D01*
X159001692Y-117453498D01*
X159047362Y-117449000D01*
X162130638Y-117449000D01*
X162176308Y-117453498D01*
X162176308Y-117453498D01*
G37*
G36*
X196725562Y-113944181D02*
X196760477Y-113954773D01*
X196792665Y-113971978D01*
X196820873Y-113995127D01*
X196844022Y-114023335D01*
X196861227Y-114055523D01*
X196871819Y-114090438D01*
X196876000Y-114132895D01*
X196876000Y-115599105D01*
X196871819Y-115641562D01*
X196861227Y-115676477D01*
X196844022Y-115708665D01*
X196820873Y-115736873D01*
X196792665Y-115760022D01*
X196760477Y-115777227D01*
X196725562Y-115787819D01*
X196683105Y-115792000D01*
X195541895Y-115792000D01*
X195499438Y-115787819D01*
X195464523Y-115777227D01*
X195432335Y-115760022D01*
X195404127Y-115736873D01*
X195380978Y-115708665D01*
X195363773Y-115676477D01*
X195353181Y-115641562D01*
X195349000Y-115599105D01*
X195349000Y-114132895D01*
X195353181Y-114090438D01*
X195363773Y-114055523D01*
X195380978Y-114023335D01*
X195404127Y-113995127D01*
X195432335Y-113971978D01*
X195464523Y-113954773D01*
X195499438Y-113944181D01*
X195541895Y-113940000D01*
X196683105Y-113940000D01*
X196725562Y-113944181D01*
X196725562Y-113944181D01*
G37*
G36*
X193750562Y-113944181D02*
X193785477Y-113954773D01*
X193817665Y-113971978D01*
X193845873Y-113995127D01*
X193869022Y-114023335D01*
X193886227Y-114055523D01*
X193896819Y-114090438D01*
X193901000Y-114132895D01*
X193901000Y-115599105D01*
X193896819Y-115641562D01*
X193886227Y-115676477D01*
X193869022Y-115708665D01*
X193845873Y-115736873D01*
X193817665Y-115760022D01*
X193785477Y-115777227D01*
X193750562Y-115787819D01*
X193708105Y-115792000D01*
X192566895Y-115792000D01*
X192524438Y-115787819D01*
X192489523Y-115777227D01*
X192457335Y-115760022D01*
X192429127Y-115736873D01*
X192405978Y-115708665D01*
X192388773Y-115676477D01*
X192378181Y-115641562D01*
X192374000Y-115599105D01*
X192374000Y-114132895D01*
X192378181Y-114090438D01*
X192388773Y-114055523D01*
X192405978Y-114023335D01*
X192429127Y-113995127D01*
X192457335Y-113971978D01*
X192489523Y-113954773D01*
X192524438Y-113944181D01*
X192566895Y-113940000D01*
X193708105Y-113940000D01*
X193750562Y-113944181D01*
X193750562Y-113944181D01*
G37*
G36*
X143868000Y-114435001D02*
X142766000Y-114435001D01*
X142766000Y-113333001D01*
X143868000Y-113333001D01*
X143868000Y-114435001D01*
X143868000Y-114435001D01*
G37*
G36*
X137596001Y-114435001D02*
X136494001Y-114435001D01*
X136494001Y-113333001D01*
X137596001Y-113333001D01*
X137596001Y-114435001D01*
X137596001Y-114435001D01*
G37*
G36*
X140693000Y-114401000D02*
X139591000Y-114401000D01*
X139591000Y-113299000D01*
X140693000Y-113299000D01*
X140693000Y-114401000D01*
X140693000Y-114401000D01*
G37*
G36*
X122361400Y-112560300D02*
X120259400Y-112560300D01*
X120259400Y-110553300D01*
X122361400Y-110553300D01*
X122361400Y-112560300D01*
X122361400Y-112560300D01*
G37*
G36*
X213007764Y-110127308D02*
X213096220Y-110136020D01*
X213285381Y-110193401D01*
X213459712Y-110286583D01*
X213612515Y-110411985D01*
X213737917Y-110564788D01*
X213831099Y-110739119D01*
X213888480Y-110928280D01*
X213907855Y-111125000D01*
X213888480Y-111321720D01*
X213831099Y-111510881D01*
X213737917Y-111685212D01*
X213612515Y-111838015D01*
X213459712Y-111963417D01*
X213285381Y-112056599D01*
X213096220Y-112113980D01*
X213007764Y-112122692D01*
X212948796Y-112128500D01*
X212755204Y-112128500D01*
X212696236Y-112122692D01*
X212607780Y-112113980D01*
X212418619Y-112056599D01*
X212244288Y-111963417D01*
X212091485Y-111838015D01*
X211966083Y-111685212D01*
X211872901Y-111510881D01*
X211815520Y-111321720D01*
X211796145Y-111125000D01*
X211815520Y-110928280D01*
X211872901Y-110739119D01*
X211966083Y-110564788D01*
X212091485Y-110411985D01*
X212244288Y-110286583D01*
X212418619Y-110193401D01*
X212607780Y-110136020D01*
X212696236Y-110127308D01*
X212755204Y-110121500D01*
X212948796Y-110121500D01*
X213007764Y-110127308D01*
X213007764Y-110127308D01*
G37*
G36*
X143868000Y-112115000D02*
X142766000Y-112115000D01*
X142766000Y-111013000D01*
X143868000Y-111013000D01*
X143868000Y-112115000D01*
X143868000Y-112115000D01*
G37*
G36*
X128656600Y-112085600D02*
X127004600Y-112085600D01*
X127004600Y-111383600D01*
X128656600Y-111383600D01*
X128656600Y-112085600D01*
X128656600Y-112085600D01*
G37*
G36*
X134056600Y-112085600D02*
X132404600Y-112085600D01*
X132404600Y-111383600D01*
X134056600Y-111383600D01*
X134056600Y-112085600D01*
X134056600Y-112085600D01*
G37*
G36*
X137596001Y-112085001D02*
X136494001Y-112085001D01*
X136494001Y-110983001D01*
X137596001Y-110983001D01*
X137596001Y-112085001D01*
X137596001Y-112085001D01*
G37*
G36*
X140746001Y-112085001D02*
X139644001Y-112085001D01*
X139644001Y-110983001D01*
X140746001Y-110983001D01*
X140746001Y-112085001D01*
X140746001Y-112085001D01*
G37*
G36*
X186337142Y-109311242D02*
X186485102Y-109372530D01*
X186514742Y-109392335D01*
X186618257Y-109461501D01*
X186731499Y-109574743D01*
X186820471Y-109707900D01*
X186834354Y-109741417D01*
X186881758Y-109855858D01*
X186913000Y-110012925D01*
X186913000Y-110173075D01*
X186881758Y-110330142D01*
X186820471Y-110478101D01*
X186790100Y-110523554D01*
X186778549Y-110545164D01*
X186771436Y-110568614D01*
X186769034Y-110593000D01*
X186771436Y-110617386D01*
X186778549Y-110640835D01*
X186790100Y-110662446D01*
X186820471Y-110707899D01*
X186881758Y-110855858D01*
X186913000Y-111012925D01*
X186913000Y-111173075D01*
X186881758Y-111330142D01*
X186820470Y-111478102D01*
X186731498Y-111611258D01*
X186618258Y-111724498D01*
X186485102Y-111813470D01*
X186337142Y-111874758D01*
X186180075Y-111906000D01*
X186019925Y-111906000D01*
X185862858Y-111874758D01*
X185714898Y-111813470D01*
X185581742Y-111724498D01*
X185468502Y-111611258D01*
X185379530Y-111478102D01*
X185318242Y-111330142D01*
X185287000Y-111173075D01*
X185287000Y-111012925D01*
X185318242Y-110855858D01*
X185379529Y-110707899D01*
X185409900Y-110662446D01*
X185421451Y-110640836D01*
X185428564Y-110617386D01*
X185430966Y-110593000D01*
X185428564Y-110568614D01*
X185421451Y-110545165D01*
X185409900Y-110523554D01*
X185379529Y-110478101D01*
X185318242Y-110330142D01*
X185287000Y-110173075D01*
X185287000Y-110012925D01*
X185318242Y-109855858D01*
X185365646Y-109741417D01*
X185379529Y-109707900D01*
X185468501Y-109574743D01*
X185581743Y-109461501D01*
X185685258Y-109392335D01*
X185714898Y-109372530D01*
X185862858Y-109311242D01*
X186019925Y-109280000D01*
X186180075Y-109280000D01*
X186337142Y-109311242D01*
X186337142Y-109311242D01*
G37*
G36*
X188837142Y-109311242D02*
X188985102Y-109372530D01*
X189014742Y-109392335D01*
X189118257Y-109461501D01*
X189231499Y-109574743D01*
X189320471Y-109707900D01*
X189334354Y-109741417D01*
X189381758Y-109855858D01*
X189413000Y-110012925D01*
X189413000Y-110173075D01*
X189381758Y-110330142D01*
X189320471Y-110478101D01*
X189290100Y-110523554D01*
X189278549Y-110545164D01*
X189271436Y-110568614D01*
X189269034Y-110593000D01*
X189271436Y-110617386D01*
X189278549Y-110640835D01*
X189290100Y-110662446D01*
X189320471Y-110707899D01*
X189381758Y-110855858D01*
X189413000Y-111012925D01*
X189413000Y-111173075D01*
X189381758Y-111330142D01*
X189320470Y-111478102D01*
X189231498Y-111611258D01*
X189118258Y-111724498D01*
X188985102Y-111813470D01*
X188837142Y-111874758D01*
X188680075Y-111906000D01*
X188519925Y-111906000D01*
X188362858Y-111874758D01*
X188214898Y-111813470D01*
X188081742Y-111724498D01*
X187968502Y-111611258D01*
X187879530Y-111478102D01*
X187818242Y-111330142D01*
X187787000Y-111173075D01*
X187787000Y-111012925D01*
X187818242Y-110855858D01*
X187879529Y-110707899D01*
X187909900Y-110662446D01*
X187921451Y-110640836D01*
X187928564Y-110617386D01*
X187930966Y-110593000D01*
X187928564Y-110568614D01*
X187921451Y-110545165D01*
X187909900Y-110523554D01*
X187879529Y-110478101D01*
X187818242Y-110330142D01*
X187787000Y-110173075D01*
X187787000Y-110012925D01*
X187818242Y-109855858D01*
X187865646Y-109741417D01*
X187879529Y-109707900D01*
X187968501Y-109574743D01*
X188081743Y-109461501D01*
X188185258Y-109392335D01*
X188214898Y-109372530D01*
X188362858Y-109311242D01*
X188519925Y-109280000D01*
X188680075Y-109280000D01*
X188837142Y-109311242D01*
X188837142Y-109311242D01*
G37*
G36*
X181337142Y-109311242D02*
X181485102Y-109372530D01*
X181514742Y-109392335D01*
X181618257Y-109461501D01*
X181731499Y-109574743D01*
X181820471Y-109707900D01*
X181834354Y-109741417D01*
X181881758Y-109855858D01*
X181913000Y-110012925D01*
X181913000Y-110173075D01*
X181881758Y-110330142D01*
X181820471Y-110478101D01*
X181790100Y-110523554D01*
X181778549Y-110545164D01*
X181771436Y-110568614D01*
X181769034Y-110593000D01*
X181771436Y-110617386D01*
X181778549Y-110640835D01*
X181790100Y-110662446D01*
X181820471Y-110707899D01*
X181881758Y-110855858D01*
X181913000Y-111012925D01*
X181913000Y-111173075D01*
X181881758Y-111330142D01*
X181820470Y-111478102D01*
X181731498Y-111611258D01*
X181618258Y-111724498D01*
X181485102Y-111813470D01*
X181337142Y-111874758D01*
X181180075Y-111906000D01*
X181019925Y-111906000D01*
X180862858Y-111874758D01*
X180714898Y-111813470D01*
X180581742Y-111724498D01*
X180468502Y-111611258D01*
X180379530Y-111478102D01*
X180318242Y-111330142D01*
X180287000Y-111173075D01*
X180287000Y-111012925D01*
X180318242Y-110855858D01*
X180379529Y-110707899D01*
X180409900Y-110662446D01*
X180421451Y-110640836D01*
X180428564Y-110617386D01*
X180430966Y-110593000D01*
X180428564Y-110568614D01*
X180421451Y-110545165D01*
X180409900Y-110523554D01*
X180379529Y-110478101D01*
X180318242Y-110330142D01*
X180287000Y-110173075D01*
X180287000Y-110012925D01*
X180318242Y-109855858D01*
X180365646Y-109741417D01*
X180379529Y-109707900D01*
X180468501Y-109574743D01*
X180581743Y-109461501D01*
X180685258Y-109392335D01*
X180714898Y-109372530D01*
X180862858Y-109311242D01*
X181019925Y-109280000D01*
X181180075Y-109280000D01*
X181337142Y-109311242D01*
X181337142Y-109311242D01*
G37*
G36*
X183837142Y-109311242D02*
X183985102Y-109372530D01*
X184014742Y-109392335D01*
X184118257Y-109461501D01*
X184231499Y-109574743D01*
X184320471Y-109707900D01*
X184334354Y-109741417D01*
X184381758Y-109855858D01*
X184413000Y-110012925D01*
X184413000Y-110173075D01*
X184381758Y-110330142D01*
X184320471Y-110478101D01*
X184290100Y-110523554D01*
X184278549Y-110545164D01*
X184271436Y-110568614D01*
X184269034Y-110593000D01*
X184271436Y-110617386D01*
X184278549Y-110640835D01*
X184290100Y-110662446D01*
X184320471Y-110707899D01*
X184381758Y-110855858D01*
X184413000Y-111012925D01*
X184413000Y-111173075D01*
X184381758Y-111330142D01*
X184320470Y-111478102D01*
X184231498Y-111611258D01*
X184118258Y-111724498D01*
X183985102Y-111813470D01*
X183837142Y-111874758D01*
X183680075Y-111906000D01*
X183519925Y-111906000D01*
X183362858Y-111874758D01*
X183214898Y-111813470D01*
X183081742Y-111724498D01*
X182968502Y-111611258D01*
X182879530Y-111478102D01*
X182818242Y-111330142D01*
X182787000Y-111173075D01*
X182787000Y-111012925D01*
X182818242Y-110855858D01*
X182879529Y-110707899D01*
X182909900Y-110662446D01*
X182921451Y-110640836D01*
X182928564Y-110617386D01*
X182930966Y-110593000D01*
X182928564Y-110568614D01*
X182921451Y-110545165D01*
X182909900Y-110523554D01*
X182879529Y-110478101D01*
X182818242Y-110330142D01*
X182787000Y-110173075D01*
X182787000Y-110012925D01*
X182818242Y-109855858D01*
X182865646Y-109741417D01*
X182879529Y-109707900D01*
X182968501Y-109574743D01*
X183081743Y-109461501D01*
X183185258Y-109392335D01*
X183214898Y-109372530D01*
X183362858Y-109311242D01*
X183519925Y-109280000D01*
X183680075Y-109280000D01*
X183837142Y-109311242D01*
X183837142Y-109311242D01*
G37*
G36*
X207480249Y-109313181D02*
X207515164Y-109323773D01*
X207547352Y-109340978D01*
X207575560Y-109364127D01*
X207598709Y-109392335D01*
X207615914Y-109424523D01*
X207626506Y-109459438D01*
X207630687Y-109501895D01*
X207630687Y-110643105D01*
X207626506Y-110685562D01*
X207615914Y-110720477D01*
X207598709Y-110752665D01*
X207575560Y-110780873D01*
X207547352Y-110804022D01*
X207515164Y-110821227D01*
X207480249Y-110831819D01*
X207437792Y-110836000D01*
X205971582Y-110836000D01*
X205929125Y-110831819D01*
X205894210Y-110821227D01*
X205862022Y-110804022D01*
X205833814Y-110780873D01*
X205810665Y-110752665D01*
X205793460Y-110720477D01*
X205782868Y-110685562D01*
X205778687Y-110643105D01*
X205778687Y-109501895D01*
X205782868Y-109459438D01*
X205793460Y-109424523D01*
X205810665Y-109392335D01*
X205833814Y-109364127D01*
X205862022Y-109340978D01*
X205894210Y-109323773D01*
X205929125Y-109313181D01*
X205971582Y-109309000D01*
X207437792Y-109309000D01*
X207480249Y-109313181D01*
X207480249Y-109313181D01*
G37*
G36*
X134056600Y-110815600D02*
X132404600Y-110815600D01*
X132404600Y-110113600D01*
X134056600Y-110113600D01*
X134056600Y-110815600D01*
X134056600Y-110815600D01*
G37*
G36*
X128656600Y-110815600D02*
X127004600Y-110815600D01*
X127004600Y-110113600D01*
X128656600Y-110113600D01*
X128656600Y-110815600D01*
X128656600Y-110815600D01*
G37*
G36*
X121466164Y-108019108D02*
X121554620Y-108027820D01*
X121743781Y-108085201D01*
X121918112Y-108178383D01*
X122070915Y-108303785D01*
X122196317Y-108456588D01*
X122289499Y-108630919D01*
X122346880Y-108820080D01*
X122366255Y-109016800D01*
X122346880Y-109213520D01*
X122289499Y-109402681D01*
X122196317Y-109577012D01*
X122070915Y-109729815D01*
X121918112Y-109855217D01*
X121743781Y-109948399D01*
X121554620Y-110005780D01*
X121482064Y-110012926D01*
X121407196Y-110020300D01*
X121213604Y-110020300D01*
X121138736Y-110012926D01*
X121066180Y-110005780D01*
X120877019Y-109948399D01*
X120702688Y-109855217D01*
X120549885Y-109729815D01*
X120424483Y-109577012D01*
X120331301Y-109402681D01*
X120273920Y-109213520D01*
X120254545Y-109016800D01*
X120273920Y-108820080D01*
X120331301Y-108630919D01*
X120424483Y-108456588D01*
X120549885Y-108303785D01*
X120702688Y-108178383D01*
X120877019Y-108085201D01*
X121066180Y-108027820D01*
X121154636Y-108019108D01*
X121213604Y-108013300D01*
X121407196Y-108013300D01*
X121466164Y-108019108D01*
X121466164Y-108019108D01*
G37*
G36*
X213007764Y-107587308D02*
X213096220Y-107596020D01*
X213285381Y-107653401D01*
X213459712Y-107746583D01*
X213612515Y-107871985D01*
X213737917Y-108024788D01*
X213831099Y-108199119D01*
X213888480Y-108388280D01*
X213907855Y-108585000D01*
X213888480Y-108781720D01*
X213831099Y-108970881D01*
X213737917Y-109145212D01*
X213612515Y-109298015D01*
X213459712Y-109423417D01*
X213285381Y-109516599D01*
X213096220Y-109573980D01*
X213007764Y-109582692D01*
X212948796Y-109588500D01*
X212755204Y-109588500D01*
X212696236Y-109582692D01*
X212607780Y-109573980D01*
X212418619Y-109516599D01*
X212244288Y-109423417D01*
X212091485Y-109298015D01*
X211966083Y-109145212D01*
X211872901Y-108970881D01*
X211815520Y-108781720D01*
X211796145Y-108585000D01*
X211815520Y-108388280D01*
X211872901Y-108199119D01*
X211966083Y-108024788D01*
X212091485Y-107871985D01*
X212244288Y-107746583D01*
X212418619Y-107653401D01*
X212607780Y-107596020D01*
X212696236Y-107587308D01*
X212755204Y-107581500D01*
X212948796Y-107581500D01*
X213007764Y-107587308D01*
X213007764Y-107587308D01*
G37*
G36*
X128656600Y-109545600D02*
X127004600Y-109545600D01*
X127004600Y-108843600D01*
X128656600Y-108843600D01*
X128656600Y-109545600D01*
X128656600Y-109545600D01*
G37*
G36*
X134056600Y-109545600D02*
X132404600Y-109545600D01*
X132404600Y-108843600D01*
X134056600Y-108843600D01*
X134056600Y-109545600D01*
X134056600Y-109545600D01*
G37*
G36*
X204102562Y-106773181D02*
X204137477Y-106783773D01*
X204169665Y-106800978D01*
X204197873Y-106824127D01*
X204221022Y-106852335D01*
X204238227Y-106884523D01*
X204248819Y-106919438D01*
X204253000Y-106961895D01*
X204253000Y-108103105D01*
X204248819Y-108145562D01*
X204238227Y-108180477D01*
X204221022Y-108212665D01*
X204197873Y-108240873D01*
X204169665Y-108264022D01*
X204137477Y-108281227D01*
X204102562Y-108291819D01*
X204060105Y-108296000D01*
X202593895Y-108296000D01*
X202551438Y-108291819D01*
X202516523Y-108281227D01*
X202484335Y-108264022D01*
X202456127Y-108240873D01*
X202432978Y-108212665D01*
X202415773Y-108180477D01*
X202405181Y-108145562D01*
X202401000Y-108103105D01*
X202401000Y-106961895D01*
X202405181Y-106919438D01*
X202415773Y-106884523D01*
X202432978Y-106852335D01*
X202456127Y-106824127D01*
X202484335Y-106800978D01*
X202516523Y-106783773D01*
X202551438Y-106773181D01*
X202593895Y-106769000D01*
X204060105Y-106769000D01*
X204102562Y-106773181D01*
X204102562Y-106773181D01*
G37*
G36*
X134056600Y-108275600D02*
X132404600Y-108275600D01*
X132404600Y-107573600D01*
X134056600Y-107573600D01*
X134056600Y-108275600D01*
X134056600Y-108275600D01*
G37*
G36*
X128656600Y-108275600D02*
X127004600Y-108275600D01*
X127004600Y-107573600D01*
X128656600Y-107573600D01*
X128656600Y-108275600D01*
X128656600Y-108275600D01*
G37*
G36*
X207480249Y-106338181D02*
X207515164Y-106348773D01*
X207547352Y-106365978D01*
X207575560Y-106389127D01*
X207598709Y-106417335D01*
X207615914Y-106449523D01*
X207626506Y-106484438D01*
X207630687Y-106526895D01*
X207630687Y-107668105D01*
X207626506Y-107710562D01*
X207615914Y-107745477D01*
X207598709Y-107777665D01*
X207575560Y-107805873D01*
X207547352Y-107829022D01*
X207515164Y-107846227D01*
X207480249Y-107856819D01*
X207437792Y-107861000D01*
X205971582Y-107861000D01*
X205929125Y-107856819D01*
X205894210Y-107846227D01*
X205862022Y-107829022D01*
X205833814Y-107805873D01*
X205810665Y-107777665D01*
X205793460Y-107745477D01*
X205782868Y-107710562D01*
X205778687Y-107668105D01*
X205778687Y-106526895D01*
X205782868Y-106484438D01*
X205793460Y-106449523D01*
X205810665Y-106417335D01*
X205833814Y-106389127D01*
X205862022Y-106365978D01*
X205894210Y-106348773D01*
X205929125Y-106338181D01*
X205971582Y-106334000D01*
X207437792Y-106334000D01*
X207480249Y-106338181D01*
X207480249Y-106338181D01*
G37*
G36*
X121466164Y-105479108D02*
X121554620Y-105487820D01*
X121743781Y-105545201D01*
X121918112Y-105638383D01*
X122070915Y-105763785D01*
X122196317Y-105916588D01*
X122289499Y-106090919D01*
X122346880Y-106280080D01*
X122366255Y-106476800D01*
X122346880Y-106673520D01*
X122289499Y-106862681D01*
X122196317Y-107037012D01*
X122070915Y-107189815D01*
X121918112Y-107315217D01*
X121743781Y-107408399D01*
X121554620Y-107465780D01*
X121466164Y-107474492D01*
X121407196Y-107480300D01*
X121213604Y-107480300D01*
X121154636Y-107474492D01*
X121066180Y-107465780D01*
X120877019Y-107408399D01*
X120702688Y-107315217D01*
X120549885Y-107189815D01*
X120424483Y-107037012D01*
X120331301Y-106862681D01*
X120273920Y-106673520D01*
X120254545Y-106476800D01*
X120273920Y-106280080D01*
X120331301Y-106090919D01*
X120424483Y-105916588D01*
X120549885Y-105763785D01*
X120702688Y-105638383D01*
X120877019Y-105545201D01*
X121066180Y-105487820D01*
X121154636Y-105479108D01*
X121213604Y-105473300D01*
X121407196Y-105473300D01*
X121466164Y-105479108D01*
X121466164Y-105479108D01*
G37*
G36*
X213903000Y-107048500D02*
X211801000Y-107048500D01*
X211801000Y-105041500D01*
X213903000Y-105041500D01*
X213903000Y-107048500D01*
X213903000Y-107048500D01*
G37*
G36*
X204102562Y-103798181D02*
X204137477Y-103808773D01*
X204169665Y-103825978D01*
X204197873Y-103849127D01*
X204221022Y-103877335D01*
X204238227Y-103909523D01*
X204248819Y-103944438D01*
X204253000Y-103986895D01*
X204253000Y-105128105D01*
X204248819Y-105170562D01*
X204238227Y-105205477D01*
X204221022Y-105237665D01*
X204197873Y-105265873D01*
X204169665Y-105289022D01*
X204137477Y-105306227D01*
X204102562Y-105316819D01*
X204060105Y-105321000D01*
X202593895Y-105321000D01*
X202551438Y-105316819D01*
X202516523Y-105306227D01*
X202484335Y-105289022D01*
X202456127Y-105265873D01*
X202432978Y-105237665D01*
X202415773Y-105205477D01*
X202405181Y-105170562D01*
X202401000Y-105128105D01*
X202401000Y-103986895D01*
X202405181Y-103944438D01*
X202415773Y-103909523D01*
X202432978Y-103877335D01*
X202456127Y-103849127D01*
X202484335Y-103825978D01*
X202516523Y-103808773D01*
X202551438Y-103798181D01*
X202593895Y-103794000D01*
X204060105Y-103794000D01*
X204102562Y-103798181D01*
X204102562Y-103798181D01*
G37*
G36*
X145783053Y-102926481D02*
X145833920Y-102947551D01*
X145884786Y-102968620D01*
X145884787Y-102968621D01*
X145976345Y-103029798D01*
X146054202Y-103107655D01*
X146054204Y-103107658D01*
X146115380Y-103199214D01*
X146136449Y-103250080D01*
X146157519Y-103300947D01*
X146179000Y-103408942D01*
X146179000Y-103519058D01*
X146157519Y-103627053D01*
X146136449Y-103677920D01*
X146115380Y-103728786D01*
X146068365Y-103799148D01*
X146054202Y-103820345D01*
X145976345Y-103898202D01*
X145976342Y-103898204D01*
X145884786Y-103959380D01*
X145833920Y-103980449D01*
X145783053Y-104001519D01*
X145675058Y-104023000D01*
X145564942Y-104023000D01*
X145456947Y-104001519D01*
X145406080Y-103980449D01*
X145355214Y-103959380D01*
X145263658Y-103898204D01*
X145263655Y-103898202D01*
X145185798Y-103820345D01*
X145171635Y-103799148D01*
X145124620Y-103728786D01*
X145103551Y-103677920D01*
X145082481Y-103627053D01*
X145061000Y-103519058D01*
X145061000Y-103408942D01*
X145082481Y-103300947D01*
X145103551Y-103250080D01*
X145124620Y-103199214D01*
X145185796Y-103107658D01*
X145185798Y-103107655D01*
X145263655Y-103029798D01*
X145355213Y-102968621D01*
X145355214Y-102968620D01*
X145406080Y-102947551D01*
X145456947Y-102926481D01*
X145564942Y-102905000D01*
X145675058Y-102905000D01*
X145783053Y-102926481D01*
X145783053Y-102926481D01*
G37*
G36*
X161023053Y-102926481D02*
X161073920Y-102947551D01*
X161124786Y-102968620D01*
X161124787Y-102968621D01*
X161216345Y-103029798D01*
X161294202Y-103107655D01*
X161294204Y-103107658D01*
X161355380Y-103199214D01*
X161376449Y-103250080D01*
X161397519Y-103300947D01*
X161419000Y-103408942D01*
X161419000Y-103519058D01*
X161397519Y-103627053D01*
X161376449Y-103677920D01*
X161355380Y-103728786D01*
X161308365Y-103799148D01*
X161294202Y-103820345D01*
X161216345Y-103898202D01*
X161216342Y-103898204D01*
X161124786Y-103959380D01*
X161073920Y-103980449D01*
X161023053Y-104001519D01*
X160915058Y-104023000D01*
X160804942Y-104023000D01*
X160696947Y-104001519D01*
X160646080Y-103980449D01*
X160595214Y-103959380D01*
X160503658Y-103898204D01*
X160503655Y-103898202D01*
X160425798Y-103820345D01*
X160411635Y-103799148D01*
X160364620Y-103728786D01*
X160343551Y-103677920D01*
X160322481Y-103627053D01*
X160301000Y-103519058D01*
X160301000Y-103408942D01*
X160322481Y-103300947D01*
X160343551Y-103250080D01*
X160364620Y-103199214D01*
X160425796Y-103107658D01*
X160425798Y-103107655D01*
X160503655Y-103029798D01*
X160595213Y-102968621D01*
X160595214Y-102968620D01*
X160646080Y-102947551D01*
X160696947Y-102926481D01*
X160804942Y-102905000D01*
X160915058Y-102905000D01*
X161023053Y-102926481D01*
X161023053Y-102926481D01*
G37*
G36*
X138123562Y-102328181D02*
X138158477Y-102338773D01*
X138190665Y-102355978D01*
X138218873Y-102379127D01*
X138242022Y-102407335D01*
X138259227Y-102439523D01*
X138269819Y-102474438D01*
X138274000Y-102516895D01*
X138274000Y-103658105D01*
X138269819Y-103700562D01*
X138259227Y-103735477D01*
X138242022Y-103767665D01*
X138218873Y-103795873D01*
X138190665Y-103819022D01*
X138158477Y-103836227D01*
X138123562Y-103846819D01*
X138081105Y-103851000D01*
X136614895Y-103851000D01*
X136572438Y-103846819D01*
X136537523Y-103836227D01*
X136505335Y-103819022D01*
X136477127Y-103795873D01*
X136453978Y-103767665D01*
X136436773Y-103735477D01*
X136426181Y-103700562D01*
X136422000Y-103658105D01*
X136422000Y-102516895D01*
X136426181Y-102474438D01*
X136436773Y-102439523D01*
X136453978Y-102407335D01*
X136477127Y-102379127D01*
X136505335Y-102355978D01*
X136537523Y-102338773D01*
X136572438Y-102328181D01*
X136614895Y-102324000D01*
X138081105Y-102324000D01*
X138123562Y-102328181D01*
X138123562Y-102328181D01*
G37*
G36*
X161774600Y-101838600D02*
X159945400Y-101838600D01*
X159945400Y-100009400D01*
X161774600Y-100009400D01*
X161774600Y-101838600D01*
X161774600Y-101838600D01*
G37*
G36*
X145799294Y-100022633D02*
X145971694Y-100074931D01*
X145971696Y-100074932D01*
X146130583Y-100159859D01*
X146130585Y-100159860D01*
X146130584Y-100159860D01*
X146269849Y-100274151D01*
X146384140Y-100413416D01*
X146469069Y-100572306D01*
X146521367Y-100744706D01*
X146539025Y-100924000D01*
X146521367Y-101103294D01*
X146469069Y-101275694D01*
X146469068Y-101275696D01*
X146384141Y-101434583D01*
X146269849Y-101573849D01*
X146130583Y-101688141D01*
X145971696Y-101773068D01*
X145971694Y-101773069D01*
X145799294Y-101825367D01*
X145664931Y-101838600D01*
X145575069Y-101838600D01*
X145440706Y-101825367D01*
X145268306Y-101773069D01*
X145268304Y-101773068D01*
X145109417Y-101688141D01*
X144970151Y-101573849D01*
X144855859Y-101434583D01*
X144770932Y-101275696D01*
X144770931Y-101275694D01*
X144718633Y-101103294D01*
X144700975Y-100924000D01*
X144718633Y-100744706D01*
X144770931Y-100572306D01*
X144855860Y-100413416D01*
X144970151Y-100274151D01*
X145109416Y-100159860D01*
X145109415Y-100159860D01*
X145109417Y-100159859D01*
X145268304Y-100074932D01*
X145268306Y-100074931D01*
X145440706Y-100022633D01*
X145575069Y-100009400D01*
X145664931Y-100009400D01*
X145799294Y-100022633D01*
X145799294Y-100022633D01*
G37*
G36*
X138123562Y-99353181D02*
X138158477Y-99363773D01*
X138190665Y-99380978D01*
X138218873Y-99404127D01*
X138242022Y-99432335D01*
X138259227Y-99464523D01*
X138269819Y-99499438D01*
X138274000Y-99541895D01*
X138274000Y-100683105D01*
X138269819Y-100725562D01*
X138259227Y-100760477D01*
X138242022Y-100792665D01*
X138218873Y-100820873D01*
X138190665Y-100844022D01*
X138158477Y-100861227D01*
X138123562Y-100871819D01*
X138081105Y-100876000D01*
X136614895Y-100876000D01*
X136572438Y-100871819D01*
X136537523Y-100861227D01*
X136505335Y-100844022D01*
X136477127Y-100820873D01*
X136453978Y-100792665D01*
X136436773Y-100760477D01*
X136426181Y-100725562D01*
X136422000Y-100683105D01*
X136422000Y-99541895D01*
X136426181Y-99499438D01*
X136436773Y-99464523D01*
X136453978Y-99432335D01*
X136477127Y-99404127D01*
X136505335Y-99380978D01*
X136537523Y-99363773D01*
X136572438Y-99353181D01*
X136614895Y-99349000D01*
X138081105Y-99349000D01*
X138123562Y-99353181D01*
X138123562Y-99353181D01*
G37*
G36*
X213007764Y-98062308D02*
X213096220Y-98071020D01*
X213285381Y-98128401D01*
X213459712Y-98221583D01*
X213612515Y-98346985D01*
X213737917Y-98499788D01*
X213831099Y-98674119D01*
X213888480Y-98863280D01*
X213907855Y-99060000D01*
X213888480Y-99256720D01*
X213831099Y-99445881D01*
X213737917Y-99620212D01*
X213612515Y-99773015D01*
X213459712Y-99898417D01*
X213285381Y-99991599D01*
X213096220Y-100048980D01*
X213007764Y-100057692D01*
X212948796Y-100063500D01*
X212755204Y-100063500D01*
X212696236Y-100057692D01*
X212607780Y-100048980D01*
X212418619Y-99991599D01*
X212244288Y-99898417D01*
X212091485Y-99773015D01*
X211966083Y-99620212D01*
X211872901Y-99445881D01*
X211815520Y-99256720D01*
X211796145Y-99060000D01*
X211815520Y-98863280D01*
X211872901Y-98674119D01*
X211966083Y-98499788D01*
X212091485Y-98346985D01*
X212244288Y-98221583D01*
X212418619Y-98128401D01*
X212607780Y-98071020D01*
X212696236Y-98062308D01*
X212755204Y-98056500D01*
X212948796Y-98056500D01*
X213007764Y-98062308D01*
X213007764Y-98062308D01*
G37*
G36*
X161039294Y-97482633D02*
X161211694Y-97534931D01*
X161211696Y-97534932D01*
X161370583Y-97619859D01*
X161509849Y-97734151D01*
X161624141Y-97873417D01*
X161679519Y-97977022D01*
X161709069Y-98032306D01*
X161761367Y-98204706D01*
X161779025Y-98384000D01*
X161761367Y-98563294D01*
X161709069Y-98735694D01*
X161709068Y-98735696D01*
X161624141Y-98894583D01*
X161509849Y-99033849D01*
X161370583Y-99148141D01*
X161211696Y-99233068D01*
X161211694Y-99233069D01*
X161039294Y-99285367D01*
X160904931Y-99298600D01*
X160815069Y-99298600D01*
X160680706Y-99285367D01*
X160508306Y-99233069D01*
X160508304Y-99233068D01*
X160349417Y-99148141D01*
X160210151Y-99033849D01*
X160095859Y-98894583D01*
X160010932Y-98735696D01*
X160010931Y-98735694D01*
X159958633Y-98563294D01*
X159940975Y-98384000D01*
X159958633Y-98204706D01*
X160010931Y-98032306D01*
X160040481Y-97977022D01*
X160095859Y-97873417D01*
X160210151Y-97734151D01*
X160349417Y-97619859D01*
X160508304Y-97534932D01*
X160508306Y-97534931D01*
X160680706Y-97482633D01*
X160815069Y-97469400D01*
X160904931Y-97469400D01*
X161039294Y-97482633D01*
X161039294Y-97482633D01*
G37*
G36*
X145799294Y-97482633D02*
X145971694Y-97534931D01*
X145971696Y-97534932D01*
X146130583Y-97619859D01*
X146269849Y-97734151D01*
X146384141Y-97873417D01*
X146439519Y-97977022D01*
X146469069Y-98032306D01*
X146521367Y-98204706D01*
X146539025Y-98384000D01*
X146521367Y-98563294D01*
X146469069Y-98735694D01*
X146469068Y-98735696D01*
X146384141Y-98894583D01*
X146269849Y-99033849D01*
X146130583Y-99148141D01*
X145971696Y-99233068D01*
X145971694Y-99233069D01*
X145799294Y-99285367D01*
X145664931Y-99298600D01*
X145575069Y-99298600D01*
X145440706Y-99285367D01*
X145268306Y-99233069D01*
X145268304Y-99233068D01*
X145109417Y-99148141D01*
X144970151Y-99033849D01*
X144855859Y-98894583D01*
X144770932Y-98735696D01*
X144770931Y-98735694D01*
X144718633Y-98563294D01*
X144700975Y-98384000D01*
X144718633Y-98204706D01*
X144770931Y-98032306D01*
X144800481Y-97977022D01*
X144855859Y-97873417D01*
X144970151Y-97734151D01*
X145109417Y-97619859D01*
X145268304Y-97534932D01*
X145268306Y-97534931D01*
X145440706Y-97482633D01*
X145575069Y-97469400D01*
X145664931Y-97469400D01*
X145799294Y-97482633D01*
X145799294Y-97482633D01*
G37*
G36*
X200607562Y-97560181D02*
X200642477Y-97570773D01*
X200674665Y-97587978D01*
X200702873Y-97611127D01*
X200726022Y-97639335D01*
X200743227Y-97671523D01*
X200753819Y-97706438D01*
X200758000Y-97748895D01*
X200758000Y-98890105D01*
X200753819Y-98932562D01*
X200743227Y-98967477D01*
X200726022Y-98999665D01*
X200702873Y-99027873D01*
X200674665Y-99051022D01*
X200642477Y-99068227D01*
X200607562Y-99078819D01*
X200565105Y-99083000D01*
X199098895Y-99083000D01*
X199056438Y-99078819D01*
X199021523Y-99068227D01*
X198989335Y-99051022D01*
X198961127Y-99027873D01*
X198937978Y-98999665D01*
X198920773Y-98967477D01*
X198910181Y-98932562D01*
X198906000Y-98890105D01*
X198906000Y-97748895D01*
X198910181Y-97706438D01*
X198920773Y-97671523D01*
X198937978Y-97639335D01*
X198961127Y-97611127D01*
X198989335Y-97587978D01*
X199021523Y-97570773D01*
X199056438Y-97560181D01*
X199098895Y-97556000D01*
X200565105Y-97556000D01*
X200607562Y-97560181D01*
X200607562Y-97560181D01*
G37*
G36*
X122463000Y-98641100D02*
X120361000Y-98641100D01*
X120361000Y-96634100D01*
X122463000Y-96634100D01*
X122463000Y-98641100D01*
X122463000Y-98641100D01*
G37*
G36*
X128601062Y-96486181D02*
X128635977Y-96496773D01*
X128668165Y-96513978D01*
X128696373Y-96537127D01*
X128719522Y-96565335D01*
X128736727Y-96597523D01*
X128747319Y-96632438D01*
X128751500Y-96674895D01*
X128751500Y-97816105D01*
X128747319Y-97858562D01*
X128736727Y-97893477D01*
X128719522Y-97925665D01*
X128696373Y-97953873D01*
X128668165Y-97977022D01*
X128635977Y-97994227D01*
X128601062Y-98004819D01*
X128558605Y-98009000D01*
X127092395Y-98009000D01*
X127049938Y-98004819D01*
X127015023Y-97994227D01*
X126982835Y-97977022D01*
X126954627Y-97953873D01*
X126931478Y-97925665D01*
X126914273Y-97893477D01*
X126903681Y-97858562D01*
X126899500Y-97816105D01*
X126899500Y-96674895D01*
X126903681Y-96632438D01*
X126914273Y-96597523D01*
X126931478Y-96565335D01*
X126954627Y-96537127D01*
X126982835Y-96513978D01*
X127015023Y-96496773D01*
X127049938Y-96486181D01*
X127092395Y-96482000D01*
X128558605Y-96482000D01*
X128601062Y-96486181D01*
X128601062Y-96486181D01*
G37*
G36*
X132516001Y-97543001D02*
X131414001Y-97543001D01*
X131414001Y-96441001D01*
X132516001Y-96441001D01*
X132516001Y-97543001D01*
X132516001Y-97543001D01*
G37*
G36*
X138816001Y-97543001D02*
X137714001Y-97543001D01*
X137714001Y-96441001D01*
X138816001Y-96441001D01*
X138816001Y-97543001D01*
X138816001Y-97543001D01*
G37*
G36*
X135666001Y-97543001D02*
X134564001Y-97543001D01*
X134564001Y-96441001D01*
X135666001Y-96441001D01*
X135666001Y-97543001D01*
X135666001Y-97543001D01*
G37*
G36*
X213007764Y-95522308D02*
X213096220Y-95531020D01*
X213285381Y-95588401D01*
X213459712Y-95681583D01*
X213612515Y-95806985D01*
X213737917Y-95959788D01*
X213831099Y-96134119D01*
X213888480Y-96323280D01*
X213907855Y-96520000D01*
X213888480Y-96716720D01*
X213831099Y-96905881D01*
X213737917Y-97080212D01*
X213612515Y-97233015D01*
X213459712Y-97358417D01*
X213285381Y-97451599D01*
X213096220Y-97508980D01*
X213007764Y-97517692D01*
X212948796Y-97523500D01*
X212755204Y-97523500D01*
X212696236Y-97517692D01*
X212607780Y-97508980D01*
X212418619Y-97451599D01*
X212244288Y-97358417D01*
X212091485Y-97233015D01*
X211966083Y-97080212D01*
X211872901Y-96905881D01*
X211815520Y-96716720D01*
X211796145Y-96520000D01*
X211815520Y-96323280D01*
X211872901Y-96134119D01*
X211966083Y-95959788D01*
X212091485Y-95806985D01*
X212244288Y-95681583D01*
X212418619Y-95588401D01*
X212607780Y-95531020D01*
X212696236Y-95522308D01*
X212755204Y-95516500D01*
X212948796Y-95516500D01*
X213007764Y-95522308D01*
X213007764Y-95522308D01*
G37*
G36*
X207277562Y-95978181D02*
X207312477Y-95988773D01*
X207344665Y-96005978D01*
X207372873Y-96029127D01*
X207396022Y-96057335D01*
X207413227Y-96089523D01*
X207423819Y-96124438D01*
X207428000Y-96166895D01*
X207428000Y-97308105D01*
X207423819Y-97350562D01*
X207413227Y-97385477D01*
X207396022Y-97417665D01*
X207372873Y-97445873D01*
X207344665Y-97469022D01*
X207312477Y-97486227D01*
X207277562Y-97496819D01*
X207235105Y-97501000D01*
X205768895Y-97501000D01*
X205726438Y-97496819D01*
X205691523Y-97486227D01*
X205659335Y-97469022D01*
X205631127Y-97445873D01*
X205607978Y-97417665D01*
X205590773Y-97385477D01*
X205580181Y-97350562D01*
X205576000Y-97308105D01*
X205576000Y-96166895D01*
X205580181Y-96124438D01*
X205590773Y-96089523D01*
X205607978Y-96057335D01*
X205631127Y-96029127D01*
X205659335Y-96005978D01*
X205691523Y-95988773D01*
X205726438Y-95978181D01*
X205768895Y-95974000D01*
X207235105Y-95974000D01*
X207277562Y-95978181D01*
X207277562Y-95978181D01*
G37*
G36*
X167615562Y-95090181D02*
X167650477Y-95100773D01*
X167682665Y-95117978D01*
X167710873Y-95141127D01*
X167734022Y-95169335D01*
X167751227Y-95201523D01*
X167761819Y-95236438D01*
X167766000Y-95278895D01*
X167766000Y-96745105D01*
X167761819Y-96787562D01*
X167751227Y-96822477D01*
X167734022Y-96854665D01*
X167710873Y-96882873D01*
X167682665Y-96906022D01*
X167650477Y-96923227D01*
X167615562Y-96933819D01*
X167573105Y-96938000D01*
X166431895Y-96938000D01*
X166389438Y-96933819D01*
X166354523Y-96923227D01*
X166322335Y-96906022D01*
X166294127Y-96882873D01*
X166270978Y-96854665D01*
X166253773Y-96822477D01*
X166243181Y-96787562D01*
X166239000Y-96745105D01*
X166239000Y-95278895D01*
X166243181Y-95236438D01*
X166253773Y-95201523D01*
X166270978Y-95169335D01*
X166294127Y-95141127D01*
X166322335Y-95117978D01*
X166354523Y-95100773D01*
X166389438Y-95090181D01*
X166431895Y-95086000D01*
X167573105Y-95086000D01*
X167615562Y-95090181D01*
X167615562Y-95090181D01*
G37*
G36*
X170590562Y-95090181D02*
X170625477Y-95100773D01*
X170657665Y-95117978D01*
X170685873Y-95141127D01*
X170709022Y-95169335D01*
X170726227Y-95201523D01*
X170736819Y-95236438D01*
X170741000Y-95278895D01*
X170741000Y-96745105D01*
X170736819Y-96787562D01*
X170726227Y-96822477D01*
X170709022Y-96854665D01*
X170685873Y-96882873D01*
X170657665Y-96906022D01*
X170625477Y-96923227D01*
X170590562Y-96933819D01*
X170548105Y-96938000D01*
X169406895Y-96938000D01*
X169364438Y-96933819D01*
X169329523Y-96923227D01*
X169297335Y-96906022D01*
X169269127Y-96882873D01*
X169245978Y-96854665D01*
X169228773Y-96822477D01*
X169218181Y-96787562D01*
X169214000Y-96745105D01*
X169214000Y-95278895D01*
X169218181Y-95236438D01*
X169228773Y-95201523D01*
X169245978Y-95169335D01*
X169269127Y-95141127D01*
X169297335Y-95117978D01*
X169329523Y-95100773D01*
X169364438Y-95090181D01*
X169406895Y-95086000D01*
X170548105Y-95086000D01*
X170590562Y-95090181D01*
X170590562Y-95090181D01*
G37*
G36*
X161039294Y-94942633D02*
X161211694Y-94994931D01*
X161211696Y-94994932D01*
X161370583Y-95079859D01*
X161509849Y-95194151D01*
X161624141Y-95333417D01*
X161704352Y-95483481D01*
X161709069Y-95492306D01*
X161761367Y-95664706D01*
X161779025Y-95844000D01*
X161761367Y-96023294D01*
X161726153Y-96139376D01*
X161709068Y-96195696D01*
X161624141Y-96354583D01*
X161509849Y-96493849D01*
X161370583Y-96608141D01*
X161245695Y-96674895D01*
X161211694Y-96693069D01*
X161039294Y-96745367D01*
X160904931Y-96758600D01*
X160815069Y-96758600D01*
X160680706Y-96745367D01*
X160508306Y-96693069D01*
X160474305Y-96674895D01*
X160349417Y-96608141D01*
X160210151Y-96493849D01*
X160095859Y-96354583D01*
X160010932Y-96195696D01*
X159993847Y-96139376D01*
X159958633Y-96023294D01*
X159940975Y-95844000D01*
X159958633Y-95664706D01*
X160010931Y-95492306D01*
X160015648Y-95483481D01*
X160095859Y-95333417D01*
X160210151Y-95194151D01*
X160349417Y-95079859D01*
X160508304Y-94994932D01*
X160508306Y-94994931D01*
X160680706Y-94942633D01*
X160815069Y-94929400D01*
X160904931Y-94929400D01*
X161039294Y-94942633D01*
X161039294Y-94942633D01*
G37*
G36*
X145799294Y-94942633D02*
X145971694Y-94994931D01*
X145971696Y-94994932D01*
X146130583Y-95079859D01*
X146269849Y-95194151D01*
X146384141Y-95333417D01*
X146464352Y-95483481D01*
X146469069Y-95492306D01*
X146521367Y-95664706D01*
X146539025Y-95844000D01*
X146521367Y-96023294D01*
X146486153Y-96139376D01*
X146469068Y-96195696D01*
X146384141Y-96354583D01*
X146269849Y-96493849D01*
X146130583Y-96608141D01*
X146005695Y-96674895D01*
X145971694Y-96693069D01*
X145799294Y-96745367D01*
X145664931Y-96758600D01*
X145575069Y-96758600D01*
X145440706Y-96745367D01*
X145268306Y-96693069D01*
X145234305Y-96674895D01*
X145109417Y-96608141D01*
X144970151Y-96493849D01*
X144855859Y-96354583D01*
X144770932Y-96195696D01*
X144753847Y-96139376D01*
X144718633Y-96023294D01*
X144700975Y-95844000D01*
X144718633Y-95664706D01*
X144770931Y-95492306D01*
X144775648Y-95483481D01*
X144855859Y-95333417D01*
X144970151Y-95194151D01*
X145109417Y-95079859D01*
X145268304Y-94994932D01*
X145268306Y-94994931D01*
X145440706Y-94942633D01*
X145575069Y-94929400D01*
X145664931Y-94929400D01*
X145799294Y-94942633D01*
X145799294Y-94942633D01*
G37*
G36*
X200607562Y-94585181D02*
X200642477Y-94595773D01*
X200674665Y-94612978D01*
X200702873Y-94636127D01*
X200726022Y-94664335D01*
X200743227Y-94696523D01*
X200753819Y-94731438D01*
X200758000Y-94773895D01*
X200758000Y-95915105D01*
X200753819Y-95957562D01*
X200743227Y-95992477D01*
X200726022Y-96024665D01*
X200702873Y-96052873D01*
X200674665Y-96076022D01*
X200642477Y-96093227D01*
X200607562Y-96103819D01*
X200565105Y-96108000D01*
X199098895Y-96108000D01*
X199056438Y-96103819D01*
X199021523Y-96093227D01*
X198989335Y-96076022D01*
X198961127Y-96052873D01*
X198937978Y-96024665D01*
X198920773Y-95992477D01*
X198910181Y-95957562D01*
X198906000Y-95915105D01*
X198906000Y-94773895D01*
X198910181Y-94731438D01*
X198920773Y-94696523D01*
X198937978Y-94664335D01*
X198961127Y-94636127D01*
X198989335Y-94612978D01*
X199021523Y-94595773D01*
X199056438Y-94585181D01*
X199098895Y-94581000D01*
X200565105Y-94581000D01*
X200607562Y-94585181D01*
X200607562Y-94585181D01*
G37*
G36*
X121567764Y-94099908D02*
X121656220Y-94108620D01*
X121845381Y-94166001D01*
X122019712Y-94259183D01*
X122172515Y-94384585D01*
X122297917Y-94537388D01*
X122391099Y-94711719D01*
X122448480Y-94900880D01*
X122467855Y-95097600D01*
X122448480Y-95294320D01*
X122391099Y-95483481D01*
X122297917Y-95657812D01*
X122172515Y-95810615D01*
X122019712Y-95936017D01*
X121845381Y-96029199D01*
X121656220Y-96086580D01*
X121567764Y-96095292D01*
X121508796Y-96101100D01*
X121315204Y-96101100D01*
X121256236Y-96095292D01*
X121167780Y-96086580D01*
X120978619Y-96029199D01*
X120804288Y-95936017D01*
X120651485Y-95810615D01*
X120526083Y-95657812D01*
X120432901Y-95483481D01*
X120375520Y-95294320D01*
X120356145Y-95097600D01*
X120375520Y-94900880D01*
X120432901Y-94711719D01*
X120526083Y-94537388D01*
X120651485Y-94384585D01*
X120804288Y-94259183D01*
X120978619Y-94166001D01*
X121167780Y-94108620D01*
X121256236Y-94099908D01*
X121315204Y-94094100D01*
X121508796Y-94094100D01*
X121567764Y-94099908D01*
X121567764Y-94099908D01*
G37*
G36*
X135666001Y-95193001D02*
X134564001Y-95193001D01*
X134564001Y-94091001D01*
X135666001Y-94091001D01*
X135666001Y-95193001D01*
X135666001Y-95193001D01*
G37*
G36*
X132516001Y-95193001D02*
X131414001Y-95193001D01*
X131414001Y-94091001D01*
X132516001Y-94091001D01*
X132516001Y-95193001D01*
X132516001Y-95193001D01*
G37*
G36*
X138816001Y-95193001D02*
X137714001Y-95193001D01*
X137714001Y-94091001D01*
X138816001Y-94091001D01*
X138816001Y-95193001D01*
X138816001Y-95193001D01*
G37*
G36*
X128601062Y-93511181D02*
X128635977Y-93521773D01*
X128668165Y-93538978D01*
X128696373Y-93562127D01*
X128719522Y-93590335D01*
X128736727Y-93622523D01*
X128747319Y-93657438D01*
X128751500Y-93699895D01*
X128751500Y-94841105D01*
X128747319Y-94883562D01*
X128736727Y-94918477D01*
X128719522Y-94950665D01*
X128696373Y-94978873D01*
X128668165Y-95002022D01*
X128635977Y-95019227D01*
X128601062Y-95029819D01*
X128558605Y-95034000D01*
X127092395Y-95034000D01*
X127049938Y-95029819D01*
X127015023Y-95019227D01*
X126982835Y-95002022D01*
X126954627Y-94978873D01*
X126931478Y-94950665D01*
X126914273Y-94918477D01*
X126903681Y-94883562D01*
X126899500Y-94841105D01*
X126899500Y-93699895D01*
X126903681Y-93657438D01*
X126914273Y-93622523D01*
X126931478Y-93590335D01*
X126954627Y-93562127D01*
X126982835Y-93538978D01*
X127015023Y-93521773D01*
X127049938Y-93511181D01*
X127092395Y-93507000D01*
X128558605Y-93507000D01*
X128601062Y-93511181D01*
X128601062Y-93511181D01*
G37*
G36*
X213903000Y-94983500D02*
X211801000Y-94983500D01*
X211801000Y-92976500D01*
X213903000Y-92976500D01*
X213903000Y-94983500D01*
X213903000Y-94983500D01*
G37*
G36*
X207277562Y-93003181D02*
X207312477Y-93013773D01*
X207344665Y-93030978D01*
X207372873Y-93054127D01*
X207396022Y-93082335D01*
X207413227Y-93114523D01*
X207423819Y-93149438D01*
X207428000Y-93191895D01*
X207428000Y-94333105D01*
X207423819Y-94375562D01*
X207413227Y-94410477D01*
X207396022Y-94442665D01*
X207372873Y-94470873D01*
X207344665Y-94494022D01*
X207312477Y-94511227D01*
X207277562Y-94521819D01*
X207235105Y-94526000D01*
X205768895Y-94526000D01*
X205726438Y-94521819D01*
X205691523Y-94511227D01*
X205659335Y-94494022D01*
X205631127Y-94470873D01*
X205607978Y-94442665D01*
X205590773Y-94410477D01*
X205580181Y-94375562D01*
X205576000Y-94333105D01*
X205576000Y-93191895D01*
X205580181Y-93149438D01*
X205590773Y-93114523D01*
X205607978Y-93082335D01*
X205631127Y-93054127D01*
X205659335Y-93030978D01*
X205691523Y-93013773D01*
X205726438Y-93003181D01*
X205768895Y-92999000D01*
X207235105Y-92999000D01*
X207277562Y-93003181D01*
X207277562Y-93003181D01*
G37*
G36*
X161039294Y-92402633D02*
X161211694Y-92454931D01*
X161211696Y-92454932D01*
X161370583Y-92539859D01*
X161509849Y-92654151D01*
X161624141Y-92793417D01*
X161687722Y-92912369D01*
X161709069Y-92952306D01*
X161761367Y-93124706D01*
X161779025Y-93304000D01*
X161761367Y-93483294D01*
X161718058Y-93626061D01*
X161709068Y-93655696D01*
X161624141Y-93814583D01*
X161509849Y-93953849D01*
X161370583Y-94068141D01*
X161322017Y-94094100D01*
X161211694Y-94153069D01*
X161039294Y-94205367D01*
X160904931Y-94218600D01*
X160815069Y-94218600D01*
X160680706Y-94205367D01*
X160508306Y-94153069D01*
X160397983Y-94094100D01*
X160349417Y-94068141D01*
X160210151Y-93953849D01*
X160095859Y-93814583D01*
X160010932Y-93655696D01*
X160001942Y-93626061D01*
X159958633Y-93483294D01*
X159940975Y-93304000D01*
X159958633Y-93124706D01*
X160010931Y-92952306D01*
X160032278Y-92912369D01*
X160095859Y-92793417D01*
X160210151Y-92654151D01*
X160349417Y-92539859D01*
X160508304Y-92454932D01*
X160508306Y-92454931D01*
X160680706Y-92402633D01*
X160815069Y-92389400D01*
X160904931Y-92389400D01*
X161039294Y-92402633D01*
X161039294Y-92402633D01*
G37*
G36*
X145799294Y-92402633D02*
X145971694Y-92454931D01*
X145971696Y-92454932D01*
X146130583Y-92539859D01*
X146269849Y-92654151D01*
X146384141Y-92793417D01*
X146447722Y-92912369D01*
X146469069Y-92952306D01*
X146521367Y-93124706D01*
X146539025Y-93304000D01*
X146521367Y-93483294D01*
X146478058Y-93626061D01*
X146469068Y-93655696D01*
X146384141Y-93814583D01*
X146269849Y-93953849D01*
X146130583Y-94068141D01*
X146082017Y-94094100D01*
X145971694Y-94153069D01*
X145799294Y-94205367D01*
X145664931Y-94218600D01*
X145575069Y-94218600D01*
X145440706Y-94205367D01*
X145268306Y-94153069D01*
X145157983Y-94094100D01*
X145109417Y-94068141D01*
X144970151Y-93953849D01*
X144855859Y-93814583D01*
X144770932Y-93655696D01*
X144761942Y-93626061D01*
X144718633Y-93483294D01*
X144700975Y-93304000D01*
X144718633Y-93124706D01*
X144770931Y-92952306D01*
X144792278Y-92912369D01*
X144855859Y-92793417D01*
X144970151Y-92654151D01*
X145109417Y-92539859D01*
X145268304Y-92454932D01*
X145268306Y-92454931D01*
X145440706Y-92402633D01*
X145575069Y-92389400D01*
X145664931Y-92389400D01*
X145799294Y-92402633D01*
X145799294Y-92402633D01*
G37*
G36*
X121567764Y-91559908D02*
X121656220Y-91568620D01*
X121845381Y-91626001D01*
X122019712Y-91719183D01*
X122172515Y-91844585D01*
X122297917Y-91997388D01*
X122391099Y-92171719D01*
X122448480Y-92360880D01*
X122467855Y-92557600D01*
X122448480Y-92754320D01*
X122391099Y-92943481D01*
X122297917Y-93117812D01*
X122172515Y-93270615D01*
X122019712Y-93396017D01*
X121845381Y-93489199D01*
X121656220Y-93546580D01*
X121567764Y-93555292D01*
X121508796Y-93561100D01*
X121315204Y-93561100D01*
X121256236Y-93555292D01*
X121167780Y-93546580D01*
X120978619Y-93489199D01*
X120804288Y-93396017D01*
X120651485Y-93270615D01*
X120526083Y-93117812D01*
X120432901Y-92943481D01*
X120375520Y-92754320D01*
X120356145Y-92557600D01*
X120375520Y-92360880D01*
X120432901Y-92171719D01*
X120526083Y-91997388D01*
X120651485Y-91844585D01*
X120804288Y-91719183D01*
X120978619Y-91626001D01*
X121167780Y-91568620D01*
X121256236Y-91559908D01*
X121315204Y-91554100D01*
X121508796Y-91554100D01*
X121567764Y-91559908D01*
X121567764Y-91559908D01*
G37*
G36*
X170502562Y-91280181D02*
X170537477Y-91290773D01*
X170569665Y-91307978D01*
X170597873Y-91331127D01*
X170621022Y-91359335D01*
X170638227Y-91391523D01*
X170648819Y-91426438D01*
X170653000Y-91468895D01*
X170653000Y-92935105D01*
X170648819Y-92977562D01*
X170638227Y-93012477D01*
X170621022Y-93044665D01*
X170597873Y-93072873D01*
X170569665Y-93096022D01*
X170537477Y-93113227D01*
X170502562Y-93123819D01*
X170460105Y-93128000D01*
X169318895Y-93128000D01*
X169276438Y-93123819D01*
X169241523Y-93113227D01*
X169209335Y-93096022D01*
X169181127Y-93072873D01*
X169157978Y-93044665D01*
X169140773Y-93012477D01*
X169130181Y-92977562D01*
X169126000Y-92935105D01*
X169126000Y-91468895D01*
X169130181Y-91426438D01*
X169140773Y-91391523D01*
X169157978Y-91359335D01*
X169181127Y-91331127D01*
X169209335Y-91307978D01*
X169241523Y-91290773D01*
X169276438Y-91280181D01*
X169318895Y-91276000D01*
X170460105Y-91276000D01*
X170502562Y-91280181D01*
X170502562Y-91280181D01*
G37*
G36*
X167527562Y-91280181D02*
X167562477Y-91290773D01*
X167594665Y-91307978D01*
X167622873Y-91331127D01*
X167646022Y-91359335D01*
X167663227Y-91391523D01*
X167673819Y-91426438D01*
X167678000Y-91468895D01*
X167678000Y-92935105D01*
X167673819Y-92977562D01*
X167663227Y-93012477D01*
X167646022Y-93044665D01*
X167622873Y-93072873D01*
X167594665Y-93096022D01*
X167562477Y-93113227D01*
X167527562Y-93123819D01*
X167485105Y-93128000D01*
X166343895Y-93128000D01*
X166301438Y-93123819D01*
X166266523Y-93113227D01*
X166234335Y-93096022D01*
X166206127Y-93072873D01*
X166182978Y-93044665D01*
X166165773Y-93012477D01*
X166155181Y-92977562D01*
X166151000Y-92935105D01*
X166151000Y-91468895D01*
X166155181Y-91426438D01*
X166165773Y-91391523D01*
X166182978Y-91359335D01*
X166206127Y-91331127D01*
X166234335Y-91307978D01*
X166266523Y-91290773D01*
X166301438Y-91280181D01*
X166343895Y-91276000D01*
X167485105Y-91276000D01*
X167527562Y-91280181D01*
X167527562Y-91280181D01*
G37*
G36*
X132516001Y-92843001D02*
X131414001Y-92843001D01*
X131414001Y-91741001D01*
X132516001Y-91741001D01*
X132516001Y-92843001D01*
X132516001Y-92843001D01*
G37*
G36*
X135666001Y-92843001D02*
X134564001Y-92843001D01*
X134564001Y-91741001D01*
X135666001Y-91741001D01*
X135666001Y-92843001D01*
X135666001Y-92843001D01*
G37*
G36*
X138816001Y-92843001D02*
X137714001Y-92843001D01*
X137714001Y-91741001D01*
X138816001Y-91741001D01*
X138816001Y-92843001D01*
X138816001Y-92843001D01*
G37*
G36*
X145799294Y-89862633D02*
X145971694Y-89914931D01*
X145971696Y-89914932D01*
X146130583Y-89999859D01*
X146269849Y-90114151D01*
X146384141Y-90253417D01*
X146422290Y-90324789D01*
X146469069Y-90412306D01*
X146521367Y-90584706D01*
X146539025Y-90764000D01*
X146521367Y-90943294D01*
X146469069Y-91115694D01*
X146469068Y-91115696D01*
X146384141Y-91274583D01*
X146269849Y-91413849D01*
X146130583Y-91528141D01*
X146101109Y-91543895D01*
X145971694Y-91613069D01*
X145799294Y-91665367D01*
X145664931Y-91678600D01*
X145575069Y-91678600D01*
X145440706Y-91665367D01*
X145268306Y-91613069D01*
X145138891Y-91543895D01*
X145109417Y-91528141D01*
X144970151Y-91413849D01*
X144855859Y-91274583D01*
X144770932Y-91115696D01*
X144770931Y-91115694D01*
X144718633Y-90943294D01*
X144700975Y-90764000D01*
X144718633Y-90584706D01*
X144770931Y-90412306D01*
X144817710Y-90324789D01*
X144855859Y-90253417D01*
X144970151Y-90114151D01*
X145109417Y-89999859D01*
X145268304Y-89914932D01*
X145268306Y-89914931D01*
X145440706Y-89862633D01*
X145575069Y-89849400D01*
X145664931Y-89849400D01*
X145799294Y-89862633D01*
X145799294Y-89862633D01*
G37*
G36*
X161039294Y-89862633D02*
X161211694Y-89914931D01*
X161211696Y-89914932D01*
X161370583Y-89999859D01*
X161509849Y-90114151D01*
X161624141Y-90253417D01*
X161662290Y-90324789D01*
X161709069Y-90412306D01*
X161761367Y-90584706D01*
X161779025Y-90764000D01*
X161761367Y-90943294D01*
X161709069Y-91115694D01*
X161709068Y-91115696D01*
X161624141Y-91274583D01*
X161509849Y-91413849D01*
X161370583Y-91528141D01*
X161341109Y-91543895D01*
X161211694Y-91613069D01*
X161039294Y-91665367D01*
X160904931Y-91678600D01*
X160815069Y-91678600D01*
X160680706Y-91665367D01*
X160508306Y-91613069D01*
X160378891Y-91543895D01*
X160349417Y-91528141D01*
X160210151Y-91413849D01*
X160095859Y-91274583D01*
X160010932Y-91115696D01*
X160010931Y-91115694D01*
X159958633Y-90943294D01*
X159940975Y-90764000D01*
X159958633Y-90584706D01*
X160010931Y-90412306D01*
X160057710Y-90324789D01*
X160095859Y-90253417D01*
X160210151Y-90114151D01*
X160349417Y-89999859D01*
X160508304Y-89914932D01*
X160508306Y-89914931D01*
X160680706Y-89862633D01*
X160815069Y-89849400D01*
X160904931Y-89849400D01*
X161039294Y-89862633D01*
X161039294Y-89862633D01*
G37*
G36*
X200790001Y-90685001D02*
X199688001Y-90685001D01*
X199688001Y-89583001D01*
X200790001Y-89583001D01*
X200790001Y-90685001D01*
X200790001Y-90685001D01*
G37*
G36*
X207090001Y-90685001D02*
X205988001Y-90685001D01*
X205988001Y-89583001D01*
X207090001Y-89583001D01*
X207090001Y-90685001D01*
X207090001Y-90685001D01*
G37*
G36*
X203940001Y-90685001D02*
X202838001Y-90685001D01*
X202838001Y-89583001D01*
X203940001Y-89583001D01*
X203940001Y-90685001D01*
X203940001Y-90685001D01*
G37*
G36*
X197640001Y-90685001D02*
X196538001Y-90685001D01*
X196538001Y-89583001D01*
X197640001Y-89583001D01*
X197640001Y-90685001D01*
X197640001Y-90685001D01*
G37*
G36*
X115281331Y-86861211D02*
X115609092Y-86996974D01*
X115904073Y-87194074D01*
X116154926Y-87444927D01*
X116352026Y-87739908D01*
X116487789Y-88067669D01*
X116557000Y-88415616D01*
X116557000Y-88770384D01*
X116487789Y-89118331D01*
X116352026Y-89446092D01*
X116154926Y-89741073D01*
X115904073Y-89991926D01*
X115609092Y-90189026D01*
X115281331Y-90324789D01*
X114933384Y-90394000D01*
X114578616Y-90394000D01*
X114230669Y-90324789D01*
X113902908Y-90189026D01*
X113607927Y-89991926D01*
X113357074Y-89741073D01*
X113159974Y-89446092D01*
X113024211Y-89118331D01*
X112955000Y-88770384D01*
X112955000Y-88415616D01*
X113024211Y-88067669D01*
X113159974Y-87739908D01*
X113357074Y-87444927D01*
X113607927Y-87194074D01*
X113902908Y-86996974D01*
X114230669Y-86861211D01*
X114578616Y-86792000D01*
X114933384Y-86792000D01*
X115281331Y-86861211D01*
X115281331Y-86861211D01*
G37*
G36*
X219906331Y-86355943D02*
X220234092Y-86491706D01*
X220529073Y-86688806D01*
X220779926Y-86939659D01*
X220977026Y-87234640D01*
X221112789Y-87562401D01*
X221182000Y-87910348D01*
X221182000Y-88265116D01*
X221112789Y-88613063D01*
X220977026Y-88940824D01*
X220779926Y-89235805D01*
X220529073Y-89486658D01*
X220234092Y-89683758D01*
X219906331Y-89819521D01*
X219558384Y-89888732D01*
X219203616Y-89888732D01*
X218855669Y-89819521D01*
X218527908Y-89683758D01*
X218232927Y-89486658D01*
X217982074Y-89235805D01*
X217784974Y-88940824D01*
X217649211Y-88613063D01*
X217580000Y-88265116D01*
X217580000Y-87910348D01*
X217649211Y-87562401D01*
X217784974Y-87234640D01*
X217982074Y-86939659D01*
X218232927Y-86688806D01*
X218527908Y-86491706D01*
X218855669Y-86355943D01*
X219203616Y-86286732D01*
X219558384Y-86286732D01*
X219906331Y-86355943D01*
X219906331Y-86355943D01*
G37*
G36*
X145799294Y-87322633D02*
X145971694Y-87374931D01*
X145971696Y-87374932D01*
X146130583Y-87459859D01*
X146269849Y-87574151D01*
X146384141Y-87713417D01*
X146469068Y-87872304D01*
X146469069Y-87872306D01*
X146521367Y-88044706D01*
X146539025Y-88224000D01*
X146521367Y-88403294D01*
X146469069Y-88575694D01*
X146469068Y-88575696D01*
X146384141Y-88734583D01*
X146269849Y-88873849D01*
X146130583Y-88988141D01*
X145971696Y-89073068D01*
X145971694Y-89073069D01*
X145799294Y-89125367D01*
X145664931Y-89138600D01*
X145575069Y-89138600D01*
X145440706Y-89125367D01*
X145268306Y-89073069D01*
X145268304Y-89073068D01*
X145109417Y-88988141D01*
X144970151Y-88873849D01*
X144855859Y-88734583D01*
X144770932Y-88575696D01*
X144770931Y-88575694D01*
X144718633Y-88403294D01*
X144700975Y-88224000D01*
X144718633Y-88044706D01*
X144770931Y-87872306D01*
X144770932Y-87872304D01*
X144855859Y-87713417D01*
X144970151Y-87574151D01*
X145109417Y-87459859D01*
X145268304Y-87374932D01*
X145268306Y-87374931D01*
X145440706Y-87322633D01*
X145575069Y-87309400D01*
X145664931Y-87309400D01*
X145799294Y-87322633D01*
X145799294Y-87322633D01*
G37*
G36*
X161039294Y-87322633D02*
X161211694Y-87374931D01*
X161211696Y-87374932D01*
X161370583Y-87459859D01*
X161509849Y-87574151D01*
X161624141Y-87713417D01*
X161709068Y-87872304D01*
X161709069Y-87872306D01*
X161761367Y-88044706D01*
X161779025Y-88224000D01*
X161761367Y-88403294D01*
X161709069Y-88575694D01*
X161709068Y-88575696D01*
X161624141Y-88734583D01*
X161509849Y-88873849D01*
X161370583Y-88988141D01*
X161211696Y-89073068D01*
X161211694Y-89073069D01*
X161039294Y-89125367D01*
X160904931Y-89138600D01*
X160815069Y-89138600D01*
X160680706Y-89125367D01*
X160508306Y-89073069D01*
X160508304Y-89073068D01*
X160349417Y-88988141D01*
X160210151Y-88873849D01*
X160095859Y-88734583D01*
X160010932Y-88575696D01*
X160010931Y-88575694D01*
X159958633Y-88403294D01*
X159940975Y-88224000D01*
X159958633Y-88044706D01*
X160010931Y-87872306D01*
X160010932Y-87872304D01*
X160095859Y-87713417D01*
X160210151Y-87574151D01*
X160349417Y-87459859D01*
X160508304Y-87374932D01*
X160508306Y-87374931D01*
X160680706Y-87322633D01*
X160815069Y-87309400D01*
X160904931Y-87309400D01*
X161039294Y-87322633D01*
X161039294Y-87322633D01*
G37*
G36*
X171746000Y-88630000D02*
X171044000Y-88630000D01*
X171044000Y-86978000D01*
X171746000Y-86978000D01*
X171746000Y-88630000D01*
X171746000Y-88630000D01*
G37*
G36*
X170476000Y-88630000D02*
X169774000Y-88630000D01*
X169774000Y-86978000D01*
X170476000Y-86978000D01*
X170476000Y-88630000D01*
X170476000Y-88630000D01*
G37*
G36*
X169206000Y-88630000D02*
X168504000Y-88630000D01*
X168504000Y-86978000D01*
X169206000Y-86978000D01*
X169206000Y-88630000D01*
X169206000Y-88630000D01*
G37*
G36*
X167936000Y-88630000D02*
X167234000Y-88630000D01*
X167234000Y-86978000D01*
X167936000Y-86978000D01*
X167936000Y-88630000D01*
X167936000Y-88630000D01*
G37*
G36*
X203940001Y-88335001D02*
X202838001Y-88335001D01*
X202838001Y-87233001D01*
X203940001Y-87233001D01*
X203940001Y-88335001D01*
X203940001Y-88335001D01*
G37*
G36*
X197640001Y-88335001D02*
X196538001Y-88335001D01*
X196538001Y-87233001D01*
X197640001Y-87233001D01*
X197640001Y-88335001D01*
X197640001Y-88335001D01*
G37*
G36*
X200790001Y-88335001D02*
X199688001Y-88335001D01*
X199688001Y-87233001D01*
X200790001Y-87233001D01*
X200790001Y-88335001D01*
X200790001Y-88335001D01*
G37*
G36*
X207090001Y-88335001D02*
X205988001Y-88335001D01*
X205988001Y-87233001D01*
X207090001Y-87233001D01*
X207090001Y-88335001D01*
X207090001Y-88335001D01*
G37*
G36*
X161039294Y-84782633D02*
X161211694Y-84834931D01*
X161211696Y-84834932D01*
X161370583Y-84919859D01*
X161370585Y-84919860D01*
X161370584Y-84919860D01*
X161509849Y-85034151D01*
X161624140Y-85173416D01*
X161709069Y-85332306D01*
X161761367Y-85504706D01*
X161779025Y-85684000D01*
X161761367Y-85863294D01*
X161709069Y-86035694D01*
X161709068Y-86035696D01*
X161624141Y-86194583D01*
X161509849Y-86333849D01*
X161370583Y-86448141D01*
X161211696Y-86533068D01*
X161211694Y-86533069D01*
X161039294Y-86585367D01*
X160904931Y-86598600D01*
X160815069Y-86598600D01*
X160680706Y-86585367D01*
X160508306Y-86533069D01*
X160508304Y-86533068D01*
X160349417Y-86448141D01*
X160210151Y-86333849D01*
X160095859Y-86194583D01*
X160010932Y-86035696D01*
X160010931Y-86035694D01*
X159958633Y-85863294D01*
X159940975Y-85684000D01*
X159958633Y-85504706D01*
X160010931Y-85332306D01*
X160095860Y-85173416D01*
X160210151Y-85034151D01*
X160349416Y-84919860D01*
X160349415Y-84919860D01*
X160349417Y-84919859D01*
X160508304Y-84834932D01*
X160508306Y-84834931D01*
X160680706Y-84782633D01*
X160815069Y-84769400D01*
X160904931Y-84769400D01*
X161039294Y-84782633D01*
X161039294Y-84782633D01*
G37*
G36*
X145799294Y-84782633D02*
X145971694Y-84834931D01*
X145971696Y-84834932D01*
X146130583Y-84919859D01*
X146130585Y-84919860D01*
X146130584Y-84919860D01*
X146269849Y-85034151D01*
X146384140Y-85173416D01*
X146469069Y-85332306D01*
X146521367Y-85504706D01*
X146539025Y-85684000D01*
X146521367Y-85863294D01*
X146469069Y-86035694D01*
X146469068Y-86035696D01*
X146384141Y-86194583D01*
X146269849Y-86333849D01*
X146130583Y-86448141D01*
X145971696Y-86533068D01*
X145971694Y-86533069D01*
X145799294Y-86585367D01*
X145664931Y-86598600D01*
X145575069Y-86598600D01*
X145440706Y-86585367D01*
X145268306Y-86533069D01*
X145268304Y-86533068D01*
X145109417Y-86448141D01*
X144970151Y-86333849D01*
X144855859Y-86194583D01*
X144770932Y-86035696D01*
X144770931Y-86035694D01*
X144718633Y-85863294D01*
X144700975Y-85684000D01*
X144718633Y-85504706D01*
X144770931Y-85332306D01*
X144855860Y-85173416D01*
X144970151Y-85034151D01*
X145109416Y-84919860D01*
X145109415Y-84919860D01*
X145109417Y-84919859D01*
X145268304Y-84834932D01*
X145268306Y-84834931D01*
X145440706Y-84782633D01*
X145575069Y-84769400D01*
X145664931Y-84769400D01*
X145799294Y-84782633D01*
X145799294Y-84782633D01*
G37*
G36*
X207090001Y-85985001D02*
X205988001Y-85985001D01*
X205988001Y-84883001D01*
X207090001Y-84883001D01*
X207090001Y-85985001D01*
X207090001Y-85985001D01*
G37*
G36*
X203940001Y-85985001D02*
X202838001Y-85985001D01*
X202838001Y-84883001D01*
X203940001Y-84883001D01*
X203940001Y-85985001D01*
X203940001Y-85985001D01*
G37*
G36*
X197640001Y-85985001D02*
X196538001Y-85985001D01*
X196538001Y-84883001D01*
X197640001Y-84883001D01*
X197640001Y-85985001D01*
X197640001Y-85985001D01*
G37*
G36*
X200790001Y-85985001D02*
X199688001Y-85985001D01*
X199688001Y-84883001D01*
X200790001Y-84883001D01*
X200790001Y-85985001D01*
X200790001Y-85985001D01*
G37*
G36*
X137929062Y-82609681D02*
X137963977Y-82620273D01*
X137996165Y-82637478D01*
X138024373Y-82660627D01*
X138047522Y-82688835D01*
X138064727Y-82721023D01*
X138075319Y-82755938D01*
X138079500Y-82798395D01*
X138079500Y-84264605D01*
X138075319Y-84307062D01*
X138064727Y-84341977D01*
X138047522Y-84374165D01*
X138024373Y-84402373D01*
X137996165Y-84425522D01*
X137963977Y-84442727D01*
X137929062Y-84453319D01*
X137886605Y-84457500D01*
X136745395Y-84457500D01*
X136702938Y-84453319D01*
X136668023Y-84442727D01*
X136635835Y-84425522D01*
X136607627Y-84402373D01*
X136584478Y-84374165D01*
X136567273Y-84341977D01*
X136556681Y-84307062D01*
X136552500Y-84264605D01*
X136552500Y-82798395D01*
X136556681Y-82755938D01*
X136567273Y-82721023D01*
X136584478Y-82688835D01*
X136607627Y-82660627D01*
X136635835Y-82637478D01*
X136668023Y-82620273D01*
X136702938Y-82609681D01*
X136745395Y-82605500D01*
X137886605Y-82605500D01*
X137929062Y-82609681D01*
X137929062Y-82609681D01*
G37*
G36*
X140904062Y-82609681D02*
X140938977Y-82620273D01*
X140971165Y-82637478D01*
X140999373Y-82660627D01*
X141022522Y-82688835D01*
X141039727Y-82721023D01*
X141050319Y-82755938D01*
X141054500Y-82798395D01*
X141054500Y-84264605D01*
X141050319Y-84307062D01*
X141039727Y-84341977D01*
X141022522Y-84374165D01*
X140999373Y-84402373D01*
X140971165Y-84425522D01*
X140938977Y-84442727D01*
X140904062Y-84453319D01*
X140861605Y-84457500D01*
X139720395Y-84457500D01*
X139677938Y-84453319D01*
X139643023Y-84442727D01*
X139610835Y-84425522D01*
X139582627Y-84402373D01*
X139559478Y-84374165D01*
X139542273Y-84341977D01*
X139531681Y-84307062D01*
X139527500Y-84264605D01*
X139527500Y-82798395D01*
X139531681Y-82755938D01*
X139542273Y-82721023D01*
X139559478Y-82688835D01*
X139582627Y-82660627D01*
X139610835Y-82637478D01*
X139643023Y-82620273D01*
X139677938Y-82609681D01*
X139720395Y-82605500D01*
X140861605Y-82605500D01*
X140904062Y-82609681D01*
X140904062Y-82609681D01*
G37*
G36*
X145799294Y-82242633D02*
X145971694Y-82294931D01*
X145971696Y-82294932D01*
X146130583Y-82379859D01*
X146269849Y-82494151D01*
X146384141Y-82633417D01*
X146449630Y-82755938D01*
X146469069Y-82792306D01*
X146521367Y-82964706D01*
X146539025Y-83144000D01*
X146521367Y-83323294D01*
X146469069Y-83495694D01*
X146469068Y-83495696D01*
X146384141Y-83654583D01*
X146269849Y-83793849D01*
X146130583Y-83908141D01*
X145971696Y-83993068D01*
X145971694Y-83993069D01*
X145799294Y-84045367D01*
X145664931Y-84058600D01*
X145575069Y-84058600D01*
X145440706Y-84045367D01*
X145268306Y-83993069D01*
X145268304Y-83993068D01*
X145109417Y-83908141D01*
X144970151Y-83793849D01*
X144855859Y-83654583D01*
X144770932Y-83495696D01*
X144770931Y-83495694D01*
X144718633Y-83323294D01*
X144700975Y-83144000D01*
X144718633Y-82964706D01*
X144770931Y-82792306D01*
X144790370Y-82755938D01*
X144855859Y-82633417D01*
X144970151Y-82494151D01*
X145109417Y-82379859D01*
X145268304Y-82294932D01*
X145268306Y-82294931D01*
X145440706Y-82242633D01*
X145575069Y-82229400D01*
X145664931Y-82229400D01*
X145799294Y-82242633D01*
X145799294Y-82242633D01*
G37*
G36*
X161039294Y-82242633D02*
X161211694Y-82294931D01*
X161211696Y-82294932D01*
X161370583Y-82379859D01*
X161509849Y-82494151D01*
X161624141Y-82633417D01*
X161689630Y-82755938D01*
X161709069Y-82792306D01*
X161761367Y-82964706D01*
X161779025Y-83144000D01*
X161761367Y-83323294D01*
X161709069Y-83495694D01*
X161709068Y-83495696D01*
X161624141Y-83654583D01*
X161509849Y-83793849D01*
X161370583Y-83908141D01*
X161211696Y-83993068D01*
X161211694Y-83993069D01*
X161039294Y-84045367D01*
X160904931Y-84058600D01*
X160815069Y-84058600D01*
X160680706Y-84045367D01*
X160508306Y-83993069D01*
X160508304Y-83993068D01*
X160349417Y-83908141D01*
X160210151Y-83793849D01*
X160095859Y-83654583D01*
X160010932Y-83495696D01*
X160010931Y-83495694D01*
X159958633Y-83323294D01*
X159940975Y-83144000D01*
X159958633Y-82964706D01*
X160010931Y-82792306D01*
X160030370Y-82755938D01*
X160095859Y-82633417D01*
X160210151Y-82494151D01*
X160349417Y-82379859D01*
X160508304Y-82294932D01*
X160508306Y-82294931D01*
X160680706Y-82242633D01*
X160815069Y-82229400D01*
X160904931Y-82229400D01*
X161039294Y-82242633D01*
X161039294Y-82242633D01*
G37*
G36*
X124893999Y-83315999D02*
X123791999Y-83315999D01*
X123791999Y-82213999D01*
X124893999Y-82213999D01*
X124893999Y-83315999D01*
X124893999Y-83315999D01*
G37*
G36*
X121743999Y-83315999D02*
X120641999Y-83315999D01*
X120641999Y-82213999D01*
X121743999Y-82213999D01*
X121743999Y-83315999D01*
X121743999Y-83315999D01*
G37*
G36*
X115443999Y-83315999D02*
X114341999Y-83315999D01*
X114341999Y-82213999D01*
X115443999Y-82213999D01*
X115443999Y-83315999D01*
X115443999Y-83315999D01*
G37*
G36*
X118593999Y-83315999D02*
X117491999Y-83315999D01*
X117491999Y-82213999D01*
X118593999Y-82213999D01*
X118593999Y-83315999D01*
X118593999Y-83315999D01*
G37*
G36*
X112245000Y-83286000D02*
X111143000Y-83286000D01*
X111143000Y-82184000D01*
X112245000Y-82184000D01*
X112245000Y-83286000D01*
X112245000Y-83286000D01*
G37*
G36*
X171746000Y-83230000D02*
X171044000Y-83230000D01*
X171044000Y-81578000D01*
X171746000Y-81578000D01*
X171746000Y-83230000D01*
X171746000Y-83230000D01*
G37*
G36*
X170476000Y-83230000D02*
X169774000Y-83230000D01*
X169774000Y-81578000D01*
X170476000Y-81578000D01*
X170476000Y-83230000D01*
X170476000Y-83230000D01*
G37*
G36*
X169206000Y-83230000D02*
X168504000Y-83230000D01*
X168504000Y-81578000D01*
X169206000Y-81578000D01*
X169206000Y-83230000D01*
X169206000Y-83230000D01*
G37*
G36*
X167936000Y-83230000D02*
X167234000Y-83230000D01*
X167234000Y-81578000D01*
X167936000Y-81578000D01*
X167936000Y-83230000D01*
X167936000Y-83230000D01*
G37*
G36*
X219822000Y-81897000D02*
X218196000Y-81897000D01*
X218196000Y-80271000D01*
X219822000Y-80271000D01*
X219822000Y-81897000D01*
X219822000Y-81897000D01*
G37*
G36*
X201280000Y-81770000D02*
X199654000Y-81770000D01*
X199654000Y-80144000D01*
X201280000Y-80144000D01*
X201280000Y-81770000D01*
X201280000Y-81770000D01*
G37*
G36*
X161039294Y-79702633D02*
X161211694Y-79754931D01*
X161211696Y-79754932D01*
X161370583Y-79839859D01*
X161370585Y-79839860D01*
X161370584Y-79839860D01*
X161509849Y-79954151D01*
X161624140Y-80093416D01*
X161709069Y-80252306D01*
X161761367Y-80424706D01*
X161779025Y-80604000D01*
X161761367Y-80783294D01*
X161709069Y-80955694D01*
X161709068Y-80955696D01*
X161624141Y-81114583D01*
X161509849Y-81253849D01*
X161370583Y-81368141D01*
X161211696Y-81453068D01*
X161211694Y-81453069D01*
X161039294Y-81505367D01*
X160904931Y-81518600D01*
X160815069Y-81518600D01*
X160680706Y-81505367D01*
X160508306Y-81453069D01*
X160508304Y-81453068D01*
X160349417Y-81368141D01*
X160210151Y-81253849D01*
X160095859Y-81114583D01*
X160010932Y-80955696D01*
X160010931Y-80955694D01*
X159958633Y-80783294D01*
X159940975Y-80604000D01*
X159958633Y-80424706D01*
X160010931Y-80252306D01*
X160095860Y-80093416D01*
X160210151Y-79954151D01*
X160349416Y-79839860D01*
X160349415Y-79839860D01*
X160349417Y-79839859D01*
X160508304Y-79754932D01*
X160508306Y-79754931D01*
X160680706Y-79702633D01*
X160815069Y-79689400D01*
X160904931Y-79689400D01*
X161039294Y-79702633D01*
X161039294Y-79702633D01*
G37*
G36*
X145799294Y-79702633D02*
X145971694Y-79754931D01*
X145971696Y-79754932D01*
X146130583Y-79839859D01*
X146130585Y-79839860D01*
X146130584Y-79839860D01*
X146269849Y-79954151D01*
X146384140Y-80093416D01*
X146469069Y-80252306D01*
X146521367Y-80424706D01*
X146539025Y-80604000D01*
X146521367Y-80783294D01*
X146469069Y-80955694D01*
X146469068Y-80955696D01*
X146384141Y-81114583D01*
X146269849Y-81253849D01*
X146130583Y-81368141D01*
X145971696Y-81453068D01*
X145971694Y-81453069D01*
X145799294Y-81505367D01*
X145664931Y-81518600D01*
X145575069Y-81518600D01*
X145440706Y-81505367D01*
X145268306Y-81453069D01*
X145268304Y-81453068D01*
X145109417Y-81368141D01*
X144970151Y-81253849D01*
X144855859Y-81114583D01*
X144770932Y-80955696D01*
X144770931Y-80955694D01*
X144718633Y-80783294D01*
X144700975Y-80604000D01*
X144718633Y-80424706D01*
X144770931Y-80252306D01*
X144855860Y-80093416D01*
X144970151Y-79954151D01*
X145109416Y-79839860D01*
X145109415Y-79839860D01*
X145109417Y-79839859D01*
X145268304Y-79754932D01*
X145268306Y-79754931D01*
X145440706Y-79702633D01*
X145575069Y-79689400D01*
X145664931Y-79689400D01*
X145799294Y-79702633D01*
X145799294Y-79702633D01*
G37*
G36*
X140416562Y-79609681D02*
X140451477Y-79620273D01*
X140483665Y-79637478D01*
X140511873Y-79660627D01*
X140535022Y-79688835D01*
X140552227Y-79721023D01*
X140562819Y-79755938D01*
X140567000Y-79798395D01*
X140567000Y-81264605D01*
X140562819Y-81307062D01*
X140552227Y-81341977D01*
X140535022Y-81374165D01*
X140511873Y-81402373D01*
X140483665Y-81425522D01*
X140451477Y-81442727D01*
X140416562Y-81453319D01*
X140374105Y-81457500D01*
X139232895Y-81457500D01*
X139190438Y-81453319D01*
X139155523Y-81442727D01*
X139123335Y-81425522D01*
X139095127Y-81402373D01*
X139071978Y-81374165D01*
X139054773Y-81341977D01*
X139044181Y-81307062D01*
X139040000Y-81264605D01*
X139040000Y-79798395D01*
X139044181Y-79755938D01*
X139054773Y-79721023D01*
X139071978Y-79688835D01*
X139095127Y-79660627D01*
X139123335Y-79637478D01*
X139155523Y-79620273D01*
X139190438Y-79609681D01*
X139232895Y-79605500D01*
X140374105Y-79605500D01*
X140416562Y-79609681D01*
X140416562Y-79609681D01*
G37*
G36*
X137441562Y-79609681D02*
X137476477Y-79620273D01*
X137508665Y-79637478D01*
X137536873Y-79660627D01*
X137560022Y-79688835D01*
X137577227Y-79721023D01*
X137587819Y-79755938D01*
X137592000Y-79798395D01*
X137592000Y-81264605D01*
X137587819Y-81307062D01*
X137577227Y-81341977D01*
X137560022Y-81374165D01*
X137536873Y-81402373D01*
X137508665Y-81425522D01*
X137476477Y-81442727D01*
X137441562Y-81453319D01*
X137399105Y-81457500D01*
X136257895Y-81457500D01*
X136215438Y-81453319D01*
X136180523Y-81442727D01*
X136148335Y-81425522D01*
X136120127Y-81402373D01*
X136096978Y-81374165D01*
X136079773Y-81341977D01*
X136069181Y-81307062D01*
X136065000Y-81264605D01*
X136065000Y-79798395D01*
X136069181Y-79755938D01*
X136079773Y-79721023D01*
X136096978Y-79688835D01*
X136120127Y-79660627D01*
X136148335Y-79637478D01*
X136180523Y-79620273D01*
X136215438Y-79609681D01*
X136257895Y-79605500D01*
X137399105Y-79605500D01*
X137441562Y-79609681D01*
X137441562Y-79609681D01*
G37*
G36*
X219822000Y-79357000D02*
X218196000Y-79357000D01*
X218196000Y-77731000D01*
X219822000Y-77731000D01*
X219822000Y-79357000D01*
X219822000Y-79357000D01*
G37*
G36*
X201280000Y-79230000D02*
X199654000Y-79230000D01*
X199654000Y-77604000D01*
X201280000Y-77604000D01*
X201280000Y-79230000D01*
X201280000Y-79230000D01*
G37*
G36*
X161039294Y-77162633D02*
X161211694Y-77214931D01*
X161211696Y-77214932D01*
X161370583Y-77299859D01*
X161509849Y-77414151D01*
X161570599Y-77488175D01*
X161624140Y-77553416D01*
X161709069Y-77712306D01*
X161761367Y-77884706D01*
X161779025Y-78064000D01*
X161761367Y-78243294D01*
X161716996Y-78389562D01*
X161709068Y-78415696D01*
X161624141Y-78574583D01*
X161509849Y-78713849D01*
X161370583Y-78828141D01*
X161211696Y-78913068D01*
X161211694Y-78913069D01*
X161039294Y-78965367D01*
X160904931Y-78978600D01*
X160815069Y-78978600D01*
X160680706Y-78965367D01*
X160508306Y-78913069D01*
X160508304Y-78913068D01*
X160349417Y-78828141D01*
X160210151Y-78713849D01*
X160095859Y-78574583D01*
X160010932Y-78415696D01*
X160003004Y-78389562D01*
X159958633Y-78243294D01*
X159940975Y-78064000D01*
X159958633Y-77884706D01*
X160010931Y-77712306D01*
X160095860Y-77553416D01*
X160149402Y-77488175D01*
X160210151Y-77414151D01*
X160349417Y-77299859D01*
X160508304Y-77214932D01*
X160508306Y-77214931D01*
X160680706Y-77162633D01*
X160815069Y-77149400D01*
X160904931Y-77149400D01*
X161039294Y-77162633D01*
X161039294Y-77162633D01*
G37*
G36*
X145799294Y-77162633D02*
X145971694Y-77214931D01*
X145971696Y-77214932D01*
X146130583Y-77299859D01*
X146269849Y-77414151D01*
X146330599Y-77488175D01*
X146384140Y-77553416D01*
X146469069Y-77712306D01*
X146521367Y-77884706D01*
X146539025Y-78064000D01*
X146521367Y-78243294D01*
X146476996Y-78389562D01*
X146469068Y-78415696D01*
X146384141Y-78574583D01*
X146269849Y-78713849D01*
X146130583Y-78828141D01*
X145971696Y-78913068D01*
X145971694Y-78913069D01*
X145799294Y-78965367D01*
X145664931Y-78978600D01*
X145575069Y-78978600D01*
X145440706Y-78965367D01*
X145268306Y-78913069D01*
X145268304Y-78913068D01*
X145109417Y-78828141D01*
X144970151Y-78713849D01*
X144855859Y-78574583D01*
X144770932Y-78415696D01*
X144763004Y-78389562D01*
X144718633Y-78243294D01*
X144700975Y-78064000D01*
X144718633Y-77884706D01*
X144770931Y-77712306D01*
X144855860Y-77553416D01*
X144909402Y-77488175D01*
X144970151Y-77414151D01*
X145109417Y-77299859D01*
X145268304Y-77214932D01*
X145268306Y-77214931D01*
X145440706Y-77162633D01*
X145575069Y-77149400D01*
X145664931Y-77149400D01*
X145799294Y-77162633D01*
X145799294Y-77162633D01*
G37*
G36*
X168543562Y-76692181D02*
X168578477Y-76702773D01*
X168610665Y-76719978D01*
X168638873Y-76743127D01*
X168662022Y-76771335D01*
X168679227Y-76803523D01*
X168689819Y-76838438D01*
X168694000Y-76880895D01*
X168694000Y-78347105D01*
X168689819Y-78389562D01*
X168679227Y-78424477D01*
X168662022Y-78456665D01*
X168638873Y-78484873D01*
X168610665Y-78508022D01*
X168578477Y-78525227D01*
X168543562Y-78535819D01*
X168501105Y-78540000D01*
X167359895Y-78540000D01*
X167317438Y-78535819D01*
X167282523Y-78525227D01*
X167250335Y-78508022D01*
X167222127Y-78484873D01*
X167198978Y-78456665D01*
X167181773Y-78424477D01*
X167171181Y-78389562D01*
X167167000Y-78347105D01*
X167167000Y-76880895D01*
X167171181Y-76838438D01*
X167181773Y-76803523D01*
X167198978Y-76771335D01*
X167222127Y-76743127D01*
X167250335Y-76719978D01*
X167282523Y-76702773D01*
X167317438Y-76692181D01*
X167359895Y-76688000D01*
X168501105Y-76688000D01*
X168543562Y-76692181D01*
X168543562Y-76692181D01*
G37*
G36*
X171518562Y-76692181D02*
X171553477Y-76702773D01*
X171585665Y-76719978D01*
X171613873Y-76743127D01*
X171637022Y-76771335D01*
X171654227Y-76803523D01*
X171664819Y-76838438D01*
X171669000Y-76880895D01*
X171669000Y-78347105D01*
X171664819Y-78389562D01*
X171654227Y-78424477D01*
X171637022Y-78456665D01*
X171613873Y-78484873D01*
X171585665Y-78508022D01*
X171553477Y-78525227D01*
X171518562Y-78535819D01*
X171476105Y-78540000D01*
X170334895Y-78540000D01*
X170292438Y-78535819D01*
X170257523Y-78525227D01*
X170225335Y-78508022D01*
X170197127Y-78484873D01*
X170173978Y-78456665D01*
X170156773Y-78424477D01*
X170146181Y-78389562D01*
X170142000Y-78347105D01*
X170142000Y-76880895D01*
X170146181Y-76838438D01*
X170156773Y-76803523D01*
X170173978Y-76771335D01*
X170197127Y-76743127D01*
X170225335Y-76719978D01*
X170257523Y-76702773D01*
X170292438Y-76692181D01*
X170334895Y-76688000D01*
X171476105Y-76688000D01*
X171518562Y-76692181D01*
X171518562Y-76692181D01*
G37*
G36*
X126973821Y-76816313D02*
X126973824Y-76816314D01*
X126973825Y-76816314D01*
X127134239Y-76864975D01*
X127134241Y-76864976D01*
X127134244Y-76864977D01*
X127282078Y-76943995D01*
X127411659Y-77050341D01*
X127518005Y-77179922D01*
X127597023Y-77327756D01*
X127645687Y-77488179D01*
X127662117Y-77655000D01*
X127645687Y-77821821D01*
X127597023Y-77982244D01*
X127518005Y-78130078D01*
X127411659Y-78259659D01*
X127282078Y-78366005D01*
X127134244Y-78445023D01*
X127134241Y-78445024D01*
X127134239Y-78445025D01*
X126973825Y-78493686D01*
X126973824Y-78493686D01*
X126973821Y-78493687D01*
X126848804Y-78506000D01*
X126765196Y-78506000D01*
X126640179Y-78493687D01*
X126640176Y-78493686D01*
X126640175Y-78493686D01*
X126479761Y-78445025D01*
X126479759Y-78445024D01*
X126479756Y-78445023D01*
X126331922Y-78366005D01*
X126202341Y-78259659D01*
X126095995Y-78130078D01*
X126016977Y-77982244D01*
X125968313Y-77821821D01*
X125951883Y-77655000D01*
X125968313Y-77488179D01*
X126016977Y-77327756D01*
X126095995Y-77179922D01*
X126202341Y-77050341D01*
X126331922Y-76943995D01*
X126479756Y-76864977D01*
X126479759Y-76864976D01*
X126479761Y-76864975D01*
X126640175Y-76816314D01*
X126640176Y-76816314D01*
X126640179Y-76816313D01*
X126765196Y-76804000D01*
X126848804Y-76804000D01*
X126973821Y-76816313D01*
X126973821Y-76816313D01*
G37*
G36*
X121893821Y-76816313D02*
X121893824Y-76816314D01*
X121893825Y-76816314D01*
X122054239Y-76864975D01*
X122054241Y-76864976D01*
X122054244Y-76864977D01*
X122202078Y-76943995D01*
X122331659Y-77050341D01*
X122438005Y-77179922D01*
X122517023Y-77327756D01*
X122565687Y-77488179D01*
X122582117Y-77655000D01*
X122565687Y-77821821D01*
X122517023Y-77982244D01*
X122438005Y-78130078D01*
X122331659Y-78259659D01*
X122202078Y-78366005D01*
X122054244Y-78445023D01*
X122054241Y-78445024D01*
X122054239Y-78445025D01*
X121893825Y-78493686D01*
X121893824Y-78493686D01*
X121893821Y-78493687D01*
X121768804Y-78506000D01*
X121685196Y-78506000D01*
X121560179Y-78493687D01*
X121560176Y-78493686D01*
X121560175Y-78493686D01*
X121399761Y-78445025D01*
X121399759Y-78445024D01*
X121399756Y-78445023D01*
X121251922Y-78366005D01*
X121122341Y-78259659D01*
X121015995Y-78130078D01*
X120936977Y-77982244D01*
X120888313Y-77821821D01*
X120871883Y-77655000D01*
X120888313Y-77488179D01*
X120936977Y-77327756D01*
X121015995Y-77179922D01*
X121122341Y-77050341D01*
X121251922Y-76943995D01*
X121399756Y-76864977D01*
X121399759Y-76864976D01*
X121399761Y-76864975D01*
X121560175Y-76816314D01*
X121560176Y-76816314D01*
X121560179Y-76816313D01*
X121685196Y-76804000D01*
X121768804Y-76804000D01*
X121893821Y-76816313D01*
X121893821Y-76816313D01*
G37*
G36*
X124433821Y-76816313D02*
X124433824Y-76816314D01*
X124433825Y-76816314D01*
X124594239Y-76864975D01*
X124594241Y-76864976D01*
X124594244Y-76864977D01*
X124742078Y-76943995D01*
X124871659Y-77050341D01*
X124978005Y-77179922D01*
X125057023Y-77327756D01*
X125105687Y-77488179D01*
X125122117Y-77655000D01*
X125105687Y-77821821D01*
X125057023Y-77982244D01*
X124978005Y-78130078D01*
X124871659Y-78259659D01*
X124742078Y-78366005D01*
X124594244Y-78445023D01*
X124594241Y-78445024D01*
X124594239Y-78445025D01*
X124433825Y-78493686D01*
X124433824Y-78493686D01*
X124433821Y-78493687D01*
X124308804Y-78506000D01*
X124225196Y-78506000D01*
X124100179Y-78493687D01*
X124100176Y-78493686D01*
X124100175Y-78493686D01*
X123939761Y-78445025D01*
X123939759Y-78445024D01*
X123939756Y-78445023D01*
X123791922Y-78366005D01*
X123662341Y-78259659D01*
X123555995Y-78130078D01*
X123476977Y-77982244D01*
X123428313Y-77821821D01*
X123411883Y-77655000D01*
X123428313Y-77488179D01*
X123476977Y-77327756D01*
X123555995Y-77179922D01*
X123662341Y-77050341D01*
X123791922Y-76943995D01*
X123939756Y-76864977D01*
X123939759Y-76864976D01*
X123939761Y-76864975D01*
X124100175Y-76816314D01*
X124100176Y-76816314D01*
X124100179Y-76816313D01*
X124225196Y-76804000D01*
X124308804Y-76804000D01*
X124433821Y-76816313D01*
X124433821Y-76816313D01*
G37*
G36*
X129513821Y-76816313D02*
X129513824Y-76816314D01*
X129513825Y-76816314D01*
X129674239Y-76864975D01*
X129674241Y-76864976D01*
X129674244Y-76864977D01*
X129822078Y-76943995D01*
X129951659Y-77050341D01*
X130058005Y-77179922D01*
X130137023Y-77327756D01*
X130185687Y-77488179D01*
X130202117Y-77655000D01*
X130185687Y-77821821D01*
X130137023Y-77982244D01*
X130058005Y-78130078D01*
X129951659Y-78259659D01*
X129822078Y-78366005D01*
X129674244Y-78445023D01*
X129674241Y-78445024D01*
X129674239Y-78445025D01*
X129513825Y-78493686D01*
X129513824Y-78493686D01*
X129513821Y-78493687D01*
X129388804Y-78506000D01*
X129305196Y-78506000D01*
X129180179Y-78493687D01*
X129180176Y-78493686D01*
X129180175Y-78493686D01*
X129019761Y-78445025D01*
X129019759Y-78445024D01*
X129019756Y-78445023D01*
X128871922Y-78366005D01*
X128742341Y-78259659D01*
X128635995Y-78130078D01*
X128556977Y-77982244D01*
X128508313Y-77821821D01*
X128491883Y-77655000D01*
X128508313Y-77488179D01*
X128556977Y-77327756D01*
X128635995Y-77179922D01*
X128742341Y-77050341D01*
X128871922Y-76943995D01*
X129019756Y-76864977D01*
X129019759Y-76864976D01*
X129019761Y-76864975D01*
X129180175Y-76816314D01*
X129180176Y-76816314D01*
X129180179Y-76816313D01*
X129305196Y-76804000D01*
X129388804Y-76804000D01*
X129513821Y-76816313D01*
X129513821Y-76816313D01*
G37*
G36*
X161039294Y-74622633D02*
X161211694Y-74674931D01*
X161211696Y-74674932D01*
X161370583Y-74759859D01*
X161509849Y-74874151D01*
X161624141Y-75013417D01*
X161709068Y-75172304D01*
X161709069Y-75172306D01*
X161761367Y-75344706D01*
X161779025Y-75524000D01*
X161761367Y-75703294D01*
X161709069Y-75875694D01*
X161709068Y-75875696D01*
X161624141Y-76034583D01*
X161509849Y-76173849D01*
X161370583Y-76288141D01*
X161211696Y-76373068D01*
X161211694Y-76373069D01*
X161039294Y-76425367D01*
X160904931Y-76438600D01*
X160815069Y-76438600D01*
X160680706Y-76425367D01*
X160508306Y-76373069D01*
X160508304Y-76373068D01*
X160349417Y-76288141D01*
X160210151Y-76173849D01*
X160095859Y-76034583D01*
X160010932Y-75875696D01*
X160010931Y-75875694D01*
X159958633Y-75703294D01*
X159940975Y-75524000D01*
X159958633Y-75344706D01*
X160010931Y-75172306D01*
X160010932Y-75172304D01*
X160095859Y-75013417D01*
X160210151Y-74874151D01*
X160349417Y-74759859D01*
X160508304Y-74674932D01*
X160508306Y-74674931D01*
X160680706Y-74622633D01*
X160815069Y-74609400D01*
X160904931Y-74609400D01*
X161039294Y-74622633D01*
X161039294Y-74622633D01*
G37*
G36*
X145799294Y-74622633D02*
X145971694Y-74674931D01*
X145971696Y-74674932D01*
X146130583Y-74759859D01*
X146269849Y-74874151D01*
X146384141Y-75013417D01*
X146469068Y-75172304D01*
X146469069Y-75172306D01*
X146521367Y-75344706D01*
X146539025Y-75524000D01*
X146521367Y-75703294D01*
X146469069Y-75875694D01*
X146469068Y-75875696D01*
X146384141Y-76034583D01*
X146269849Y-76173849D01*
X146130583Y-76288141D01*
X145971696Y-76373068D01*
X145971694Y-76373069D01*
X145799294Y-76425367D01*
X145664931Y-76438600D01*
X145575069Y-76438600D01*
X145440706Y-76425367D01*
X145268306Y-76373069D01*
X145268304Y-76373068D01*
X145109417Y-76288141D01*
X144970151Y-76173849D01*
X144855859Y-76034583D01*
X144770932Y-75875696D01*
X144770931Y-75875694D01*
X144718633Y-75703294D01*
X144700975Y-75524000D01*
X144718633Y-75344706D01*
X144770931Y-75172306D01*
X144770932Y-75172304D01*
X144855859Y-75013417D01*
X144970151Y-74874151D01*
X145109417Y-74759859D01*
X145268304Y-74674932D01*
X145268306Y-74674931D01*
X145440706Y-74622633D01*
X145575069Y-74609400D01*
X145664931Y-74609400D01*
X145799294Y-74622633D01*
X145799294Y-74622633D01*
G37*
G36*
X135202562Y-74065181D02*
X135237477Y-74075773D01*
X135269665Y-74092978D01*
X135297873Y-74116127D01*
X135321022Y-74144335D01*
X135338227Y-74176523D01*
X135348819Y-74211438D01*
X135353000Y-74253895D01*
X135353000Y-75395105D01*
X135348819Y-75437562D01*
X135338227Y-75472477D01*
X135321022Y-75504665D01*
X135297873Y-75532873D01*
X135269665Y-75556022D01*
X135237477Y-75573227D01*
X135202562Y-75583819D01*
X135160105Y-75588000D01*
X133693895Y-75588000D01*
X133651438Y-75583819D01*
X133616523Y-75573227D01*
X133584335Y-75556022D01*
X133556127Y-75532873D01*
X133532978Y-75504665D01*
X133515773Y-75472477D01*
X133505181Y-75437562D01*
X133501000Y-75395105D01*
X133501000Y-74253895D01*
X133505181Y-74211438D01*
X133515773Y-74176523D01*
X133532978Y-74144335D01*
X133556127Y-74116127D01*
X133584335Y-74092978D01*
X133616523Y-74075773D01*
X133651438Y-74065181D01*
X133693895Y-74061000D01*
X135160105Y-74061000D01*
X135202562Y-74065181D01*
X135202562Y-74065181D01*
G37*
G36*
X168507062Y-73246181D02*
X168541977Y-73256773D01*
X168574165Y-73273978D01*
X168602373Y-73297127D01*
X168625522Y-73325335D01*
X168642727Y-73357523D01*
X168653319Y-73392438D01*
X168657500Y-73434895D01*
X168657500Y-74901105D01*
X168653319Y-74943562D01*
X168642727Y-74978477D01*
X168625522Y-75010665D01*
X168602373Y-75038873D01*
X168574165Y-75062022D01*
X168541977Y-75079227D01*
X168507062Y-75089819D01*
X168464605Y-75094000D01*
X167323395Y-75094000D01*
X167280938Y-75089819D01*
X167246023Y-75079227D01*
X167213835Y-75062022D01*
X167185627Y-75038873D01*
X167162478Y-75010665D01*
X167145273Y-74978477D01*
X167134681Y-74943562D01*
X167130500Y-74901105D01*
X167130500Y-73434895D01*
X167134681Y-73392438D01*
X167145273Y-73357523D01*
X167162478Y-73325335D01*
X167185627Y-73297127D01*
X167213835Y-73273978D01*
X167246023Y-73256773D01*
X167280938Y-73246181D01*
X167323395Y-73242000D01*
X168464605Y-73242000D01*
X168507062Y-73246181D01*
X168507062Y-73246181D01*
G37*
G36*
X171482062Y-73246181D02*
X171516977Y-73256773D01*
X171549165Y-73273978D01*
X171577373Y-73297127D01*
X171600522Y-73325335D01*
X171617727Y-73357523D01*
X171628319Y-73392438D01*
X171632500Y-73434895D01*
X171632500Y-74901105D01*
X171628319Y-74943562D01*
X171617727Y-74978477D01*
X171600522Y-75010665D01*
X171577373Y-75038873D01*
X171549165Y-75062022D01*
X171516977Y-75079227D01*
X171482062Y-75089819D01*
X171439605Y-75094000D01*
X170298395Y-75094000D01*
X170255938Y-75089819D01*
X170221023Y-75079227D01*
X170188835Y-75062022D01*
X170160627Y-75038873D01*
X170137478Y-75010665D01*
X170120273Y-74978477D01*
X170109681Y-74943562D01*
X170105500Y-74901105D01*
X170105500Y-73434895D01*
X170109681Y-73392438D01*
X170120273Y-73357523D01*
X170137478Y-73325335D01*
X170160627Y-73297127D01*
X170188835Y-73273978D01*
X170221023Y-73256773D01*
X170255938Y-73246181D01*
X170298395Y-73242000D01*
X171439605Y-73242000D01*
X171482062Y-73246181D01*
X171482062Y-73246181D01*
G37*
G36*
X161039294Y-72082633D02*
X161211694Y-72134931D01*
X161211696Y-72134932D01*
X161370583Y-72219859D01*
X161509849Y-72334151D01*
X161624141Y-72473417D01*
X161681657Y-72581022D01*
X161709069Y-72632306D01*
X161761367Y-72804706D01*
X161779025Y-72984000D01*
X161761367Y-73163294D01*
X161712211Y-73325335D01*
X161709068Y-73335696D01*
X161624141Y-73494583D01*
X161509849Y-73633849D01*
X161370583Y-73748141D01*
X161211696Y-73833068D01*
X161211694Y-73833069D01*
X161039294Y-73885367D01*
X160904931Y-73898600D01*
X160815069Y-73898600D01*
X160680706Y-73885367D01*
X160508306Y-73833069D01*
X160508304Y-73833068D01*
X160349417Y-73748141D01*
X160210151Y-73633849D01*
X160095859Y-73494583D01*
X160010932Y-73335696D01*
X160007789Y-73325335D01*
X159958633Y-73163294D01*
X159940975Y-72984000D01*
X159958633Y-72804706D01*
X160010931Y-72632306D01*
X160038343Y-72581022D01*
X160095859Y-72473417D01*
X160210151Y-72334151D01*
X160349417Y-72219859D01*
X160508304Y-72134932D01*
X160508306Y-72134931D01*
X160680706Y-72082633D01*
X160815069Y-72069400D01*
X160904931Y-72069400D01*
X161039294Y-72082633D01*
X161039294Y-72082633D01*
G37*
G36*
X145799294Y-72082633D02*
X145971694Y-72134931D01*
X145971696Y-72134932D01*
X146130583Y-72219859D01*
X146269849Y-72334151D01*
X146384141Y-72473417D01*
X146441657Y-72581022D01*
X146469069Y-72632306D01*
X146521367Y-72804706D01*
X146539025Y-72984000D01*
X146521367Y-73163294D01*
X146472211Y-73325335D01*
X146469068Y-73335696D01*
X146384141Y-73494583D01*
X146269849Y-73633849D01*
X146130583Y-73748141D01*
X145971696Y-73833068D01*
X145971694Y-73833069D01*
X145799294Y-73885367D01*
X145664931Y-73898600D01*
X145575069Y-73898600D01*
X145440706Y-73885367D01*
X145268306Y-73833069D01*
X145268304Y-73833068D01*
X145109417Y-73748141D01*
X144970151Y-73633849D01*
X144855859Y-73494583D01*
X144770932Y-73335696D01*
X144767789Y-73325335D01*
X144718633Y-73163294D01*
X144700975Y-72984000D01*
X144718633Y-72804706D01*
X144770931Y-72632306D01*
X144798343Y-72581022D01*
X144855859Y-72473417D01*
X144970151Y-72334151D01*
X145109417Y-72219859D01*
X145268304Y-72134932D01*
X145268306Y-72134931D01*
X145440706Y-72082633D01*
X145575069Y-72069400D01*
X145664931Y-72069400D01*
X145799294Y-72082633D01*
X145799294Y-72082633D01*
G37*
G36*
X116025562Y-71779181D02*
X116060477Y-71789773D01*
X116092665Y-71806978D01*
X116120873Y-71830127D01*
X116144022Y-71858335D01*
X116161227Y-71890523D01*
X116171819Y-71925438D01*
X116176000Y-71967895D01*
X116176000Y-73109105D01*
X116171819Y-73151562D01*
X116161227Y-73186477D01*
X116144022Y-73218665D01*
X116120873Y-73246873D01*
X116092665Y-73270022D01*
X116060477Y-73287227D01*
X116025562Y-73297819D01*
X115983105Y-73302000D01*
X114516895Y-73302000D01*
X114474438Y-73297819D01*
X114439523Y-73287227D01*
X114407335Y-73270022D01*
X114379127Y-73246873D01*
X114355978Y-73218665D01*
X114338773Y-73186477D01*
X114328181Y-73151562D01*
X114324000Y-73109105D01*
X114324000Y-71967895D01*
X114328181Y-71925438D01*
X114338773Y-71890523D01*
X114355978Y-71858335D01*
X114379127Y-71830127D01*
X114407335Y-71806978D01*
X114439523Y-71789773D01*
X114474438Y-71779181D01*
X114516895Y-71775000D01*
X115983105Y-71775000D01*
X116025562Y-71779181D01*
X116025562Y-71779181D01*
G37*
G36*
X135202562Y-71090181D02*
X135237477Y-71100773D01*
X135269665Y-71117978D01*
X135297873Y-71141127D01*
X135321022Y-71169335D01*
X135338227Y-71201523D01*
X135348819Y-71236438D01*
X135353000Y-71278895D01*
X135353000Y-72420105D01*
X135348819Y-72462560D01*
X135338227Y-72497477D01*
X135321022Y-72529665D01*
X135297873Y-72557873D01*
X135269665Y-72581022D01*
X135237477Y-72598227D01*
X135202562Y-72608819D01*
X135160105Y-72613000D01*
X133693895Y-72613000D01*
X133651438Y-72608819D01*
X133616523Y-72598227D01*
X133584335Y-72581022D01*
X133556127Y-72557873D01*
X133532978Y-72529665D01*
X133515773Y-72497477D01*
X133505181Y-72462560D01*
X133501000Y-72420105D01*
X133501000Y-71278895D01*
X133505181Y-71236438D01*
X133515773Y-71201523D01*
X133532978Y-71169335D01*
X133556127Y-71141127D01*
X133584335Y-71117978D01*
X133616523Y-71100773D01*
X133651438Y-71090181D01*
X133693895Y-71086000D01*
X135160105Y-71086000D01*
X135202562Y-71090181D01*
X135202562Y-71090181D01*
G37*
G36*
X161039294Y-69542633D02*
X161211694Y-69594931D01*
X161211696Y-69594932D01*
X161370583Y-69679859D01*
X161509849Y-69794151D01*
X161624141Y-69933417D01*
X161687449Y-70051858D01*
X161709069Y-70092306D01*
X161761367Y-70264706D01*
X161779025Y-70444000D01*
X161761367Y-70623294D01*
X161724142Y-70746005D01*
X161709068Y-70795696D01*
X161624141Y-70954583D01*
X161509849Y-71093849D01*
X161370583Y-71208141D01*
X161289696Y-71251376D01*
X161211694Y-71293069D01*
X161039294Y-71345367D01*
X160904931Y-71358600D01*
X160815069Y-71358600D01*
X160680706Y-71345367D01*
X160508306Y-71293069D01*
X160430304Y-71251376D01*
X160349417Y-71208141D01*
X160210151Y-71093849D01*
X160095859Y-70954583D01*
X160010932Y-70795696D01*
X159995858Y-70746005D01*
X159958633Y-70623294D01*
X159940975Y-70444000D01*
X159958633Y-70264706D01*
X160010931Y-70092306D01*
X160032551Y-70051858D01*
X160095859Y-69933417D01*
X160210151Y-69794151D01*
X160349417Y-69679859D01*
X160508304Y-69594932D01*
X160508306Y-69594931D01*
X160680706Y-69542633D01*
X160815069Y-69529400D01*
X160904931Y-69529400D01*
X161039294Y-69542633D01*
X161039294Y-69542633D01*
G37*
G36*
X145799294Y-69542633D02*
X145971694Y-69594931D01*
X145971696Y-69594932D01*
X146130583Y-69679859D01*
X146269849Y-69794151D01*
X146384141Y-69933417D01*
X146447449Y-70051858D01*
X146469069Y-70092306D01*
X146521367Y-70264706D01*
X146539025Y-70444000D01*
X146521367Y-70623294D01*
X146484142Y-70746005D01*
X146469068Y-70795696D01*
X146384141Y-70954583D01*
X146269849Y-71093849D01*
X146130583Y-71208141D01*
X146049696Y-71251376D01*
X145971694Y-71293069D01*
X145799294Y-71345367D01*
X145664931Y-71358600D01*
X145575069Y-71358600D01*
X145440706Y-71345367D01*
X145268306Y-71293069D01*
X145190304Y-71251376D01*
X145109417Y-71208141D01*
X144970151Y-71093849D01*
X144855859Y-70954583D01*
X144770932Y-70795696D01*
X144755858Y-70746005D01*
X144718633Y-70623294D01*
X144700975Y-70444000D01*
X144718633Y-70264706D01*
X144770931Y-70092306D01*
X144792551Y-70051858D01*
X144855859Y-69933417D01*
X144970151Y-69794151D01*
X145109417Y-69679859D01*
X145268304Y-69594932D01*
X145268306Y-69594931D01*
X145440706Y-69542633D01*
X145575069Y-69529400D01*
X145664931Y-69529400D01*
X145799294Y-69542633D01*
X145799294Y-69542633D01*
G37*
G36*
X219246142Y-69634242D02*
X219394102Y-69695530D01*
X219412407Y-69707761D01*
X219527257Y-69784501D01*
X219640499Y-69897743D01*
X219644613Y-69903900D01*
X219729470Y-70030898D01*
X219790758Y-70178858D01*
X219822000Y-70335925D01*
X219822000Y-70496075D01*
X219790758Y-70653142D01*
X219729470Y-70801102D01*
X219713486Y-70825023D01*
X219640499Y-70934257D01*
X219527257Y-71047499D01*
X219492447Y-71070758D01*
X219394102Y-71136470D01*
X219246142Y-71197758D01*
X219089075Y-71229000D01*
X218928925Y-71229000D01*
X218771858Y-71197758D01*
X218623898Y-71136470D01*
X218525553Y-71070758D01*
X218490743Y-71047499D01*
X218377501Y-70934257D01*
X218304514Y-70825023D01*
X218288530Y-70801102D01*
X218227242Y-70653142D01*
X218196000Y-70496075D01*
X218196000Y-70335925D01*
X218227242Y-70178858D01*
X218288530Y-70030898D01*
X218373387Y-69903900D01*
X218377501Y-69897743D01*
X218490743Y-69784501D01*
X218605593Y-69707761D01*
X218623898Y-69695530D01*
X218771858Y-69634242D01*
X218928925Y-69603000D01*
X219089075Y-69603000D01*
X219246142Y-69634242D01*
X219246142Y-69634242D01*
G37*
G36*
X200704142Y-69507242D02*
X200852102Y-69568530D01*
X200869482Y-69580143D01*
X200985257Y-69657501D01*
X201098499Y-69770743D01*
X201142683Y-69836870D01*
X201187470Y-69903898D01*
X201248758Y-70051858D01*
X201280000Y-70208925D01*
X201280000Y-70369075D01*
X201248758Y-70526142D01*
X201208516Y-70623293D01*
X201187471Y-70674100D01*
X201098499Y-70807257D01*
X200985257Y-70920499D01*
X200964665Y-70934258D01*
X200852102Y-71009470D01*
X200704142Y-71070758D01*
X200547075Y-71102000D01*
X200386925Y-71102000D01*
X200229858Y-71070758D01*
X200081898Y-71009470D01*
X199969335Y-70934258D01*
X199948743Y-70920499D01*
X199835501Y-70807257D01*
X199746529Y-70674100D01*
X199725484Y-70623293D01*
X199685242Y-70526142D01*
X199654000Y-70369075D01*
X199654000Y-70208925D01*
X199685242Y-70051858D01*
X199746530Y-69903898D01*
X199791317Y-69836870D01*
X199835501Y-69770743D01*
X199948743Y-69657501D01*
X200064518Y-69580143D01*
X200081898Y-69568530D01*
X200229858Y-69507242D01*
X200386925Y-69476000D01*
X200547075Y-69476000D01*
X200704142Y-69507242D01*
X200704142Y-69507242D01*
G37*
G36*
X124433821Y-69196313D02*
X124433824Y-69196314D01*
X124433825Y-69196314D01*
X124594239Y-69244975D01*
X124594241Y-69244976D01*
X124594244Y-69244977D01*
X124742078Y-69323995D01*
X124871659Y-69430341D01*
X124978005Y-69559922D01*
X125057023Y-69707756D01*
X125057024Y-69707759D01*
X125057025Y-69707761D01*
X125080304Y-69784502D01*
X125105687Y-69868179D01*
X125122117Y-70035000D01*
X125105687Y-70201821D01*
X125105686Y-70201824D01*
X125105686Y-70201825D01*
X125067715Y-70327000D01*
X125057023Y-70362244D01*
X124978005Y-70510078D01*
X124871659Y-70639659D01*
X124742078Y-70746005D01*
X124594244Y-70825023D01*
X124594241Y-70825024D01*
X124594239Y-70825025D01*
X124433825Y-70873686D01*
X124433824Y-70873686D01*
X124433821Y-70873687D01*
X124308804Y-70886000D01*
X124225196Y-70886000D01*
X124100179Y-70873687D01*
X124100176Y-70873686D01*
X124100175Y-70873686D01*
X123939761Y-70825025D01*
X123939759Y-70825024D01*
X123939756Y-70825023D01*
X123791922Y-70746005D01*
X123662341Y-70639659D01*
X123555995Y-70510078D01*
X123476977Y-70362244D01*
X123466286Y-70327000D01*
X123428314Y-70201825D01*
X123428314Y-70201824D01*
X123428313Y-70201821D01*
X123411883Y-70035000D01*
X123428313Y-69868179D01*
X123453696Y-69784502D01*
X123476975Y-69707761D01*
X123476976Y-69707759D01*
X123476977Y-69707756D01*
X123555995Y-69559922D01*
X123662341Y-69430341D01*
X123791922Y-69323995D01*
X123939756Y-69244977D01*
X123939759Y-69244976D01*
X123939761Y-69244975D01*
X124100175Y-69196314D01*
X124100176Y-69196314D01*
X124100179Y-69196313D01*
X124225196Y-69184000D01*
X124308804Y-69184000D01*
X124433821Y-69196313D01*
X124433821Y-69196313D01*
G37*
G36*
X130198000Y-70886000D02*
X128496000Y-70886000D01*
X128496000Y-69184000D01*
X130198000Y-69184000D01*
X130198000Y-70886000D01*
X130198000Y-70886000D01*
G37*
G36*
X121893821Y-69196313D02*
X121893824Y-69196314D01*
X121893825Y-69196314D01*
X122054239Y-69244975D01*
X122054241Y-69244976D01*
X122054244Y-69244977D01*
X122202078Y-69323995D01*
X122331659Y-69430341D01*
X122438005Y-69559922D01*
X122517023Y-69707756D01*
X122517024Y-69707759D01*
X122517025Y-69707761D01*
X122540304Y-69784502D01*
X122565687Y-69868179D01*
X122582117Y-70035000D01*
X122565687Y-70201821D01*
X122565686Y-70201824D01*
X122565686Y-70201825D01*
X122527715Y-70327000D01*
X122517023Y-70362244D01*
X122438005Y-70510078D01*
X122331659Y-70639659D01*
X122202078Y-70746005D01*
X122054244Y-70825023D01*
X122054241Y-70825024D01*
X122054239Y-70825025D01*
X121893825Y-70873686D01*
X121893824Y-70873686D01*
X121893821Y-70873687D01*
X121768804Y-70886000D01*
X121685196Y-70886000D01*
X121560179Y-70873687D01*
X121560176Y-70873686D01*
X121560175Y-70873686D01*
X121399761Y-70825025D01*
X121399759Y-70825024D01*
X121399756Y-70825023D01*
X121251922Y-70746005D01*
X121122341Y-70639659D01*
X121015995Y-70510078D01*
X120936977Y-70362244D01*
X120926286Y-70327000D01*
X120888314Y-70201825D01*
X120888314Y-70201824D01*
X120888313Y-70201821D01*
X120871883Y-70035000D01*
X120888313Y-69868179D01*
X120913696Y-69784502D01*
X120936975Y-69707761D01*
X120936976Y-69707759D01*
X120936977Y-69707756D01*
X121015995Y-69559922D01*
X121122341Y-69430341D01*
X121251922Y-69323995D01*
X121399756Y-69244977D01*
X121399759Y-69244976D01*
X121399761Y-69244975D01*
X121560175Y-69196314D01*
X121560176Y-69196314D01*
X121560179Y-69196313D01*
X121685196Y-69184000D01*
X121768804Y-69184000D01*
X121893821Y-69196313D01*
X121893821Y-69196313D01*
G37*
G36*
X126973821Y-69196313D02*
X126973824Y-69196314D01*
X126973825Y-69196314D01*
X127134239Y-69244975D01*
X127134241Y-69244976D01*
X127134244Y-69244977D01*
X127282078Y-69323995D01*
X127411659Y-69430341D01*
X127518005Y-69559922D01*
X127597023Y-69707756D01*
X127597024Y-69707759D01*
X127597025Y-69707761D01*
X127620304Y-69784502D01*
X127645687Y-69868179D01*
X127662117Y-70035000D01*
X127645687Y-70201821D01*
X127645686Y-70201824D01*
X127645686Y-70201825D01*
X127607715Y-70327000D01*
X127597023Y-70362244D01*
X127518005Y-70510078D01*
X127411659Y-70639659D01*
X127282078Y-70746005D01*
X127134244Y-70825023D01*
X127134241Y-70825024D01*
X127134239Y-70825025D01*
X126973825Y-70873686D01*
X126973824Y-70873686D01*
X126973821Y-70873687D01*
X126848804Y-70886000D01*
X126765196Y-70886000D01*
X126640179Y-70873687D01*
X126640176Y-70873686D01*
X126640175Y-70873686D01*
X126479761Y-70825025D01*
X126479759Y-70825024D01*
X126479756Y-70825023D01*
X126331922Y-70746005D01*
X126202341Y-70639659D01*
X126095995Y-70510078D01*
X126016977Y-70362244D01*
X126006286Y-70327000D01*
X125968314Y-70201825D01*
X125968314Y-70201824D01*
X125968313Y-70201821D01*
X125951883Y-70035000D01*
X125968313Y-69868179D01*
X125993696Y-69784502D01*
X126016975Y-69707761D01*
X126016976Y-69707759D01*
X126016977Y-69707756D01*
X126095995Y-69559922D01*
X126202341Y-69430341D01*
X126331922Y-69323995D01*
X126479756Y-69244977D01*
X126479759Y-69244976D01*
X126479761Y-69244975D01*
X126640175Y-69196314D01*
X126640176Y-69196314D01*
X126640179Y-69196313D01*
X126765196Y-69184000D01*
X126848804Y-69184000D01*
X126973821Y-69196313D01*
X126973821Y-69196313D01*
G37*
G36*
X116025562Y-68804181D02*
X116060477Y-68814773D01*
X116092665Y-68831978D01*
X116120873Y-68855127D01*
X116144022Y-68883335D01*
X116161227Y-68915523D01*
X116171819Y-68950438D01*
X116176000Y-68992895D01*
X116176000Y-70134105D01*
X116171819Y-70176562D01*
X116161227Y-70211477D01*
X116144022Y-70243665D01*
X116120873Y-70271873D01*
X116092665Y-70295022D01*
X116060477Y-70312227D01*
X116025562Y-70322819D01*
X115983105Y-70327000D01*
X114516895Y-70327000D01*
X114474438Y-70322819D01*
X114439523Y-70312227D01*
X114407335Y-70295022D01*
X114379127Y-70271873D01*
X114355978Y-70243665D01*
X114338773Y-70211477D01*
X114328181Y-70176562D01*
X114324000Y-70134105D01*
X114324000Y-68992895D01*
X114328181Y-68950438D01*
X114338773Y-68915523D01*
X114355978Y-68883335D01*
X114379127Y-68855127D01*
X114407335Y-68831978D01*
X114439523Y-68814773D01*
X114474438Y-68804181D01*
X114516895Y-68800000D01*
X115983105Y-68800000D01*
X116025562Y-68804181D01*
X116025562Y-68804181D01*
G37*
G36*
X180337142Y-68561242D02*
X180485102Y-68622530D01*
X180537823Y-68657757D01*
X180584582Y-68689000D01*
X180618258Y-68711502D01*
X180731498Y-68824742D01*
X180820470Y-68957898D01*
X180881758Y-69105858D01*
X180913000Y-69262925D01*
X180913000Y-69423075D01*
X180881758Y-69580142D01*
X180820470Y-69728102D01*
X180731498Y-69861258D01*
X180618258Y-69974498D01*
X180485102Y-70063470D01*
X180337142Y-70124758D01*
X180180075Y-70156000D01*
X180019925Y-70156000D01*
X179862858Y-70124758D01*
X179714898Y-70063470D01*
X179581742Y-69974498D01*
X179468502Y-69861258D01*
X179379530Y-69728102D01*
X179318242Y-69580142D01*
X179287000Y-69423075D01*
X179287000Y-69262925D01*
X179318242Y-69105858D01*
X179379530Y-68957898D01*
X179468502Y-68824742D01*
X179581742Y-68711502D01*
X179615419Y-68689000D01*
X179662177Y-68657757D01*
X179714898Y-68622530D01*
X179862858Y-68561242D01*
X180019925Y-68530000D01*
X180180075Y-68530000D01*
X180337142Y-68561242D01*
X180337142Y-68561242D01*
G37*
G36*
X185337142Y-68561242D02*
X185485102Y-68622530D01*
X185537823Y-68657757D01*
X185584582Y-68689000D01*
X185618258Y-68711502D01*
X185731498Y-68824742D01*
X185820470Y-68957898D01*
X185881758Y-69105858D01*
X185913000Y-69262925D01*
X185913000Y-69423075D01*
X185881758Y-69580142D01*
X185820470Y-69728102D01*
X185731498Y-69861258D01*
X185618258Y-69974498D01*
X185485102Y-70063470D01*
X185337142Y-70124758D01*
X185180075Y-70156000D01*
X185019925Y-70156000D01*
X184862858Y-70124758D01*
X184714898Y-70063470D01*
X184581742Y-69974498D01*
X184468502Y-69861258D01*
X184379530Y-69728102D01*
X184318242Y-69580142D01*
X184287000Y-69423075D01*
X184287000Y-69262925D01*
X184318242Y-69105858D01*
X184379530Y-68957898D01*
X184468502Y-68824742D01*
X184581742Y-68711502D01*
X184615419Y-68689000D01*
X184662177Y-68657757D01*
X184714898Y-68622530D01*
X184862858Y-68561242D01*
X185019925Y-68530000D01*
X185180075Y-68530000D01*
X185337142Y-68561242D01*
X185337142Y-68561242D01*
G37*
G36*
X190337142Y-68561242D02*
X190485102Y-68622530D01*
X190537823Y-68657757D01*
X190584582Y-68689000D01*
X190618258Y-68711502D01*
X190731498Y-68824742D01*
X190820470Y-68957898D01*
X190881758Y-69105858D01*
X190913000Y-69262925D01*
X190913000Y-69423075D01*
X190881758Y-69580142D01*
X190820470Y-69728102D01*
X190731498Y-69861258D01*
X190618258Y-69974498D01*
X190485102Y-70063470D01*
X190337142Y-70124758D01*
X190180075Y-70156000D01*
X190019925Y-70156000D01*
X189862858Y-70124758D01*
X189714898Y-70063470D01*
X189581742Y-69974498D01*
X189468502Y-69861258D01*
X189379530Y-69728102D01*
X189318242Y-69580142D01*
X189287000Y-69423075D01*
X189287000Y-69262925D01*
X189318242Y-69105858D01*
X189379530Y-68957898D01*
X189468502Y-68824742D01*
X189581742Y-68711502D01*
X189615419Y-68689000D01*
X189662177Y-68657757D01*
X189714898Y-68622530D01*
X189862858Y-68561242D01*
X190019925Y-68530000D01*
X190180075Y-68530000D01*
X190337142Y-68561242D01*
X190337142Y-68561242D01*
G37*
G36*
X161039294Y-67002633D02*
X161211694Y-67054931D01*
X161211696Y-67054932D01*
X161370583Y-67139859D01*
X161509849Y-67254151D01*
X161624141Y-67393417D01*
X161687449Y-67511858D01*
X161709069Y-67552306D01*
X161761367Y-67724706D01*
X161779025Y-67904000D01*
X161761367Y-68083294D01*
X161709069Y-68255694D01*
X161709068Y-68255696D01*
X161624141Y-68414583D01*
X161509849Y-68553849D01*
X161370583Y-68668141D01*
X161289462Y-68711501D01*
X161211694Y-68753069D01*
X161039294Y-68805367D01*
X160904931Y-68818600D01*
X160815069Y-68818600D01*
X160680706Y-68805367D01*
X160508306Y-68753069D01*
X160430538Y-68711501D01*
X160349417Y-68668141D01*
X160210151Y-68553849D01*
X160095859Y-68414583D01*
X160010932Y-68255696D01*
X160010931Y-68255694D01*
X159958633Y-68083294D01*
X159940975Y-67904000D01*
X159958633Y-67724706D01*
X160010931Y-67552306D01*
X160032551Y-67511858D01*
X160095859Y-67393417D01*
X160210151Y-67254151D01*
X160349417Y-67139859D01*
X160508304Y-67054932D01*
X160508306Y-67054931D01*
X160680706Y-67002633D01*
X160815069Y-66989400D01*
X160904931Y-66989400D01*
X161039294Y-67002633D01*
X161039294Y-67002633D01*
G37*
G36*
X145799294Y-67002633D02*
X145971694Y-67054931D01*
X145971696Y-67054932D01*
X146130583Y-67139859D01*
X146269849Y-67254151D01*
X146384141Y-67393417D01*
X146447449Y-67511858D01*
X146469069Y-67552306D01*
X146521367Y-67724706D01*
X146539025Y-67904000D01*
X146521367Y-68083294D01*
X146469069Y-68255694D01*
X146469068Y-68255696D01*
X146384141Y-68414583D01*
X146269849Y-68553849D01*
X146130583Y-68668141D01*
X146049462Y-68711501D01*
X145971694Y-68753069D01*
X145799294Y-68805367D01*
X145664931Y-68818600D01*
X145575069Y-68818600D01*
X145440706Y-68805367D01*
X145268306Y-68753069D01*
X145190538Y-68711501D01*
X145109417Y-68668141D01*
X144970151Y-68553849D01*
X144855859Y-68414583D01*
X144770932Y-68255696D01*
X144770931Y-68255694D01*
X144718633Y-68083294D01*
X144700975Y-67904000D01*
X144718633Y-67724706D01*
X144770931Y-67552306D01*
X144792551Y-67511858D01*
X144855859Y-67393417D01*
X144970151Y-67254151D01*
X145109417Y-67139859D01*
X145268304Y-67054932D01*
X145268306Y-67054931D01*
X145440706Y-67002633D01*
X145575069Y-66989400D01*
X145664931Y-66989400D01*
X145799294Y-67002633D01*
X145799294Y-67002633D01*
G37*
G36*
X219246142Y-67094242D02*
X219394102Y-67155530D01*
X219461130Y-67200317D01*
X219527257Y-67244501D01*
X219640499Y-67357743D01*
X219644613Y-67363900D01*
X219729470Y-67490898D01*
X219790758Y-67638858D01*
X219822000Y-67795925D01*
X219822000Y-67956075D01*
X219790758Y-68113142D01*
X219729470Y-68261102D01*
X219717359Y-68279227D01*
X219640499Y-68394257D01*
X219527257Y-68507499D01*
X219492447Y-68530758D01*
X219394102Y-68596470D01*
X219246142Y-68657758D01*
X219089075Y-68689000D01*
X218928925Y-68689000D01*
X218771858Y-68657758D01*
X218623898Y-68596470D01*
X218525553Y-68530758D01*
X218490743Y-68507499D01*
X218377501Y-68394257D01*
X218300641Y-68279227D01*
X218288530Y-68261102D01*
X218227242Y-68113142D01*
X218196000Y-67956075D01*
X218196000Y-67795925D01*
X218227242Y-67638858D01*
X218288530Y-67490898D01*
X218373387Y-67363900D01*
X218377501Y-67357743D01*
X218490743Y-67244501D01*
X218556870Y-67200317D01*
X218623898Y-67155530D01*
X218771858Y-67094242D01*
X218928925Y-67063000D01*
X219089075Y-67063000D01*
X219246142Y-67094242D01*
X219246142Y-67094242D01*
G37*
G36*
X200704142Y-66967242D02*
X200852102Y-67028530D01*
X200891614Y-67054931D01*
X200985257Y-67117501D01*
X201098499Y-67230743D01*
X201142683Y-67296870D01*
X201187470Y-67363898D01*
X201248758Y-67511858D01*
X201280000Y-67668925D01*
X201280000Y-67829075D01*
X201248758Y-67986142D01*
X201187470Y-68134102D01*
X201142683Y-68201130D01*
X201098499Y-68267257D01*
X200985257Y-68380499D01*
X200964665Y-68394258D01*
X200852102Y-68469470D01*
X200704142Y-68530758D01*
X200547075Y-68562000D01*
X200386925Y-68562000D01*
X200229858Y-68530758D01*
X200081898Y-68469470D01*
X199969335Y-68394258D01*
X199948743Y-68380499D01*
X199835501Y-68267257D01*
X199791317Y-68201130D01*
X199746530Y-68134102D01*
X199685242Y-67986142D01*
X199654000Y-67829075D01*
X199654000Y-67668925D01*
X199685242Y-67511858D01*
X199746530Y-67363898D01*
X199791317Y-67296870D01*
X199835501Y-67230743D01*
X199948743Y-67117501D01*
X200042386Y-67054931D01*
X200081898Y-67028530D01*
X200229858Y-66967242D01*
X200386925Y-66936000D01*
X200547075Y-66936000D01*
X200704142Y-66967242D01*
X200704142Y-66967242D01*
G37*
G36*
X172087562Y-66446181D02*
X172122477Y-66456773D01*
X172154665Y-66473978D01*
X172182873Y-66497127D01*
X172206022Y-66525335D01*
X172223227Y-66557523D01*
X172233819Y-66592438D01*
X172238000Y-66634895D01*
X172238000Y-68101105D01*
X172233819Y-68143562D01*
X172223227Y-68178477D01*
X172206022Y-68210665D01*
X172182873Y-68238873D01*
X172154665Y-68262022D01*
X172122477Y-68279227D01*
X172087562Y-68289819D01*
X172045105Y-68294000D01*
X170903895Y-68294000D01*
X170861438Y-68289819D01*
X170826523Y-68279227D01*
X170794335Y-68262022D01*
X170766127Y-68238873D01*
X170742978Y-68210665D01*
X170725773Y-68178477D01*
X170715181Y-68143562D01*
X170711000Y-68101105D01*
X170711000Y-66634895D01*
X170715181Y-66592438D01*
X170725773Y-66557523D01*
X170742978Y-66525335D01*
X170766127Y-66497127D01*
X170794335Y-66473978D01*
X170826523Y-66456773D01*
X170861438Y-66446181D01*
X170903895Y-66442000D01*
X172045105Y-66442000D01*
X172087562Y-66446181D01*
X172087562Y-66446181D01*
G37*
G36*
X139612062Y-66446181D02*
X139646977Y-66456773D01*
X139679165Y-66473978D01*
X139707373Y-66497127D01*
X139730522Y-66525335D01*
X139747727Y-66557523D01*
X139758319Y-66592438D01*
X139762500Y-66634895D01*
X139762500Y-68101105D01*
X139758319Y-68143562D01*
X139747727Y-68178477D01*
X139730522Y-68210665D01*
X139707373Y-68238873D01*
X139679165Y-68262022D01*
X139646977Y-68279227D01*
X139612062Y-68289819D01*
X139569605Y-68294000D01*
X138428395Y-68294000D01*
X138385938Y-68289819D01*
X138351023Y-68279227D01*
X138318835Y-68262022D01*
X138290627Y-68238873D01*
X138267478Y-68210665D01*
X138250273Y-68178477D01*
X138239681Y-68143562D01*
X138235500Y-68101105D01*
X138235500Y-66634895D01*
X138239681Y-66592438D01*
X138250273Y-66557523D01*
X138267478Y-66525335D01*
X138290627Y-66497127D01*
X138318835Y-66473978D01*
X138351023Y-66456773D01*
X138385938Y-66446181D01*
X138428395Y-66442000D01*
X139569605Y-66442000D01*
X139612062Y-66446181D01*
X139612062Y-66446181D01*
G37*
G36*
X136637062Y-66446181D02*
X136671977Y-66456773D01*
X136704165Y-66473978D01*
X136732373Y-66497127D01*
X136755522Y-66525335D01*
X136772727Y-66557523D01*
X136783319Y-66592438D01*
X136787500Y-66634895D01*
X136787500Y-68101105D01*
X136783319Y-68143562D01*
X136772727Y-68178477D01*
X136755522Y-68210665D01*
X136732373Y-68238873D01*
X136704165Y-68262022D01*
X136671977Y-68279227D01*
X136637062Y-68289819D01*
X136594605Y-68294000D01*
X135453395Y-68294000D01*
X135410938Y-68289819D01*
X135376023Y-68279227D01*
X135343835Y-68262022D01*
X135315627Y-68238873D01*
X135292478Y-68210665D01*
X135275273Y-68178477D01*
X135264681Y-68143562D01*
X135260500Y-68101105D01*
X135260500Y-66634895D01*
X135264681Y-66592438D01*
X135275273Y-66557523D01*
X135292478Y-66525335D01*
X135315627Y-66497127D01*
X135343835Y-66473978D01*
X135376023Y-66456773D01*
X135410938Y-66446181D01*
X135453395Y-66442000D01*
X136594605Y-66442000D01*
X136637062Y-66446181D01*
X136637062Y-66446181D01*
G37*
G36*
X169112562Y-66446181D02*
X169147477Y-66456773D01*
X169179665Y-66473978D01*
X169207873Y-66497127D01*
X169231022Y-66525335D01*
X169248227Y-66557523D01*
X169258819Y-66592438D01*
X169263000Y-66634895D01*
X169263000Y-68101105D01*
X169258819Y-68143562D01*
X169248227Y-68178477D01*
X169231022Y-68210665D01*
X169207873Y-68238873D01*
X169179665Y-68262022D01*
X169147477Y-68279227D01*
X169112562Y-68289819D01*
X169070105Y-68294000D01*
X167928895Y-68294000D01*
X167886438Y-68289819D01*
X167851523Y-68279227D01*
X167819335Y-68262022D01*
X167791127Y-68238873D01*
X167767978Y-68210665D01*
X167750773Y-68178477D01*
X167740181Y-68143562D01*
X167736000Y-68101105D01*
X167736000Y-66634895D01*
X167740181Y-66592438D01*
X167750773Y-66557523D01*
X167767978Y-66525335D01*
X167791127Y-66497127D01*
X167819335Y-66473978D01*
X167851523Y-66456773D01*
X167886438Y-66446181D01*
X167928895Y-66442000D01*
X169070105Y-66442000D01*
X169112562Y-66446181D01*
X169112562Y-66446181D01*
G37*
G36*
X161039294Y-64462633D02*
X161211694Y-64514931D01*
X161211696Y-64514932D01*
X161370583Y-64599859D01*
X161370585Y-64599860D01*
X161370584Y-64599860D01*
X161509849Y-64714151D01*
X161624140Y-64853416D01*
X161709069Y-65012306D01*
X161761367Y-65184706D01*
X161779025Y-65364000D01*
X161761367Y-65543294D01*
X161709069Y-65715694D01*
X161709068Y-65715696D01*
X161624141Y-65874583D01*
X161509849Y-66013849D01*
X161370583Y-66128141D01*
X161211696Y-66213068D01*
X161211694Y-66213069D01*
X161039294Y-66265367D01*
X160904931Y-66278600D01*
X160815069Y-66278600D01*
X160680706Y-66265367D01*
X160508306Y-66213069D01*
X160508304Y-66213068D01*
X160349417Y-66128141D01*
X160210151Y-66013849D01*
X160095859Y-65874583D01*
X160010932Y-65715696D01*
X160010931Y-65715694D01*
X159958633Y-65543294D01*
X159940975Y-65364000D01*
X159958633Y-65184706D01*
X160010931Y-65012306D01*
X160095860Y-64853416D01*
X160210151Y-64714151D01*
X160349416Y-64599860D01*
X160349415Y-64599860D01*
X160349417Y-64599859D01*
X160508304Y-64514932D01*
X160508306Y-64514931D01*
X160680706Y-64462633D01*
X160815069Y-64449400D01*
X160904931Y-64449400D01*
X161039294Y-64462633D01*
X161039294Y-64462633D01*
G37*
G36*
X145799294Y-64462633D02*
X145971694Y-64514931D01*
X145971696Y-64514932D01*
X146130583Y-64599859D01*
X146130585Y-64599860D01*
X146130584Y-64599860D01*
X146269849Y-64714151D01*
X146384140Y-64853416D01*
X146469069Y-65012306D01*
X146521367Y-65184706D01*
X146539025Y-65364000D01*
X146521367Y-65543294D01*
X146469069Y-65715694D01*
X146469068Y-65715696D01*
X146384141Y-65874583D01*
X146269849Y-66013849D01*
X146130583Y-66128141D01*
X145971696Y-66213068D01*
X145971694Y-66213069D01*
X145799294Y-66265367D01*
X145664931Y-66278600D01*
X145575069Y-66278600D01*
X145440706Y-66265367D01*
X145268306Y-66213069D01*
X145268304Y-66213068D01*
X145109417Y-66128141D01*
X144970151Y-66013849D01*
X144855859Y-65874583D01*
X144770932Y-65715696D01*
X144770931Y-65715694D01*
X144718633Y-65543294D01*
X144700975Y-65364000D01*
X144718633Y-65184706D01*
X144770931Y-65012306D01*
X144855860Y-64853416D01*
X144970151Y-64714151D01*
X145109416Y-64599860D01*
X145109415Y-64599860D01*
X145109417Y-64599859D01*
X145268304Y-64514932D01*
X145268306Y-64514931D01*
X145440706Y-64462633D01*
X145575069Y-64449400D01*
X145664931Y-64449400D01*
X145799294Y-64462633D01*
X145799294Y-64462633D01*
G37*
G36*
X161039294Y-61922633D02*
X161211694Y-61974931D01*
X161211696Y-61974932D01*
X161370583Y-62059859D01*
X161509849Y-62174151D01*
X161521215Y-62188000D01*
X161624140Y-62313416D01*
X161709069Y-62472306D01*
X161761367Y-62644706D01*
X161779025Y-62824000D01*
X161761367Y-63003294D01*
X161709069Y-63175694D01*
X161709068Y-63175696D01*
X161624141Y-63334583D01*
X161509849Y-63473849D01*
X161370583Y-63588141D01*
X161211696Y-63673068D01*
X161211694Y-63673069D01*
X161039294Y-63725367D01*
X160904931Y-63738600D01*
X160815069Y-63738600D01*
X160680706Y-63725367D01*
X160508306Y-63673069D01*
X160508304Y-63673068D01*
X160349417Y-63588141D01*
X160210151Y-63473849D01*
X160095859Y-63334583D01*
X160010932Y-63175696D01*
X160010931Y-63175694D01*
X159958633Y-63003294D01*
X159940975Y-62824000D01*
X159958633Y-62644706D01*
X160010931Y-62472306D01*
X160095860Y-62313416D01*
X160198786Y-62188000D01*
X160210151Y-62174151D01*
X160349417Y-62059859D01*
X160508304Y-61974932D01*
X160508306Y-61974931D01*
X160680706Y-61922633D01*
X160815069Y-61909400D01*
X160904931Y-61909400D01*
X161039294Y-61922633D01*
X161039294Y-61922633D01*
G37*
G36*
X145799294Y-61922633D02*
X145971694Y-61974931D01*
X145971696Y-61974932D01*
X146130583Y-62059859D01*
X146269849Y-62174151D01*
X146281215Y-62188000D01*
X146384140Y-62313416D01*
X146469069Y-62472306D01*
X146521367Y-62644706D01*
X146539025Y-62824000D01*
X146521367Y-63003294D01*
X146469069Y-63175694D01*
X146469068Y-63175696D01*
X146384141Y-63334583D01*
X146269849Y-63473849D01*
X146130583Y-63588141D01*
X145971696Y-63673068D01*
X145971694Y-63673069D01*
X145799294Y-63725367D01*
X145664931Y-63738600D01*
X145575069Y-63738600D01*
X145440706Y-63725367D01*
X145268306Y-63673069D01*
X145268304Y-63673068D01*
X145109417Y-63588141D01*
X144970151Y-63473849D01*
X144855859Y-63334583D01*
X144770932Y-63175696D01*
X144770931Y-63175694D01*
X144718633Y-63003294D01*
X144700975Y-62824000D01*
X144718633Y-62644706D01*
X144770931Y-62472306D01*
X144855860Y-62313416D01*
X144958786Y-62188000D01*
X144970151Y-62174151D01*
X145109417Y-62059859D01*
X145268304Y-61974932D01*
X145268306Y-61974931D01*
X145440706Y-61922633D01*
X145575069Y-61909400D01*
X145664931Y-61909400D01*
X145799294Y-61922633D01*
X145799294Y-61922633D01*
G37*
G36*
X172132562Y-60892183D02*
X172167477Y-60902775D01*
X172199665Y-60919980D01*
X172227873Y-60943129D01*
X172251022Y-60971337D01*
X172268227Y-61003525D01*
X172278819Y-61038440D01*
X172283000Y-61080897D01*
X172283000Y-62547107D01*
X172278819Y-62589564D01*
X172268227Y-62624479D01*
X172251022Y-62656667D01*
X172227873Y-62684875D01*
X172199665Y-62708024D01*
X172167477Y-62725229D01*
X172132562Y-62735821D01*
X172090105Y-62740002D01*
X170948895Y-62740002D01*
X170906438Y-62735821D01*
X170871523Y-62725229D01*
X170839335Y-62708024D01*
X170811127Y-62684875D01*
X170787978Y-62656667D01*
X170770773Y-62624479D01*
X170760181Y-62589564D01*
X170756000Y-62547107D01*
X170756000Y-61080897D01*
X170760181Y-61038440D01*
X170770773Y-61003525D01*
X170787978Y-60971337D01*
X170811127Y-60943129D01*
X170839335Y-60919980D01*
X170871523Y-60902775D01*
X170906438Y-60892183D01*
X170948895Y-60888002D01*
X172090105Y-60888002D01*
X172132562Y-60892183D01*
X172132562Y-60892183D01*
G37*
G36*
X169157562Y-60892183D02*
X169192477Y-60902775D01*
X169224665Y-60919980D01*
X169252873Y-60943129D01*
X169276022Y-60971337D01*
X169293227Y-61003525D01*
X169303819Y-61038440D01*
X169308000Y-61080897D01*
X169308000Y-62547107D01*
X169303819Y-62589564D01*
X169293227Y-62624479D01*
X169276022Y-62656667D01*
X169252873Y-62684875D01*
X169224665Y-62708024D01*
X169192477Y-62725229D01*
X169157562Y-62735821D01*
X169115105Y-62740002D01*
X167973895Y-62740002D01*
X167931438Y-62735821D01*
X167896523Y-62725229D01*
X167864335Y-62708024D01*
X167836127Y-62684875D01*
X167812978Y-62656667D01*
X167795773Y-62624479D01*
X167785181Y-62589564D01*
X167781000Y-62547107D01*
X167781000Y-61080897D01*
X167785181Y-61038440D01*
X167795773Y-61003525D01*
X167812978Y-60971337D01*
X167836127Y-60943129D01*
X167864335Y-60919980D01*
X167896523Y-60902775D01*
X167931438Y-60892183D01*
X167973895Y-60888002D01*
X169115105Y-60888002D01*
X169157562Y-60892183D01*
X169157562Y-60892183D01*
G37*
G36*
X139612062Y-60892183D02*
X139646977Y-60902775D01*
X139679165Y-60919980D01*
X139707373Y-60943129D01*
X139730522Y-60971337D01*
X139747727Y-61003525D01*
X139758319Y-61038440D01*
X139762500Y-61080897D01*
X139762500Y-62547107D01*
X139758319Y-62589564D01*
X139747727Y-62624479D01*
X139730522Y-62656667D01*
X139707373Y-62684875D01*
X139679165Y-62708024D01*
X139646977Y-62725229D01*
X139612062Y-62735821D01*
X139569605Y-62740002D01*
X138428395Y-62740002D01*
X138385938Y-62735821D01*
X138351023Y-62725229D01*
X138318835Y-62708024D01*
X138290627Y-62684875D01*
X138267478Y-62656667D01*
X138250273Y-62624479D01*
X138239681Y-62589564D01*
X138235500Y-62547107D01*
X138235500Y-61080897D01*
X138239681Y-61038440D01*
X138250273Y-61003525D01*
X138267478Y-60971337D01*
X138290627Y-60943129D01*
X138318835Y-60919980D01*
X138351023Y-60902775D01*
X138385938Y-60892183D01*
X138428395Y-60888002D01*
X139569605Y-60888002D01*
X139612062Y-60892183D01*
X139612062Y-60892183D01*
G37*
G36*
X136637062Y-60892183D02*
X136671977Y-60902775D01*
X136704165Y-60919980D01*
X136732373Y-60943129D01*
X136755522Y-60971337D01*
X136772727Y-61003525D01*
X136783319Y-61038440D01*
X136787500Y-61080897D01*
X136787500Y-62547107D01*
X136783319Y-62589564D01*
X136772727Y-62624479D01*
X136755522Y-62656667D01*
X136732373Y-62684875D01*
X136704165Y-62708024D01*
X136671977Y-62725229D01*
X136637062Y-62735821D01*
X136594605Y-62740002D01*
X135453395Y-62740002D01*
X135410938Y-62735821D01*
X135376023Y-62725229D01*
X135343835Y-62708024D01*
X135315627Y-62684875D01*
X135292478Y-62656667D01*
X135275273Y-62624479D01*
X135264681Y-62589564D01*
X135260500Y-62547107D01*
X135260500Y-61080897D01*
X135264681Y-61038440D01*
X135275273Y-61003525D01*
X135292478Y-60971337D01*
X135315627Y-60943129D01*
X135343835Y-60919980D01*
X135376023Y-60902775D01*
X135410938Y-60892183D01*
X135453395Y-60888002D01*
X136594605Y-60888002D01*
X136637062Y-60892183D01*
X136637062Y-60892183D01*
G37*
G36*
X130080527Y-59252736D02*
X130180410Y-59272604D01*
X130462674Y-59389521D01*
X130716705Y-59559259D01*
X130932741Y-59775295D01*
X131102479Y-60029326D01*
X131219396Y-60311590D01*
X131219396Y-60311591D01*
X131279000Y-60611238D01*
X131279000Y-60916762D01*
X131252867Y-61048140D01*
X131219396Y-61216410D01*
X131102479Y-61498674D01*
X130932741Y-61752705D01*
X130716705Y-61968741D01*
X130462674Y-62138479D01*
X130180410Y-62255396D01*
X130080527Y-62275264D01*
X129880762Y-62315000D01*
X129575238Y-62315000D01*
X129375473Y-62275264D01*
X129275590Y-62255396D01*
X128993326Y-62138479D01*
X128739295Y-61968741D01*
X128523259Y-61752705D01*
X128353521Y-61498674D01*
X128236604Y-61216410D01*
X128203133Y-61048140D01*
X128177000Y-60916762D01*
X128177000Y-60611238D01*
X128236604Y-60311591D01*
X128236604Y-60311590D01*
X128353521Y-60029326D01*
X128523259Y-59775295D01*
X128739295Y-59559259D01*
X128993326Y-59389521D01*
X129275590Y-59272604D01*
X129375473Y-59252736D01*
X129575238Y-59213000D01*
X129880762Y-59213000D01*
X130080527Y-59252736D01*
X130080527Y-59252736D01*
G37*
G36*
X190532527Y-59252736D02*
X190632410Y-59272604D01*
X190914674Y-59389521D01*
X191168705Y-59559259D01*
X191384741Y-59775295D01*
X191554479Y-60029326D01*
X191671396Y-60311590D01*
X191671396Y-60311591D01*
X191731000Y-60611238D01*
X191731000Y-60916762D01*
X191704867Y-61048140D01*
X191671396Y-61216410D01*
X191554479Y-61498674D01*
X191384741Y-61752705D01*
X191168705Y-61968741D01*
X190914674Y-62138479D01*
X190632410Y-62255396D01*
X190532527Y-62275264D01*
X190332762Y-62315000D01*
X190027238Y-62315000D01*
X189827473Y-62275264D01*
X189727590Y-62255396D01*
X189445326Y-62138479D01*
X189191295Y-61968741D01*
X188975259Y-61752705D01*
X188805521Y-61498674D01*
X188688604Y-61216410D01*
X188655133Y-61048140D01*
X188629000Y-60916762D01*
X188629000Y-60611238D01*
X188688604Y-60311591D01*
X188688604Y-60311590D01*
X188805521Y-60029326D01*
X188975259Y-59775295D01*
X189191295Y-59559259D01*
X189445326Y-59389521D01*
X189727590Y-59272604D01*
X189827473Y-59252736D01*
X190027238Y-59213000D01*
X190332762Y-59213000D01*
X190532527Y-59252736D01*
X190532527Y-59252736D01*
G37*
G36*
X121119000Y-62315000D02*
X118017000Y-62315000D01*
X118017000Y-59213000D01*
X121119000Y-59213000D01*
X121119000Y-62315000D01*
X121119000Y-62315000D01*
G37*
G36*
X125000527Y-59252736D02*
X125100410Y-59272604D01*
X125382674Y-59389521D01*
X125636705Y-59559259D01*
X125852741Y-59775295D01*
X126022479Y-60029326D01*
X126139396Y-60311590D01*
X126139396Y-60311591D01*
X126199000Y-60611238D01*
X126199000Y-60916762D01*
X126172867Y-61048140D01*
X126139396Y-61216410D01*
X126022479Y-61498674D01*
X125852741Y-61752705D01*
X125636705Y-61968741D01*
X125382674Y-62138479D01*
X125100410Y-62255396D01*
X125000527Y-62275264D01*
X124800762Y-62315000D01*
X124495238Y-62315000D01*
X124295473Y-62275264D01*
X124195590Y-62255396D01*
X123913326Y-62138479D01*
X123659295Y-61968741D01*
X123443259Y-61752705D01*
X123273521Y-61498674D01*
X123156604Y-61216410D01*
X123123133Y-61048140D01*
X123097000Y-60916762D01*
X123097000Y-60611238D01*
X123156604Y-60311591D01*
X123156604Y-60311590D01*
X123273521Y-60029326D01*
X123443259Y-59775295D01*
X123659295Y-59559259D01*
X123913326Y-59389521D01*
X124195590Y-59272604D01*
X124295473Y-59252736D01*
X124495238Y-59213000D01*
X124800762Y-59213000D01*
X125000527Y-59252736D01*
X125000527Y-59252736D01*
G37*
G36*
X181571000Y-62315000D02*
X178469000Y-62315000D01*
X178469000Y-59213000D01*
X181571000Y-59213000D01*
X181571000Y-62315000D01*
X181571000Y-62315000D01*
G37*
G36*
X185452527Y-59252736D02*
X185552410Y-59272604D01*
X185834674Y-59389521D01*
X186088705Y-59559259D01*
X186304741Y-59775295D01*
X186474479Y-60029326D01*
X186591396Y-60311590D01*
X186591396Y-60311591D01*
X186651000Y-60611238D01*
X186651000Y-60916762D01*
X186624867Y-61048140D01*
X186591396Y-61216410D01*
X186474479Y-61498674D01*
X186304741Y-61752705D01*
X186088705Y-61968741D01*
X185834674Y-62138479D01*
X185552410Y-62255396D01*
X185452527Y-62275264D01*
X185252762Y-62315000D01*
X184947238Y-62315000D01*
X184747473Y-62275264D01*
X184647590Y-62255396D01*
X184365326Y-62138479D01*
X184111295Y-61968741D01*
X183895259Y-61752705D01*
X183725521Y-61498674D01*
X183608604Y-61216410D01*
X183575133Y-61048140D01*
X183549000Y-60916762D01*
X183549000Y-60611238D01*
X183608604Y-60311591D01*
X183608604Y-60311590D01*
X183725521Y-60029326D01*
X183895259Y-59775295D01*
X184111295Y-59559259D01*
X184365326Y-59389521D01*
X184647590Y-59272604D01*
X184747473Y-59252736D01*
X184947238Y-59213000D01*
X185252762Y-59213000D01*
X185452527Y-59252736D01*
X185452527Y-59252736D01*
G37*
G36*
X209836527Y-59125736D02*
X209936410Y-59145604D01*
X210218674Y-59262521D01*
X210472705Y-59432259D01*
X210688741Y-59648295D01*
X210858479Y-59902326D01*
X210975396Y-60184590D01*
X210975396Y-60184591D01*
X211035000Y-60484238D01*
X211035000Y-60789762D01*
X211012520Y-60902775D01*
X210975396Y-61089410D01*
X210858479Y-61371674D01*
X210688741Y-61625705D01*
X210472705Y-61841741D01*
X210218674Y-62011479D01*
X209936410Y-62128396D01*
X209885719Y-62138479D01*
X209636762Y-62188000D01*
X209331238Y-62188000D01*
X209082281Y-62138479D01*
X209031590Y-62128396D01*
X208749326Y-62011479D01*
X208495295Y-61841741D01*
X208279259Y-61625705D01*
X208109521Y-61371674D01*
X207992604Y-61089410D01*
X207955480Y-60902775D01*
X207933000Y-60789762D01*
X207933000Y-60484238D01*
X207992604Y-60184591D01*
X207992604Y-60184590D01*
X208109521Y-59902326D01*
X208279259Y-59648295D01*
X208495295Y-59432259D01*
X208749326Y-59262521D01*
X209031590Y-59145604D01*
X209131473Y-59125736D01*
X209331238Y-59086000D01*
X209636762Y-59086000D01*
X209836527Y-59125736D01*
X209836527Y-59125736D01*
G37*
G36*
X205955000Y-62188000D02*
X202853000Y-62188000D01*
X202853000Y-59086000D01*
X205955000Y-59086000D01*
X205955000Y-62188000D01*
X205955000Y-62188000D01*
G37*
G36*
X214916527Y-59125736D02*
X215016410Y-59145604D01*
X215298674Y-59262521D01*
X215552705Y-59432259D01*
X215768741Y-59648295D01*
X215938479Y-59902326D01*
X216055396Y-60184590D01*
X216055396Y-60184591D01*
X216115000Y-60484238D01*
X216115000Y-60789762D01*
X216092520Y-60902775D01*
X216055396Y-61089410D01*
X215938479Y-61371674D01*
X215768741Y-61625705D01*
X215552705Y-61841741D01*
X215298674Y-62011479D01*
X215016410Y-62128396D01*
X214965719Y-62138479D01*
X214716762Y-62188000D01*
X214411238Y-62188000D01*
X214162281Y-62138479D01*
X214111590Y-62128396D01*
X213829326Y-62011479D01*
X213575295Y-61841741D01*
X213359259Y-61625705D01*
X213189521Y-61371674D01*
X213072604Y-61089410D01*
X213035480Y-60902775D01*
X213013000Y-60789762D01*
X213013000Y-60484238D01*
X213072604Y-60184591D01*
X213072604Y-60184590D01*
X213189521Y-59902326D01*
X213359259Y-59648295D01*
X213575295Y-59432259D01*
X213829326Y-59262521D01*
X214111590Y-59145604D01*
X214211473Y-59125736D01*
X214411238Y-59086000D01*
X214716762Y-59086000D01*
X214916527Y-59125736D01*
X214916527Y-59125736D01*
G37*
G36*
X110545256Y-58647298D02*
X110651579Y-58668447D01*
X110952042Y-58792903D01*
X111218852Y-58971180D01*
X111222454Y-58973587D01*
X111452413Y-59203546D01*
X111452415Y-59203549D01*
X111633097Y-59473958D01*
X111757553Y-59774421D01*
X111821000Y-60093391D01*
X111821000Y-60418609D01*
X111757553Y-60737579D01*
X111695246Y-60888002D01*
X111647395Y-61003525D01*
X111633097Y-61038042D01*
X111534658Y-61185366D01*
X111452413Y-61308454D01*
X111222454Y-61538413D01*
X111222451Y-61538415D01*
X110952042Y-61719097D01*
X110651579Y-61843553D01*
X110545256Y-61864702D01*
X110332611Y-61907000D01*
X110007389Y-61907000D01*
X109794744Y-61864702D01*
X109688421Y-61843553D01*
X109387958Y-61719097D01*
X109117549Y-61538415D01*
X109117546Y-61538413D01*
X108887587Y-61308454D01*
X108805342Y-61185366D01*
X108706903Y-61038042D01*
X108692606Y-61003525D01*
X108644754Y-60888002D01*
X108582447Y-60737579D01*
X108519000Y-60418609D01*
X108519000Y-60093391D01*
X108582447Y-59774421D01*
X108706903Y-59473958D01*
X108887585Y-59203549D01*
X108887587Y-59203546D01*
X109117546Y-58973587D01*
X109121148Y-58971180D01*
X109387958Y-58792903D01*
X109688421Y-58668447D01*
X109794744Y-58647298D01*
X110007389Y-58605000D01*
X110332611Y-58605000D01*
X110545256Y-58647298D01*
X110545256Y-58647298D01*
G37*
G36*
X224845256Y-58647298D02*
X224951579Y-58668447D01*
X225252042Y-58792903D01*
X225518852Y-58971180D01*
X225522454Y-58973587D01*
X225752413Y-59203546D01*
X225752415Y-59203549D01*
X225933097Y-59473958D01*
X226057553Y-59774421D01*
X226121000Y-60093391D01*
X226121000Y-60418609D01*
X226057553Y-60737579D01*
X225995246Y-60888002D01*
X225947395Y-61003525D01*
X225933097Y-61038042D01*
X225834658Y-61185366D01*
X225752413Y-61308454D01*
X225522454Y-61538413D01*
X225522451Y-61538415D01*
X225252042Y-61719097D01*
X224951579Y-61843553D01*
X224845256Y-61864702D01*
X224632611Y-61907000D01*
X224307389Y-61907000D01*
X224094744Y-61864702D01*
X223988421Y-61843553D01*
X223687958Y-61719097D01*
X223417549Y-61538415D01*
X223417546Y-61538413D01*
X223187587Y-61308454D01*
X223105342Y-61185366D01*
X223006903Y-61038042D01*
X222992606Y-61003525D01*
X222944754Y-60888002D01*
X222882447Y-60737579D01*
X222819000Y-60418609D01*
X222819000Y-60093391D01*
X222882447Y-59774421D01*
X223006903Y-59473958D01*
X223187585Y-59203549D01*
X223187587Y-59203546D01*
X223417546Y-58973587D01*
X223421148Y-58971180D01*
X223687958Y-58792903D01*
X223988421Y-58668447D01*
X224094744Y-58647298D01*
X224307389Y-58605000D01*
X224632611Y-58605000D01*
X224845256Y-58647298D01*
X224845256Y-58647298D01*
G37*
G36*
X161039294Y-59382633D02*
X161211694Y-59434931D01*
X161211696Y-59434932D01*
X161370583Y-59519859D01*
X161509849Y-59634151D01*
X161624141Y-59773417D01*
X161693044Y-59902326D01*
X161709069Y-59932306D01*
X161761367Y-60104706D01*
X161779025Y-60284000D01*
X161761367Y-60463294D01*
X161716487Y-60611240D01*
X161709068Y-60635696D01*
X161624141Y-60794583D01*
X161509849Y-60933849D01*
X161370583Y-61048141D01*
X161293376Y-61089409D01*
X161211694Y-61133069D01*
X161039294Y-61185367D01*
X160904931Y-61198600D01*
X160815069Y-61198600D01*
X160680706Y-61185367D01*
X160508306Y-61133069D01*
X160426624Y-61089409D01*
X160349417Y-61048141D01*
X160210151Y-60933849D01*
X160095859Y-60794583D01*
X160010932Y-60635696D01*
X160003513Y-60611240D01*
X159958633Y-60463294D01*
X159940975Y-60284000D01*
X159958633Y-60104706D01*
X160010931Y-59932306D01*
X160026956Y-59902326D01*
X160095859Y-59773417D01*
X160210151Y-59634151D01*
X160349417Y-59519859D01*
X160508304Y-59434932D01*
X160508306Y-59434931D01*
X160680706Y-59382633D01*
X160815069Y-59369400D01*
X160904931Y-59369400D01*
X161039294Y-59382633D01*
X161039294Y-59382633D01*
G37*
G36*
X145799294Y-59382633D02*
X145971694Y-59434931D01*
X145971696Y-59434932D01*
X146130583Y-59519859D01*
X146269849Y-59634151D01*
X146384141Y-59773417D01*
X146453044Y-59902326D01*
X146469069Y-59932306D01*
X146521367Y-60104706D01*
X146539025Y-60284000D01*
X146521367Y-60463294D01*
X146476487Y-60611240D01*
X146469068Y-60635696D01*
X146384141Y-60794583D01*
X146269849Y-60933849D01*
X146130583Y-61048141D01*
X146053376Y-61089409D01*
X145971694Y-61133069D01*
X145799294Y-61185367D01*
X145664931Y-61198600D01*
X145575069Y-61198600D01*
X145440706Y-61185367D01*
X145268306Y-61133069D01*
X145186624Y-61089409D01*
X145109417Y-61048141D01*
X144970151Y-60933849D01*
X144855859Y-60794583D01*
X144770932Y-60635696D01*
X144763513Y-60611240D01*
X144718633Y-60463294D01*
X144700975Y-60284000D01*
X144718633Y-60104706D01*
X144770931Y-59932306D01*
X144786956Y-59902326D01*
X144855859Y-59773417D01*
X144970151Y-59634151D01*
X145109417Y-59519859D01*
X145268304Y-59434932D01*
X145268306Y-59434931D01*
X145440706Y-59382633D01*
X145575069Y-59369400D01*
X145664931Y-59369400D01*
X145799294Y-59382633D01*
X145799294Y-59382633D01*
G37*
G36*
X161023053Y-57206481D02*
X161073920Y-57227551D01*
X161124786Y-57248620D01*
X161124787Y-57248621D01*
X161216345Y-57309798D01*
X161294202Y-57387655D01*
X161294204Y-57387658D01*
X161355380Y-57479214D01*
X161376449Y-57530080D01*
X161397519Y-57580947D01*
X161419000Y-57688942D01*
X161419000Y-57799058D01*
X161397519Y-57907053D01*
X161376449Y-57957920D01*
X161355380Y-58008786D01*
X161355379Y-58008787D01*
X161294202Y-58100345D01*
X161216345Y-58178202D01*
X161216342Y-58178204D01*
X161124786Y-58239380D01*
X161073920Y-58260449D01*
X161023053Y-58281519D01*
X160915058Y-58303000D01*
X160804942Y-58303000D01*
X160696947Y-58281519D01*
X160646080Y-58260449D01*
X160595214Y-58239380D01*
X160503658Y-58178204D01*
X160503655Y-58178202D01*
X160425798Y-58100345D01*
X160364621Y-58008787D01*
X160364620Y-58008786D01*
X160343551Y-57957920D01*
X160322481Y-57907053D01*
X160301000Y-57799058D01*
X160301000Y-57688942D01*
X160322481Y-57580947D01*
X160343551Y-57530080D01*
X160364620Y-57479214D01*
X160425796Y-57387658D01*
X160425798Y-57387655D01*
X160503655Y-57309798D01*
X160595213Y-57248621D01*
X160595214Y-57248620D01*
X160646080Y-57227551D01*
X160696947Y-57206481D01*
X160804942Y-57185000D01*
X160915058Y-57185000D01*
X161023053Y-57206481D01*
X161023053Y-57206481D01*
G37*
G36*
X145783053Y-57206481D02*
X145833920Y-57227551D01*
X145884786Y-57248620D01*
X145884787Y-57248621D01*
X145976345Y-57309798D01*
X146054202Y-57387655D01*
X146054204Y-57387658D01*
X146115380Y-57479214D01*
X146136449Y-57530080D01*
X146157519Y-57580947D01*
X146179000Y-57688942D01*
X146179000Y-57799058D01*
X146157519Y-57907053D01*
X146136449Y-57957920D01*
X146115380Y-58008786D01*
X146115379Y-58008787D01*
X146054202Y-58100345D01*
X145976345Y-58178202D01*
X145976342Y-58178204D01*
X145884786Y-58239380D01*
X145833920Y-58260449D01*
X145783053Y-58281519D01*
X145675058Y-58303000D01*
X145564942Y-58303000D01*
X145456947Y-58281519D01*
X145406080Y-58260449D01*
X145355214Y-58239380D01*
X145263658Y-58178204D01*
X145263655Y-58178202D01*
X145185798Y-58100345D01*
X145124621Y-58008787D01*
X145124620Y-58008786D01*
X145103551Y-57957920D01*
X145082481Y-57907053D01*
X145061000Y-57799058D01*
X145061000Y-57688942D01*
X145082481Y-57580947D01*
X145103551Y-57530080D01*
X145124620Y-57479214D01*
X145185796Y-57387658D01*
X145185798Y-57387655D01*
X145263655Y-57309798D01*
X145355213Y-57248621D01*
X145355214Y-57248620D01*
X145406080Y-57227551D01*
X145456947Y-57206481D01*
X145564942Y-57185000D01*
X145675058Y-57185000D01*
X145783053Y-57206481D01*
X145783053Y-57206481D01*
G37*
M02*
